<svg width="340" height="56" viewBox="0 0 340 56" fill="none" xmlns="http://www.w3.org/2000/svg">
<rect x="89" y="31" width="232" height="15" fill="#F74264"/>
<path d="M27.4165 42V10.352H33.9485V42H27.4165ZM23.3225 7.04V6.718L27.7385 0.415998H33.6265L38.0885 6.718V7.04H34.0405L30.6825 3.13L27.3245 7.04H23.3225ZM47.8251 42V15.872H38.6711V10.352H63.5111V15.872H54.3571V42H47.8251ZM47.4111 55.984V53.5C48.2391 53.5 48.8677 53.454 49.2971 53.362C49.7264 53.27 50.0177 53.086 50.1711 52.81C50.3551 52.5647 50.4471 52.1967 50.4471 51.706V50.97H47.9171V45.496H54.2651V49.314C54.2651 50.6633 54.1884 51.7673 54.0351 52.626C53.9124 53.5153 53.6057 54.2053 53.1151 54.696C52.6551 55.1867 51.9651 55.524 51.0451 55.708C50.1557 55.892 48.9444 55.984 47.4111 55.984ZM68.2505 42V10.352H74.7825V42H68.2505ZM93.6763 42V10.352H104.44C107.17 10.352 109.393 10.49 111.11 10.766C112.858 11.042 114.223 11.5327 115.204 12.238C116.216 12.9127 116.937 13.8633 117.366 15.09C117.826 16.286 118.118 17.7887 118.24 19.598C118.363 21.4073 118.424 23.6 118.424 26.176C118.424 28.752 118.363 30.9447 118.24 32.754C118.118 34.5633 117.826 36.0813 117.366 37.308C116.937 38.504 116.216 39.4547 115.204 40.16C114.223 40.8347 112.858 41.31 111.11 41.586C109.393 41.862 107.17 42 104.44 42H93.6763ZM100.208 36.664H104.072C105.575 36.664 106.802 36.6333 107.752 36.572C108.734 36.48 109.5 36.2807 110.052 35.974C110.635 35.6673 111.049 35.146 111.294 34.41C111.54 33.6433 111.693 32.6007 111.754 31.282C111.846 29.9633 111.892 28.2613 111.892 26.176C111.892 24.1213 111.846 22.4347 111.754 21.116C111.693 19.7667 111.524 18.724 111.248 17.988C111.003 17.252 110.589 16.7307 110.006 16.424C109.454 16.0867 108.703 15.8873 107.752 15.826C106.802 15.734 105.575 15.688 104.072 15.688H100.208V36.664ZM125.077 42V10.352H146.697V15.688H131.609V23.37H144.535V28.706H131.609V36.664H146.697V42H125.077ZM151.408 42V36.894L166.91 15.688H151.914V10.352H175.144V15.274L159.458 36.71H175.282V42H151.408ZM188.269 42L178.149 10.352H184.865L192.593 35.054H192.823L200.459 10.352H207.037L196.917 42H188.269ZM223.658 42.368C221.082 42.368 218.951 42.2147 217.264 41.908C215.608 41.6013 214.305 41.0953 213.354 40.39C212.403 39.654 211.713 38.6727 211.284 37.446C210.855 36.1887 210.579 34.64 210.456 32.8C210.333 30.96 210.272 28.752 210.272 26.176C210.272 23.6 210.333 21.392 210.456 19.552C210.579 17.712 210.855 16.1787 211.284 14.952C211.713 13.6947 212.403 12.7133 213.354 12.008C214.305 11.272 215.608 10.7507 217.264 10.444C218.951 10.1373 221.082 9.984 223.658 9.984C226.234 9.984 228.35 10.1373 230.006 10.444C231.693 10.7507 233.011 11.272 233.962 12.008C234.913 12.7133 235.603 13.6947 236.032 14.952C236.492 16.1787 236.783 17.712 236.906 19.552C237.029 21.392 237.09 23.6 237.09 26.176C237.09 28.752 237.029 30.96 236.906 32.8C236.783 34.64 236.492 36.1887 236.032 37.446C235.603 38.6727 234.913 39.654 233.962 40.39C233.011 41.0953 231.693 41.6013 230.006 41.908C228.35 42.2147 226.234 42.368 223.658 42.368ZM223.658 37.032C225.007 37.032 226.096 36.986 226.924 36.894C227.783 36.802 228.457 36.5873 228.948 36.25C229.439 35.9127 229.791 35.3607 230.006 34.594C230.251 33.8273 230.405 32.7693 230.466 31.42C230.527 30.0707 230.558 28.3227 230.558 26.176C230.558 24.0293 230.527 22.2813 230.466 20.932C230.405 19.5827 230.251 18.5247 230.006 17.758C229.791 16.9913 229.439 16.4393 228.948 16.102C228.457 15.7647 227.783 15.55 226.924 15.458C226.096 15.366 225.007 15.32 223.658 15.32C222.339 15.32 221.251 15.366 220.392 15.458C219.564 15.55 218.905 15.7647 218.414 16.102C217.923 16.4393 217.555 16.9913 217.31 17.758C217.095 18.5247 216.957 19.5827 216.896 20.932C216.835 22.2813 216.804 24.0293 216.804 26.176C216.804 28.3227 216.835 30.0707 216.896 31.42C216.957 32.7693 217.095 33.8273 217.31 34.594C217.555 35.3607 217.923 35.9127 218.414 36.25C218.905 36.5873 219.564 36.802 220.392 36.894C221.251 36.986 222.339 37.032 223.658 37.032ZM243.715 42V10.352H250.247V36.48H263.495V42H243.715ZM270.233 42V15.872H261.079V10.352H285.919V15.872H276.765V42H270.233ZM285.51 42L296.228 10.352H304.968L315.686 42H309.016L306.67 35.008H294.296L292.042 42H285.51ZM295.952 29.718H304.968L300.598 16.286H300.322L295.952 29.718ZM300.552 7.408C299.019 7.408 297.792 7.23933 296.872 6.902C295.983 6.56466 295.308 6.10466 294.848 5.522C294.419 4.90867 294.128 4.188 293.974 3.36C293.852 2.50133 293.79 1.58133 293.79 0.599998H297.286C297.286 1.30533 297.332 1.90333 297.424 2.394C297.516 2.88466 297.792 3.268 298.252 3.544C298.712 3.82 299.464 3.958 300.506 3.958C301.61 3.958 302.377 3.82 302.806 3.544C303.266 3.268 303.542 2.88466 303.634 2.394C303.757 1.90333 303.818 1.30533 303.818 0.599998H307.36C307.36 1.58133 307.284 2.50133 307.13 3.36C307.008 4.188 306.716 4.90867 306.256 5.522C305.796 6.10466 305.106 6.56466 304.186 6.902C303.266 7.23933 302.055 7.408 300.552 7.408Z" fill="#F1F1F1"/>
</svg>
