<svg width="340" height="51" viewBox="0 0 340 51" fill="none" xmlns="http://www.w3.org/2000/svg">
<path d="M97.0681 42.368C94.4921 42.368 92.3607 42.2147 90.6741 41.908C89.0181 41.6013 87.7147 41.0953 86.7641 40.39C85.8134 39.654 85.1234 38.6727 84.6941 37.446C84.2647 36.1887 83.9887 34.64 83.8661 32.8C83.7434 30.96 83.6821 28.752 83.6821 26.176C83.6821 23.6 83.7434 21.392 83.8661 19.552C83.9887 17.712 84.2647 16.1787 84.6941 14.952C85.1234 13.6947 85.8134 12.7133 86.7641 12.008C87.7147 11.272 89.0181 10.7507 90.6741 10.444C92.3607 10.1373 94.4921 9.984 97.0681 9.984C99.6441 9.984 101.76 10.1373 103.416 10.444C105.103 10.7507 106.421 11.272 107.372 12.008C108.323 12.7133 109.013 13.6947 109.442 14.952C109.902 16.1787 110.193 17.712 110.316 19.552C110.439 21.392 110.5 23.6 110.5 26.176C110.5 28.752 110.439 30.96 110.316 32.8C110.193 34.64 109.902 36.1887 109.442 37.446C109.013 38.6727 108.323 39.654 107.372 40.39C106.421 41.0953 105.103 41.6013 103.416 41.908C101.76 42.2147 99.6441 42.368 97.0681 42.368ZM97.0681 37.032C98.4174 37.032 99.5061 36.986 100.334 36.894C101.193 36.802 101.867 36.5873 102.358 36.25C102.849 35.9127 103.201 35.3607 103.416 34.594C103.661 33.8273 103.815 32.7693 103.876 31.42C103.937 30.0707 103.968 28.3227 103.968 26.176C103.968 24.0293 103.937 22.2813 103.876 20.932C103.815 19.5827 103.661 18.5247 103.416 17.758C103.201 16.9913 102.849 16.4393 102.358 16.102C101.867 15.7647 101.193 15.55 100.334 15.458C99.5061 15.366 98.4174 15.32 97.0681 15.32C95.7494 15.32 94.6607 15.366 93.8021 15.458C92.9741 15.55 92.3147 15.7647 91.8241 16.102C91.3334 16.4393 90.9654 16.9913 90.7201 17.758C90.5054 18.5247 90.3674 19.5827 90.3061 20.932C90.2447 22.2813 90.2141 24.0293 90.2141 26.176C90.2141 28.3227 90.2447 30.0707 90.3061 31.42C90.3674 32.7693 90.5054 33.8273 90.7201 34.594C90.9654 35.3607 91.3334 35.9127 91.8241 36.25C92.3147 36.5873 92.9741 36.802 93.8021 36.894C94.6607 36.986 95.7494 37.032 97.0681 37.032ZM117.126 42V10.352H123.888L136.354 29.856H136.584V10.352H142.84V42H136.63L123.612 21.438H123.382V42H117.126ZM150.368 42V10.352H156.9V36.48H170.148V42H150.368ZM175.12 42V10.352H181.652V42H175.12ZM189.18 42V10.352H195.942L208.408 29.856H208.638V10.352H214.894V42H208.684L195.666 21.438H195.436V42H189.18ZM222.422 42V10.352H244.042V15.688H228.954V23.37H241.88V28.706H228.954V36.664H244.042V42H222.422ZM249.536 42V35.974H256.206V42H249.536Z" fill="#F1F1F1"/>
</svg>
