<svg width="340" height="56" viewBox="0 0 340 56" fill="none" xmlns="http://www.w3.org/2000/svg">
<path d="M56.5933 42V10.352H71.2673C73.23 10.352 74.8246 10.5973 76.0513 11.088C77.3086 11.5787 78.2746 12.284 78.9493 13.204C79.624 14.0933 80.084 15.182 80.3293 16.47C80.6053 17.758 80.7433 19.2147 80.7433 20.84C80.7433 22.3427 80.6206 23.738 80.3753 25.026C80.1606 26.2833 79.716 27.3873 79.0413 28.338C78.3666 29.2887 77.3853 30.0247 76.0973 30.546C74.84 31.0673 73.1686 31.328 71.0833 31.328H63.1253V42H56.5933ZM63.1253 25.992H68.5073C69.826 25.992 70.8686 25.9307 71.6353 25.808C72.402 25.6547 72.9693 25.394 73.3373 25.026C73.7053 24.658 73.9353 24.1367 74.0273 23.462C74.15 22.7873 74.2113 21.9133 74.2113 20.84C74.2113 19.7667 74.15 18.8927 74.0273 18.218C73.9353 17.5433 73.7053 17.022 73.3373 16.654C73 16.2553 72.4633 15.9947 71.7273 15.872C70.9913 15.7187 69.9793 15.642 68.6913 15.642H63.1253V25.992ZM86.3765 42V10.352H101.51C103.565 10.352 105.206 10.582 106.432 11.042C107.69 11.502 108.64 12.1767 109.284 13.066C109.928 13.9247 110.358 14.9827 110.572 16.24C110.818 17.4667 110.94 18.8467 110.94 20.38C110.94 21.4533 110.848 22.6033 110.664 23.83C110.48 25.0567 110.066 26.1913 109.422 27.234C108.809 28.2767 107.828 29.0433 106.478 29.534L111.538 42H104.638L99.8545 29.304L101.464 30.178C101.25 30.27 100.989 30.3313 100.682 30.362C100.406 30.3927 100.084 30.408 99.7165 30.408H92.9085V42H86.3765ZM92.9085 25.118H98.8885C100.176 25.118 101.188 25.0413 101.924 24.888C102.66 24.7347 103.212 24.4893 103.58 24.152C103.948 23.784 104.178 23.3087 104.27 22.726C104.362 22.1127 104.408 21.3307 104.408 20.38C104.408 19.4293 104.362 18.6473 104.27 18.034C104.178 17.4207 103.964 16.9453 103.626 16.608C103.289 16.2707 102.737 16.0253 101.97 15.872C101.234 15.7187 100.222 15.642 98.9345 15.642H92.9085V25.118ZM117.462 42V10.352H139.082V15.688H123.994V23.37H136.92V28.706H123.994V36.664H139.082V42H117.462ZM143.794 42V36.894L159.296 15.688H144.3V10.352H167.53V15.274L151.844 36.71H167.668V42H143.794ZM173.525 42V10.352H195.145V15.688H180.057V23.37H192.983V28.706H180.057V36.664H195.145V42H173.525ZM201.466 42V10.352H208.228L220.694 29.856H220.924V10.352H227.18V42H220.97L207.952 21.438H207.722V42H201.466ZM241.057 42V15.872H231.903V10.352H256.743V15.872H247.589V42H241.057ZM240.643 55.984V53.5C241.471 53.5 242.099 53.454 242.529 53.362C242.958 53.27 243.249 53.086 243.403 52.81C243.587 52.5647 243.679 52.1967 243.679 51.706V50.97H241.149V45.496H247.497V49.314C247.497 50.6633 247.42 51.7673 247.267 52.626C247.144 53.5153 246.837 54.2053 246.347 54.696C245.887 55.1867 245.197 55.524 244.277 55.708C243.387 55.892 242.176 55.984 240.643 55.984ZM256.334 42L267.052 10.352H275.792L286.51 42H279.84L277.494 35.008H265.12L262.866 42H256.334ZM266.776 29.718H275.792L271.422 16.286H271.146L266.776 29.718Z" fill="#F1F1F1"/>
</svg>
