<svg width="340" height="51" viewBox="0 0 340 51" fill="none" xmlns="http://www.w3.org/2000/svg">
<path d="M46.7962 42.368C44.5575 42.368 42.6869 42.23 41.1842 41.954C39.6815 41.678 38.4702 41.2333 37.5502 40.62C36.6302 40.0067 35.9249 39.148 35.4342 38.044C34.9742 36.94 34.6522 35.56 34.4682 33.904C34.3149 32.2173 34.2382 30.2087 34.2382 27.878V10.352H40.7702V29.534C40.7702 31.1593 40.8162 32.478 40.9082 33.49C41.0309 34.4713 41.2609 35.2227 41.5982 35.744C41.9662 36.2653 42.5642 36.618 43.3922 36.802C44.2202 36.9553 45.3549 37.032 46.7962 37.032C48.2375 37.032 49.3569 36.9553 50.1542 36.802C50.9822 36.618 51.5802 36.2653 51.9482 35.744C52.3162 35.2227 52.5462 34.4713 52.6382 33.49C52.7302 32.478 52.7762 31.1593 52.7762 29.534V10.352H59.3082V27.878C59.3082 30.2087 59.2162 32.2173 59.0322 33.904C58.8789 35.56 58.5722 36.94 58.1122 38.044C57.6522 39.148 56.9622 40.0067 56.0422 40.62C55.1222 41.2333 53.9109 41.678 52.4082 41.954C50.9055 42.23 49.0349 42.368 46.7962 42.368ZM66.6333 42V10.352H73.3953L85.8613 29.856H86.0913V10.352H92.3473V42H86.1373L73.1193 21.438H72.8893V42H66.6333ZM116.163 42L108.527 10.352H115.059L120.625 34.41H120.855L126.973 10.352H133.781L139.991 34.41H140.221L145.419 10.352H151.951L144.269 42H136.127L130.331 19.874H130.101L124.305 42H116.163ZM156.747 42V10.352H178.367V15.688H163.279V23.37H176.205V28.706H163.279V36.664H178.367V42H156.747ZM184.688 42V10.352H200.144C202.199 10.352 203.87 10.6587 205.158 11.272C206.477 11.8547 207.443 12.744 208.056 13.94C208.7 15.1053 209.022 16.562 209.022 18.31C209.022 19.7513 208.823 20.978 208.424 21.99C208.025 23.002 207.427 23.8147 206.63 24.428C205.833 25.0413 204.805 25.486 203.548 25.762V25.946C204.959 26.222 206.078 26.682 206.906 27.326C207.765 27.9393 208.378 28.7673 208.746 29.81C209.114 30.822 209.298 32.0947 209.298 33.628C209.298 34.8853 209.145 36.0353 208.838 37.078C208.531 38.09 208.025 38.964 207.32 39.7C206.645 40.436 205.725 41.0033 204.56 41.402C203.395 41.8007 201.938 42 200.19 42H184.688ZM191.22 36.756H198.028C199.255 36.756 200.221 36.6487 200.926 36.434C201.631 36.1887 202.107 35.7747 202.352 35.192C202.628 34.5787 202.766 33.7353 202.766 32.662C202.766 31.6193 202.628 30.8067 202.352 30.224C202.076 29.6107 201.585 29.1813 200.88 28.936C200.205 28.6907 199.255 28.568 198.028 28.568H191.22V36.756ZM191.22 23.416H197.798C198.963 23.416 199.883 23.2933 200.558 23.048C201.263 22.8027 201.754 22.404 202.03 21.852C202.337 21.2693 202.49 20.518 202.49 19.598C202.49 18.5247 202.352 17.712 202.076 17.16C201.831 16.5773 201.371 16.1787 200.696 15.964C200.052 15.7493 199.086 15.642 197.798 15.642H191.22V23.416ZM226.861 42.368C225.696 42.368 224.408 42.3373 222.997 42.276C221.617 42.2147 220.268 42.1227 218.949 42C217.63 41.908 216.419 41.8007 215.315 41.678V36.48C216.45 36.572 217.6 36.664 218.765 36.756C219.961 36.848 221.096 36.9247 222.169 36.986C223.242 37.0167 224.162 37.032 224.929 37.032C226.493 37.032 227.704 36.9707 228.563 36.848C229.422 36.6947 230.066 36.48 230.495 36.204C230.832 35.9587 231.062 35.698 231.185 35.422C231.308 35.1153 231.384 34.7627 231.415 34.364C231.446 33.9347 231.461 33.4593 231.461 32.938C231.461 32.2327 231.415 31.65 231.323 31.19C231.262 30.73 231.139 30.3773 230.955 30.132C230.771 29.856 230.464 29.6567 230.035 29.534C229.636 29.4113 229.115 29.3193 228.471 29.258L221.387 28.384C219.976 28.2 218.811 27.878 217.891 27.418C217.002 26.958 216.296 26.3447 215.775 25.578C215.254 24.8113 214.886 23.9067 214.671 22.864C214.487 21.8213 214.395 20.6407 214.395 19.322C214.395 17.2367 214.686 15.5807 215.269 14.354C215.852 13.1273 216.664 12.192 217.707 11.548C218.78 10.904 220.038 10.49 221.479 10.306C222.92 10.0913 224.484 9.984 226.171 9.984C227.398 9.984 228.655 10.03 229.943 10.122C231.231 10.1833 232.442 10.2753 233.577 10.398C234.712 10.5207 235.662 10.674 236.429 10.858V15.918C235.662 15.7953 234.773 15.688 233.761 15.596C232.749 15.504 231.691 15.4427 230.587 15.412C229.483 15.3507 228.44 15.32 227.459 15.32C226.018 15.32 224.868 15.3813 224.009 15.504C223.181 15.596 222.537 15.7647 222.077 16.01C221.556 16.3167 221.234 16.7153 221.111 17.206C221.019 17.6967 220.973 18.31 220.973 19.046C220.973 19.966 221.034 20.6713 221.157 21.162C221.28 21.622 221.571 21.944 222.031 22.128C222.491 22.312 223.212 22.4653 224.193 22.588L231.277 23.416C232.136 23.508 232.933 23.6613 233.669 23.876C234.405 24.0907 235.064 24.428 235.647 24.888C236.23 25.348 236.705 25.992 237.073 26.82C237.288 27.2493 237.456 27.7553 237.579 28.338C237.702 28.89 237.794 29.5187 237.855 30.224C237.947 30.9293 237.993 31.7113 237.993 32.57C237.993 34.3487 237.809 35.836 237.441 37.032C237.104 38.228 236.613 39.1787 235.969 39.884C235.325 40.5893 234.528 41.126 233.577 41.494C232.657 41.862 231.63 42.092 230.495 42.184C229.36 42.3067 228.149 42.368 226.861 42.368ZM244.254 42V10.352H250.786V42H244.254ZM264.663 42V15.872H255.509V10.352H280.349V15.872H271.195V42H264.663ZM285.088 42V10.352H306.708V15.688H291.62V23.37H304.546V28.706H291.62V36.664H306.708V42H285.088Z" fill="#F1F1F1"/>
</svg>
