<svg width="340" height="102" viewBox="0 0 340 102" fill="none" xmlns="http://www.w3.org/2000/svg">
<path d="M42.1985 12.146H52.4105L59.7705 33.49L67.0385 12.146H76.6525V42H70.1665V19.92H70.0285L62.4845 42H56.7345L48.9605 19.92H48.7765V42H42.1985V12.146ZM83.0774 12.146H90.2534V23.094H94.0254C96.7548 23.094 98.9628 23.232 100.649 23.508C102.336 23.784 103.67 24.382 104.651 25.302C105.633 26.1913 106.123 27.5253 106.123 29.304V34.916C106.123 39.6387 102.106 42 94.0714 42H83.0774V12.146ZM110.677 12.146H117.853V42H110.677V12.146ZM93.7494 36.894C95.5588 36.894 96.8774 36.6487 97.7054 36.158C98.5334 35.6367 98.9474 34.8547 98.9474 33.812V30.638C98.9474 29.6873 98.5488 29.0433 97.7514 28.706C96.9541 28.3687 95.6508 28.2 93.8414 28.2H90.2074V36.894H93.7494ZM148.395 42.46C146.739 42.46 145.206 42.3527 143.795 42.138C142.415 41.9233 140.974 41.5553 139.471 41.034C137.846 40.482 136.573 39.5927 135.653 38.366C134.733 37.1087 134.273 35.5907 134.273 33.812V20.748C134.273 19.276 134.595 17.9573 135.239 16.792C135.914 15.6267 136.773 14.7067 137.815 14.032C138.735 13.4493 139.87 12.9587 141.219 12.56C142.569 12.1613 143.826 11.916 144.991 11.824C146.065 11.732 147.199 11.686 148.395 11.686C149.806 11.686 151.033 11.7473 152.075 11.87C153.118 11.962 154.283 12.1767 155.571 12.514C157.043 12.9433 158.255 13.4647 159.205 14.078C160.156 14.6913 160.953 15.55 161.597 16.654C162.272 17.7887 162.609 19.1533 162.609 20.748V33.812C162.609 35.468 162.165 36.894 161.275 38.09C160.417 39.286 159.221 40.1907 157.687 40.804C154.927 41.908 151.83 42.46 148.395 42.46ZM148.487 37.354C149.499 37.354 150.343 37.3233 151.017 37.262C151.723 37.17 152.443 37.0167 153.179 36.802C153.915 36.5873 154.467 36.2347 154.835 35.744C155.234 35.2227 155.433 34.5787 155.433 33.812V20.702C155.433 19.2913 154.866 18.2947 153.731 17.712C152.597 17.0987 150.833 16.792 148.441 16.792C146.049 16.792 144.286 17.0833 143.151 17.666C142.017 18.2487 141.449 19.2607 141.449 20.702V33.812C141.449 34.5787 141.649 35.2227 142.047 35.744C142.446 36.2347 143.029 36.5873 143.795 36.802C144.531 37.0167 145.237 37.17 145.911 37.262C146.617 37.3233 147.475 37.354 148.487 37.354ZM168.384 12.146H175.56V23.922C176.909 23.922 177.998 23.6767 178.826 23.186C179.654 22.6647 180.559 21.6833 181.54 20.242L187.152 12.146H195.202L188.762 21.116C187.781 22.496 186.876 23.554 186.048 24.29C185.251 24.9953 184.254 25.578 183.058 26.038V26.13C184.591 26.498 185.864 27.1573 186.876 28.108C187.919 29.0587 188.931 30.4387 189.912 32.248L195.202 42H187.152L182.276 33.214C181.632 32.0487 181.003 31.1747 180.39 30.592C179.807 29.9787 179.148 29.5647 178.412 29.35C177.676 29.1353 176.725 29.028 175.56 29.028V42H168.384V12.146ZM206.439 12.146H215.179L225.943 42H218.675L216.007 34.134H205.105L202.483 42H195.399L206.439 12.146ZM214.443 29.35L210.671 18.126H210.487L206.715 29.35H214.443ZM231.553 32.248C232.535 30.4387 233.531 29.0587 234.543 28.108C235.586 27.1573 236.874 26.498 238.407 26.13V26.038C237.211 25.578 236.261 25.0107 235.555 24.336C234.85 23.6307 234.037 22.5573 233.117 21.116L227.413 12.146H235.371L240.293 20.242C241.213 21.7447 241.98 22.7567 242.593 23.278C243.237 23.7993 244.05 24.06 245.031 24.06V12.146H252.069V24.06C253.051 24.06 253.848 23.7993 254.461 23.278C255.105 22.7567 255.887 21.7447 256.807 20.242L261.729 12.146H269.687L263.983 21.116C263.063 22.5573 262.251 23.6307 261.545 24.336C260.84 25.0107 259.889 25.578 258.693 26.038V26.13C260.227 26.498 261.499 27.1573 262.511 28.108C263.554 29.0587 264.566 30.4387 265.547 32.248L270.837 42H262.879L258.003 33.214C257.298 31.926 256.715 31.006 256.255 30.454C255.795 29.8713 255.259 29.4727 254.645 29.258C254.032 29.0127 253.173 28.89 252.069 28.89V42H245.031V28.89C243.927 28.89 243.069 29.0127 242.455 29.258C241.842 29.4727 241.305 29.8713 240.845 30.454C240.385 31.006 239.803 31.926 239.097 33.214L234.221 42H226.263L231.553 32.248ZM274.265 12.146H297.035V17.252H281.441V24.106H295.517V29.212H281.441V36.894H297.495V42H274.265V12.146ZM302.341 12.146H312.553L319.913 33.49L327.181 12.146H336.795V42H330.309V19.92H330.171L322.627 42H316.877L309.103 19.92H308.919V42H302.341V12.146ZM115.152 63.146H141.464V93H134.288V68.206H122.328V93H115.152V63.146ZM179.704 63.146H189.916L197.276 84.49L204.544 63.146H214.158V93H207.672V70.92H207.534L199.99 93H194.24L186.466 70.92H186.282V93H179.704V63.146ZM234.061 93.46C232.405 93.46 230.872 93.3527 229.461 93.138C228.081 92.9233 226.64 92.5553 225.137 92.034C223.512 91.482 222.239 90.5927 221.319 89.366C220.399 88.1087 219.939 86.5907 219.939 84.812V71.748C219.939 70.276 220.261 68.9573 220.905 67.792C221.58 66.6267 222.439 65.7067 223.481 65.032C224.401 64.4493 225.536 63.9587 226.885 63.56C228.235 63.1613 229.492 62.916 230.657 62.824C231.731 62.732 232.865 62.686 234.061 62.686C235.472 62.686 236.699 62.7473 237.741 62.87C238.784 62.962 239.949 63.1767 241.237 63.514C242.709 63.9433 243.921 64.4647 244.871 65.078C245.822 65.6913 246.619 66.55 247.263 67.654C247.938 68.7887 248.275 70.1533 248.275 71.748V84.812C248.275 86.468 247.831 87.894 246.941 89.09C246.083 90.286 244.887 91.1907 243.353 91.804C240.593 92.908 237.496 93.46 234.061 93.46ZM234.153 88.354C235.165 88.354 236.009 88.3233 236.683 88.262C237.389 88.17 238.109 88.0167 238.845 87.802C239.581 87.5873 240.133 87.2347 240.501 86.744C240.9 86.2227 241.099 85.5787 241.099 84.812V71.702C241.099 70.2913 240.532 69.2947 239.397 68.712C238.263 68.0987 236.499 67.792 234.107 67.792C231.715 67.792 229.952 68.0833 228.817 68.666C227.683 69.2487 227.115 70.2607 227.115 71.702V84.812C227.115 85.5787 227.315 86.2227 227.713 86.744C228.112 87.2347 228.695 87.5873 229.461 87.802C230.197 88.0167 230.903 88.17 231.577 88.262C232.283 88.3233 233.141 88.354 234.153 88.354ZM292.322 93H254.05V63.146H261.226V87.94H270.61V63.146H277.786V87.94H287.17V63.146H294.346V87.894H298.762V99.946H292.322V93ZM303.015 63.146H310.191V74.094H313.779C316.723 74.094 319.054 74.232 320.771 74.508C322.519 74.7533 323.884 75.336 324.865 76.256C325.877 77.1453 326.383 78.4947 326.383 80.304V85.916C326.383 90.6387 322.366 93 314.331 93H303.015V63.146ZM314.009 87.894C315.818 87.894 317.137 87.6487 317.965 87.158C318.793 86.6367 319.207 85.8547 319.207 84.812V81.638C319.207 80.6873 318.808 80.0433 318.011 79.706C317.214 79.3687 315.91 79.2 314.101 79.2H310.145V87.894H314.009ZM330.53 86.652H337.706V93H330.53V86.652Z" fill="#F1F1F1"/>
<path d="M160.209 93C168.881 93 175.365 86.6377 175.365 78C175.365 69.3624 168.881 63 160.209 63C151.454 63 145.012 69.4045 145.012 78C145.012 86.5955 151.454 93 160.209 93ZM160.209 90.2191C153.23 90.2191 148.026 85.0365 148.026 78C148.026 70.9635 153.23 65.7809 160.209 65.7809C167.147 65.7809 172.309 70.9635 172.309 78C172.309 85.0365 167.147 90.2191 160.209 90.2191Z" fill="#F1F1F1"/>
<path d="M170.07 78.1757C170.07 83.6338 165.726 88.0587 160.365 88.0587C155.003 88.0587 150.659 83.6351 150.659 78.1757C150.659 77.5195 150.723 76.8809 150.843 76.2621C155.612 78.0437 160.312 73.3562 158.623 68.4521C159.186 68.3537 159.769 68.2939 160.363 68.2939C165.724 68.2939 170.069 72.7213 170.069 78.1769L170.07 78.1757Z" fill="#F74264"/>
</svg>
