<svg width="341" height="103" viewBox="0 0 341 103" fill="none" xmlns="http://www.w3.org/2000/svg">
<path d="M10.352 9.156C13.2653 9.156 15.7033 9.432 17.666 9.984C19.6593 10.5053 21.1467 11.3793 22.128 12.606C23.14 13.802 23.646 15.4273 23.646 17.482C23.646 18.7087 23.4467 19.828 23.048 20.84C22.6493 21.852 22.0667 22.68 21.3 23.324C20.564 23.968 19.6593 24.382 18.586 24.566V24.796C19.69 25.0107 20.6867 25.394 21.576 25.946C22.4653 26.498 23.1707 27.2953 23.692 28.338C24.2133 29.3807 24.474 30.7607 24.474 32.478C24.474 34.4713 23.9833 36.1887 23.002 37.63C22.0513 39.0407 20.6713 40.1293 18.862 40.896C17.0527 41.632 14.906 42 12.422 42H0.14V9.156H10.352ZM11.134 22.174C13.158 22.174 14.5533 21.852 15.32 21.208C16.1173 20.564 16.516 19.6287 16.516 18.402C16.516 17.1447 16.056 16.24 15.136 15.688C14.216 15.136 12.7593 14.86 10.766 14.86H7.086V22.174H11.134ZM7.086 27.694V36.25H11.64C13.7253 36.25 15.182 35.8513 16.01 35.054C16.838 34.226 17.252 33.1373 17.252 31.788C17.252 30.96 17.068 30.2393 16.7 29.626C16.3627 29.0127 15.7647 28.5373 14.906 28.2C14.0473 27.8627 12.882 27.694 11.41 27.694H7.086ZM31.0463 42V9.156H37.9923V21.76H40.2463C43.2823 21.76 45.7816 22.1893 47.7443 23.048C49.7069 23.9067 51.1483 25.0873 52.0683 26.59C53.0189 28.0927 53.4943 29.81 53.4943 31.742C53.4943 33.8887 53.0189 35.7287 52.0683 37.262C51.1176 38.7953 49.6456 39.976 47.6523 40.804C45.6896 41.6013 43.1443 42 40.0163 42H31.0463ZM39.8323 36.296C41.8869 36.296 43.4969 35.9587 44.6623 35.284C45.8583 34.6093 46.4563 33.4287 46.4563 31.742C46.4563 30.5767 46.1803 29.6873 45.6283 29.074C45.1069 28.4607 44.3249 28.0467 43.2823 27.832C42.2396 27.5867 40.9823 27.464 39.5103 27.464H37.9923V36.296H39.8323ZM57.4963 42V9.156H64.4423V42H57.4963ZM110.641 42H102.683L95.047 29.58L87.411 42H79.959L90.861 25.072L80.649 9.156H88.331L95.415 20.978L102.361 9.156H109.859L99.555 25.44L110.641 42ZM143.69 25.532C143.69 28.0773 143.368 30.3927 142.724 32.478C142.111 34.5327 141.16 36.3113 139.872 37.814C138.615 39.3167 136.99 40.4667 134.996 41.264C133.034 42.0613 130.718 42.46 128.05 42.46C125.382 42.46 123.052 42.0613 121.058 41.264C119.096 40.436 117.47 39.286 116.182 37.814C114.925 36.3113 113.974 34.5173 113.33 32.432C112.717 30.3467 112.41 28.0313 112.41 25.486C112.41 22.082 112.962 19.1227 114.066 16.608C115.201 14.0933 116.918 12.146 119.218 10.766C121.549 9.35533 124.508 8.65 128.096 8.65C131.654 8.65 134.582 9.35533 136.882 10.766C139.182 12.146 140.884 14.1087 141.988 16.654C143.123 19.1687 143.69 22.128 143.69 25.532ZM119.724 25.532C119.724 27.832 120.016 29.81 120.598 31.466C121.181 33.122 122.086 34.3947 123.312 35.284C124.539 36.1733 126.118 36.618 128.05 36.618C130.044 36.618 131.638 36.1733 132.834 35.284C134.061 34.3947 134.95 33.122 135.502 31.466C136.085 29.81 136.376 27.832 136.376 25.532C136.376 22.0667 135.732 19.3527 134.444 17.39C133.156 15.4273 131.04 14.446 128.096 14.446C126.134 14.446 124.539 14.8907 123.312 15.78C122.086 16.6693 121.181 17.942 120.598 19.598C120.016 21.254 119.724 23.232 119.724 25.532ZM161.751 42H154.805V14.952H145.881V9.156H170.675V14.952H161.751V42ZM175.74 9.156H181.996V25.026C181.996 25.7927 181.98 26.6513 181.95 27.602C181.919 28.5527 181.888 29.488 181.858 30.408C181.827 31.2973 181.796 32.0793 181.766 32.754C181.735 33.398 181.704 33.8427 181.674 34.088H181.812L196.992 9.156H205.318V42H199.108V26.222C199.108 25.394 199.123 24.4893 199.154 23.508C199.184 22.496 199.215 21.53 199.246 20.61C199.307 19.69 199.353 18.8927 199.384 18.218C199.445 17.5127 199.491 17.0527 199.522 16.838H199.338L184.112 42H175.74V9.156ZM226.259 42H219.313V14.952H210.389V9.156H235.183V14.952H226.259V42ZM259.153 42H240.247V9.156H259.153V14.86H247.193V22.082H258.325V27.786H247.193V36.25H259.153V42ZM10.352 60.156C13.2653 60.156 15.7033 60.432 17.666 60.984C19.6593 61.5053 21.1467 62.3793 22.128 63.606C23.14 64.802 23.646 66.4273 23.646 68.482C23.646 69.7087 23.4467 70.828 23.048 71.84C22.6493 72.852 22.0667 73.68 21.3 74.324C20.564 74.968 19.6593 75.382 18.586 75.566V75.796C19.69 76.0107 20.6867 76.394 21.576 76.946C22.4653 77.498 23.1707 78.2953 23.692 79.338C24.2133 80.3807 24.474 81.7607 24.474 83.478C24.474 85.4713 23.9833 87.1887 23.002 88.63C22.0513 90.0407 20.6713 91.1293 18.862 91.896C17.0527 92.632 14.906 93 12.422 93H0.14V60.156H10.352ZM11.134 73.174C13.158 73.174 14.5533 72.852 15.32 72.208C16.1173 71.564 16.516 70.6287 16.516 69.402C16.516 68.1447 16.056 67.24 15.136 66.688C14.216 66.136 12.7593 65.86 10.766 65.86H7.086V73.174H11.134ZM7.086 78.694V87.25H11.64C13.7253 87.25 15.182 86.8513 16.01 86.054C16.838 85.226 17.252 84.1373 17.252 82.788C17.252 81.96 17.068 81.2393 16.7 80.626C16.3627 80.0127 15.7647 79.5373 14.906 79.2C14.0473 78.8627 12.882 78.694 11.41 78.694H7.086ZM31.0463 93V60.156H37.9923V72.76H40.2463C43.2823 72.76 45.7816 73.1893 47.7443 74.048C49.7069 74.9067 51.1483 76.0873 52.0683 77.59C53.0189 79.0927 53.4943 80.81 53.4943 82.742C53.4943 84.8887 53.0189 86.7287 52.0683 88.262C51.1176 89.7953 49.6456 90.976 47.6523 91.804C45.6896 92.6013 43.1443 93 40.0163 93H31.0463ZM39.8323 87.296C41.8869 87.296 43.4969 86.9587 44.6623 86.284C45.8583 85.6093 46.4563 84.4287 46.4563 82.742C46.4563 81.5767 46.1803 80.6873 45.6283 80.074C45.1069 79.4607 44.3249 79.0467 43.2823 78.832C42.2396 78.5867 40.9823 78.464 39.5103 78.464H37.9923V87.296H39.8323ZM57.4963 93V60.156H64.4423V93H57.4963ZM98.4478 60.156V87.204H102.818V102.568H96.1018V93H75.5398V102.568H68.8238V87.204H71.3538C72.2124 85.4867 73.0404 83.6773 73.8378 81.776C74.6351 79.8747 75.3711 77.8353 76.0458 75.658C76.7511 73.4807 77.3798 71.1193 77.9318 68.574C78.4838 65.998 78.9438 63.192 79.3118 60.156H98.4478ZM84.8318 65.952C84.6171 67.5467 84.3104 69.2487 83.9118 71.058C83.5131 72.8367 83.0378 74.6613 82.4858 76.532C81.9644 78.4027 81.3818 80.2427 80.7377 82.052C80.0938 83.8613 79.4038 85.5787 78.6678 87.204H91.5018V65.952H84.8318ZM126.769 93H107.863V60.156H126.769V65.86H114.809V73.082H125.941V78.786H114.809V87.25H126.769V93ZM159.593 93H152.647V65.952H144.597C144.413 67.3627 144.214 68.896 143.999 70.552C143.815 72.208 143.6 73.8947 143.355 75.612C143.14 77.2987 142.91 78.9087 142.665 80.442C142.42 81.9447 142.174 83.2787 141.929 84.444C141.53 86.3453 140.994 87.9707 140.319 89.32C139.675 90.6693 138.77 91.6967 137.605 92.402C136.47 93.1073 134.983 93.46 133.143 93.46C132.53 93.46 131.947 93.414 131.395 93.322C130.843 93.23 130.322 93.1073 129.831 92.954V87.25C130.23 87.3727 130.613 87.48 130.981 87.572C131.38 87.664 131.809 87.71 132.269 87.71C132.882 87.71 133.388 87.5107 133.787 87.112C134.186 86.7133 134.538 86.0387 134.845 85.088C135.152 84.1067 135.458 82.7573 135.765 81.04C135.918 80.304 136.102 79.2613 136.317 77.912C136.532 76.532 136.777 74.922 137.053 73.082C137.36 71.2113 137.666 69.1873 137.973 67.01C138.28 64.802 138.571 62.5173 138.847 60.156H159.593V93ZM167.878 60.156H174.134V76.026C174.134 76.7927 174.119 77.6513 174.088 78.602C174.058 79.5527 174.027 80.488 173.996 81.408C173.966 82.2973 173.935 83.0793 173.904 83.754C173.874 84.398 173.843 84.8427 173.812 85.088H173.95L189.13 60.156H197.456V93H191.246V77.222C191.246 76.394 191.262 75.4893 191.292 74.508C191.323 73.496 191.354 72.53 191.384 71.61C191.446 70.69 191.492 69.8927 191.522 69.218C191.584 68.5127 191.63 68.0527 191.66 67.838H191.476L176.25 93H167.878V60.156ZM218.397 93H211.451V65.952H202.527V60.156H227.321V65.952H218.397V93ZM232.386 93V60.156H239.332V72.76H242.092C245.189 72.76 247.719 73.1893 249.682 74.048C251.675 74.9067 253.147 76.0873 254.098 77.59C255.049 79.0927 255.524 80.81 255.524 82.742C255.524 84.8887 255.049 86.7287 254.098 88.262C253.147 89.7953 251.675 90.976 249.682 91.804C247.689 92.6013 245.113 93 241.954 93H232.386ZM241.678 87.296C243.794 87.296 245.45 86.9587 246.646 86.284C247.873 85.6093 248.486 84.4287 248.486 82.742C248.486 81.5767 248.179 80.6873 247.566 80.074C246.983 79.4607 246.14 79.0467 245.036 78.832C243.963 78.5867 242.659 78.464 241.126 78.464H239.332V87.296H241.678ZM275.658 65.492C274.339 65.492 273.159 65.7527 272.116 66.274C271.104 66.7953 270.245 67.5467 269.54 68.528C268.835 69.4787 268.298 70.644 267.93 72.024C267.593 73.404 267.424 74.9527 267.424 76.67C267.424 79.0007 267.7 80.994 268.252 82.65C268.835 84.2753 269.739 85.5173 270.966 86.376C272.193 87.2347 273.757 87.664 275.658 87.664C277.007 87.664 278.341 87.5107 279.66 87.204C281.009 86.8973 282.466 86.468 284.03 85.916V91.758C282.589 92.3407 281.163 92.77 279.752 93.046C278.341 93.322 276.762 93.46 275.014 93.46C271.641 93.46 268.85 92.77 266.642 91.39C264.465 89.9793 262.855 88.0167 261.812 85.502C260.769 82.9567 260.248 79.9973 260.248 76.624C260.248 74.14 260.585 71.8707 261.26 69.816C261.935 67.7307 262.916 65.9367 264.204 64.434C265.523 62.9313 267.133 61.766 269.034 60.938C270.966 60.11 273.174 59.696 275.658 59.696C277.283 59.696 278.909 59.9107 280.534 60.34C282.19 60.7387 283.769 61.2907 285.272 61.996L283.018 67.654C281.791 67.0713 280.549 66.5653 279.292 66.136C278.065 65.7067 276.854 65.492 275.658 65.492ZM302.049 80.396L294.367 93H286.639L295.977 78.556C295.088 78.188 294.198 77.6513 293.309 76.946C292.42 76.21 291.684 75.244 291.101 74.048C290.518 72.8213 290.227 71.3187 290.227 69.54C290.227 66.504 291.316 64.1887 293.493 62.594C295.67 60.9687 298.722 60.156 302.647 60.156H313.319V93H306.373V80.396H302.049ZM302.923 65.86C301.727 65.86 300.7 65.998 299.841 66.274C299.013 66.55 298.369 66.9947 297.909 67.608C297.48 68.2213 297.265 69.034 297.265 70.046C297.265 71.4873 297.74 72.6373 298.691 73.496C299.672 74.324 301.144 74.738 303.107 74.738H306.373V65.86H302.923ZM324.039 82.788V79.476C324.039 78.3107 324.146 77.3907 324.361 76.716C324.606 76.0413 324.959 75.52 325.419 75.152C325.879 74.784 326.446 74.4927 327.121 74.278L328.915 73.68C329.712 73.3733 330.295 73.1127 330.663 72.898C331.062 72.6527 331.322 72.2847 331.445 71.794C331.598 71.3033 331.675 70.5827 331.675 69.632C331.675 68.5587 331.506 67.792 331.169 67.332C330.832 66.8413 330.28 66.55 329.513 66.458C328.746 66.366 327.688 66.32 326.339 66.32C325.879 66.32 325.342 66.3353 324.729 66.366C324.116 66.3967 323.472 66.4427 322.797 66.504C322.153 66.5347 321.509 66.5807 320.865 66.642C320.252 66.7033 319.684 66.7647 319.163 66.826V61.766C320.052 61.6127 321.049 61.4747 322.153 61.352C323.257 61.2293 324.361 61.1373 325.465 61.076C326.6 61.0147 327.642 60.984 328.593 60.984C330.28 60.984 331.721 61.1373 332.917 61.444C334.144 61.7507 335.14 62.2567 335.907 62.962C336.674 63.6367 337.241 64.526 337.609 65.63C337.977 66.7033 338.161 68.0373 338.161 69.632C338.161 70.7053 338.069 71.6407 337.885 72.438C337.732 73.2353 337.486 73.9253 337.149 74.508C336.842 75.06 336.444 75.52 335.953 75.888C335.493 76.256 334.956 76.5473 334.343 76.762L332.319 77.406C331.706 77.6207 331.2 77.8047 330.801 77.958C330.433 78.1113 330.157 78.2953 329.973 78.51C329.82 78.7247 329.712 79.0313 329.651 79.43C329.59 79.798 329.559 80.304 329.559 80.948V82.788H324.039ZM323.487 93V86.974H330.157V93H323.487Z" fill="#F1F1F1"/>
</svg>
