<svg width="340" height="107" viewBox="0 0 340 107" fill="none" xmlns="http://www.w3.org/2000/svg">
<path d="M10.902 42L0.782 10.352H7.498L15.226 35.054H15.456L23.092 10.352H29.67L19.55 42H10.902ZM34.274 42V10.352H49.408C51.4626 10.352 53.1033 10.582 54.33 11.042C55.5873 11.502 56.538 12.1767 57.182 13.066C57.826 13.9247 58.2553 14.9827 58.47 16.24C58.7153 17.4667 58.838 18.8467 58.838 20.38C58.838 21.4533 58.746 22.6033 58.562 23.83C58.378 25.0567 57.964 26.1913 57.32 27.234C56.7066 28.2767 55.7253 29.0433 54.376 29.534L59.436 42H52.536L47.752 29.304L49.362 30.178C49.1473 30.27 48.8866 30.3313 48.58 30.362C48.304 30.3927 47.982 30.408 47.614 30.408H40.806V42H34.274ZM40.806 25.118H46.786C48.074 25.118 49.086 25.0413 49.822 24.888C50.558 24.7347 51.11 24.4893 51.478 24.152C51.846 23.784 52.076 23.3087 52.168 22.726C52.26 22.1127 52.306 21.3307 52.306 20.38C52.306 19.4293 52.26 18.6473 52.168 18.034C52.076 17.4207 51.8613 16.9453 51.524 16.608C51.1866 16.2707 50.6346 16.0253 49.868 15.872C49.132 15.7187 48.12 15.642 46.832 15.642H40.806V25.118ZM65.3599 42V10.352H86.9799V15.688H71.8919V23.37H84.8179V28.706H71.8919V36.664H86.9799V42H65.3599ZM93.3013 42V10.352H99.8333V42H93.3013ZM129.859 42.368C128.694 42.368 127.406 42.3373 125.995 42.276C124.615 42.2147 123.266 42.1227 121.947 42C120.628 41.908 119.417 41.8007 118.313 41.678V36.48C119.448 36.572 120.598 36.664 121.763 36.756C122.959 36.848 124.094 36.9247 125.167 36.986C126.24 37.0167 127.16 37.032 127.927 37.032C129.491 37.032 130.702 36.9707 131.561 36.848C132.42 36.6947 133.064 36.48 133.493 36.204C133.83 35.9587 134.06 35.698 134.183 35.422C134.306 35.1153 134.382 34.7627 134.413 34.364C134.444 33.9347 134.459 33.4593 134.459 32.938C134.459 32.2327 134.413 31.65 134.321 31.19C134.26 30.73 134.137 30.3773 133.953 30.132C133.769 29.856 133.462 29.6567 133.033 29.534C132.634 29.4113 132.113 29.3193 131.469 29.258L124.385 28.384C122.974 28.2 121.809 27.878 120.889 27.418C120 26.958 119.294 26.3447 118.773 25.578C118.252 24.8113 117.884 23.9067 117.669 22.864C117.485 21.8213 117.393 20.6407 117.393 19.322C117.393 17.2367 117.684 15.5807 118.267 14.354C118.85 13.1273 119.662 12.192 120.705 11.548C121.778 10.904 123.036 10.49 124.477 10.306C125.918 10.0913 127.482 9.984 129.169 9.984C130.396 9.984 131.653 10.03 132.941 10.122C134.229 10.1833 135.44 10.2753 136.575 10.398C137.71 10.5207 138.66 10.674 139.427 10.858V15.918C138.66 15.7953 137.771 15.688 136.759 15.596C135.747 15.504 134.689 15.4427 133.585 15.412C132.481 15.3507 131.438 15.32 130.457 15.32C129.016 15.32 127.866 15.3813 127.007 15.504C126.179 15.596 125.535 15.7647 125.075 16.01C124.554 16.3167 124.232 16.7153 124.109 17.206C124.017 17.6967 123.971 18.31 123.971 19.046C123.971 19.966 124.032 20.6713 124.155 21.162C124.278 21.622 124.569 21.944 125.029 22.128C125.489 22.312 126.21 22.4653 127.191 22.588L134.275 23.416C135.134 23.508 135.931 23.6613 136.667 23.876C137.403 24.0907 138.062 24.428 138.645 24.888C139.228 25.348 139.703 25.992 140.071 26.82C140.286 27.2493 140.454 27.7553 140.577 28.338C140.7 28.89 140.792 29.5187 140.853 30.224C140.945 30.9293 140.991 31.7113 140.991 32.57C140.991 34.3487 140.807 35.836 140.439 37.032C140.102 38.228 139.611 39.1787 138.967 39.884C138.323 40.5893 137.526 41.126 136.575 41.494C135.655 41.862 134.628 42.092 133.493 42.184C132.358 42.3067 131.147 42.368 129.859 42.368ZM144.17 42L154.888 10.352H163.628L174.346 42H167.676L165.33 35.008H152.956L150.702 42H144.17ZM154.612 29.718H163.628L159.258 16.286H158.982L154.612 29.718ZM159.212 7.408C157.679 7.408 156.452 7.23933 155.532 6.902C154.643 6.56466 153.968 6.10466 153.508 5.522C153.079 4.90867 152.788 4.188 152.634 3.36C152.512 2.50133 152.45 1.58133 152.45 0.599998H155.946C155.946 1.30533 155.992 1.90333 156.084 2.394C156.176 2.88466 156.452 3.268 156.912 3.544C157.372 3.82 158.124 3.958 159.166 3.958C160.27 3.958 161.037 3.82 161.466 3.544C161.926 3.268 162.202 2.88466 162.294 2.394C162.417 1.90333 162.478 1.30533 162.478 0.599998H166.02C166.02 1.58133 165.944 2.50133 165.79 3.36C165.668 4.188 165.376 4.90867 164.916 5.522C164.456 6.10466 163.766 6.56466 162.846 6.902C161.926 7.23933 160.715 7.408 159.212 7.408ZM196.501 42V15.872H187.347V10.352H212.187V15.872H203.033V42H196.501ZM216.926 42V10.352H238.546V15.688H223.458V23.37H236.384V28.706H223.458V36.664H238.546V42H216.926ZM3.772 93V61.352H25.392V66.688H10.304V74.37H23.23V79.706H10.304V87.664H25.392V93H3.772ZM38.8434 93L28.7234 61.352H35.4394L43.1674 86.054H43.3974L51.0334 61.352H57.6114L47.4914 93H38.8434ZM62.2154 93V61.352H68.7474V93H62.2154ZM76.2759 93V61.352H87.0399C89.7692 61.352 91.9926 61.49 93.7099 61.766C95.4579 62.042 96.8226 62.5327 97.8039 63.238C98.8159 63.9127 99.5366 64.8633 99.9659 66.09C100.426 67.286 100.717 68.7887 100.84 70.598C100.963 72.4073 101.024 74.6 101.024 77.176C101.024 79.752 100.963 81.9447 100.84 83.754C100.717 85.5633 100.426 87.0813 99.9659 88.308C99.5366 89.504 98.8159 90.4547 97.8039 91.16C96.8226 91.8347 95.4579 92.31 93.7099 92.586C91.9926 92.862 89.7692 93 87.0399 93H76.2759ZM82.8079 87.664H86.6719C88.1746 87.664 89.4012 87.6333 90.3519 87.572C91.3332 87.48 92.0999 87.2807 92.6519 86.974C93.2346 86.6673 93.6486 86.146 93.8939 85.41C94.1392 84.6433 94.2926 83.6007 94.3539 82.282C94.4459 80.9633 94.4919 79.2613 94.4919 77.176C94.4919 75.1213 94.4459 73.4347 94.3539 72.116C94.2926 70.7667 94.1239 69.724 93.8479 68.988C93.6026 68.252 93.1886 67.7307 92.6059 67.424C92.0539 67.0867 91.3026 66.8873 90.3519 66.826C89.4012 66.734 88.1746 66.688 86.6719 66.688H82.8079V87.664ZM107.676 93V61.352H129.296V66.688H114.208V74.37H127.134V79.706H114.208V87.664H129.296V93H107.676ZM135.618 93V61.352H142.38L154.846 80.856H155.076V61.352H161.332V93H155.122L142.104 72.438H141.874V93H135.618ZM175.208 93V66.872H166.054V61.352H190.894V66.872H181.74V93H175.208ZM174.794 106.984V104.5C175.622 104.5 176.251 104.454 176.68 104.362C177.109 104.27 177.401 104.086 177.554 103.81C177.738 103.565 177.83 103.197 177.83 102.706V101.97H175.3V96.496H181.648V100.314C181.648 101.663 181.571 102.767 181.418 103.626C181.295 104.515 180.989 105.205 180.498 105.696C180.038 106.187 179.348 106.524 178.428 106.708C177.539 106.892 176.327 106.984 174.794 106.984ZM195.633 93V61.352H202.165V93H195.633ZM209.694 93V61.352H231.314V66.688H216.226V74.37H229.152V79.706H216.226V87.664H231.314V93H209.694ZM236.025 93V87.894L251.527 66.688H236.531V61.352H259.761V66.274L244.075 87.71H259.899V93H236.025ZM265.756 93V61.352H272.288V93H265.756ZM282.623 82.788V79.476C282.623 78.3107 282.73 77.3907 282.945 76.716C283.19 76.0413 283.543 75.52 284.003 75.152C284.463 74.784 285.03 74.4927 285.705 74.278L287.499 73.68C288.296 73.3733 288.879 73.1127 289.247 72.898C289.646 72.6527 289.906 72.2847 290.029 71.794C290.182 71.3033 290.259 70.5827 290.259 69.632C290.259 68.5587 290.09 67.792 289.753 67.332C289.416 66.8413 288.864 66.55 288.097 66.458C287.33 66.366 286.272 66.32 284.923 66.32C284.463 66.32 283.926 66.3353 283.313 66.366C282.7 66.3967 282.056 66.4427 281.381 66.504C280.737 66.5347 280.093 66.5807 279.449 66.642C278.836 66.7033 278.268 66.7647 277.747 66.826V61.766C278.636 61.6127 279.633 61.4747 280.737 61.352C281.841 61.2293 282.945 61.1373 284.049 61.076C285.184 61.0147 286.226 60.984 287.177 60.984C288.864 60.984 290.305 61.1373 291.501 61.444C292.728 61.7507 293.724 62.2567 294.491 62.962C295.258 63.6367 295.825 64.526 296.193 65.63C296.561 66.7033 296.745 68.0373 296.745 69.632C296.745 70.7053 296.653 71.6407 296.469 72.438C296.316 73.2353 296.07 73.9253 295.733 74.508C295.426 75.06 295.028 75.52 294.537 75.888C294.077 76.256 293.54 76.5473 292.927 76.762L290.903 77.406C290.29 77.6207 289.784 77.8047 289.385 77.958C289.017 78.1113 288.741 78.2953 288.557 78.51C288.404 78.7247 288.296 79.0313 288.235 79.43C288.174 79.798 288.143 80.304 288.143 80.948V82.788H282.623ZM282.071 93V86.974H288.741V93H282.071Z" fill="#F1F1F1"/>
</svg>
