<svg width="340" height="102" viewBox="0 0 340 102" fill="none" xmlns="http://www.w3.org/2000/svg">
<path d="M73.2103 42C82.4607 42 89.3765 35.2135 89.3765 26C89.3765 16.7865 82.4607 10 73.2103 10C63.8717 10 57 16.8315 57 26C57 35.1686 63.8717 42 73.2103 42ZM73.2103 39.0337C65.7658 39.0337 60.2156 33.5056 60.2156 26C60.2156 18.4944 65.7658 12.9663 73.2103 12.9663C80.6106 12.9663 86.1168 18.4944 86.1168 26C86.1168 33.5056 80.6106 39.0337 73.2103 39.0337Z" fill="#F1F1F1"/>
<path d="M83.7293 26.1876C83.7293 32.0096 79.0954 36.7294 73.3763 36.7294C67.6574 36.7294 63.0234 32.011 63.0234 26.1876C63.0234 25.4877 63.0925 24.8064 63.2203 24.1464C68.3068 26.0468 73.3203 21.0468 71.5191 15.8157C72.1191 15.7108 72.7412 15.6471 73.375 15.6471C79.0928 15.6471 83.728 20.3695 83.728 26.1889L83.7293 26.1876Z" fill="#F74264"/>
<path d="M26.938 42V10.352H33.7L46.166 29.856H46.396V10.352H52.652V42H46.442L33.424 21.438H33.194V42H26.938ZM94.2759 42V10.352H100.808V42H94.2759ZM126.05 42V15.872H116.896V10.352H141.736V15.872H132.582V42H126.05ZM146.475 42V10.352H168.095V15.688H153.007V23.37H165.933V28.706H153.007V36.664H168.095V42H146.475ZM185.782 42V10.352H200.456C202.418 10.352 204.013 10.5973 205.24 11.088C206.497 11.5787 207.463 12.284 208.138 13.204C208.812 14.0933 209.272 15.182 209.518 16.47C209.794 17.758 209.932 19.2147 209.932 20.84C209.932 22.3427 209.809 23.738 209.564 25.026C209.349 26.2833 208.904 27.3873 208.23 28.338C207.555 29.2887 206.574 30.0247 205.286 30.546C204.028 31.0673 202.357 31.328 200.272 31.328H192.314V42H185.782ZM192.314 25.992H197.696C199.014 25.992 200.057 25.9307 200.824 25.808C201.59 25.6547 202.158 25.394 202.526 25.026C202.894 24.658 203.124 24.1367 203.216 23.462C203.338 22.7873 203.4 21.9133 203.4 20.84C203.4 19.7667 203.338 18.8927 203.216 18.218C203.124 17.5433 202.894 17.022 202.526 16.654C202.188 16.2553 201.652 15.9947 200.916 15.872C200.18 15.7187 199.168 15.642 197.88 15.642H192.314V25.992ZM227.847 42.368C225.608 42.368 223.738 42.23 222.235 41.954C220.732 41.678 219.521 41.2333 218.601 40.62C217.681 40.0067 216.976 39.148 216.485 38.044C216.025 36.94 215.703 35.56 215.519 33.904C215.366 32.2173 215.289 30.2087 215.289 27.878V10.352H221.821V29.534C221.821 31.1593 221.867 32.478 221.959 33.49C222.082 34.4713 222.312 35.2227 222.649 35.744C223.017 36.2653 223.615 36.618 224.443 36.802C225.271 36.9553 226.406 37.032 227.847 37.032C229.288 37.032 230.408 36.9553 231.205 36.802C232.033 36.618 232.631 36.2653 232.999 35.744C233.367 35.2227 233.597 34.4713 233.689 33.49C233.781 32.478 233.827 31.1593 233.827 29.534V10.352H240.359V27.878C240.359 30.2087 240.267 32.2173 240.083 33.904C239.93 35.56 239.623 36.94 239.163 38.044C238.703 39.148 238.013 40.0067 237.093 40.62C236.173 41.2333 234.962 41.678 233.459 41.954C231.956 42.23 230.086 42.368 227.847 42.368ZM254.032 42V15.872H244.878V10.352H269.718V15.872H260.564V42H254.032ZM274.458 42V10.352H296.078V15.688H280.99V23.37H293.916V28.706H280.99V36.664H296.078V42H274.458ZM302.399 42V10.352H311.369L319.189 31.236H319.465L327.239 10.352H336.163V42H329.861V19.966H329.631L321.443 42H316.935L308.747 19.966H308.517V42H302.399ZM190.336 93L201.054 61.352H209.794L220.512 93H213.842L211.496 86.008H199.122L196.868 93H190.336ZM200.778 80.718H209.794L205.424 67.286H205.148L200.778 80.718ZM222.424 93V87.986C224.049 87.9553 225.306 87.8787 226.196 87.756C227.085 87.6027 227.714 87.3113 228.082 86.882C228.48 86.4527 228.726 85.778 228.818 84.858C228.91 83.9073 228.956 82.6347 228.956 81.04V61.352H235.488V79.292C235.488 81.9293 235.426 84.1067 235.304 85.824C235.181 87.5107 234.905 88.8447 234.476 89.826C234.046 90.8073 233.356 91.528 232.406 91.988C231.486 92.4173 230.213 92.6933 228.588 92.816C226.993 92.9387 224.938 93 222.424 93ZM255.115 93.368C252.876 93.368 251.005 93.23 249.503 92.954C248 92.678 246.789 92.2333 245.869 91.62C244.949 91.0067 244.243 90.148 243.753 89.044C243.293 87.94 242.971 86.56 242.787 84.904C242.633 83.2173 242.557 81.2087 242.557 78.878V61.352H249.089V80.534C249.089 82.1593 249.135 83.478 249.227 84.49C249.349 85.4713 249.579 86.2227 249.917 86.744C250.285 87.2653 250.883 87.618 251.711 87.802C252.539 87.9553 253.673 88.032 255.115 88.032C256.556 88.032 257.675 87.9553 258.473 87.802C259.301 87.618 259.899 87.2653 260.267 86.744C260.635 86.2227 260.865 85.4713 260.957 84.49C261.049 83.478 261.095 82.1593 261.095 80.534V61.352H267.627V78.878C267.627 81.2087 267.535 83.2173 267.351 84.904C267.197 86.56 266.891 87.94 266.431 89.044C265.971 90.148 265.281 91.0067 264.361 91.62C263.441 92.2333 262.229 92.678 260.727 92.954C259.224 93.23 257.353 93.368 255.115 93.368ZM281.3 93V66.872H272.146V61.352H296.986V66.872H287.832V93H281.3ZM296.577 93L307.295 61.352H316.035L326.753 93H320.083L317.737 86.008H305.363L303.109 93H296.577ZM307.019 80.718H316.035L311.665 67.286H311.389L307.019 80.718ZM330.366 93V86.974H337.036V93H330.366Z" fill="#F1F1F1"/>
</svg>
