<svg width="340" height="51" viewBox="0 0 340 51" fill="none" xmlns="http://www.w3.org/2000/svg">
<path d="M26.9826 12.146H35.7226L46.4866 42H39.2186L36.5506 34.134H25.6486L23.0266 42H15.9426L26.9826 12.146ZM34.9866 29.35L31.2146 18.126H31.0306L27.2586 29.35H34.9866ZM54.1211 42.46C53.0171 42.46 51.6831 42.3067 50.1191 42V36.756C50.7631 36.9093 51.3918 37.0473 52.0051 37.17C52.6491 37.2927 53.2625 37.354 53.8451 37.354C54.7038 37.354 55.4245 37.1547 56.0071 36.756C56.6205 36.3267 57.1418 35.6827 57.5711 34.824L58.2151 33.49L46.6691 12.146H54.1671L61.6651 27.142H61.8491L67.7831 12.146H75.0051L64.1951 36.112C63.2138 38.32 61.9718 39.93 60.4691 40.942C58.9665 41.954 56.8505 42.46 54.1211 42.46ZM75.2535 36.894H75.8975C77.1548 36.894 78.1668 36.4187 78.9335 35.468C79.7308 34.4867 80.3441 32.708 80.7735 30.132C81.2028 27.556 81.4175 23.9067 81.4175 19.184V12.146H103.129V36.894H107.499V48.946H101.059V42H81.6935V48.946H75.2535V36.894ZM95.9535 36.94V17.206H87.8575V20.886C87.8575 28.6447 86.8608 33.996 84.8675 36.94H95.9535ZM111.744 12.146H118.92V32.57L131.8 12.146H138.976V42H131.8V21.254L118.92 42H111.744V12.146ZM152.336 17.252H143.136V12.146H168.666V17.252H159.512V42H152.336V17.252ZM186.271 42.46C184.615 42.46 183.082 42.3527 181.671 42.138C180.291 41.9233 178.85 41.5553 177.347 41.034C175.722 40.482 174.449 39.5927 173.529 38.366C172.609 37.1087 172.149 35.5907 172.149 33.812V20.748C172.149 19.276 172.471 17.9573 173.115 16.792C173.79 15.6267 174.649 14.7067 175.691 14.032C176.611 13.4493 177.746 12.9587 179.095 12.56C180.445 12.1613 181.702 11.916 182.867 11.824C183.941 11.732 185.075 11.686 186.271 11.686C187.682 11.686 188.909 11.7473 189.951 11.87C190.994 11.962 192.159 12.1767 193.447 12.514C194.919 12.9433 196.131 13.4647 197.081 14.078C198.032 14.6913 198.829 15.55 199.473 16.654C200.148 17.7887 200.485 19.1533 200.485 20.748V33.812C200.485 35.468 200.041 36.894 199.151 38.09C198.293 39.286 197.097 40.1907 195.563 40.804C192.803 41.908 189.706 42.46 186.271 42.46ZM186.363 37.354C187.375 37.354 188.219 37.3233 188.893 37.262C189.599 37.17 190.319 37.0167 191.055 36.802C191.791 36.5873 192.343 36.2347 192.711 35.744C193.11 35.2227 193.309 34.5787 193.309 33.812V20.702C193.309 19.2913 192.742 18.2947 191.607 17.712C190.473 17.0987 188.709 16.792 186.317 16.792C183.925 16.792 182.162 17.0833 181.027 17.666C179.893 18.2487 179.325 19.2607 179.325 20.702V33.812C179.325 34.5787 179.525 35.2227 179.923 35.744C180.322 36.2347 180.905 36.5873 181.671 36.802C182.407 37.0167 183.113 37.17 183.787 37.262C184.493 37.3233 185.351 37.354 186.363 37.354ZM206.26 12.146H218.22C221.133 12.146 223.433 12.3453 225.12 12.744C226.837 13.1427 228.079 13.848 228.846 14.86C229.643 15.8413 230.042 17.2213 230.042 19V24.658C230.042 26.6207 229.613 28.154 228.754 29.258C227.926 30.362 226.592 31.144 224.752 31.604C222.943 32.064 220.489 32.294 217.392 32.294H213.436V42H206.26V12.146ZM217.99 27.372C219.861 27.372 221.179 27.1573 221.946 26.728C222.713 26.268 223.096 25.5013 223.096 24.428V19.644C223.096 18.6627 222.728 18.0187 221.992 17.712C221.287 17.4053 219.922 17.252 217.898 17.252H213.436V27.372H217.99ZM235.1 12.146H242.276V32.57L255.156 12.146H262.332V42H255.156V21.254L242.276 42H235.1V12.146ZM295.839 42.46C292.037 42.46 288.771 41.8467 286.041 40.62C283.312 39.3627 281.947 37.0933 281.947 33.812V29.212H275.967V42H268.791V12.146H275.967V24.106H281.947V20.748C281.947 17.1293 283.358 14.722 286.179 13.526C289.001 12.2993 292.221 11.686 295.839 11.686C299.581 11.686 302.847 12.3147 305.637 13.572C308.428 14.8293 309.823 17.2213 309.823 20.748V33.812C309.823 36.9093 308.443 39.1327 305.683 40.482C302.923 41.8007 299.642 42.46 295.839 42.46ZM295.931 37.354C298.109 37.354 299.765 37.124 300.899 36.664C302.065 36.1733 302.647 35.2227 302.647 33.812V20.702C302.647 19.2913 302.111 18.2947 301.037 17.712C299.964 17.0987 298.247 16.792 295.885 16.792C293.493 16.792 291.761 17.0833 290.687 17.666C289.645 18.2487 289.123 19.2607 289.123 20.702V33.812C289.123 35.192 289.706 36.1273 290.871 36.618C292.067 37.1087 293.754 37.354 295.931 37.354ZM314.68 35.652H321.856V42H314.68V35.652Z" fill="#F1F1F1"/>
</svg>
