<svg width="340" height="51" viewBox="0 0 340 51" fill="none" xmlns="http://www.w3.org/2000/svg">
<path d="M51.2122 12.146H72.4182V17.252H58.3882V24.014H62.8502C65.6102 24.014 67.8182 24.1827 69.4742 24.52C71.1302 24.8267 72.3875 25.44 73.2462 26.36C74.1355 27.2493 74.5802 28.5373 74.5802 30.224V34.916C74.5802 39.6387 70.5629 42 62.5282 42H51.2122V12.146ZM62.2062 36.894C64.0155 36.894 65.3342 36.6487 66.1622 36.158C66.9902 35.6367 67.4042 34.8547 67.4042 33.812V31.558C67.4042 30.6073 67.0055 29.9633 66.2082 29.626C65.4109 29.2887 64.1075 29.12 62.2982 29.12H58.3422V36.894H62.2062ZM79.6477 12.146H91.6077C94.5211 12.146 96.8211 12.3453 98.5077 12.744C100.225 13.1427 101.467 13.848 102.234 14.86C103.031 15.8413 103.43 17.2213 103.43 19V24.658C103.43 26.6207 103 28.154 102.142 29.258C101.314 30.362 99.9797 31.144 98.1397 31.604C96.3304 32.064 93.8771 32.294 90.7797 32.294H86.8237V42H79.6477V12.146ZM91.3777 27.372C93.2484 27.372 94.5671 27.1573 95.3337 26.728C96.1004 26.268 96.4837 25.5013 96.4837 24.428V19.644C96.4837 18.6627 96.1157 18.0187 95.3797 17.712C94.6744 17.4053 93.3097 17.252 91.2857 17.252H86.8237V27.372H91.3777ZM108.488 12.146H131.258V17.252H115.664V24.106H129.74V29.212H115.664V36.894H131.718V42H108.488V12.146ZM136.564 12.146H143.74V24.106H156.436V12.146H163.612V42H156.436V29.212H143.74V42H136.564V12.146ZM167.501 36.894H168.145C169.402 36.894 170.414 36.4187 171.181 35.468C171.978 34.4867 172.591 32.708 173.021 30.132C173.45 27.556 173.665 23.9067 173.665 19.184V12.146H195.377V36.894H199.747V48.946H193.307V42H173.941V48.946H167.501V36.894ZM188.201 36.94V17.206H180.105V20.886C180.105 28.6447 179.108 33.996 177.115 36.94H188.201ZM203.991 12.146H211.167V32.57L224.047 12.146H231.223V42H224.047V21.254L211.167 42H203.991V12.146ZM237.683 12.146H244.859V24.106H257.555V12.146H264.731V42H257.555V29.212H244.859V42H237.683V12.146ZM271.15 12.146H291.068V17.252H278.326V42H271.15V12.146Z" fill="#F1F1F1"/>
</svg>
