<svg width="340" height="51" viewBox="0 0 340 51" fill="none" xmlns="http://www.w3.org/2000/svg">
<path d="M34.5911 12.146H44.8031L52.1631 33.49L59.4311 12.146H69.0451V42H62.5591V19.92H62.4211L54.8771 42H49.1271L41.3531 19.92H41.1691V42H34.5911V12.146ZM83.382 12.146H92.122L102.886 42H95.618L92.95 34.134H82.048L79.426 42H72.342L83.382 12.146ZM91.386 29.35L87.614 18.126H87.43L83.658 29.35H91.386ZM106.197 12.146H118.157C121.07 12.146 123.37 12.3453 125.057 12.744C126.774 13.1427 128.016 13.848 128.783 14.86C129.58 15.8413 129.979 17.2213 129.979 19V24.658C129.979 26.6207 129.549 28.154 128.691 29.258C127.863 30.362 126.529 31.144 124.689 31.604C122.879 32.064 120.426 32.294 117.329 32.294H113.373V42H106.197V12.146ZM117.927 27.372C119.797 27.372 121.116 27.1573 121.883 26.728C122.649 26.268 123.033 25.5013 123.033 24.428V19.644C123.033 18.6627 122.665 18.0187 121.929 17.712C121.223 17.4053 119.859 17.252 117.835 17.252H113.373V27.372H117.927ZM135.036 12.146H142.212V23.922C143.562 23.922 144.65 23.6767 145.478 23.186C146.306 22.6647 147.211 21.6833 148.192 20.242L153.804 12.146H161.854L155.414 21.116C154.433 22.496 153.528 23.554 152.7 24.29C151.903 24.9953 150.906 25.578 149.71 26.038V26.13C151.244 26.498 152.516 27.1573 153.528 28.108C154.571 29.0587 155.583 30.4387 156.564 32.248L161.854 42H153.804L148.928 33.214C148.284 32.0487 147.656 31.1747 147.042 30.592C146.46 29.9787 145.8 29.5647 145.064 29.35C144.328 29.1353 143.378 29.028 142.212 29.028V42H135.036V12.146ZM165.179 12.146H187.949V17.252H172.355V24.106H186.431V29.212H172.355V36.894H188.409V42H165.179V12.146ZM200.155 17.252H190.955V12.146H216.485V17.252H207.331V42H200.155V17.252ZM220.613 12.146H227.789V32.57L240.669 12.146H247.845V42H240.669V21.254L227.789 42H220.613V12.146ZM254.304 12.146H261.48V24.106H274.176V12.146H281.352V42H274.176V29.212H261.48V42H254.304V12.146ZM287.771 12.146H307.689V17.252H294.947V42H287.771V12.146Z" fill="#F1F1F1"/>
</svg>
