<svg width="340" height="51" viewBox="0 0 340 51" fill="none" xmlns="http://www.w3.org/2000/svg">
<path d="M78.3899 12.146H88.6019L95.9619 33.49L103.23 12.146H112.844V42H106.358V19.92H106.22L98.6759 42H92.9259L85.1519 19.92H84.9679V42H78.3899V12.146ZM132.747 42.46C131.091 42.46 129.557 42.3527 128.147 42.138C126.767 41.9233 125.325 41.5553 123.823 41.034C122.197 40.482 120.925 39.5927 120.005 38.366C119.085 37.1087 118.625 35.5907 118.625 33.812V20.748C118.625 19.276 118.947 17.9573 119.591 16.792C120.265 15.6267 121.124 14.7067 122.167 14.032C123.087 13.4493 124.221 12.9587 125.571 12.56C126.92 12.1613 128.177 11.916 129.343 11.824C130.416 11.732 131.551 11.686 132.747 11.686C134.157 11.686 135.384 11.7473 136.427 11.87C137.469 11.962 138.635 12.1767 139.923 12.514C141.395 12.9433 142.606 13.4647 143.557 14.078C144.507 14.6913 145.305 15.55 145.949 16.654C146.623 17.7887 146.961 19.1533 146.961 20.748V33.812C146.961 35.468 146.516 36.894 145.627 38.09C144.768 39.286 143.572 40.1907 142.039 40.804C139.279 41.908 136.181 42.46 132.747 42.46ZM132.839 37.354C133.851 37.354 134.694 37.3233 135.369 37.262C136.074 37.17 136.795 37.0167 137.531 36.802C138.267 36.5873 138.819 36.2347 139.187 35.744C139.585 35.2227 139.785 34.5787 139.785 33.812V20.702C139.785 19.2913 139.217 18.2947 138.083 17.712C136.948 17.0987 135.185 16.792 132.793 16.792C130.401 16.792 128.637 17.0833 127.503 17.666C126.368 18.2487 125.801 19.2607 125.801 20.702V33.812C125.801 34.5787 126 35.2227 126.399 35.744C126.797 36.2347 127.38 36.5873 128.147 36.802C128.883 37.0167 129.588 37.17 130.263 37.262C130.968 37.3233 131.827 37.354 132.839 37.354ZM152.736 12.146H165.432C168.928 12.146 171.688 12.422 173.712 12.974C175.736 13.4953 177.223 14.4153 178.174 15.734C179.124 17.0527 179.6 18.8773 179.6 21.208V33.352C179.6 35.6213 179.155 37.3847 178.266 38.642C177.376 39.8687 175.92 40.7427 173.896 41.264C171.872 41.7547 169.066 42 165.478 42H152.736V12.146ZM165.156 36.894C167.118 36.894 168.59 36.8173 169.572 36.664C170.584 36.48 171.304 36.1427 171.734 35.652C172.194 35.1613 172.424 34.3947 172.424 33.352V21.07C172.424 19.6593 171.856 18.678 170.722 18.126C169.618 17.5433 167.839 17.252 165.386 17.252H159.912V36.894H165.156ZM192.775 12.146H200.043L208.047 36.02H208.231L216.235 12.146H223.319L212.279 42H203.493L192.775 12.146ZM226.542 12.146H233.718V42H226.542V12.146ZM249.814 42.46C246.962 42.46 243.435 42.184 239.234 41.632V36.158C244.447 36.9553 248.004 37.354 249.906 37.354C253.892 37.354 255.886 36.3267 255.886 34.272V32.34C255.886 31.3587 255.594 30.6073 255.012 30.086C254.46 29.5647 253.448 29.304 251.976 29.304H248.48C241.917 29.304 238.636 26.6973 238.636 21.484V19.276C238.636 16.6693 239.724 14.7527 241.902 13.526C244.079 12.2993 247.529 11.686 252.252 11.686C254.705 11.686 257.818 11.8853 261.59 12.284V17.62C256.959 17.068 253.77 16.792 252.022 16.792C249.599 16.792 247.974 16.9913 247.146 17.39C246.256 17.8193 245.812 18.494 245.812 19.414V21.53C245.812 23.094 247.13 23.876 249.768 23.876H253.356C256.76 23.876 259.228 24.5047 260.762 25.762C262.295 27.0193 263.062 28.936 263.062 31.512V33.49C263.062 37.0473 261.789 39.4547 259.244 40.712C258.017 41.356 256.652 41.8007 255.15 42.046C253.678 42.322 251.899 42.46 249.814 42.46Z" fill="#F1F1F1"/>
</svg>
