<svg width="340" height="51" viewBox="0 0 340 51" fill="none" xmlns="http://www.w3.org/2000/svg">
<rect x="55" y="32" width="232" height="15" fill="#F74264"/>
<path d="M60.6458 12.146H86.9578V42H79.7818V17.206H67.8218V42H60.6458V12.146ZM106.872 42.46C105.216 42.46 103.682 42.3527 102.272 42.138C100.892 41.9233 99.4505 41.5553 97.9478 41.034C96.3225 40.482 95.0498 39.5927 94.1298 38.366C93.2098 37.1087 92.7498 35.5907 92.7498 33.812V20.748C92.7498 19.276 93.0718 17.9573 93.7158 16.792C94.3905 15.6267 95.2492 14.7067 96.2918 14.032C97.2118 13.4493 98.3465 12.9587 99.6958 12.56C101.045 12.1613 102.302 11.916 103.468 11.824C104.541 11.732 105.676 11.686 106.872 11.686C108.282 11.686 109.509 11.7473 110.552 11.87C111.594 11.962 112.76 12.1767 114.048 12.514C115.52 12.9433 116.731 13.4647 117.682 14.078C118.632 14.6913 119.43 15.55 120.074 16.654C120.748 17.7887 121.086 19.1533 121.086 20.748V33.812C121.086 35.468 120.641 36.894 119.752 38.09C118.893 39.286 117.697 40.1907 116.164 40.804C113.404 41.908 110.306 42.46 106.872 42.46ZM106.964 37.354C107.976 37.354 108.819 37.3233 109.494 37.262C110.199 37.17 110.92 37.0167 111.656 36.802C112.392 36.5873 112.944 36.2347 113.312 35.744C113.71 35.2227 113.91 34.5787 113.91 33.812V20.702C113.91 19.2913 113.342 18.2947 112.208 17.712C111.073 17.0987 109.31 16.792 106.918 16.792C104.526 16.792 102.762 17.0833 101.628 17.666C100.493 18.2487 99.9258 19.2607 99.9258 20.702V33.812C99.9258 34.5787 100.125 35.2227 100.524 35.744C100.922 36.2347 101.505 36.5873 102.272 36.802C103.008 37.0167 103.713 37.17 104.388 37.262C105.093 37.3233 105.952 37.354 106.964 37.354ZM126.861 12.146H138.959C141.811 12.146 144.003 12.3607 145.537 12.79C147.101 13.1887 148.205 13.848 148.849 14.768C149.493 15.6573 149.815 16.9147 149.815 18.54V22.22C149.815 23.048 149.477 23.83 148.803 24.566C148.159 25.302 147.392 25.808 146.503 26.084V26.314C147.668 26.4367 148.726 26.9427 149.677 27.832C150.658 28.6907 151.149 29.6567 151.149 30.73V35.33C151.149 37.7527 150.183 39.47 148.251 40.482C146.319 41.494 143.329 42 139.281 42H126.861V12.146ZM138.959 24.29C140.093 24.29 140.937 24.198 141.489 24.014C142.041 23.83 142.409 23.5387 142.593 23.14C142.807 22.7107 142.915 22.0973 142.915 21.3V19.828C142.915 19.1227 142.823 18.6013 142.639 18.264C142.455 17.896 142.071 17.6353 141.489 17.482C140.937 17.3287 140.047 17.252 138.821 17.252H134.037V24.29H138.959ZM139.143 36.894C140.891 36.894 142.133 36.6947 142.869 36.296C143.605 35.8973 143.973 35.2533 143.973 34.364V31.972C143.973 30.868 143.681 30.086 143.099 29.626C142.547 29.166 141.55 28.936 140.109 28.936H134.037V36.894H139.143ZM156.06 12.146H163.236V23.094H167.008C169.737 23.094 171.945 23.232 173.632 23.508C175.319 23.784 176.653 24.382 177.634 25.302C178.615 26.1913 179.106 27.5253 179.106 29.304V34.916C179.106 39.6387 175.089 42 167.054 42H156.06V12.146ZM183.66 12.146H190.836V42H183.66V12.146ZM166.732 36.894C168.541 36.894 169.86 36.6487 170.688 36.158C171.516 35.6367 171.93 34.8547 171.93 33.812V30.638C171.93 29.6873 171.531 29.0433 170.734 28.706C169.937 28.3687 168.633 28.2 166.824 28.2H163.19V36.894H166.732ZM210.5 42.46C209.151 42.46 207.939 42.3987 206.866 42.276C205.823 42.1533 204.673 41.9233 203.416 41.586C202.005 41.218 200.84 40.7427 199.92 40.16C199 39.5467 198.233 38.7033 197.62 37.63C196.976 36.5567 196.654 35.284 196.654 33.812V20.702C196.654 14.6913 201.269 11.686 210.5 11.686C212.861 11.686 216.02 12.0233 219.976 12.698V18.08C216.419 17.2213 213.291 16.792 210.592 16.792C209.457 16.792 208.568 16.8227 207.924 16.884C207.311 16.9453 206.667 17.0987 205.992 17.344C204.551 17.8347 203.83 18.9233 203.83 20.61V33.306C203.83 36.0047 206.299 37.354 211.236 37.354C213.352 37.354 216.327 36.9093 220.16 36.02V41.448C216.879 42.1227 213.659 42.46 210.5 42.46ZM224.745 12.146H231.921V32.57L244.801 12.146H251.977V42H244.801V21.254L231.921 42H224.745V12.146ZM265.337 17.252H256.137V12.146H281.667V17.252H272.513V42H265.337V17.252Z" fill="#F1F1F1"/>
</svg>
