<svg width="340" height="51" viewBox="0 0 340 51" fill="none" xmlns="http://www.w3.org/2000/svg">
<path d="M105.905 12.146H118.003C120.855 12.146 123.047 12.3607 124.581 12.79C126.145 13.1887 127.249 13.848 127.893 14.768C128.537 15.6573 128.859 16.9147 128.859 18.54V22.22C128.859 23.048 128.521 23.83 127.847 24.566C127.203 25.302 126.436 25.808 125.547 26.084V26.314C126.712 26.4367 127.77 26.9427 128.721 27.832C129.702 28.6907 130.193 29.6567 130.193 30.73V35.33C130.193 37.7527 129.227 39.47 127.295 40.482C125.363 41.494 122.373 42 118.325 42H105.905V12.146ZM118.003 24.29C119.137 24.29 119.981 24.198 120.533 24.014C121.085 23.83 121.453 23.5387 121.637 23.14C121.851 22.7107 121.959 22.0973 121.959 21.3V19.828C121.959 19.1227 121.867 18.6013 121.683 18.264C121.499 17.896 121.115 17.6353 120.533 17.482C119.981 17.3287 119.091 17.252 117.865 17.252H113.081V24.29H118.003ZM118.187 36.894C119.935 36.894 121.177 36.6947 121.913 36.296C122.649 35.8973 123.017 35.2533 123.017 34.364V31.972C123.017 30.868 122.725 30.086 122.143 29.626C121.591 29.166 120.594 28.936 119.153 28.936H113.081V36.894H118.187ZM143.016 12.146H151.756L162.52 42H155.252L152.584 34.134H141.682L139.06 42H131.976L143.016 12.146ZM151.02 29.35L147.248 18.126H147.064L143.292 29.35H151.02ZM165.83 12.146H173.006V36.94H182.39V12.146H189.566V36.94H198.95V12.146H206.126V42H165.83V12.146ZM216.873 42.46C215.769 42.46 214.435 42.3067 212.871 42V36.756C213.515 36.9093 214.144 37.0473 214.757 37.17C215.401 37.2927 216.014 37.354 216.597 37.354C217.456 37.354 218.176 37.1547 218.759 36.756C219.372 36.3267 219.894 35.6827 220.323 34.824L220.967 33.49L209.421 12.146H216.919L224.417 27.142H224.601L230.535 12.146H237.757L226.947 36.112C225.966 38.32 224.724 39.93 223.221 40.942C221.718 41.954 219.602 42.46 216.873 42.46Z" fill="#F1F1F1"/>
</svg>
