<svg width="340" height="51" viewBox="0 0 340 51" fill="none" xmlns="http://www.w3.org/2000/svg">
<path d="M61.8362 12.146H73.9342C76.7862 12.146 78.9789 12.3607 80.5122 12.79C82.0762 13.1887 83.1802 13.848 83.8242 14.768C84.4682 15.6573 84.7902 16.9147 84.7902 18.54V22.22C84.7902 23.048 84.4529 23.83 83.7782 24.566C83.1342 25.302 82.3675 25.808 81.4782 26.084V26.314C82.6435 26.4367 83.7015 26.9427 84.6522 27.832C85.6335 28.6907 86.1242 29.6567 86.1242 30.73V35.33C86.1242 37.7527 85.1582 39.47 83.2262 40.482C81.2942 41.494 78.3042 42 74.2562 42H61.8362V12.146ZM73.9342 24.29C75.0689 24.29 75.9122 24.198 76.4642 24.014C77.0162 23.83 77.3842 23.5387 77.5682 23.14C77.7829 22.7107 77.8902 22.0973 77.8902 21.3V19.828C77.8902 19.1227 77.7982 18.6013 77.6142 18.264C77.4302 17.896 77.0469 17.6353 76.4642 17.482C75.9122 17.3287 75.0229 17.252 73.7962 17.252H69.0122V24.29H73.9342ZM74.1182 36.894C75.8662 36.894 77.1082 36.6947 77.8442 36.296C78.5802 35.8973 78.9482 35.2533 78.9482 34.364V31.972C78.9482 30.868 78.6569 30.086 78.0742 29.626C77.5222 29.166 76.5255 28.936 75.0842 28.936H69.0122V36.894H74.1182ZM91.0354 12.146H113.805V17.252H98.2114V24.106H112.287V29.212H98.2114V36.894H114.265V42H91.0354V12.146ZM119.112 12.146H140.318V17.252H126.288V24.014H130.75C133.51 24.014 135.718 24.1827 137.374 24.52C139.03 24.8267 140.287 25.44 141.146 26.36C142.035 27.2493 142.48 28.5373 142.48 30.224V34.916C142.48 39.6387 138.462 42 130.428 42H119.112V12.146ZM130.106 36.894C131.915 36.894 133.234 36.6487 134.062 36.158C134.89 35.6367 135.304 34.8547 135.304 33.812V31.558C135.304 30.6073 134.905 29.9633 134.108 29.626C133.31 29.2887 132.007 29.12 130.198 29.12H126.242V36.894H130.106ZM146.167 26.268H160.335V31.42H146.167V26.268ZM178.583 42.46C177.234 42.46 176.022 42.3987 174.949 42.276C173.906 42.1533 172.756 41.9233 171.499 41.586C170.088 41.218 168.923 40.7427 168.003 40.16C167.083 39.5467 166.316 38.7033 165.703 37.63C165.059 36.5567 164.737 35.284 164.737 33.812V20.702C164.737 14.6913 169.352 11.686 178.583 11.686C180.944 11.686 184.103 12.0233 188.059 12.698V18.08C184.502 17.2213 181.374 16.792 178.675 16.792C177.54 16.792 176.651 16.8227 176.007 16.884C175.394 16.9453 174.75 17.0987 174.075 17.344C172.634 17.8347 171.913 18.9233 171.913 20.61V33.306C171.913 36.0047 174.382 37.354 179.319 37.354C181.435 37.354 184.41 36.9093 188.243 36.02V41.448C184.962 42.1227 181.742 42.46 178.583 42.46ZM200.74 12.146H209.48L220.244 42H212.976L210.308 34.134H199.406L196.784 42H189.7L200.74 12.146ZM208.744 29.35L204.972 18.126H204.788L201.016 29.35H208.744ZM223.555 12.146H230.731V32.57L243.611 12.146H250.787V42H243.611V21.254L230.731 42H223.555V12.146ZM237.217 8.972C234.181 8.972 231.881 8.31266 230.317 6.994C228.753 5.64466 227.971 3.89666 227.971 1.75H233.721C233.874 3.06867 234.212 4.004 234.733 4.556C235.285 5.108 236.113 5.384 237.217 5.384C238.321 5.384 239.134 5.108 239.655 4.556C240.207 4.004 240.56 3.06867 240.713 1.75H246.463C246.463 3.89666 245.681 5.64466 244.117 6.994C242.553 8.31266 240.253 8.972 237.217 8.972ZM264.146 17.252H254.946V12.146H280.476V17.252H271.322V42H264.146V17.252Z" fill="#F1F1F1"/>
</svg>
