<svg width="340" height="51" viewBox="0 0 340 51" fill="none" xmlns="http://www.w3.org/2000/svg">
<path d="M78.8167 12.146H98.7347V17.252H85.9927V42H78.8167V12.146ZM116.373 42.46C114.717 42.46 113.183 42.3527 111.773 42.138C110.393 41.9233 108.951 41.5553 107.449 41.034C105.823 40.482 104.551 39.5927 103.631 38.366C102.711 37.1087 102.251 35.5907 102.251 33.812V20.748C102.251 19.276 102.573 17.9573 103.217 16.792C103.891 15.6267 104.75 14.7067 105.793 14.032C106.713 13.4493 107.847 12.9587 109.197 12.56C110.546 12.1613 111.803 11.916 112.969 11.824C114.042 11.732 115.177 11.686 116.373 11.686C117.783 11.686 119.01 11.7473 120.053 11.87C121.095 11.962 122.261 12.1767 123.549 12.514C125.021 12.9433 126.232 13.4647 127.183 14.078C128.133 14.6913 128.931 15.55 129.575 16.654C130.249 17.7887 130.587 19.1533 130.587 20.748V33.812C130.587 35.468 130.142 36.894 129.253 38.09C128.394 39.286 127.198 40.1907 125.665 40.804C122.905 41.908 119.807 42.46 116.373 42.46ZM116.465 37.354C117.477 37.354 118.32 37.3233 118.995 37.262C119.7 37.17 120.421 37.0167 121.157 36.802C121.893 36.5873 122.445 36.2347 122.813 35.744C123.211 35.2227 123.411 34.5787 123.411 33.812V20.702C123.411 19.2913 122.843 18.2947 121.709 17.712C120.574 17.0987 118.811 16.792 116.419 16.792C114.027 16.792 112.263 17.0833 111.129 17.666C109.994 18.2487 109.427 19.2607 109.427 20.702V33.812C109.427 34.5787 109.626 35.2227 110.025 35.744C110.423 36.2347 111.006 36.5873 111.773 36.802C112.509 37.0167 113.214 37.17 113.889 37.262C114.594 37.3233 115.453 37.354 116.465 37.354ZM143.262 17.252H134.062V12.146H159.592V17.252H150.438V42H143.262V17.252ZM177.197 42.46C175.541 42.46 174.008 42.3527 172.597 42.138C171.217 41.9233 169.776 41.5553 168.273 41.034C166.648 40.482 165.375 39.5927 164.455 38.366C163.535 37.1087 163.075 35.5907 163.075 33.812V20.748C163.075 19.276 163.397 17.9573 164.041 16.792C164.716 15.6267 165.574 14.7067 166.617 14.032C167.537 13.4493 168.672 12.9587 170.021 12.56C171.37 12.1613 172.628 11.916 173.793 11.824C174.866 11.732 176.001 11.686 177.197 11.686C178.608 11.686 179.834 11.7473 180.877 11.87C181.92 11.962 183.085 12.1767 184.373 12.514C185.845 12.9433 187.056 13.4647 188.007 14.078C188.958 14.6913 189.755 15.55 190.399 16.654C191.074 17.7887 191.411 19.1533 191.411 20.748V33.812C191.411 35.468 190.966 36.894 190.077 38.09C189.218 39.286 188.022 40.1907 186.489 40.804C183.729 41.908 180.632 42.46 177.197 42.46ZM177.289 37.354C178.301 37.354 179.144 37.3233 179.819 37.262C180.524 37.17 181.245 37.0167 181.981 36.802C182.717 36.5873 183.269 36.2347 183.637 35.744C184.036 35.2227 184.235 34.5787 184.235 33.812V20.702C184.235 19.2913 183.668 18.2947 182.533 17.712C181.398 17.0987 179.635 16.792 177.243 16.792C174.851 16.792 173.088 17.0833 171.953 17.666C170.818 18.2487 170.251 19.2607 170.251 20.702V33.812C170.251 34.5787 170.45 35.2227 170.849 35.744C171.248 36.2347 171.83 36.5873 172.597 36.802C173.333 37.0167 174.038 37.17 174.713 37.262C175.418 37.3233 176.277 37.354 177.289 37.354ZM197.186 12.146H209.284C212.136 12.146 214.328 12.3607 215.862 12.79C217.426 13.1887 218.53 13.848 219.174 14.768C219.818 15.6573 220.14 16.9147 220.14 18.54V22.22C220.14 23.048 219.802 23.83 219.128 24.566C218.484 25.302 217.717 25.808 216.828 26.084V26.314C217.993 26.4367 219.051 26.9427 220.002 27.832C220.983 28.6907 221.474 29.6567 221.474 30.73V35.33C221.474 37.7527 220.508 39.47 218.576 40.482C216.644 41.494 213.654 42 209.606 42H197.186V12.146ZM209.284 24.29C210.418 24.29 211.262 24.198 211.814 24.014C212.366 23.83 212.734 23.5387 212.918 23.14C213.132 22.7107 213.24 22.0973 213.24 21.3V19.828C213.24 19.1227 213.148 18.6013 212.964 18.264C212.78 17.896 212.396 17.6353 211.814 17.482C211.262 17.3287 210.372 17.252 209.146 17.252H204.362V24.29H209.284ZM209.468 36.894C211.216 36.894 212.458 36.6947 213.194 36.296C213.93 35.8973 214.298 35.2533 214.298 34.364V31.972C214.298 30.868 214.006 30.086 213.424 29.626C212.872 29.166 211.875 28.936 210.434 28.936H204.362V36.894H209.468ZM226.385 12.146H233.561V23.094H237.333C240.062 23.094 242.27 23.232 243.957 23.508C245.644 23.784 246.978 24.382 247.959 25.302C248.94 26.1913 249.431 27.5253 249.431 29.304V34.916C249.431 39.6387 245.414 42 237.379 42H226.385V12.146ZM253.985 12.146H261.161V42H253.985V12.146ZM237.057 36.894C238.866 36.894 240.185 36.6487 241.013 36.158C241.841 35.6367 242.255 34.8547 242.255 33.812V30.638C242.255 29.6873 241.856 29.0433 241.059 28.706C240.262 28.3687 238.958 28.2 237.149 28.2H233.515V36.894H237.057Z" fill="#F1F1F1"/>
</svg>
