<svg width="340" height="51" viewBox="0 0 340 51" fill="none" xmlns="http://www.w3.org/2000/svg">
<path d="M84.095 12.146H91.271V24.106H103.967V12.146H111.143V42H103.967V29.212H91.271V42H84.095V12.146ZM131.04 42.46C129.384 42.46 127.85 42.3527 126.44 42.138C125.06 41.9233 123.618 41.5553 122.116 41.034C120.49 40.482 119.218 39.5927 118.298 38.366C117.378 37.1087 116.918 35.5907 116.918 33.812V20.748C116.918 19.276 117.24 17.9573 117.884 16.792C118.558 15.6267 119.417 14.7067 120.46 14.032C121.38 13.4493 122.514 12.9587 123.864 12.56C125.213 12.1613 126.47 11.916 127.636 11.824C128.709 11.732 129.844 11.686 131.04 11.686C132.45 11.686 133.677 11.7473 134.72 11.87C135.762 11.962 136.928 12.1767 138.216 12.514C139.688 12.9433 140.899 13.4647 141.85 14.078C142.8 14.6913 143.598 15.55 144.242 16.654C144.916 17.7887 145.254 19.1533 145.254 20.748V33.812C145.254 35.468 144.809 36.894 143.92 38.09C143.061 39.286 141.865 40.1907 140.332 40.804C137.572 41.908 134.474 42.46 131.04 42.46ZM131.132 37.354C132.144 37.354 132.987 37.3233 133.662 37.262C134.367 37.17 135.088 37.0167 135.824 36.802C136.56 36.5873 137.112 36.2347 137.48 35.744C137.878 35.2227 138.078 34.5787 138.078 33.812V20.702C138.078 19.2913 137.51 18.2947 136.376 17.712C135.241 17.0987 133.478 16.792 131.086 16.792C128.694 16.792 126.93 17.0833 125.796 17.666C124.661 18.2487 124.094 19.2607 124.094 20.702V33.812C124.094 34.5787 124.293 35.2227 124.692 35.744C125.09 36.2347 125.673 36.5873 126.44 36.802C127.176 37.0167 127.881 37.17 128.556 37.262C129.261 37.3233 130.12 37.354 131.132 37.354ZM151.029 12.146H163.127C165.979 12.146 168.171 12.3607 169.705 12.79C171.269 13.1887 172.373 13.848 173.017 14.768C173.661 15.6573 173.983 16.9147 173.983 18.54V22.22C173.983 23.048 173.645 23.83 172.971 24.566C172.327 25.302 171.56 25.808 170.671 26.084V26.314C171.836 26.4367 172.894 26.9427 173.845 27.832C174.826 28.6907 175.317 29.6567 175.317 30.73V35.33C175.317 37.7527 174.351 39.47 172.419 40.482C170.487 41.494 167.497 42 163.449 42H151.029V12.146ZM163.127 24.29C164.261 24.29 165.105 24.198 165.657 24.014C166.209 23.83 166.577 23.5387 166.761 23.14C166.975 22.7107 167.083 22.0973 167.083 21.3V19.828C167.083 19.1227 166.991 18.6013 166.807 18.264C166.623 17.896 166.239 17.6353 165.657 17.482C165.105 17.3287 164.215 17.252 162.989 17.252H158.205V24.29H163.127ZM163.311 36.894C165.059 36.894 166.301 36.6947 167.037 36.296C167.773 35.8973 168.141 35.2533 168.141 34.364V31.972C168.141 30.868 167.849 30.086 167.267 29.626C166.715 29.166 165.718 28.936 164.277 28.936H158.205V36.894H163.311ZM180.228 12.146H187.404V23.094H191.176C193.905 23.094 196.113 23.232 197.8 23.508C199.486 23.784 200.82 24.382 201.802 25.302C202.783 26.1913 203.274 27.5253 203.274 29.304V34.916C203.274 39.6387 199.256 42 191.222 42H180.228V12.146ZM207.828 12.146H215.004V42H207.828V12.146ZM190.9 36.894C192.709 36.894 194.028 36.6487 194.856 36.158C195.684 35.6367 196.098 34.8547 196.098 33.812V30.638C196.098 29.6873 195.699 29.0433 194.902 28.706C194.104 28.3687 192.801 28.2 190.992 28.2H187.358V36.894H190.9ZM221.466 12.146H231.678L239.038 33.49L246.306 12.146H255.92V42H249.434V19.92H249.296L241.752 42H236.002L228.228 19.92H228.044V42H221.466V12.146Z" fill="#F1F1F1"/>
</svg>
