<svg width="342" height="51" viewBox="0 0 342 51" fill="none" xmlns="http://www.w3.org/2000/svg">
<path d="M1.16922 12.146H13.1292C16.0426 12.146 18.3426 12.3453 20.0292 12.744C21.7466 13.1427 22.9886 13.848 23.7552 14.86C24.5526 15.8413 24.9512 17.2213 24.9512 19V24.658C24.9512 26.6207 24.5219 28.154 23.6632 29.258C22.8352 30.362 21.5012 31.144 19.6612 31.604C17.8519 32.064 15.3986 32.294 12.3012 32.294H8.34522V42H1.16922V12.146ZM12.8992 27.372C14.7699 27.372 16.0886 27.1573 16.8552 26.728C17.6219 26.268 18.0052 25.5013 18.0052 24.428V19.644C18.0052 18.6627 17.6372 18.0187 16.9012 17.712C16.1959 17.4053 14.8312 17.252 12.8072 17.252H8.34522V27.372H12.8992ZM37.9211 12.146H46.6611L57.4251 42H50.1571L47.4891 34.134H36.5871L33.9651 42H26.8811L37.9211 12.146ZM45.9251 29.35L42.1531 18.126H41.9691L38.1971 29.35H45.9251ZM60.7356 12.146H81.9416V17.252H67.9116V24.014H72.3736C75.1336 24.014 77.3416 24.1827 78.9976 24.52C80.6536 24.8267 81.911 25.44 82.7696 26.36C83.659 27.2493 84.1036 28.5373 84.1036 30.224V34.916C84.1036 39.6387 80.0863 42 72.0516 42H60.7356V12.146ZM71.7296 36.894C73.539 36.894 74.8576 36.6487 75.6856 36.158C76.5136 35.6367 76.9276 34.8547 76.9276 33.812V31.558C76.9276 30.6073 76.529 29.9633 75.7316 29.626C74.9343 29.2887 73.631 29.12 71.8216 29.12H67.8656V36.894H71.7296ZM102.649 42.46C100.993 42.46 99.4598 42.3527 98.0492 42.138C96.6692 41.9233 95.2278 41.5553 93.7252 41.034C92.0998 40.482 90.8272 39.5927 89.9072 38.366C88.9872 37.1087 88.5272 35.5907 88.5272 33.812V20.748C88.5272 19.276 88.8492 17.9573 89.4932 16.792C90.1678 15.6267 91.0265 14.7067 92.0692 14.032C92.9892 13.4493 94.1238 12.9587 95.4732 12.56C96.8225 12.1613 98.0798 11.916 99.2452 11.824C100.319 11.732 101.453 11.686 102.649 11.686C104.06 11.686 105.287 11.7473 106.329 11.87C107.372 11.962 108.537 12.1767 109.825 12.514C111.297 12.9433 112.509 13.4647 113.459 14.078C114.41 14.6913 115.207 15.55 115.851 16.654C116.526 17.7887 116.863 19.1533 116.863 20.748V33.812C116.863 35.468 116.419 36.894 115.529 38.09C114.671 39.286 113.475 40.1907 111.941 40.804C109.181 41.908 106.084 42.46 102.649 42.46ZM102.741 37.354C103.753 37.354 104.597 37.3233 105.271 37.262C105.977 37.17 106.697 37.0167 107.433 36.802C108.169 36.5873 108.721 36.2347 109.089 35.744C109.488 35.2227 109.687 34.5787 109.687 33.812V20.702C109.687 19.2913 109.12 18.2947 107.985 17.712C106.851 17.0987 105.087 16.792 102.695 16.792C100.303 16.792 98.5398 17.0833 97.4052 17.666C96.2705 18.2487 95.7032 19.2607 95.7032 20.702V33.812C95.7032 34.5787 95.9025 35.2227 96.3012 35.744C96.6998 36.2347 97.2825 36.5873 98.0492 36.802C98.7852 37.0167 99.4905 37.17 100.165 37.262C100.871 37.3233 101.729 37.354 102.741 37.354ZM129.538 17.252H120.338V12.146H145.868V17.252H136.714V42H129.538V17.252ZM157.907 12.146H166.647L177.411 42H170.143L167.475 34.134H156.573L153.951 42H146.867L157.907 12.146ZM165.911 29.35L162.139 18.126H161.955L158.183 29.35H165.911ZM187.622 17.252H178.422V12.146H203.952V17.252H194.798V42H187.622V17.252ZM208.079 12.146H215.255V23.094H218.843C221.787 23.094 224.118 23.232 225.835 23.508C227.583 23.7533 228.948 24.336 229.929 25.256C230.941 26.1453 231.447 27.4947 231.447 29.304V34.916C231.447 39.6387 227.43 42 219.395 42H208.079V12.146ZM219.073 36.894C220.883 36.894 222.201 36.6487 223.029 36.158C223.857 35.6367 224.271 34.8547 224.271 33.812V30.638C224.271 29.6873 223.873 29.0433 223.075 28.706C222.278 28.3687 220.975 28.2 219.165 28.2H215.209V36.894H219.073ZM247.116 12.146H254.292V24.106H266.988V12.146H274.164V42H266.988V29.212H254.292V42H247.116V12.146ZM288.495 12.146H297.235L307.999 42H300.731L298.063 34.134H287.161L284.539 42H277.455L288.495 12.146ZM296.499 29.35L292.727 18.126H292.543L288.771 29.35H296.499ZM308.78 36.894H309.424C310.681 36.894 311.693 36.4187 312.46 35.468C313.257 34.4867 313.871 32.708 314.3 30.132C314.729 27.556 314.944 23.9067 314.944 19.184V12.146H336.656V36.894H341.026V48.946H334.586V42H315.22V48.946H308.78V36.894ZM329.48 36.94V17.206H321.384V20.886C321.384 28.6447 320.387 33.996 318.394 36.94H329.48Z" fill="#F1F1F1"/>
</svg>
