<svg width="340" height="51" viewBox="0 0 340 51" fill="none" xmlns="http://www.w3.org/2000/svg">
<path d="M40.678 12.146H66.99V42H59.814V17.206H47.854V42H40.678V12.146ZM73.4261 12.146H85.3861C88.2994 12.146 90.5994 12.3453 92.2861 12.744C94.0034 13.1427 95.2454 13.848 96.0121 14.86C96.8094 15.8413 97.2081 17.2213 97.2081 19V24.658C97.2081 26.6207 96.7787 28.154 95.9201 29.258C95.0921 30.362 93.7581 31.144 91.9181 31.604C90.1087 32.064 87.6554 32.294 84.5581 32.294H80.6021V42H73.4261V12.146ZM85.1561 27.372C87.0267 27.372 88.3454 27.1573 89.1121 26.728C89.8787 26.268 90.2621 25.5013 90.2621 24.428V19.644C90.2621 18.6627 89.8941 18.0187 89.1581 17.712C88.4527 17.4053 87.0881 17.252 85.0641 17.252H80.6021V27.372H85.1561ZM134.071 12.146H156.841V17.252H141.247V24.106H155.323V29.212H141.247V36.894H157.301V42H134.071V12.146ZM162.147 12.146H169.323V23.922C170.672 23.922 171.761 23.6767 172.589 23.186C173.417 22.6647 174.321 21.6833 175.303 20.242L180.915 12.146H188.965L182.525 21.116C181.543 22.496 180.639 23.554 179.811 24.29C179.013 24.9953 178.017 25.578 176.821 26.038V26.13C178.354 26.498 179.627 27.1573 180.639 28.108C181.681 29.0587 182.693 30.4387 183.675 32.248L188.965 42H180.915L176.039 33.214C175.395 32.0487 174.766 31.1747 174.153 30.592C173.57 29.9787 172.911 29.5647 172.175 29.35C171.439 29.1353 170.488 29.028 169.323 29.028V42H162.147V12.146ZM199.189 17.252H189.989V12.146H215.519V17.252H206.365V42H199.189V17.252ZM233.125 42.46C231.469 42.46 229.935 42.3527 228.525 42.138C227.145 41.9233 225.703 41.5553 224.201 41.034C222.575 40.482 221.303 39.5927 220.383 38.366C219.463 37.1087 219.003 35.5907 219.003 33.812V20.748C219.003 19.276 219.325 17.9573 219.969 16.792C220.643 15.6267 221.502 14.7067 222.545 14.032C223.465 13.4493 224.599 12.9587 225.949 12.56C227.298 12.1613 228.555 11.916 229.721 11.824C230.794 11.732 231.929 11.686 233.125 11.686C234.535 11.686 235.762 11.7473 236.805 11.87C237.847 11.962 239.013 12.1767 240.301 12.514C241.773 12.9433 242.984 13.4647 243.935 14.078C244.885 14.6913 245.683 15.55 246.327 16.654C247.001 17.7887 247.339 19.1533 247.339 20.748V33.812C247.339 35.468 246.894 36.894 246.005 38.09C245.146 39.286 243.95 40.1907 242.417 40.804C239.657 41.908 236.559 42.46 233.125 42.46ZM233.217 37.354C234.229 37.354 235.072 37.3233 235.747 37.262C236.452 37.17 237.173 37.0167 237.909 36.802C238.645 36.5873 239.197 36.2347 239.565 35.744C239.963 35.2227 240.163 34.5787 240.163 33.812V20.702C240.163 19.2913 239.595 18.2947 238.461 17.712C237.326 17.0987 235.563 16.792 233.171 16.792C230.779 16.792 229.015 17.0833 227.881 17.666C226.746 18.2487 226.179 19.2607 226.179 20.702V33.812C226.179 34.5787 226.378 35.2227 226.777 35.744C227.175 36.2347 227.758 36.5873 228.525 36.802C229.261 37.0167 229.966 37.17 230.641 37.262C231.346 37.3233 232.205 37.354 233.217 37.354ZM253.114 12.146H263.326L270.686 33.49L277.954 12.146H287.568V42H281.082V19.92H280.944L273.4 42H267.65L259.876 19.92H259.692V42H253.114V12.146ZM293.072 35.652H300.248V42H293.072V35.652Z" fill="#F1F1F1"/>
<path d="M115.209 42C123.881 42 130.365 35.6377 130.365 27C130.365 18.3624 123.881 12 115.209 12C106.454 12 100.012 18.4045 100.012 27C100.012 35.5955 106.454 42 115.209 42ZM115.209 39.2191C108.23 39.2191 103.026 34.0365 103.026 27C103.026 19.9635 108.23 14.7809 115.209 14.7809C122.147 14.7809 127.309 19.9635 127.309 27C127.309 34.0365 122.147 39.2191 115.209 39.2191Z" fill="#F1F1F1"/>
<path d="M125.07 27.1757C125.07 32.6338 120.726 37.0587 115.365 37.0587C110.003 37.0587 105.659 32.6351 105.659 27.1757C105.659 26.5195 105.723 25.8809 105.843 25.2621C110.612 27.0437 115.312 22.3562 113.623 17.4521C114.186 17.3537 114.769 17.2939 115.363 17.2939C120.724 17.2939 125.069 21.7213 125.069 27.1769L125.07 27.1757Z" fill="#F74264"/>
</svg>
