<svg width="340" height="51" viewBox="0 0 340 51" fill="none" xmlns="http://www.w3.org/2000/svg">
<path d="M72.4732 42V10.352H87.1472C89.1098 10.352 90.7045 10.5973 91.9312 11.088C93.1885 11.5787 94.1545 12.284 94.8292 13.204C95.5038 14.0933 95.9638 15.182 96.2092 16.47C96.4852 17.758 96.6232 19.2147 96.6232 20.84C96.6232 22.3427 96.5005 23.738 96.2552 25.026C96.0405 26.2833 95.5958 27.3873 94.9212 28.338C94.2465 29.2887 93.2652 30.0247 91.9772 30.546C90.7198 31.0673 89.0485 31.328 86.9632 31.328H79.0052V42H72.4732ZM79.0052 25.992H84.3872C85.7058 25.992 86.7485 25.9307 87.5152 25.808C88.2818 25.6547 88.8492 25.394 89.2172 25.026C89.5852 24.658 89.8152 24.1367 89.9072 23.462C90.0298 22.7873 90.0912 21.9133 90.0912 20.84C90.0912 19.7667 90.0298 18.8927 89.9072 18.218C89.8152 17.5433 89.5852 17.022 89.2172 16.654C88.8798 16.2553 88.3432 15.9947 87.6072 15.872C86.8712 15.7187 85.8592 15.642 84.5712 15.642H79.0052V25.992ZM102.256 42V10.352H117.39C119.445 10.352 121.086 10.582 122.312 11.042C123.57 11.502 124.52 12.1767 125.164 13.066C125.808 13.9247 126.238 14.9827 126.452 16.24C126.698 17.4667 126.82 18.8467 126.82 20.38C126.82 21.4533 126.728 22.6033 126.544 23.83C126.36 25.0567 125.946 26.1913 125.302 27.234C124.689 28.2767 123.708 29.0433 122.358 29.534L127.418 42H120.518L115.734 29.304L117.344 30.178C117.13 30.27 116.869 30.3313 116.562 30.362C116.286 30.3927 115.964 30.408 115.596 30.408H108.788V42H102.256ZM108.788 25.118H114.768C116.056 25.118 117.068 25.0413 117.804 24.888C118.54 24.7347 119.092 24.4893 119.46 24.152C119.828 23.784 120.058 23.3087 120.15 22.726C120.242 22.1127 120.288 21.3307 120.288 20.38C120.288 19.4293 120.242 18.6473 120.15 18.034C120.058 17.4207 119.844 16.9453 119.506 16.608C119.169 16.2707 118.617 16.0253 117.85 15.872C117.114 15.7187 116.102 15.642 114.814 15.642H108.788V25.118ZM167.438 42V10.352H173.97V42H167.438ZM181.499 42V10.352H203.119V15.688H188.031V23.37H200.957V28.706H188.031V36.664H203.119V42H181.499ZM221.722 42.368C219.391 42.368 217.444 42.2147 215.88 41.908C214.316 41.6013 213.043 41.08 212.062 40.344C211.081 39.608 210.329 38.6267 209.808 37.4C209.317 36.1733 208.98 34.64 208.796 32.8C208.612 30.96 208.52 28.752 208.52 26.176C208.52 23.6 208.612 21.392 208.796 19.552C208.98 17.712 209.317 16.1787 209.808 14.952C210.329 13.7253 211.081 12.744 212.062 12.008C213.043 11.272 214.316 10.7507 215.88 10.444C217.444 10.1373 219.391 9.984 221.722 9.984C222.611 9.984 223.531 10.0147 224.482 10.076C225.463 10.1373 226.399 10.2293 227.288 10.352C228.177 10.4747 228.929 10.6127 229.542 10.766V15.78C228.714 15.688 227.917 15.6113 227.15 15.55C226.383 15.458 225.663 15.3967 224.988 15.366C224.344 15.3353 223.792 15.32 223.332 15.32C221.768 15.32 220.48 15.3813 219.468 15.504C218.456 15.6267 217.643 15.8873 217.03 16.286C216.447 16.654 216.018 17.2367 215.742 18.034C215.466 18.8007 215.282 19.8433 215.19 21.162C215.098 22.4807 215.052 24.152 215.052 26.176C215.052 28.1693 215.098 29.8407 215.19 31.19C215.282 32.5087 215.466 33.5667 215.742 34.364C216.018 35.1307 216.447 35.7133 217.03 36.112C217.643 36.48 218.456 36.7253 219.468 36.848C220.48 36.9707 221.768 37.032 223.332 37.032C224.344 37.032 225.448 36.986 226.644 36.894C227.84 36.802 228.867 36.6947 229.726 36.572V41.678C229.051 41.8007 228.254 41.908 227.334 42C226.414 42.1227 225.463 42.2147 224.482 42.276C223.531 42.3373 222.611 42.368 221.722 42.368ZM242.067 42V15.872H232.913V10.352H257.753V15.872H248.599V42H242.067ZM261.665 42V35.974H268.335V42H261.665Z" fill="#F1F1F1"/>
<path d="M147.21 42C156.461 42 163.376 35.2135 163.376 26C163.376 16.7865 156.461 10 147.21 10C137.872 10 131 16.8315 131 26C131 35.1686 137.872 42 147.21 42ZM147.21 39.0337C139.766 39.0337 134.216 33.5056 134.216 26C134.216 18.4944 139.766 12.9663 147.21 12.9663C154.611 12.9663 160.117 18.4944 160.117 26C160.117 33.5056 154.611 39.0337 147.21 39.0337Z" fill="#F1F1F1"/>
<path d="M157.729 26.1875C157.729 32.0095 153.095 36.7293 147.376 36.7293C141.657 36.7293 137.023 32.0109 137.023 26.1875C137.023 25.4876 137.093 24.8064 137.22 24.1463C142.307 26.0467 147.32 21.0467 145.519 15.8156C146.119 15.7107 146.741 15.647 147.375 15.647C153.093 15.647 157.728 20.3695 157.728 26.1888L157.729 26.1875Z" fill="#F74264"/>
</svg>
