<svg width="340" height="51" viewBox="0 0 340 51" fill="none" xmlns="http://www.w3.org/2000/svg">
<path d="M55.6188 42.368C54.4535 42.368 53.1655 42.3373 51.7548 42.276C50.3748 42.2147 49.0255 42.1227 47.7068 42C46.3882 41.908 45.1768 41.8007 44.0728 41.678V36.48C45.2075 36.572 46.3575 36.664 47.5228 36.756C48.7188 36.848 49.8535 36.9247 50.9268 36.986C52.0002 37.0167 52.9202 37.032 53.6868 37.032C55.2508 37.032 56.4622 36.9707 57.3208 36.848C58.1795 36.6947 58.8235 36.48 59.2528 36.204C59.5902 35.9587 59.8202 35.698 59.9428 35.422C60.0655 35.1153 60.1422 34.7627 60.1728 34.364C60.2035 33.9347 60.2188 33.4593 60.2188 32.938C60.2188 32.2327 60.1728 31.65 60.0808 31.19C60.0195 30.73 59.8968 30.3773 59.7128 30.132C59.5288 29.856 59.2222 29.6567 58.7928 29.534C58.3942 29.4113 57.8728 29.3193 57.2288 29.258L50.1448 28.384C48.7342 28.2 47.5688 27.878 46.6488 27.418C45.7595 26.958 45.0542 26.3447 44.5328 25.578C44.0115 24.8113 43.6435 23.9067 43.4288 22.864C43.2448 21.8213 43.1528 20.6407 43.1528 19.322C43.1528 17.2367 43.4442 15.5807 44.0268 14.354C44.6095 13.1273 45.4222 12.192 46.4648 11.548C47.5382 10.904 48.7955 10.49 50.2368 10.306C51.6782 10.0913 53.2422 9.984 54.9288 9.984C56.1555 9.984 57.4128 10.03 58.7008 10.122C59.9888 10.1833 61.2002 10.2753 62.3348 10.398C63.4695 10.5207 64.4202 10.674 65.1868 10.858V15.918C64.4202 15.7953 63.5308 15.688 62.5188 15.596C61.5068 15.504 60.4488 15.4427 59.3448 15.412C58.2408 15.3507 57.1982 15.32 56.2168 15.32C54.7755 15.32 53.6255 15.3813 52.7668 15.504C51.9388 15.596 51.2948 15.7647 50.8348 16.01C50.3135 16.3167 49.9915 16.7153 49.8688 17.206C49.7768 17.6967 49.7308 18.31 49.7308 19.046C49.7308 19.966 49.7922 20.6713 49.9148 21.162C50.0375 21.622 50.3288 21.944 50.7888 22.128C51.2488 22.312 51.9695 22.4653 52.9508 22.588L60.0348 23.416C60.8935 23.508 61.6908 23.6613 62.4268 23.876C63.1628 24.0907 63.8222 24.428 64.4048 24.888C64.9875 25.348 65.4628 25.992 65.8308 26.82C66.0455 27.2493 66.2142 27.7553 66.3368 28.338C66.4595 28.89 66.5515 29.5187 66.6128 30.224C66.7048 30.9293 66.7508 31.7113 66.7508 32.57C66.7508 34.3487 66.5668 35.836 66.1988 37.032C65.8615 38.228 65.3708 39.1787 64.7268 39.884C64.0828 40.5893 63.2855 41.126 62.3348 41.494C61.4148 41.862 60.3875 42.092 59.2528 42.184C58.1182 42.3067 56.9068 42.368 55.6188 42.368ZM69.9302 42L80.6482 10.352H89.3882L100.106 42H93.4362L91.0902 35.008H78.7162L76.4622 42H69.9302ZM80.3722 29.718H89.3882L85.0182 16.286H84.7422L80.3722 29.718ZM84.9722 7.408C83.4389 7.408 82.2122 7.23933 81.2922 6.902C80.4029 6.56466 79.7282 6.10466 79.2682 5.522C78.8389 4.90867 78.5476 4.188 78.3942 3.36C78.2716 2.50133 78.2102 1.58133 78.2102 0.599998H81.7062C81.7062 1.30533 81.7522 1.90333 81.8442 2.394C81.9362 2.88466 82.2122 3.268 82.6722 3.544C83.1322 3.82 83.8836 3.958 84.9262 3.958C86.0302 3.958 86.7969 3.82 87.2262 3.544C87.6862 3.268 87.9622 2.88466 88.0542 2.394C88.1769 1.90333 88.2382 1.30533 88.2382 0.599998H91.7802C91.7802 1.58133 91.7036 2.50133 91.5502 3.36C91.4276 4.188 91.1362 4.90867 90.6762 5.522C90.2162 6.10466 89.5262 6.56466 88.6062 6.902C87.6862 7.23933 86.4749 7.408 84.9722 7.408ZM115.913 42V10.352H122.445V36.48H135.693V42H115.913ZM152.947 42.368C150.708 42.368 148.837 42.23 147.335 41.954C145.832 41.678 144.621 41.2333 143.701 40.62C142.781 40.0067 142.075 39.148 141.585 38.044C141.125 36.94 140.803 35.56 140.619 33.904C140.465 32.2173 140.389 30.2087 140.389 27.878V10.352H146.921V29.534C146.921 31.1593 146.967 32.478 147.059 33.49C147.181 34.4713 147.411 35.2227 147.749 35.744C148.117 36.2653 148.715 36.618 149.543 36.802C150.371 36.9553 151.505 37.032 152.947 37.032C154.388 37.032 155.507 36.9553 156.305 36.802C157.133 36.618 157.731 36.2653 158.099 35.744C158.467 35.2227 158.697 34.4713 158.789 33.49C158.881 32.478 158.927 31.1593 158.927 29.534V10.352H165.459V27.878C165.459 30.2087 165.367 32.2173 165.183 33.904C165.029 35.56 164.723 36.94 164.263 38.044C163.803 39.148 163.113 40.0067 162.193 40.62C161.273 41.2333 160.061 41.678 158.559 41.954C157.056 42.23 155.185 42.368 152.947 42.368ZM185.066 42.368C182.735 42.368 180.788 42.2147 179.224 41.908C177.66 41.6013 176.387 41.08 175.406 40.344C174.424 39.608 173.673 38.6267 173.152 37.4C172.661 36.1733 172.324 34.64 172.14 32.8C171.956 30.96 171.864 28.752 171.864 26.176C171.864 23.6 171.956 21.392 172.14 19.552C172.324 17.712 172.661 16.1787 173.152 14.952C173.673 13.7253 174.424 12.744 175.406 12.008C176.387 11.272 177.66 10.7507 179.224 10.444C180.788 10.1373 182.735 9.984 185.066 9.984C185.955 9.984 186.875 10.0147 187.826 10.076C188.807 10.1373 189.742 10.2293 190.632 10.352C191.521 10.4747 192.272 10.6127 192.886 10.766V15.78C192.058 15.688 191.26 15.6113 190.494 15.55C189.727 15.458 189.006 15.3967 188.332 15.366C187.688 15.3353 187.136 15.32 186.676 15.32C185.112 15.32 183.824 15.3813 182.812 15.504C181.8 15.6267 180.987 15.8873 180.374 16.286C179.791 16.654 179.362 17.2367 179.086 18.034C178.81 18.8007 178.626 19.8433 178.534 21.162C178.442 22.4807 178.396 24.152 178.396 26.176C178.396 28.1693 178.442 29.8407 178.534 31.19C178.626 32.5087 178.81 33.5667 179.086 34.364C179.362 35.1307 179.791 35.7133 180.374 36.112C180.987 36.48 181.8 36.7253 182.812 36.848C183.824 36.9707 185.112 37.032 186.676 37.032C187.688 37.032 188.792 36.986 189.988 36.894C191.184 36.802 192.211 36.6947 193.07 36.572V41.678C192.395 41.8007 191.598 41.908 190.678 42C189.758 42.1227 188.807 42.2147 187.826 42.276C186.875 42.3373 185.955 42.368 185.066 42.368ZM199.063 42V10.352H214.197C216.252 10.352 217.892 10.582 219.119 11.042C220.376 11.502 221.327 12.1767 221.971 13.066C222.615 13.9247 223.044 14.9827 223.259 16.24C223.504 17.4667 223.627 18.8467 223.627 20.38C223.627 21.4533 223.535 22.6033 223.351 23.83C223.167 25.0567 222.753 26.1913 222.109 27.234C221.496 28.2767 220.514 29.0433 219.165 29.534L224.225 42H217.325L212.541 29.304L214.151 30.178C213.936 30.27 213.676 30.3313 213.369 30.362C213.093 30.3927 212.771 30.408 212.403 30.408H205.595V42H199.063ZM205.595 25.118H211.575C212.863 25.118 213.875 25.0413 214.611 24.888C215.347 24.7347 215.899 24.4893 216.267 24.152C216.635 23.784 216.865 23.3087 216.957 22.726C217.049 22.1127 217.095 21.3307 217.095 20.38C217.095 19.4293 217.049 18.6473 216.957 18.034C216.865 17.4207 216.65 16.9453 216.313 16.608C215.976 16.2707 215.424 16.0253 214.657 15.872C213.921 15.7187 212.909 15.642 211.621 15.642H205.595V25.118ZM227.067 42L237.785 10.352H246.525L257.243 42H250.573L248.227 35.008H235.853L233.599 42H227.067ZM237.509 29.718H246.525L242.155 16.286H241.879L237.509 29.718ZM242.109 7.408C240.576 7.408 239.349 7.23933 238.429 6.902C237.54 6.56466 236.865 6.10466 236.405 5.522C235.976 4.90867 235.684 4.188 235.531 3.36C235.408 2.50133 235.347 1.58133 235.347 0.599998H238.843C238.843 1.30533 238.889 1.90333 238.981 2.394C239.073 2.88466 239.349 3.268 239.809 3.544C240.269 3.82 241.02 3.958 242.063 3.958C243.167 3.958 243.934 3.82 244.363 3.544C244.823 3.268 245.099 2.88466 245.191 2.394C245.314 1.90333 245.375 1.30533 245.375 0.599998H248.917C248.917 1.58133 248.84 2.50133 248.687 3.36C248.564 4.188 248.273 4.90867 247.813 5.522C247.353 6.10466 246.663 6.56466 245.743 6.902C244.823 7.23933 243.612 7.408 242.109 7.408ZM261.684 42V10.352H270.654L278.474 31.236H278.75L286.524 10.352H295.448V42H289.146V19.966H288.916L280.728 42H276.22L268.032 19.966H267.802V42H261.684Z" fill="#F1F1F1"/>
</svg>
