<svg width="340" height="51" viewBox="0 0 340 51" fill="none" xmlns="http://www.w3.org/2000/svg">
<path d="M52.6402 42V10.352H59.1722V36.48H72.4202V42H52.6402ZM74.3101 42L85.0281 10.352H93.7681L104.486 42H97.8161L95.4701 35.008H83.0961L80.8421 42H74.3101ZM84.7521 29.718H93.7681L89.3981 16.286H89.1221L84.7521 29.718ZM132.575 42.368C130.336 42.368 128.465 42.23 126.963 41.954C125.46 41.678 124.249 41.2333 123.329 40.62C122.409 40.0067 121.703 39.148 121.213 38.044C120.753 36.94 120.431 35.56 120.247 33.904C120.093 32.2173 120.017 30.2087 120.017 27.878V10.352H126.549V29.534C126.549 31.1593 126.595 32.478 126.687 33.49C126.809 34.4713 127.039 35.2227 127.377 35.744C127.745 36.2653 128.343 36.618 129.171 36.802C129.999 36.9553 131.133 37.032 132.575 37.032C134.016 37.032 135.135 36.9553 135.933 36.802C136.761 36.618 137.359 36.2653 137.727 35.744C138.095 35.2227 138.325 34.4713 138.417 33.49C138.509 32.478 138.555 31.1593 138.555 29.534V10.352H145.087V27.878C145.087 30.2087 144.995 32.2173 144.811 33.904C144.657 35.56 144.351 36.94 143.891 38.044C143.431 39.148 142.741 40.0067 141.821 40.62C140.901 41.2333 139.689 41.678 138.187 41.954C136.684 42.23 134.813 42.368 132.575 42.368ZM152.412 42V10.352H159.174L171.64 29.856H171.87V10.352H178.126V42H171.916L158.898 21.438H158.668V42H152.412ZM197.019 42V10.352H203.781L216.247 29.856H216.477V10.352H222.733V42H216.523L203.505 21.438H203.275V42H197.019ZM242.727 42.368C240.151 42.368 238.02 42.2147 236.333 41.908C234.677 41.6013 233.374 41.0953 232.423 40.39C231.473 39.654 230.783 38.6727 230.353 37.446C229.924 36.1887 229.648 34.64 229.525 32.8C229.403 30.96 229.341 28.752 229.341 26.176C229.341 23.6 229.403 21.392 229.525 19.552C229.648 17.712 229.924 16.1787 230.353 14.952C230.783 13.6947 231.473 12.7133 232.423 12.008C233.374 11.272 234.677 10.7507 236.333 10.444C238.02 10.1373 240.151 9.984 242.727 9.984C245.303 9.984 247.419 10.1373 249.075 10.444C250.762 10.7507 252.081 11.272 253.031 12.008C253.982 12.7133 254.672 13.6947 255.101 14.952C255.561 16.1787 255.853 17.712 255.975 19.552C256.098 21.392 256.159 23.6 256.159 26.176C256.159 28.752 256.098 30.96 255.975 32.8C255.853 34.64 255.561 36.1887 255.101 37.446C254.672 38.6727 253.982 39.654 253.031 40.39C252.081 41.0953 250.762 41.6013 249.075 41.908C247.419 42.2147 245.303 42.368 242.727 42.368ZM242.727 37.032C244.077 37.032 245.165 36.986 245.993 36.894C246.852 36.802 247.527 36.5873 248.017 36.25C248.508 35.9127 248.861 35.3607 249.075 34.594C249.321 33.8273 249.474 32.7693 249.535 31.42C249.597 30.0707 249.627 28.3227 249.627 26.176C249.627 24.0293 249.597 22.2813 249.535 20.932C249.474 19.5827 249.321 18.5247 249.075 17.758C248.861 16.9913 248.508 16.4393 248.017 16.102C247.527 15.7647 246.852 15.55 245.993 15.458C245.165 15.366 244.077 15.32 242.727 15.32C241.409 15.32 240.32 15.366 239.461 15.458C238.633 15.55 237.974 15.7647 237.483 16.102C236.993 16.4393 236.625 16.9913 236.379 17.758C236.165 18.5247 236.027 19.5827 235.965 20.932C235.904 22.2813 235.873 24.0293 235.873 26.176C235.873 28.3227 235.904 30.0707 235.965 31.42C236.027 32.7693 236.165 33.8273 236.379 34.594C236.625 35.3607 236.993 35.9127 237.483 36.25C237.974 36.5873 238.633 36.802 239.461 36.894C240.32 36.986 241.409 37.032 242.727 37.032ZM275.067 42.368C272.828 42.368 270.957 42.23 269.455 41.954C267.952 41.678 266.741 41.2333 265.821 40.62C264.901 40.0067 264.195 39.148 263.705 38.044C263.245 36.94 262.923 35.56 262.739 33.904C262.585 32.2173 262.509 30.2087 262.509 27.878V10.352H269.041V29.534C269.041 31.1593 269.087 32.478 269.179 33.49C269.301 34.4713 269.531 35.2227 269.869 35.744C270.237 36.2653 270.835 36.618 271.663 36.802C272.491 36.9553 273.625 37.032 275.067 37.032C276.508 37.032 277.627 36.9553 278.425 36.802C279.253 36.618 279.851 36.2653 280.219 35.744C280.587 35.2227 280.817 34.4713 280.909 33.49C281.001 32.478 281.047 31.1593 281.047 29.534V10.352H287.579V27.878C287.579 30.2087 287.487 32.2173 287.303 33.904C287.149 35.56 286.843 36.94 286.383 38.044C285.923 39.148 285.233 40.0067 284.313 40.62C283.393 41.2333 282.181 41.678 280.679 41.954C279.176 42.23 277.305 42.368 275.067 42.368Z" fill="#F1F1F1"/>
</svg>
