<svg width="340" height="51" viewBox="0 0 340 51" fill="none" xmlns="http://www.w3.org/2000/svg">
<path d="M29.6177 42V10.352H38.5877L46.4077 31.236H46.6837L54.4577 10.352H63.3817V42H57.0797V19.966H56.8497L48.6617 42H44.1537L35.9657 19.966H35.7357V42H29.6177ZM70.9908 42V10.352H92.6108V15.688H77.5228V23.37H90.4487V28.706H77.5228V36.664H92.6108V42H70.9908ZM98.9322 42V10.352H114.066C116.121 10.352 117.761 10.582 118.988 11.042C120.245 11.502 121.196 12.1767 121.84 13.066C122.484 13.9247 122.913 14.9827 123.128 16.24C123.373 17.4667 123.496 18.8467 123.496 20.38C123.496 21.4533 123.404 22.6033 123.22 23.83C123.036 25.0567 122.622 26.1913 121.978 27.234C121.365 28.2767 120.383 29.0433 119.034 29.534L124.094 42H117.194L112.41 29.304L114.02 30.178C113.805 30.27 113.545 30.3313 113.238 30.362C112.962 30.3927 112.64 30.408 112.272 30.408H105.464V42H98.9322ZM105.464 25.118H111.444C112.732 25.118 113.744 25.0413 114.48 24.888C115.216 24.7347 115.768 24.4893 116.136 24.152C116.504 23.784 116.734 23.3087 116.826 22.726C116.918 22.1127 116.964 21.3307 116.964 20.38C116.964 19.4293 116.918 18.6473 116.826 18.034C116.734 17.4207 116.519 16.9453 116.182 16.608C115.845 16.2707 115.293 16.0253 114.526 15.872C113.79 15.7187 112.778 15.642 111.49 15.642H105.464V25.118ZM130.018 42V10.352H151.638V15.688H136.55V23.37H149.476V28.706H136.55V36.664H151.638V42H130.018ZM170.242 42.368C168.003 42.368 166.132 42.23 164.63 41.954C163.127 41.678 161.916 41.2333 160.996 40.62C160.076 40.0067 159.37 39.148 158.88 38.044C158.42 36.94 158.098 35.56 157.914 33.904C157.76 32.2173 157.684 30.2087 157.684 27.878V10.352H164.216V29.534C164.216 31.1593 164.262 32.478 164.354 33.49C164.476 34.4713 164.706 35.2227 165.044 35.744C165.412 36.2653 166.01 36.618 166.838 36.802C167.666 36.9553 168.8 37.032 170.242 37.032C171.683 37.032 172.802 36.9553 173.6 36.802C174.428 36.618 175.026 36.2653 175.394 35.744C175.762 35.2227 175.992 34.4713 176.084 33.49C176.176 32.478 176.222 31.1593 176.222 29.534V10.352H182.754V27.878C182.754 30.2087 182.662 32.2173 182.478 33.904C182.324 35.56 182.018 36.94 181.558 38.044C181.098 39.148 180.408 40.0067 179.488 40.62C178.568 41.2333 177.356 41.678 175.854 41.954C174.351 42.23 172.48 42.368 170.242 42.368ZM214.416 42.368C212.116 42.368 210.153 42.2147 208.528 41.908C206.933 41.6013 205.599 41.0953 204.526 40.39C203.483 39.654 202.671 38.6727 202.088 37.446C201.505 36.2193 201.091 34.686 200.846 32.846C200.631 30.9753 200.524 28.752 200.524 26.176C200.524 23.6 200.631 21.392 200.846 19.552C201.091 17.6813 201.505 16.1327 202.088 14.906C202.701 13.6793 203.529 12.7133 204.572 12.008C205.645 11.272 206.979 10.7507 208.574 10.444C210.169 10.1373 212.116 9.984 214.416 9.984C215.428 9.984 216.547 10.03 217.774 10.122C219.031 10.214 220.273 10.3367 221.5 10.49C222.727 10.6127 223.861 10.7813 224.904 10.996V16.01C223.831 15.8567 222.788 15.734 221.776 15.642C220.764 15.55 219.844 15.4733 219.016 15.412C218.188 15.3507 217.498 15.32 216.946 15.32C215.198 15.32 213.741 15.366 212.576 15.458C211.411 15.5193 210.46 15.7187 209.724 16.056C208.988 16.3933 208.421 16.9453 208.022 17.712C207.654 18.4787 207.393 19.552 207.24 20.932C207.087 22.2813 207.01 24.0293 207.01 26.176C207.01 28.0773 207.056 29.672 207.148 30.96C207.271 32.248 207.47 33.306 207.746 34.134C208.053 34.962 208.482 35.606 209.034 36.066C209.617 36.4953 210.353 36.7867 211.242 36.94C212.162 37.0933 213.297 37.17 214.646 37.17C215.137 37.17 215.643 37.17 216.164 37.17C216.716 37.1393 217.222 37.1087 217.682 37.078C218.173 37.0473 218.571 37.0167 218.878 36.986V29.166H213.588V24.014H225.042V41.356C223.999 41.5707 222.834 41.7547 221.546 41.908C220.258 42.0307 219.001 42.138 217.774 42.23C216.547 42.322 215.428 42.368 214.416 42.368ZM229.133 42L239.851 10.352H248.591L259.309 42H252.639L250.293 35.008H237.919L235.665 42H229.133ZM239.575 29.718H248.591L244.221 16.286H243.945L239.575 29.718ZM268.032 42V15.872H258.878V10.352H283.718V15.872H274.564V42H268.032ZM283.309 42L294.027 10.352H302.767L313.485 42H306.815L304.469 35.008H292.095L289.841 42H283.309ZM293.751 29.718H302.767L298.397 16.286H298.121L293.751 29.718Z" fill="#F1F1F1"/>
</svg>
