<svg width="129" height="129" viewBox="0 0 129 129" fill="none" xmlns="http://www.w3.org/2000/svg">
<path d="M108.228 67.7099L121.014 65.3523L120.681 67.9591L110.709 69.7329L110.698 69.8222L119.907 74.0119L119.581 76.5651L107.799 71.0666L108.228 67.7099Z" fill="#F1F1F1"/>
<path d="M106.605 76.5925L118.325 80.5925L117.5 83.0115L105.779 79.0115L106.605 76.5925Z" fill="#F1F1F1"/>
<path d="M104.762 82.1698L115.516 88.3108L111.321 95.6573L109.507 94.6219L112.435 89.495L109.825 88.0043L107.317 92.3967L105.503 91.3613L108.011 86.9689L105.307 85.4248L102.38 90.5517L100.566 89.5163L104.762 82.1698Z" fill="#F1F1F1"/>
<path d="M98.4992 92.6172L109.069 99.7287L107.184 101.456L99.2185 95.9865L99.1521 96.0473L103.747 104.605L101.783 106.405L93.6315 101.106L93.5652 101.167L98.4258 109.482L96.5414 111.209L90.3908 100.048L92.7397 97.8951L100.261 102.746L100.328 102.685L96.1502 94.7697L98.4992 92.6172Z" fill="#F1F1F1"/>
<path d="M82.1408 104.813L85.83 116.634L80.3487 118.345C79.6156 118.574 78.9913 118.668 78.4759 118.628C77.9491 118.591 77.506 118.44 77.1468 118.175C76.7911 117.921 76.4923 117.568 76.2506 117.116C75.9973 116.667 75.776 116.139 75.5865 115.532C75.4113 114.971 75.2945 114.435 75.236 113.925C75.1696 113.431 75.207 112.966 75.3482 112.533C75.4894 112.099 75.7702 111.71 76.1905 111.365C76.5994 111.023 77.1933 110.731 77.9723 110.488L80.9449 109.56L79.7009 105.574L82.1408 104.813ZM81.5669 111.554L79.5565 112.181C79.064 112.335 78.6816 112.479 78.4096 112.614C78.1411 112.761 77.9595 112.925 77.865 113.105C77.7704 113.285 77.7453 113.507 77.7895 113.77C77.8224 114.036 77.9013 114.369 78.0265 114.77C78.1516 115.171 78.2764 115.491 78.4008 115.728C78.5138 115.97 78.6605 116.138 78.8409 116.232C79.0134 116.342 79.2442 116.377 79.5334 116.337C79.8262 116.308 80.2132 116.219 80.6943 116.069L82.7734 115.42L81.5669 111.554Z" fill="#F1F1F1"/>
<path d="M71.1885 108.082L71.5708 120.46L65.6517 120.643C64.848 120.667 64.2036 120.597 63.7182 120.432C63.2209 120.267 62.8409 120.015 62.5783 119.675C62.3161 119.347 62.1354 118.938 62.0362 118.449C61.9254 117.972 61.8608 117.434 61.8423 116.834C61.8293 116.415 61.8514 115.964 61.9085 115.482C61.9657 115 62.1139 114.551 62.3532 114.135C62.5805 113.72 62.955 113.408 63.4769 113.2L61.3472 108.386L64.0459 108.302L66.0704 113.21L65.4301 112.888C65.513 112.849 65.6142 112.822 65.7338 112.806C65.8414 112.791 65.9671 112.781 66.111 112.777L68.7738 112.694L68.6337 108.161L71.1885 108.082ZM68.8377 114.763L66.4988 114.836C65.995 114.851 65.6001 114.893 65.3141 114.962C65.0281 115.031 64.8152 115.134 64.6753 115.27C64.5358 115.419 64.4516 115.607 64.4227 115.836C64.3941 116.077 64.3856 116.384 64.3971 116.756C64.4085 117.127 64.436 117.433 64.4794 117.671C64.5228 117.91 64.6125 118.093 64.7485 118.221C64.8845 118.349 65.1033 118.439 65.4051 118.489C65.6948 118.54 66.0915 118.558 66.5953 118.542L68.9521 118.47L68.8377 114.763Z" fill="#F1F1F1"/>
<path d="M53.9368 106.901C54.9136 107.15 55.707 107.414 56.3169 107.693C56.9152 107.969 57.3606 108.287 57.6529 108.646C57.9423 109.017 58.1091 109.456 58.1534 109.963C58.1948 110.481 58.1498 111.095 58.0186 111.804C57.8874 112.514 57.6973 113.357 57.4485 114.334C57.1996 115.311 56.9631 116.142 56.7388 116.828C56.5145 117.514 56.2618 118.068 55.9805 118.492C55.6962 118.927 55.3397 119.233 54.9111 119.409C54.4795 119.596 53.935 119.668 53.2774 119.624C52.6082 119.577 51.7852 119.429 50.8084 119.181C49.8316 118.932 49.044 118.669 48.4457 118.393C47.8358 118.114 47.3861 117.789 47.0967 117.418C46.8044 117.058 46.6375 116.62 46.5962 116.101C46.5403 115.592 46.5779 114.982 46.7091 114.273C46.8404 113.563 47.0304 112.72 47.2793 111.743C47.5281 110.766 47.7647 109.935 47.9889 109.249C48.2132 108.563 48.4733 108.004 48.7692 107.572C49.0505 107.148 49.4069 106.843 49.8385 106.656C50.2671 106.48 50.816 106.415 51.4852 106.462C52.1428 106.506 52.96 106.652 53.9368 106.901ZM53.4213 108.924C52.9096 108.794 52.4924 108.706 52.1695 108.661C51.835 108.613 51.5585 108.629 51.3398 108.71C51.1212 108.79 50.9341 108.965 50.7787 109.235C50.6116 109.502 50.4512 109.889 50.2976 110.395C50.144 110.9 49.9635 111.56 49.7562 112.374C49.5488 113.188 49.3916 113.854 49.2845 114.372C49.1774 114.889 49.1333 115.305 49.1523 115.62C49.1596 115.931 49.24 116.174 49.3935 116.35C49.547 116.525 49.782 116.672 50.0988 116.789C50.4038 116.904 50.8122 117.027 51.3239 117.157C51.8239 117.285 52.2412 117.372 52.5756 117.42C52.8985 117.466 53.1693 117.448 53.3879 117.367C53.6065 117.287 53.7994 117.113 53.9665 116.846C54.122 116.576 54.2765 116.188 54.4301 115.682C54.5837 115.177 54.7642 114.517 54.9716 113.703C55.1789 112.889 55.3362 112.223 55.4433 111.705C55.5504 111.188 55.6002 110.773 55.5929 110.462C55.5739 110.148 55.4877 109.903 55.3342 109.727C55.1808 109.552 54.9515 109.407 54.6464 109.292C54.3297 109.174 53.9213 109.052 53.4213 108.924Z" fill="#F1F1F1"/>
<path d="M47.395 105.05L46.505 106.799C45.9327 106.521 45.4806 106.324 45.1487 106.209C44.8114 106.105 44.5404 106.095 44.3359 106.179C44.1207 106.258 43.9153 106.45 43.72 106.754C43.5191 107.07 43.2772 107.505 42.9941 108.061L39.4995 114.927L37.2216 113.768L40.406 107.512C40.8741 106.592 41.282 105.843 41.6296 105.266C41.9717 104.7 42.3048 104.284 42.6287 104.018C42.9526 103.752 43.3211 103.623 43.7343 103.631C44.1313 103.645 44.6241 103.774 45.2127 104.02C45.7906 104.26 46.518 104.604 47.395 105.05Z" fill="#F1F1F1"/>
<path d="M40.4261 101.509L32.71 111.195L26.0929 105.924L27.3938 104.291L32.0117 107.97L33.8847 105.618L29.9285 102.467L31.2295 100.834L35.1857 103.985L37.1259 101.55L32.508 97.871L33.809 96.2379L40.4261 101.509Z" fill="#F1F1F1"/>
<path d="M29.45 90.8992C30.0104 91.6187 30.4313 92.2567 30.7127 92.8133C30.9941 93.3699 31.1392 93.8881 31.1479 94.368C31.1566 94.8479 31.0344 95.3158 30.781 95.7717C30.5203 96.2182 30.1281 96.691 29.6043 97.1902C29.0805 97.6895 28.421 98.2488 27.6257 98.8682C26.8305 99.4876 26.1267 99.9901 25.5145 100.376C24.9022 100.761 24.3477 101.026 23.8511 101.169C23.347 101.303 22.8634 101.307 22.4002 101.181C21.9371 101.055 21.4701 100.788 20.9994 100.379C20.5286 99.9697 20.0131 99.4054 19.4527 98.6859C19.2388 98.4114 19.0271 98.12 18.8174 97.8118C18.6004 97.4941 18.4039 97.1832 18.2279 96.8791C18.052 96.5751 17.9139 96.31 17.8138 96.0838L19.3616 94.8781C19.5323 95.1559 19.7004 95.4205 19.8658 95.6719C20.0217 95.9307 20.1761 96.1679 20.3288 96.3836C20.4742 96.5898 20.6022 96.7638 20.7128 96.9059C21.0889 97.3887 21.4175 97.7716 21.6987 98.0545C21.9799 98.3374 22.2558 98.5256 22.5264 98.6191C22.7801 98.7105 23.0632 98.7029 23.3757 98.5964C23.6787 98.4973 24.0449 98.3033 24.4741 98.0147C24.9033 97.726 25.4303 97.3383 26.0551 96.8517C26.6705 96.3724 27.1754 95.9563 27.5698 95.6034C27.9548 95.258 28.2372 94.9468 28.4169 94.6698C28.5873 94.4003 28.6639 94.1277 28.6469 93.8519C28.613 93.5741 28.4933 93.2642 28.2879 92.9223C28.0824 92.5804 27.7916 92.168 27.4156 91.6852C27.1722 91.3728 26.8926 91.043 26.5766 90.6959C26.2606 90.3488 25.9805 90.0575 25.7361 89.8219L27.3124 88.5942C27.5125 88.773 27.7374 88.9933 27.987 89.2552C28.2461 89.5097 28.503 89.7811 28.7579 90.0693C29.0055 90.348 29.2361 90.6246 29.45 90.8992Z" fill="#F1F1F1"/>
<path d="M24.9112 84.0053L15.5708 88.163L17.0274 91.4355L15.0541 92.3139L11.1013 83.4339L13.0747 82.5555L14.5313 85.8279L23.8718 81.6702L24.9112 84.0053Z" fill="#F1F1F1"/>
<path d="M21.9749 76.4771L19.6834 77.0332L19.0679 74.4968L21.3595 73.9407L21.9749 76.4771Z" fill="#F1F1F1"/>
<path d="M20.2587 63.232L7.61796 66.2745L7.8104 63.6536L17.6719 61.3455L17.6785 61.2557L8.25724 57.5679L8.44573 55.0008L20.5065 59.8571L20.2587 63.232Z" fill="#F1F1F1"/>
<path d="M21.3635 54.4021L9.43553 51.0724L10.1228 48.6105L22.0507 51.9402L21.3635 54.4021Z" fill="#F1F1F1"/>
<path d="M22.863 48.7448L11.7851 43.2092L15.5666 35.6414L17.4344 36.5747L14.7954 41.8561L17.4843 43.1997L19.7452 38.6752L21.613 39.6085L19.3521 44.1331L22.1377 45.525L24.7768 40.2436L26.6446 41.177L22.863 48.7448Z" fill="#F1F1F1"/>
<path d="M28.5536 37.8951L17.6121 31.37L19.3997 29.543L27.6518 34.57L27.7147 34.5057L22.6601 26.2108L24.5232 24.3066L32.9515 29.1535L33.0144 29.0891L27.7081 21.0515L29.4956 19.2246L36.2451 30.034L34.0169 32.3113L26.2423 27.8774L26.1794 27.9417L30.7817 35.6178L28.5536 37.8951Z" fill="#F1F1F1"/>
<path d="M43.9803 24.8878L39.6297 13.2932L45.0057 11.276C45.7248 11.0062 46.3427 10.8768 46.8596 10.888C47.3877 10.8949 47.8386 11.0205 48.2122 11.2648C48.5816 11.4979 48.8998 11.8335 49.1668 12.2717C49.4449 12.7056 49.6957 13.2203 49.9192 13.8157C50.1257 14.3663 50.2726 14.8943 50.3598 15.3999C50.454 15.8901 50.4428 16.3557 50.3263 16.7967C50.2099 17.2377 49.9515 17.6423 49.5513 18.0103C49.1623 18.3742 48.5859 18.6994 47.8219 18.9861L44.9063 20.0801L46.3734 23.9899L43.9803 24.8878ZM44.1728 18.1252L46.1446 17.3853C46.6277 17.204 47.0013 17.0382 47.2653 16.8879C47.5251 16.7263 47.6971 16.5528 47.7813 16.3674C47.8656 16.182 47.8782 15.9594 47.8191 15.6996C47.7713 15.4355 47.6736 15.1069 47.5261 14.7137C47.3785 14.3205 47.2359 14.0087 47.0982 13.7784C46.9718 13.5439 46.8158 13.3845 46.6304 13.3002C46.452 13.2006 46.2196 13.1788 45.9331 13.2351C45.6424 13.2801 45.2611 13.3911 44.7892 13.5682L42.75 14.3333L44.1728 18.1252Z" fill="#F1F1F1"/>
<path d="M54.9723 20.9048L53.9228 8.56532L59.8235 8.06344C60.6246 7.99531 61.2719 8.03058 61.7654 8.16925C62.2709 8.3069 62.6639 8.53843 62.9445 8.86382C63.2241 9.17726 63.4266 9.57553 63.552 10.0586C63.6883 10.5288 63.7819 11.0628 63.8327 11.6606C63.8683 12.0791 63.8706 12.5305 63.8395 13.0149C63.8085 13.4993 63.6847 13.9554 63.4682 14.3833C63.2636 14.8102 62.9064 15.1416 62.3966 15.3777L64.7829 20.0703L62.0926 20.2992L59.8063 15.5077L60.463 15.7951C60.3824 15.838 60.2828 15.8706 60.1642 15.8927C60.0576 15.9138 59.9326 15.9305 59.7891 15.9427L57.1347 16.1685L57.5191 20.6882L54.9723 20.9048ZM56.9592 14.1059L59.2908 13.9076C59.793 13.8649 60.185 13.8014 60.4669 13.7173C60.7488 13.6331 60.9559 13.5191 61.0882 13.3754C61.2195 13.2197 61.2934 13.0267 61.3099 12.7965C61.3255 12.5543 61.3175 12.2479 61.2859 11.8772C61.2544 11.5066 61.2105 11.2032 61.1543 10.9671C61.0981 10.731 60.9987 10.5528 60.8559 10.4325C60.7132 10.3121 60.4899 10.2348 60.1859 10.2004C59.8938 10.165 59.4967 10.1687 58.9945 10.2114L56.645 10.4113L56.9592 14.1059Z" fill="#F1F1F1"/>
<path d="M72.1937 21.1176C71.205 20.9212 70.3987 20.6998 69.7747 20.4535C69.1625 20.2095 68.7009 19.9159 68.3898 19.5727C68.081 19.2178 67.891 18.7885 67.8198 18.285C67.7509 17.7697 67.763 17.1543 67.8562 16.4387C67.9495 15.7232 68.0943 14.871 68.2907 13.8824C68.4871 12.8937 68.679 12.0509 68.8664 11.3541C69.0538 10.6572 69.2766 10.0898 69.5349 9.65172C69.7956 9.20188 70.1352 8.87786 70.5539 8.67964C70.9749 8.46964 71.5148 8.36893 72.1738 8.3775C72.8445 8.38841 73.6742 8.49207 74.6629 8.68849C75.6516 8.88491 76.452 9.10511 77.0642 9.34908C77.6882 9.59538 78.1546 9.89602 78.4633 10.251C78.7744 10.5942 78.9644 11.0234 79.0333 11.5387C79.1163 12.0446 79.1112 12.6553 79.018 13.3709C78.9248 14.0864 78.78 14.9385 78.5835 15.9272C78.3871 16.9159 78.1952 17.7587 78.0078 18.4555C77.8205 19.1524 77.5906 19.7245 77.3181 20.172C77.0598 20.6101 76.7202 20.9341 76.2992 21.1441C75.8805 21.3423 75.3358 21.436 74.6651 21.4251C74.0061 21.4165 73.1823 21.314 72.1937 21.1176ZM72.6005 19.0696C73.1184 19.1725 73.5397 19.2379 73.8645 19.2657C74.2011 19.2958 74.4764 19.2649 74.6905 19.1728C74.9045 19.0808 75.082 18.8958 75.2228 18.6179C75.3754 18.3424 75.5149 17.948 75.6414 17.4348C75.7678 16.9216 75.9128 16.2531 76.0765 15.4292C76.2402 14.6053 76.3617 13.932 76.4411 13.4095C76.5204 12.8869 76.5422 12.4692 76.5065 12.1562C76.4826 11.8456 76.3893 11.6068 76.2267 11.44C76.0641 11.2731 75.8216 11.1392 75.499 11.0385C75.1883 10.94 74.7739 10.8394 74.2561 10.7365C73.7499 10.6359 73.3286 10.5706 72.992 10.5404C72.6672 10.5126 72.3978 10.5447 72.1838 10.6367C71.9697 10.7288 71.7864 10.9126 71.6338 11.1881C71.4929 11.466 71.3593 11.8616 71.2329 12.3748C71.1064 12.888 70.9614 13.5565 70.7977 14.3804C70.634 15.2043 70.5125 15.8775 70.4332 16.4001C70.3538 16.9227 70.3261 17.3392 70.35 17.6499C70.3857 17.9628 70.4849 18.2027 70.6475 18.3696C70.8101 18.5365 71.0468 18.6692 71.3575 18.7676C71.6801 18.8684 72.0944 18.9691 72.6005 19.0696Z" fill="#F1F1F1"/>
<path d="M78.9455 22.615L79.7434 20.8225C80.3293 21.0702 80.791 21.2429 81.1284 21.3405C81.4708 21.4272 81.7419 21.4231 81.9417 21.3282C82.1526 21.2382 82.3476 21.036 82.5269 20.7218C82.7111 20.3966 82.9301 19.9489 83.1838 19.3788L86.3167 12.3406L88.6518 13.3801L85.7971 19.7934C85.3774 20.7362 85.009 21.5048 84.6919 22.0992C84.3796 22.6827 84.0687 23.1156 83.759 23.3981C83.4494 23.6806 83.0881 23.8284 82.675 23.8416C82.2778 23.8487 81.7789 23.7448 81.1784 23.5301C80.5888 23.3201 79.8445 23.0151 78.9455 22.615Z" fill="#F1F1F1"/>
<path d="M86.0203 25.7226L93.195 15.6287L100.091 20.53L98.8809 22.2319L94.0687 18.8114L92.3272 21.2615L96.4498 24.1919L95.2401 25.8937L91.1175 22.9634L89.3134 25.5015L94.1256 28.922L92.9159 30.6239L86.0203 25.7226Z" fill="#F1F1F1"/>
<path d="M97.6813 35.8222C97.0849 35.1322 96.6321 34.5164 96.3227 33.9749C96.0133 33.4334 95.842 32.9233 95.8088 32.4444C95.7756 31.9656 95.8739 31.492 96.1037 31.0238C96.3413 30.5647 96.709 30.0725 97.2066 29.5472C97.7043 29.0219 98.3345 28.4298 99.0971 27.7706C99.8598 27.1115 100.537 26.5738 101.129 26.1575C101.721 25.7412 102.261 25.4487 102.75 25.2801C103.246 25.1206 103.729 25.0919 104.198 25.1942C104.667 25.2964 105.147 25.5398 105.638 25.9243C106.129 26.3089 106.673 26.8462 107.269 27.5362C107.496 27.7995 107.723 28.0797 107.948 28.3769C108.181 28.6831 108.393 28.9836 108.584 29.2782C108.775 29.5729 108.927 29.8307 109.038 30.0515L107.554 31.3344C107.369 31.0657 107.188 30.81 107.01 30.5674C106.841 30.3169 106.675 30.0878 106.511 29.8802C106.355 29.6817 106.219 29.5144 106.101 29.3782C105.701 28.9151 105.353 28.5495 105.058 28.2813C104.763 28.0131 104.478 27.8392 104.203 27.7596C103.945 27.6812 103.662 27.7032 103.356 27.8255C103.058 27.94 102.702 28.1523 102.288 28.4624C101.874 28.7726 101.368 29.1866 100.768 29.7045C100.178 30.2145 99.6953 30.6558 99.3193 31.0283C98.9524 31.3929 98.6863 31.7181 98.5209 32.0038C98.3645 32.2817 98.3018 32.5579 98.3329 32.8324C98.3809 33.1081 98.5162 33.4115 98.7388 33.7425C98.9614 34.0735 99.2728 34.4705 99.673 34.9336C99.9319 35.2332 100.228 35.5483 100.561 35.8788C100.895 36.2094 101.189 36.486 101.445 36.7089L99.9335 38.0153C99.7246 37.847 99.4888 37.6384 99.2262 37.3895C98.9545 37.1486 98.684 36.8906 98.4147 36.6158C98.1533 36.35 97.9088 36.0855 97.6813 35.8222Z" fill="#F1F1F1"/>
<path d="M102.521 42.3542L111.615 37.6828L109.979 34.4966L111.9 33.5097L116.341 42.1557L114.42 43.1427L112.783 39.9564L103.689 44.6278L102.521 42.3542Z" fill="#F1F1F1"/>
<path d="M105.861 49.6509L108.117 48.9655L108.875 51.4628L106.619 52.1482L105.861 49.6509Z" fill="#F1F1F1"/>
</svg>
