<svg width="128" height="128" viewBox="0 0 128 128" fill="none" xmlns="http://www.w3.org/2000/svg">
<path d="M108.724 64.6389L120.342 65.9883L119.883 69.9397C119.766 70.9417 119.621 71.752 119.446 72.3706C119.271 73.0005 119.032 73.4806 118.732 73.8108C118.441 74.1535 118.061 74.3775 117.592 74.4828C117.134 74.6007 116.57 74.6436 115.9 74.6114C115.231 74.5793 114.423 74.5084 113.478 74.3985C112.532 74.2887 111.73 74.1727 111.071 74.0505C110.412 73.9283 109.867 73.7567 109.436 73.5355C109.015 73.3269 108.697 73.0218 108.481 72.6202C108.276 72.2312 108.159 71.71 108.132 71.0565C108.104 70.4143 108.149 69.5923 108.265 68.5903L108.724 64.6389ZM110.404 67.2643L110.239 68.6828C110.175 69.2344 110.134 69.686 110.116 70.0376C110.108 70.4018 110.149 70.6917 110.238 70.9074C110.325 71.1344 110.499 71.3086 110.759 71.43C111.03 71.5528 111.406 71.6535 111.888 71.7323C112.368 71.8223 112.991 71.9117 113.756 72.0006C114.51 72.0882 115.132 72.1433 115.62 72.1657C116.117 72.2007 116.507 72.1833 116.789 72.1134C117.07 72.0547 117.279 71.9249 117.416 71.7241C117.564 71.5358 117.669 71.2685 117.732 70.9222C117.806 70.5771 117.876 70.1288 117.94 69.5771L118.104 68.1587L110.404 67.2643Z" fill="white"/>
<path d="M107.23 75.3407L118.226 79.326L115.504 86.8379L113.65 86.1659L115.55 80.9236L112.881 79.9562L111.253 84.4474L109.399 83.7754L111.027 79.2843L108.262 78.2822L106.362 83.5245L104.508 82.8526L107.23 75.3407Z" fill="white"/>
<path d="M101.355 87.9344C101.587 87.5719 101.854 87.1773 102.154 86.7508C102.449 86.3337 102.746 85.9323 103.048 85.5466C103.339 85.1548 103.615 84.7994 103.873 84.4804L105.49 85.5176C105.235 85.8522 104.977 86.1916 104.716 86.5357C104.448 86.8894 104.198 87.2271 103.965 87.5487C103.741 87.8765 103.553 88.1596 103.4 88.3981C103.088 88.8846 102.865 89.2737 102.732 89.5652C102.608 89.8629 102.547 90.1061 102.547 90.2947C102.556 90.4486 102.591 90.5722 102.652 90.6654C102.723 90.7647 102.818 90.859 102.936 90.948C103.063 91.0433 103.208 91.1429 103.37 91.2469C103.589 91.3876 103.78 91.4896 103.941 91.5527C104.097 91.6254 104.231 91.6577 104.344 91.6494C104.466 91.6472 104.59 91.5916 104.713 91.4825C104.831 91.383 104.964 91.2392 105.111 91.0511L106.797 89.0218C107.135 88.6197 107.468 88.3215 107.795 88.1271C108.115 87.9422 108.447 87.8452 108.789 87.836C109.132 87.8268 109.487 87.8928 109.854 88.0341C110.215 88.1849 110.601 88.3919 111.011 88.655C111.66 89.0711 112.117 89.4921 112.382 89.9181C112.647 90.3441 112.776 90.7836 112.768 91.2364C112.754 91.6988 112.632 92.1725 112.402 92.6576C112.181 93.1488 111.902 93.6567 111.566 94.1814C111.321 94.563 111.056 94.9449 110.77 95.3272C110.494 95.7156 110.224 96.0741 109.959 96.4026C109.695 96.7311 109.457 96.9962 109.247 97.198L107.673 96.1883C107.864 95.9743 108.075 95.7191 108.306 95.4226C108.536 95.1262 108.766 94.8093 108.996 94.472C109.236 94.1408 109.453 93.8226 109.649 93.5173C109.937 93.069 110.147 92.699 110.28 92.4074C110.417 92.1315 110.493 91.8975 110.508 91.7055C110.517 91.4821 110.457 91.3024 110.329 91.1663C110.195 91.0398 110.013 90.9031 109.784 90.7563C109.498 90.5727 109.266 90.451 109.089 90.3913C108.922 90.3377 108.763 90.364 108.614 90.4704C108.465 90.5768 108.274 90.7704 108.04 91.0512L106.369 93.0896C106.169 93.3383 105.962 93.5558 105.748 93.7419C105.535 93.928 105.298 94.0658 105.039 94.1553C104.78 94.2447 104.484 94.2641 104.153 94.2134C103.977 94.1945 103.786 94.146 103.58 94.0679C103.384 93.9959 103.17 93.8991 102.939 93.7774C102.701 93.6653 102.448 93.5236 102.181 93.3522C101.628 92.9973 101.202 92.6433 100.903 92.2902C100.599 91.9466 100.401 91.6043 100.31 91.2633C100.219 90.9222 100.211 90.5671 100.286 90.1979C100.355 89.8383 100.489 89.4728 100.687 89.1015C100.875 88.7241 101.098 88.335 101.355 87.9344Z" fill="white"/>
<path d="M98.2379 92.7091L106.478 101.009L102.63 104.83C102.115 105.341 101.633 105.692 101.183 105.883C100.726 106.081 100.289 106.148 99.8722 106.082C99.4637 106.025 99.0596 105.859 98.6599 105.585C98.2522 105.319 97.8367 104.973 97.4135 104.547C97.0223 104.153 96.6911 103.755 96.4201 103.353C96.149 102.967 95.9782 102.562 95.9076 102.137C95.837 101.712 95.9028 101.263 96.1048 100.791C96.2989 100.327 96.6693 99.8237 97.2163 99.2808L99.3034 97.2087L96.5247 94.4098L98.2379 92.7091ZM100.693 98.6082L99.2812 100.01C98.9354 100.353 98.6779 100.64 98.5087 100.872C98.3476 101.112 98.2667 101.328 98.266 101.52C98.2653 101.713 98.3407 101.909 98.4922 102.11C98.6357 102.319 98.8472 102.564 99.1267 102.846C99.4061 103.127 99.6498 103.341 99.8576 103.486C100.057 103.639 100.253 103.716 100.446 103.716C100.638 103.733 100.847 103.662 101.072 103.502C101.305 103.351 101.59 103.107 101.928 102.772L103.388 101.323L100.693 98.6082Z" fill="white"/>
<path d="M91.2094 99.5092L97.3424 109.468L92.58 112.401C91.9335 112.799 91.3726 113.045 90.8974 113.138C90.4126 113.237 89.9827 113.209 89.6077 113.053C89.2387 112.908 88.8986 112.658 88.5873 112.304C88.2724 111.966 87.9664 111.555 87.6693 111.073C87.4613 110.735 87.2674 110.355 87.0875 109.934C86.9077 109.512 86.8181 109.075 86.8187 108.622C86.8097 108.175 86.9699 107.743 87.2994 107.328L83.2914 104.385L85.4627 103.048L89.4285 106.116L88.7525 106.153C88.8022 106.083 88.8723 106.013 88.9629 105.944C89.0438 105.881 89.1421 105.813 89.2579 105.742L91.4003 104.423L89.1539 100.775L91.2094 99.5092ZM92.4254 106.087L90.5436 107.246C90.1383 107.496 89.8347 107.716 89.6328 107.907C89.4309 108.098 89.3048 108.282 89.2544 108.46C89.2099 108.647 89.2296 108.841 89.3136 109.042C89.4035 109.253 89.5405 109.508 89.7248 109.807C89.909 110.106 90.075 110.343 90.2228 110.518C90.3706 110.694 90.5303 110.802 90.7018 110.842C90.8733 110.883 91.0946 110.853 91.3656 110.753C91.6269 110.659 91.9602 110.487 92.3655 110.237L94.2618 109.069L92.4254 106.087Z" fill="white"/>
<path d="M81.932 104.943L85.6262 116.04L78.0452 118.564L77.4224 116.693L82.7129 114.932L81.8162 112.238L77.2838 113.747L76.6609 111.876L81.1933 110.367L80.2644 107.577L74.9739 109.338L74.351 107.467L81.932 104.943Z" fill="white"/>
<path d="M68.2466 108.5V120.196H62.8236C62.0983 120.196 61.509 120.105 61.0556 119.924C60.591 119.743 60.234 119.482 59.9846 119.142C59.7353 118.813 59.5653 118.411 59.4746 117.935C59.3726 117.459 59.3216 116.921 59.3216 116.32C59.3216 115.765 59.367 115.249 59.4576 114.773C59.537 114.308 59.7013 113.9 59.9506 113.549C60.2 113.198 60.5626 112.926 61.0386 112.733C61.5033 112.54 62.121 112.444 62.8916 112.444H65.8326V108.5H68.2466ZM65.8326 114.416H63.8436C63.3563 114.416 62.971 114.439 62.6876 114.484C62.4043 114.541 62.1946 114.637 62.0586 114.773C61.9226 114.909 61.8376 115.102 61.8036 115.351C61.7583 115.6 61.7356 115.923 61.7356 116.32C61.7356 116.717 61.7583 117.04 61.8036 117.289C61.8376 117.538 61.9226 117.731 62.0586 117.867C62.1833 118.014 62.3816 118.111 62.6536 118.156C62.9256 118.213 63.2996 118.241 63.7756 118.241H65.8326V114.416Z" fill="white"/>
<path d="M58.1934 108.359L55.522 119.745L50.0769 118.468C49.3376 118.295 48.7667 118.073 48.3642 117.804C47.9506 117.533 47.6655 117.21 47.5089 116.835C47.3497 116.472 47.2845 116.055 47.3134 115.585C47.3287 115.123 47.401 114.616 47.5304 114.064C47.621 113.678 47.7512 113.272 47.921 112.846C48.0907 112.42 48.3354 112.047 48.6552 111.726C48.9639 111.403 49.3816 111.21 49.9085 111.147L49.1402 106.235L51.6228 106.817L52.2724 111.789L51.7669 111.339C51.8519 111.324 51.9509 111.324 52.0638 111.338C52.1657 111.351 52.2829 111.372 52.4153 111.403L54.8648 111.978L55.8432 107.807L58.1934 108.359ZM54.4182 113.881L52.2667 113.377C51.8032 113.268 51.4326 113.21 51.1549 113.203C50.8771 113.196 50.6578 113.238 50.4969 113.328C50.3335 113.429 50.2106 113.581 50.1283 113.783C50.0434 113.996 49.9609 114.273 49.8806 114.615C49.8004 114.957 49.7509 115.243 49.7323 115.471C49.7136 115.7 49.7507 115.889 49.8436 116.039C49.9365 116.188 50.1144 116.323 50.3773 116.443C50.6292 116.56 50.9868 116.673 51.4502 116.782L53.6184 117.291L54.4182 113.881Z" fill="white"/>
<path d="M43.7873 103.507C44.6357 103.939 45.312 104.346 45.8161 104.73C46.3101 105.109 46.6545 105.494 46.8494 105.886C47.0391 106.287 47.1019 106.726 47.0376 107.202C46.9682 107.688 46.7995 108.245 46.5315 108.871C46.2634 109.498 45.9135 110.235 45.4816 111.084C45.0498 111.932 44.6595 112.649 44.3106 113.235C43.9617 113.82 43.6138 114.279 43.2668 114.611C42.9146 114.953 42.5228 115.161 42.0915 115.233C41.655 115.316 41.1383 115.27 40.5415 115.093C39.9346 114.911 39.2069 114.605 38.3585 114.173C37.51 113.741 36.8388 113.336 36.3448 112.957C35.8407 112.573 35.4938 112.181 35.3041 111.779C35.1092 111.387 35.0465 110.948 35.1158 110.462C35.17 109.981 35.3311 109.427 35.5991 108.801C35.8672 108.174 36.2171 107.436 36.649 106.588C37.0808 105.74 37.4711 105.023 37.82 104.437C38.1689 103.852 38.5244 103.391 38.8867 103.054C39.2337 102.722 39.6255 102.514 40.062 102.431C40.4934 102.358 41.0125 102.412 41.6194 102.594C42.2162 102.771 42.9389 103.075 43.7873 103.507ZM42.8928 105.264C42.4484 105.038 42.0821 104.871 41.7939 104.762C41.4957 104.649 41.2375 104.606 41.0194 104.635C40.8012 104.664 40.5925 104.787 40.3933 105.003C40.184 105.214 39.9561 105.537 39.7097 105.971C39.4633 106.405 39.1602 106.976 38.8003 107.683C38.4405 108.39 38.1575 108.971 37.9515 109.426C37.7455 109.88 37.6187 110.254 37.5709 110.548C37.5131 110.837 37.5367 111.078 37.6418 111.271C37.7468 111.464 37.9331 111.648 38.2004 111.822C38.4577 111.991 38.8086 112.189 39.253 112.415C39.6873 112.636 40.0536 112.804 40.3518 112.917C40.6399 113.026 40.8931 113.066 41.1112 113.037C41.3294 113.008 41.5431 112.888 41.7524 112.676C41.9517 112.46 42.1745 112.135 42.4209 111.7C42.6673 111.266 42.9704 110.696 43.3303 109.989C43.6901 109.282 43.9731 108.701 44.1791 108.246C44.3851 107.792 44.517 107.42 44.5748 107.131C44.6225 106.838 44.5939 106.594 44.4888 106.401C44.3838 106.208 44.2026 106.026 43.9453 105.857C43.6779 105.683 43.3271 105.485 42.8928 105.264Z" fill="white"/>
<path d="M38.253 100.335L31.1674 109.64L29.2468 108.178L36.3324 98.8722L38.253 100.335Z" fill="white"/>
<path d="M34.174 97.2796L25.6087 105.244L20.1678 99.3927L21.612 98.0498L25.409 102.133L27.4881 100.2L24.2352 96.7018L25.6793 95.3589L28.9322 98.8572L31.086 96.8546L27.289 92.7711L28.7331 91.4283L34.174 97.2796Z" fill="white"/>
<path d="M25.4268 85.9639C25.8703 86.7023 26.1923 87.3484 26.3928 87.9022C26.5933 88.456 26.6703 88.9584 26.6239 89.4094C26.5775 89.8603 26.4096 90.2851 26.1202 90.6837C25.825 91.0726 25.4034 91.4713 24.8555 91.8797C24.3076 92.2882 23.6257 92.7375 22.8096 93.2277C21.9935 93.718 21.2765 94.109 20.6586 94.4009C20.0406 94.6928 19.4907 94.8777 19.0087 94.9557C18.5209 95.024 18.067 94.9727 17.6471 94.8019C17.2272 94.6311 16.8198 94.3271 16.425 93.89C16.0302 93.4529 15.6111 92.8651 15.1675 92.1268C14.9983 91.845 14.8329 91.5477 14.6714 91.2349C14.5041 90.9123 14.3553 90.5985 14.2249 90.2934C14.0945 89.9884 13.9952 89.7241 13.9271 89.5006L15.5155 88.5464C15.6439 88.8262 15.7714 89.0934 15.8979 89.3479C16.0146 89.6083 16.1323 89.8483 16.251 90.0679C16.3639 90.2777 16.464 90.4555 16.5516 90.6013C16.8492 91.0967 17.1138 91.4931 17.3452 91.7904C17.5767 92.0876 17.8139 92.2955 18.0569 92.4139C18.2844 92.5285 18.5507 92.5536 18.8558 92.4893C19.1512 92.4308 19.5165 92.2907 19.9518 92.0689C20.3871 91.8471 20.9253 91.5436 21.5665 91.1584C22.198 90.7791 22.7187 90.4464 23.1287 90.1605C23.5289 89.8804 23.8291 89.6208 24.0291 89.3816C24.2195 89.1482 24.3224 88.9014 24.3378 88.6409C24.3377 88.3766 24.2607 88.0724 24.107 87.7285C23.9533 87.3845 23.7276 86.9648 23.4299 86.4693C23.2374 86.1487 23.0127 85.8077 22.7559 85.4464C22.4992 85.085 22.2697 84.7799 22.0674 84.5313L23.685 83.5596C23.8522 83.75 24.038 83.9821 24.2422 84.2561C24.4561 84.5242 24.6662 84.8078 24.8724 85.1071C25.0727 85.3966 25.2575 85.6822 25.4268 85.9639Z" fill="white"/>
<path d="M22.4426 80.0059L13.3399 83.2277L14.4687 86.4168L12.5456 87.0975L9.48262 78.4436L11.4057 77.7629L12.5345 80.952L21.6371 77.7302L22.4426 80.0059Z" fill="white"/>
<path d="M20.5456 73.7667L18.3581 74.184L17.8962 71.7626L20.0838 71.3454L20.5456 73.7667Z" fill="white"/>
<path d="M19.2673 64.9501L7.60964 64.0038L7.9315 60.0388C8.01311 59.0335 8.13042 58.2186 8.28344 57.5943C8.43737 56.9587 8.65891 56.4706 8.94807 56.1303C9.22685 55.7777 9.59858 55.5406 10.0633 55.4192C10.5176 55.2855 11.0798 55.2231 11.7499 55.232C12.4201 55.2409 13.2296 55.2839 14.1785 55.3609C15.1273 55.438 15.9332 55.5261 16.596 55.6254C17.2588 55.7247 17.8092 55.8774 18.2473 56.0835C18.6751 56.2774 19.0037 56.5713 19.2332 56.9652C19.4524 57.3468 19.5867 57.8637 19.6361 58.5158C19.6864 59.1567 19.6708 59.9798 19.5892 60.9851L19.2673 64.9501ZM17.4971 62.3845L17.6126 60.9611C17.6575 60.4076 17.6829 59.9549 17.6888 59.6028C17.6842 59.2386 17.6337 58.9503 17.5373 58.7378C17.4417 58.514 17.2621 58.3459 16.9983 58.2335C16.7232 58.1202 16.3437 58.0325 15.8598 57.9705C15.3769 57.8972 14.7513 57.8294 13.9831 57.767C13.2263 57.7056 12.6036 57.6721 12.1152 57.6665C11.6163 57.6488 11.2272 57.6797 10.9478 57.7594C10.6694 57.8278 10.465 57.9647 10.3346 58.1701C10.1938 58.3634 10.0979 58.6342 10.0469 58.9825C9.98458 59.3299 9.93096 59.7804 9.88603 60.3339L9.77049 61.7572L17.4971 62.3845Z" fill="white"/>
<path d="M20.3813 54.1808L9.25651 50.5704L11.723 42.9706L13.5986 43.5793L11.8774 48.883L14.5777 49.7594L16.0523 45.2157L17.928 45.8244L16.4534 50.3681L19.2508 51.276L20.9721 45.9723L22.8477 46.581L20.3813 54.1808Z" fill="white"/>
<path d="M25.7305 41.5332C25.5115 41.904 25.2596 42.308 24.9749 42.7454C24.696 43.1729 24.4131 43.585 24.1262 43.9815C23.8491 44.3838 23.5872 44.7491 23.3407 45.0773L21.6867 44.1002C21.9293 43.7565 22.1747 43.4079 22.423 43.0544C22.6771 42.6911 22.9148 42.3445 23.1361 42.0145C23.3476 41.6787 23.5254 41.3888 23.6695 41.1449C23.9635 40.6472 24.1716 40.2503 24.294 39.954C24.4066 39.652 24.4594 39.4067 24.4523 39.2182C24.4376 39.0647 24.3979 38.9426 24.3331 38.8517C24.2586 38.755 24.1608 38.6643 24.0397 38.5796C23.9089 38.4891 23.7605 38.3949 23.5946 38.2969C23.3702 38.1643 23.1761 38.0695 23.0125 38.0123C22.8546 37.9453 22.7193 37.9181 22.6067 37.9305C22.4843 37.9372 22.3632 37.9973 22.2435 38.1108C22.1295 38.2146 22.0022 38.3632 21.8617 38.5566L20.252 40.6464C19.9283 41.0606 19.6068 41.3709 19.2875 41.5772C18.9739 41.7737 18.6462 41.8828 18.3042 41.9046C17.9623 41.9264 17.6053 41.8734 17.2332 41.7458C16.8668 41.6083 16.4738 41.4157 16.0542 41.1678C15.3907 40.7758 14.9185 40.3718 14.6378 39.9559C14.357 39.5399 14.2121 39.1055 14.2032 38.6527C14.2 38.1901 14.3046 37.7122 14.517 37.219C14.7196 36.72 14.9795 36.2022 15.2965 35.6655C15.5271 35.2752 15.778 34.8838 16.0494 34.4912C16.311 34.0929 16.568 33.7248 16.8203 33.3868C17.0726 33.0488 17.3001 32.7751 17.5028 32.5658L19.1128 33.5169C18.9297 33.7378 18.7284 34.0006 18.5089 34.3053C18.2894 34.61 18.071 34.9352 17.8537 35.2807C17.6267 35.6204 17.4209 35.9464 17.2365 36.2587C16.9655 36.7173 16.7689 37.0948 16.6465 37.391C16.5202 37.6718 16.4528 37.9084 16.4444 38.1009C16.444 38.3244 16.5103 38.5018 16.6433 38.6331C16.7822 38.7546 16.9687 38.8845 17.2029 39.0228C17.4956 39.1958 17.7316 39.3088 17.9108 39.362C18.0802 39.4095 18.2374 39.3773 18.3824 39.2655C18.5274 39.1537 18.7117 38.9533 18.9352 38.6641L20.5302 36.5656C20.7209 36.3097 20.9196 36.0848 21.1262 35.891C21.3329 35.6971 21.5641 35.5508 21.82 35.4518C22.0759 35.3529 22.3702 35.3227 22.7028 35.3612C22.8798 35.3736 23.0725 35.4151 23.2809 35.4856C23.4796 35.5503 23.697 35.6392 23.9329 35.7523C24.1747 35.8556 24.4321 35.9879 24.7053 36.1493C25.2713 36.4837 25.71 36.8218 26.0214 37.1637C26.3385 37.4958 26.5488 37.8306 26.6522 38.1681C26.7555 38.5056 26.7764 38.8602 26.7148 39.2319C26.659 39.5938 26.5391 39.9639 26.355 40.3423C26.1808 40.7264 25.9726 41.1233 25.7305 41.5332Z" fill="white"/>
<path d="M28.6267 36.6643L20.0904 28.6688L23.7976 24.7108C24.2935 24.1814 24.7625 23.8133 25.2048 23.6064C25.6548 23.3912 26.089 23.3089 26.5076 23.3593C26.918 23.402 27.3278 23.553 27.7372 23.8122C28.1543 24.0632 28.5821 24.3939 29.0205 24.8046C29.4258 25.1842 29.7712 25.5698 30.0566 25.9614C30.3415 26.3369 30.527 26.7358 30.6129 27.1579C30.6989 27.5801 30.6495 28.0307 30.4647 28.5098C30.2877 28.9807 29.9357 29.4973 29.4089 30.0598L27.3984 32.2063L30.2769 34.9024L28.6267 36.6643ZM25.9592 30.8582L27.3189 29.4065C27.652 29.0509 27.8989 28.7541 28.0595 28.5163C28.2118 28.2708 28.2848 28.0519 28.2785 27.8597C28.2723 27.6675 28.1897 27.4737 28.031 27.2785C27.88 27.0749 27.6598 26.8376 27.3703 26.5664C27.0808 26.2953 26.8295 26.091 26.6166 25.9536C26.4113 25.808 26.2126 25.7383 26.0204 25.7446C25.8276 25.7349 25.6217 25.8138 25.4027 25.9813C25.1754 26.1411 24.8991 26.3947 24.5737 26.7421L23.1675 28.2434L25.9592 30.8582Z" fill="white"/>
<path d="M35.3966 29.579L28.9024 19.8516L33.554 16.7462C34.1855 16.3245 34.737 16.0586 35.2084 15.9482C35.6893 15.8316 36.1199 15.8439 36.5004 15.9851C36.8745 16.1169 37.2236 16.354 37.5475 16.6964C37.8747 17.0231 38.1955 17.4221 38.5102 17.8933C38.7304 18.2232 38.9381 18.5956 39.1333 19.0104C39.3284 19.4252 39.434 19.8589 39.45 20.3115C39.4755 20.7578 39.3312 21.1948 39.0171 21.6225L43.1304 24.4158L41.0096 25.8317L36.934 22.9111L37.6082 22.8494C37.5611 22.9217 37.4935 22.994 37.4056 23.0664C37.327 23.1324 37.2312 23.2032 37.1181 23.2787L35.0256 24.6757L37.4042 28.2387L35.3966 29.579ZM33.9401 23.0498L35.7781 21.8227C36.174 21.5584 36.4693 21.3272 36.664 21.129C36.8588 20.9309 36.9781 20.7422 37.022 20.563C37.0596 20.3744 37.0328 20.1811 36.9415 19.9831C36.8439 19.7757 36.6976 19.5259 36.5025 19.2337C36.3074 18.9415 36.1328 18.7106 35.9787 18.541C35.8245 18.3713 35.661 18.2693 35.4881 18.2348C35.3152 18.2003 35.0952 18.2382 34.8281 18.3484C34.5704 18.4523 34.2436 18.6364 33.8478 18.9007L31.9956 20.1372L33.9401 23.0498Z" fill="white"/>
<path d="M44.3569 23.8236L40.248 12.8731L47.7288 10.0662L48.4215 11.9125L43.201 13.8714L44.1983 16.5294L48.6708 14.8512L49.3636 16.6975L44.8911 18.3757L45.9243 21.1293L51.1449 19.1704L51.8377 21.0167L44.3569 23.8236Z" fill="white"/>
<path d="M58.303 19.6701L57.8968 7.98116L63.3165 7.79283C64.0414 7.76764 64.6336 7.83779 65.0929 8.00327C65.5636 8.16836 65.9294 8.41647 66.1904 8.7476C66.451 9.06741 66.6349 9.4636 66.742 9.93616C66.8605 10.4083 66.9302 10.9446 66.951 11.5449C66.9703 12.0999 66.9429 12.6168 66.8688 13.0957C66.8057 13.5628 66.6556 13.9763 66.4186 14.336C66.1817 14.6958 65.8287 14.9803 65.3596 15.1893C64.9019 15.398 64.288 15.5158 63.5178 15.5425L60.5786 15.6447L60.7155 19.5863L58.303 19.6701ZM60.5101 13.6738L62.4979 13.6048C62.9849 13.5878 63.3692 13.5518 63.6508 13.4967C63.932 13.4302 64.1382 13.3266 64.2694 13.186C64.4006 13.0454 64.4789 12.8499 64.5042 12.5995C64.5408 12.3487 64.5523 12.0251 64.5385 11.6287C64.5247 11.2323 64.4908 10.9103 64.4369 10.6627C64.3942 10.4147 64.3026 10.2251 64.162 10.0939C64.0323 9.95095 63.8307 9.86156 63.5573 9.8257C63.2835 9.77851 62.9087 9.76318 62.433 9.77971L60.3773 9.85115L60.5101 13.6738Z" fill="white"/>
<path d="M68.1259 19.4411L70.405 7.96932L75.8907 9.05917C76.6355 9.20713 77.2137 9.40866 77.6252 9.66373C78.0478 9.92102 78.3438 10.234 78.5132 10.6028C78.6848 10.9604 78.7643 11.3748 78.7515 11.846C78.7521 12.3084 78.6972 12.8174 78.5868 13.3732C78.5095 13.7623 78.3933 14.1725 78.2383 14.6039C78.0833 15.0353 77.8515 15.4168 77.543 15.7483C77.2456 16.0821 76.8346 16.2894 76.3102 16.37L77.2466 21.2531L74.7455 20.7562L73.9257 15.8097L74.4463 16.2424C74.3619 16.2603 74.263 16.2638 74.1496 16.2528C74.0474 16.244 73.9295 16.2264 73.7961 16.1999L71.3284 15.7096L70.4936 19.9115L68.1259 19.4411ZM71.7093 13.7921L73.877 14.2227C74.3438 14.3155 74.7162 14.3606 74.994 14.358C75.2718 14.3554 75.4896 14.3063 75.6473 14.2105C75.8072 14.1036 75.9248 13.9478 76.0001 13.7433C76.0776 13.5276 76.1506 13.2474 76.2191 12.9028C76.2875 12.5582 76.3272 12.2715 76.338 12.0425C76.3488 11.8136 76.3052 11.6258 76.2072 11.4792C76.1093 11.3327 75.9268 11.204 75.66 11.0932C75.4042 10.9846 75.0429 10.8839 74.576 10.7912L72.3917 10.3572L71.7093 13.7921Z" fill="white"/>
<path d="M82.6817 23.7506C81.8193 23.3474 81.1298 22.9624 80.6132 22.5957C80.1068 22.2338 79.7497 21.8604 79.5418 21.4754C79.3388 21.0802 79.2614 20.6437 79.3097 20.1658C79.3628 19.6777 79.5129 19.116 79.7599 18.4808C80.0068 17.8457 80.332 17.0969 80.7352 16.2345C81.1385 15.3721 81.5047 14.6426 81.8338 14.0458C82.1629 13.449 82.4953 12.9789 82.8311 12.6355C83.1716 12.2817 83.5563 12.0612 83.9849 11.9739C84.4184 11.8764 84.9363 11.9059 85.5387 12.0624C86.1514 12.2238 86.8889 12.5061 87.7513 12.9094C88.6136 13.3127 89.298 13.6952 89.8044 14.0572C90.321 14.4239 90.6809 14.8048 90.8839 15.2C91.0917 15.585 91.1691 16.0215 91.116 16.5096C91.078 16.9923 90.9355 17.5512 90.6885 18.1864C90.4415 18.8216 90.1164 19.5704 89.7131 20.4327C89.3099 21.2951 88.9437 22.0247 88.6146 22.6215C88.2855 23.2182 87.9455 23.6911 87.5947 24.04C87.2589 24.3834 86.8743 24.6039 86.4408 24.7015C86.0121 24.7888 85.4915 24.7518 84.8788 24.5904C84.2764 24.4338 83.5441 24.1539 82.6817 23.7506ZM83.517 21.9643C83.9687 22.1755 84.3404 22.3306 84.632 22.4294C84.9338 22.533 85.1933 22.5668 85.4104 22.5306C85.6274 22.4945 85.8319 22.3649 86.0238 22.1419C86.2259 21.9236 86.4429 21.5934 86.6747 21.1513C86.9064 20.7092 87.1903 20.1288 87.5264 19.4102C87.8624 18.6915 88.1258 18.1016 88.3165 17.6402C88.5072 17.1789 88.6215 16.8007 88.6594 16.5057C88.7076 16.2154 88.6759 15.9754 88.5645 15.7857C88.453 15.5959 88.2607 15.4184 87.9877 15.2532C87.7249 15.0928 87.3676 14.907 86.9159 14.6957C86.4745 14.4893 86.1028 14.3343 85.801 14.2307C85.5094 14.1318 85.255 14.1005 85.038 14.1366C84.8209 14.1727 84.6113 14.2999 84.4091 14.5182C84.2173 14.7412 84.0054 15.0738 83.7737 15.5159C83.5419 15.958 83.258 16.5384 82.9219 17.2571C82.5859 17.9757 82.3225 18.5657 82.1318 19.027C81.9411 19.4883 81.8217 19.8641 81.7735 20.1544C81.7357 20.4494 81.7724 20.6918 81.8839 20.8816C81.9953 21.0713 82.1825 21.2464 82.4453 21.4068C82.7183 21.572 83.0756 21.7579 83.517 21.9643Z" fill="white"/>
<path d="M88.3805 26.7326L95.1566 17.1994L97.1242 18.598L90.3481 28.1311L88.3805 26.7326Z" fill="white"/>
<path d="M92.4745 29.5482L100.745 21.2779L106.395 26.9276L105 28.3221L101.057 24.3792L99.0499 26.3867L102.428 29.7646L101.033 31.159L97.6555 27.7811L95.5759 29.8607L99.5187 33.8035L98.1243 35.198L92.4745 29.5482Z" fill="white"/>
<path d="M101.772 40.7088C101.304 39.9855 100.961 39.3504 100.742 38.8035C100.523 38.2566 100.43 37.757 100.461 37.3048C100.493 36.8526 100.646 36.4225 100.922 36.0145C101.205 35.6161 101.613 35.2037 102.147 34.7774C102.681 34.351 103.348 33.8794 104.147 33.3625C104.947 32.8455 105.65 32.431 106.258 32.1189C106.866 31.8067 107.41 31.6037 107.889 31.5099C108.374 31.4255 108.83 31.4617 109.255 31.6186C109.68 31.7754 110.097 32.0658 110.506 32.4896C110.915 32.9134 111.354 33.487 111.821 34.2103C112 34.4863 112.175 34.7779 112.347 35.0853C112.525 35.4021 112.684 35.7109 112.824 36.0115C112.965 36.3121 113.073 36.5729 113.148 36.794L111.592 37.8002C111.454 37.5248 111.318 37.262 111.183 37.0117C111.058 36.7553 110.933 36.5194 110.807 36.3039C110.687 36.0978 110.581 35.9235 110.489 35.7807C110.175 35.2953 109.897 34.9079 109.656 34.6185C109.415 34.329 109.171 34.1291 108.924 34.0188C108.693 33.9118 108.426 33.8955 108.123 33.9699C107.83 34.0381 107.469 34.1902 107.042 34.4263C106.614 34.6623 106.086 34.9834 105.458 35.3896C104.839 35.7896 104.33 36.1393 103.93 36.4386C103.539 36.7318 103.248 37.0012 103.055 37.2468C102.873 37.4863 102.778 37.7365 102.771 37.9973C102.78 38.2615 102.867 38.5629 103.032 38.9016C103.197 39.2403 103.437 39.6523 103.751 40.1377C103.954 40.4517 104.189 40.7851 104.458 41.1378C104.727 41.4905 104.966 41.7878 105.176 42.0297L103.592 43.0543C103.418 42.8695 103.225 42.6436 103.012 42.3766C102.789 42.1157 102.57 41.8391 102.354 41.5469C102.144 41.2642 101.95 40.9848 101.772 40.7088Z" fill="white"/>
<path d="M104.965 46.552L113.953 43.0246L112.717 39.8754L114.616 39.1302L117.97 47.6757L116.071 48.4209L114.835 45.2718L105.846 48.7992L104.965 46.552Z" fill="white"/>
<path d="M107.079 52.7258L109.251 52.2337L109.796 54.6377L107.624 55.1298L107.079 52.7258Z" fill="white"/>
</svg>
