<svg width="340" height="102" viewBox="0 0 340 102" fill="none" xmlns="http://www.w3.org/2000/svg">
<path d="M49.5786 42V10.352H56.1106V36.48H69.3586V42H49.5786ZM74.3306 42V10.352H95.9506V15.688H80.8626V23.37H93.7886V28.706H80.8626V36.664H95.9506V42H74.3306ZM108.62 42V15.872H99.466V10.352H124.306V15.872H115.152V42H108.62ZM152.019 42.368C149.78 42.368 147.91 42.23 146.407 41.954C144.904 41.678 143.693 41.2333 142.773 40.62C141.853 40.0067 141.148 39.148 140.657 38.044C140.197 36.94 139.875 35.56 139.691 33.904C139.538 32.2173 139.461 30.2087 139.461 27.878V10.352H145.993V29.534C145.993 31.1593 146.039 32.478 146.131 33.49C146.254 34.4713 146.484 35.2227 146.821 35.744C147.189 36.2653 147.787 36.618 148.615 36.802C149.443 36.9553 150.578 37.032 152.019 37.032C153.46 37.032 154.58 36.9553 155.377 36.802C156.205 36.618 156.803 36.2653 157.171 35.744C157.539 35.2227 157.769 34.4713 157.861 33.49C157.953 32.478 157.999 31.1593 157.999 29.534V10.352H164.531V27.878C164.531 30.2087 164.439 32.2173 164.255 33.904C164.102 35.56 163.795 36.94 163.335 38.044C162.875 39.148 162.185 40.0067 161.265 40.62C160.345 41.2333 159.134 41.678 157.631 41.954C156.128 42.23 154.258 42.368 152.019 42.368ZM182.988 42.368C181.823 42.368 180.535 42.3373 179.124 42.276C177.744 42.2147 176.395 42.1227 175.076 42C173.757 41.908 172.546 41.8007 171.442 41.678V36.48C172.577 36.572 173.727 36.664 174.892 36.756C176.088 36.848 177.223 36.9247 178.296 36.986C179.369 37.0167 180.289 37.032 181.056 37.032C182.62 37.032 183.831 36.9707 184.69 36.848C185.549 36.6947 186.193 36.48 186.622 36.204C186.959 35.9587 187.189 35.698 187.312 35.422C187.435 35.1153 187.511 34.7627 187.542 34.364C187.573 33.9347 187.588 33.4593 187.588 32.938C187.588 32.2327 187.542 31.65 187.45 31.19C187.389 30.73 187.266 30.3773 187.082 30.132C186.898 29.856 186.591 29.6567 186.162 29.534C185.763 29.4113 185.242 29.3193 184.598 29.258L177.514 28.384C176.103 28.2 174.938 27.878 174.018 27.418C173.129 26.958 172.423 26.3447 171.902 25.578C171.381 24.8113 171.013 23.9067 170.798 22.864C170.614 21.8213 170.522 20.6407 170.522 19.322C170.522 17.2367 170.813 15.5807 171.396 14.354C171.979 13.1273 172.791 12.192 173.834 11.548C174.907 10.904 176.165 10.49 177.606 10.306C179.047 10.0913 180.611 9.984 182.298 9.984C183.525 9.984 184.782 10.03 186.07 10.122C187.358 10.1833 188.569 10.2753 189.704 10.398C190.839 10.5207 191.789 10.674 192.556 10.858V15.918C191.789 15.7953 190.9 15.688 189.888 15.596C188.876 15.504 187.818 15.4427 186.714 15.412C185.61 15.3507 184.567 15.32 183.586 15.32C182.145 15.32 180.995 15.3813 180.136 15.504C179.308 15.596 178.664 15.7647 178.204 16.01C177.683 16.3167 177.361 16.7153 177.238 17.206C177.146 17.6967 177.1 18.31 177.1 19.046C177.1 19.966 177.161 20.6713 177.284 21.162C177.407 21.622 177.698 21.944 178.158 22.128C178.618 22.312 179.339 22.4653 180.32 22.588L187.404 23.416C188.263 23.508 189.06 23.6613 189.796 23.876C190.532 24.0907 191.191 24.428 191.774 24.888C192.357 25.348 192.832 25.992 193.2 26.82C193.415 27.2493 193.583 27.7553 193.706 28.338C193.829 28.89 193.921 29.5187 193.982 30.224C194.074 30.9293 194.12 31.7113 194.12 32.57C194.12 34.3487 193.936 35.836 193.568 37.032C193.231 38.228 192.74 39.1787 192.096 39.884C191.452 40.5893 190.655 41.126 189.704 41.494C188.784 41.862 187.757 42.092 186.622 42.184C185.487 42.3067 184.276 42.368 182.988 42.368ZM211.747 42V10.352H220.717L228.537 31.236H228.813L236.587 10.352H245.511V42H239.209V19.966H238.979L230.791 42H226.283L218.095 19.966H217.865V42H211.747ZM250.038 42L260.756 10.352H269.496L280.214 42H273.544L271.198 35.008H258.824L256.57 42H250.038ZM260.48 29.718H269.496L265.126 16.286H264.85L260.48 29.718ZM284.655 42V10.352H291.187V23.232H294.545L304.159 10.352H311.289L299.789 25.486L311.427 42H303.929L294.545 28.568H291.187V42H284.655ZM315.831 42V10.352H337.451V15.688H322.363V23.37H335.289V28.706H322.363V36.664H337.451V42H315.831ZM131.471 93V61.352H138.003V93H131.471ZM151.88 93V66.872H142.726V61.352H167.566V66.872H158.412V93H151.88ZM228.458 93V61.352H243.592C245.646 61.352 247.287 61.582 248.514 62.042C249.771 62.502 250.722 63.1767 251.366 64.066C252.01 64.9247 252.439 65.9827 252.654 67.24C252.899 68.4667 253.022 69.8467 253.022 71.38C253.022 72.4533 252.93 73.6033 252.746 74.83C252.562 76.0567 252.148 77.1913 251.504 78.234C250.89 79.2767 249.909 80.0433 248.56 80.534L253.62 93H246.72L241.936 80.304L243.546 81.178C243.331 81.27 243.07 81.3313 242.764 81.362C242.488 81.3927 242.166 81.408 241.798 81.408H234.99V93H228.458ZM234.99 76.118H240.97C242.258 76.118 243.27 76.0413 244.006 75.888C244.742 75.7347 245.294 75.4893 245.662 75.152C246.03 74.784 246.26 74.3087 246.352 73.726C246.444 73.1127 246.49 72.3307 246.49 71.38C246.49 70.4293 246.444 69.6473 246.352 69.034C246.26 68.4207 246.045 67.9453 245.708 67.608C245.37 67.2707 244.818 67.0253 244.052 66.872C243.316 66.7187 242.304 66.642 241.016 66.642H234.99V76.118ZM259.543 93V61.352H281.163V66.688H266.075V74.37H279.001V79.706H266.075V87.664H281.163V93H259.543ZM284.403 93L295.121 61.352H303.861L314.579 93H307.909L305.563 86.008H293.189L290.935 93H284.403ZM294.845 80.718H303.861L299.491 67.286H299.215L294.845 80.718ZM319.02 93V61.352H325.552V87.48H338.8V93H319.02Z" fill="#F1F1F1"/>
<path d="M197.21 93C206.461 93 213.376 86.2135 213.376 77C213.376 67.7865 206.461 61 197.21 61C187.872 61 181 67.8315 181 77C181 86.1686 187.872 93 197.21 93ZM197.21 90.0337C189.766 90.0337 184.216 84.5056 184.216 77C184.216 69.4944 189.766 63.9663 197.21 63.9663C204.611 63.9663 210.117 69.4944 210.117 77C210.117 84.5056 204.611 90.0337 197.21 90.0337Z" fill="#F1F1F1"/>
<path d="M207.729 77.1876C207.729 83.0096 203.095 87.7294 197.376 87.7294C191.657 87.7294 187.023 83.011 187.023 77.1876C187.023 76.4877 187.093 75.8064 187.22 75.1464C192.307 77.0468 197.32 72.0468 195.519 66.8157C196.119 66.7108 196.741 66.6471 197.375 66.6471C203.093 66.6471 207.728 71.3695 207.728 77.1889L207.729 77.1876Z" fill="#F74264"/>
</svg>
