<svg width="340" height="102" viewBox="0 0 340 102" fill="none" xmlns="http://www.w3.org/2000/svg">
<path d="M8.694 42L1.058 10.352H7.59L13.156 34.41H13.386L19.504 10.352H26.312L32.522 34.41H32.752L37.95 10.352H44.482L36.8 42H28.658L22.862 19.874H22.632L16.836 42H8.694ZM44.3541 42L55.0721 10.352H63.8121L74.5301 42H67.8601L65.5141 35.008H53.1401L50.8861 42H44.3541ZM54.7961 29.718H63.8121L59.4421 16.286H59.1661L54.7961 29.718ZM78.9712 42V10.352H85.7332L98.1992 29.856H98.4292V10.352H104.685V42H98.4752L85.4572 21.438H85.2272V42H78.9712ZM118.561 42V15.872H109.407V10.352H134.247V15.872H125.093V42H118.561ZM156.026 42V15.872H146.872V10.352H171.712V15.872H162.558V42H156.026ZM188.918 42.368C186.342 42.368 184.21 42.2147 182.524 41.908C180.868 41.6013 179.564 41.0953 178.614 40.39C177.663 39.654 176.973 38.6727 176.544 37.446C176.114 36.1887 175.838 34.64 175.716 32.8C175.593 30.96 175.532 28.752 175.532 26.176C175.532 23.6 175.593 21.392 175.716 19.552C175.838 17.712 176.114 16.1787 176.544 14.952C176.973 13.6947 177.663 12.7133 178.614 12.008C179.564 11.272 180.868 10.7507 182.524 10.444C184.21 10.1373 186.342 9.984 188.918 9.984C191.494 9.984 193.61 10.1373 195.266 10.444C196.952 10.7507 198.271 11.272 199.222 12.008C200.172 12.7133 200.862 13.6947 201.292 14.952C201.752 16.1787 202.043 17.712 202.166 19.552C202.288 21.392 202.35 23.6 202.35 26.176C202.35 28.752 202.288 30.96 202.166 32.8C202.043 34.64 201.752 36.1887 201.292 37.446C200.862 38.6727 200.172 39.654 199.222 40.39C198.271 41.0953 196.952 41.6013 195.266 41.908C193.61 42.2147 191.494 42.368 188.918 42.368ZM188.918 37.032C190.267 37.032 191.356 36.986 192.184 36.894C193.042 36.802 193.717 36.5873 194.208 36.25C194.698 35.9127 195.051 35.3607 195.266 34.594C195.511 33.8273 195.664 32.7693 195.726 31.42C195.787 30.0707 195.818 28.3227 195.818 26.176C195.818 24.0293 195.787 22.2813 195.726 20.932C195.664 19.5827 195.511 18.5247 195.266 17.758C195.051 16.9913 194.698 16.4393 194.208 16.102C193.717 15.7647 193.042 15.55 192.184 15.458C191.356 15.366 190.267 15.32 188.918 15.32C187.599 15.32 186.51 15.366 185.652 15.458C184.824 15.55 184.164 15.7647 183.674 16.102C183.183 16.4393 182.815 16.9913 182.57 17.758C182.355 18.5247 182.217 19.5827 182.156 20.932C182.094 22.2813 182.064 24.0293 182.064 26.176C182.064 28.3227 182.094 30.0707 182.156 31.42C182.217 32.7693 182.355 33.8273 182.57 34.594C182.815 35.3607 183.183 35.9127 183.674 36.25C184.164 36.5873 184.824 36.802 185.652 36.894C186.51 36.986 187.599 37.032 188.918 37.032ZM14.904 93.368C13.7387 93.368 12.4507 93.3373 11.04 93.276C9.66 93.2147 8.31067 93.1227 6.992 93C5.67333 92.908 4.462 92.8007 3.358 92.678V87.48C4.49267 87.572 5.64267 87.664 6.808 87.756C8.004 87.848 9.13867 87.9247 10.212 87.986C11.2853 88.0167 12.2053 88.032 12.972 88.032C14.536 88.032 15.7473 87.9707 16.606 87.848C17.4647 87.6947 18.1087 87.48 18.538 87.204C18.8753 86.9587 19.1053 86.698 19.228 86.422C19.3507 86.1153 19.4273 85.7627 19.458 85.364C19.4887 84.9347 19.504 84.4593 19.504 83.938C19.504 83.2327 19.458 82.65 19.366 82.19C19.3047 81.73 19.182 81.3773 18.998 81.132C18.814 80.856 18.5073 80.6567 18.078 80.534C17.6793 80.4113 17.158 80.3193 16.514 80.258L9.43 79.384C8.01933 79.2 6.854 78.878 5.934 78.418C5.04467 77.958 4.33933 77.3447 3.818 76.578C3.29667 75.8113 2.92867 74.9067 2.714 73.864C2.53 72.8213 2.438 71.6407 2.438 70.322C2.438 68.2367 2.72933 66.5807 3.312 65.354C3.89467 64.1273 4.70733 63.192 5.75 62.548C6.82333 61.904 8.08067 61.49 9.522 61.306C10.9633 61.0913 12.5273 60.984 14.214 60.984C15.4407 60.984 16.698 61.03 17.986 61.122C19.274 61.1833 20.4853 61.2753 21.62 61.398C22.7547 61.5207 23.7053 61.674 24.472 61.858V66.918C23.7053 66.7953 22.816 66.688 21.804 66.596C20.792 66.504 19.734 66.4427 18.63 66.412C17.526 66.3507 16.4833 66.32 15.502 66.32C14.0607 66.32 12.9107 66.3813 12.052 66.504C11.224 66.596 10.58 66.7647 10.12 67.01C9.59867 67.3167 9.27667 67.7153 9.154 68.206C9.062 68.6967 9.016 69.31 9.016 70.046C9.016 70.966 9.07733 71.6713 9.2 72.162C9.32267 72.622 9.614 72.944 10.074 73.128C10.534 73.312 11.2547 73.4653 12.236 73.588L19.32 74.416C20.1787 74.508 20.976 74.6613 21.712 74.876C22.448 75.0907 23.1073 75.428 23.69 75.888C24.2727 76.348 24.748 76.992 25.116 77.82C25.3307 78.2493 25.4993 78.7553 25.622 79.338C25.7447 79.89 25.8367 80.5187 25.898 81.224C25.99 81.9293 26.036 82.7113 26.036 83.57C26.036 85.3487 25.852 86.836 25.484 88.032C25.1467 89.228 24.656 90.1787 24.012 90.884C23.368 91.5893 22.5707 92.126 21.62 92.494C20.7 92.862 19.6727 93.092 18.538 93.184C17.4033 93.3067 16.192 93.368 14.904 93.368ZM38.6454 93V66.872H29.4914V61.352H54.3314V66.872H45.1774V93H38.6454ZM53.9224 93L64.6404 61.352H73.3804L84.0984 93H77.4284L75.0824 86.008H62.7084L60.4544 93H53.9224ZM64.3644 80.718H73.3804L69.0104 67.286H68.7344L64.3644 80.718ZM88.5396 93V61.352H95.3016L107.768 80.856H107.998V61.352H114.254V93H108.044L95.0256 72.438H94.7956V93H88.5396ZM121.782 93V61.352H132.546C135.275 61.352 137.498 61.49 139.216 61.766C140.964 62.042 142.328 62.5327 143.31 63.238C144.322 63.9127 145.042 64.8633 145.472 66.09C145.932 67.286 146.223 68.7887 146.346 70.598C146.468 72.4073 146.53 74.6 146.53 77.176C146.53 79.752 146.468 81.9447 146.346 83.754C146.223 85.5633 145.932 87.0813 145.472 88.308C145.042 89.504 144.322 90.4547 143.31 91.16C142.328 91.8347 140.964 92.31 139.216 92.586C137.498 92.862 135.275 93 132.546 93H121.782ZM128.314 87.664H132.178C133.68 87.664 134.907 87.6333 135.858 87.572C136.839 87.48 137.606 87.2807 138.158 86.974C138.74 86.6673 139.154 86.146 139.4 85.41C139.645 84.6433 139.798 83.6007 139.86 82.282C139.952 80.9633 139.998 79.2613 139.998 77.176C139.998 75.1213 139.952 73.4347 139.86 72.116C139.798 70.7667 139.63 69.724 139.354 68.988C139.108 68.252 138.694 67.7307 138.112 67.424C137.56 67.0867 136.808 66.8873 135.858 66.826C134.907 66.734 133.68 66.688 132.178 66.688H128.314V87.664ZM177.013 93.368C174.437 93.368 172.306 93.2147 170.619 92.908C168.963 92.6013 167.66 92.0953 166.709 91.39C165.759 90.654 165.069 89.6727 164.639 88.446C164.21 87.1887 163.934 85.64 163.811 83.8C163.689 81.96 163.627 79.752 163.627 77.176C163.627 74.6 163.689 72.392 163.811 70.552C163.934 68.712 164.21 67.1787 164.639 65.952C165.069 64.6947 165.759 63.7133 166.709 63.008C167.66 62.272 168.963 61.7507 170.619 61.444C172.306 61.1373 174.437 60.984 177.013 60.984C179.589 60.984 181.705 61.1373 183.361 61.444C185.048 61.7507 186.367 62.272 187.317 63.008C188.268 63.7133 188.958 64.6947 189.387 65.952C189.847 67.1787 190.139 68.712 190.261 70.552C190.384 72.392 190.445 74.6 190.445 77.176C190.445 79.752 190.384 81.96 190.261 83.8C190.139 85.64 189.847 87.1887 189.387 88.446C188.958 89.6727 188.268 90.654 187.317 91.39C186.367 92.0953 185.048 92.6013 183.361 92.908C181.705 93.2147 179.589 93.368 177.013 93.368ZM177.013 88.032C178.363 88.032 179.451 87.986 180.279 87.894C181.138 87.802 181.813 87.5873 182.303 87.25C182.794 86.9127 183.147 86.3607 183.361 85.594C183.607 84.8273 183.76 83.7693 183.821 82.42C183.883 81.0707 183.913 79.3227 183.913 77.176C183.913 75.0293 183.883 73.2813 183.821 71.932C183.76 70.5827 183.607 69.5247 183.361 68.758C183.147 67.9913 182.794 67.4393 182.303 67.102C181.813 66.7647 181.138 66.55 180.279 66.458C179.451 66.366 178.363 66.32 177.013 66.32C175.695 66.32 174.606 66.366 173.747 66.458C172.919 66.55 172.26 66.7647 171.769 67.102C171.279 67.4393 170.911 67.9913 170.665 68.758C170.451 69.5247 170.313 70.5827 170.251 71.932C170.19 73.2813 170.159 75.0293 170.159 77.176C170.159 79.3227 170.19 81.0707 170.251 82.42C170.313 83.7693 170.451 84.8273 170.665 85.594C170.911 86.3607 171.279 86.9127 171.769 87.25C172.26 87.5873 172.919 87.802 173.747 87.894C174.606 87.986 175.695 88.032 177.013 88.032ZM209.353 93.368C207.114 93.368 205.243 93.23 203.741 92.954C202.238 92.678 201.027 92.2333 200.107 91.62C199.187 91.0067 198.481 90.148 197.991 89.044C197.531 87.94 197.209 86.56 197.025 84.904C196.871 83.2173 196.795 81.2087 196.795 78.878V61.352H203.327V80.534C203.327 82.1593 203.373 83.478 203.465 84.49C203.587 85.4713 203.817 86.2227 204.155 86.744C204.523 87.2653 205.121 87.618 205.949 87.802C206.777 87.9553 207.911 88.032 209.353 88.032C210.794 88.032 211.913 87.9553 212.711 87.802C213.539 87.618 214.137 87.2653 214.505 86.744C214.873 86.2227 215.103 85.4713 215.195 84.49C215.287 83.478 215.333 82.1593 215.333 80.534V61.352H221.865V78.878C221.865 81.2087 221.773 83.2173 221.589 84.904C221.435 86.56 221.129 87.94 220.669 89.044C220.209 90.148 219.519 91.0067 218.599 91.62C217.679 92.2333 216.467 92.678 214.965 92.954C213.462 93.23 211.591 93.368 209.353 93.368ZM235.538 93V66.872H226.384V61.352H251.224V66.872H242.07V93H235.538ZM258.769 82.788V79.476C258.769 78.3107 258.877 77.3907 259.091 76.716C259.337 76.0413 259.689 75.52 260.149 75.152C260.609 74.784 261.177 74.4927 261.851 74.278L263.645 73.68C264.443 73.3733 265.025 73.1127 265.393 72.898C265.792 72.6527 266.053 72.2847 266.175 71.794C266.329 71.3033 266.405 70.5827 266.405 69.632C266.405 68.5587 266.237 67.792 265.899 67.332C265.562 66.8413 265.01 66.55 264.243 66.458C263.477 66.366 262.419 66.32 261.069 66.32C260.609 66.32 260.073 66.3353 259.459 66.366C258.846 66.3967 258.202 66.4427 257.527 66.504C256.883 66.5347 256.239 66.5807 255.595 66.642C254.982 66.7033 254.415 66.7647 253.893 66.826V61.766C254.783 61.6127 255.779 61.4747 256.883 61.352C257.987 61.2293 259.091 61.1373 260.195 61.076C261.33 61.0147 262.373 60.984 263.323 60.984C265.01 60.984 266.451 61.1373 267.647 61.444C268.874 61.7507 269.871 62.2567 270.637 62.962C271.404 63.6367 271.971 64.526 272.339 65.63C272.707 66.7033 272.891 68.0373 272.891 69.632C272.891 70.7053 272.799 71.6407 272.615 72.438C272.462 73.2353 272.217 73.9253 271.879 74.508C271.573 75.06 271.174 75.52 270.683 75.888C270.223 76.256 269.687 76.5473 269.073 76.762L267.049 77.406C266.436 77.6207 265.93 77.8047 265.531 77.958C265.163 78.1113 264.887 78.2953 264.703 78.51C264.55 78.7247 264.443 79.0313 264.381 79.43C264.32 79.798 264.289 80.304 264.289 80.948V82.788H258.769ZM258.217 93V86.974H264.887V93H258.217Z" fill="#F1F1F1"/>
</svg>
