<svg width="340" height="53" viewBox="0 0 340 53" fill="none" xmlns="http://www.w3.org/2000/svg">
<path d="M76.8531 42V10.352H91.5271C93.4897 10.352 95.0844 10.5973 96.3111 11.088C97.5684 11.5787 98.5344 12.284 99.2091 13.204C99.8837 14.0933 100.344 15.182 100.589 16.47C100.865 17.758 101.003 19.2147 101.003 20.84C101.003 22.3427 100.88 23.738 100.635 25.026C100.42 26.2833 99.9757 27.3873 99.3011 28.338C98.6264 29.2887 97.6451 30.0247 96.3571 30.546C95.0997 31.0673 93.4284 31.328 91.3431 31.328H83.3851V42H76.8531ZM83.3851 25.992H88.7671C90.0857 25.992 91.1284 25.9307 91.8951 25.808C92.6617 25.6547 93.2291 25.394 93.5971 25.026C93.9651 24.658 94.1951 24.1367 94.2871 23.462C94.4097 22.7873 94.4711 21.9133 94.4711 20.84C94.4711 19.7667 94.4097 18.8927 94.2871 18.218C94.1951 17.5433 93.9651 17.022 93.5971 16.654C93.2597 16.2553 92.7231 15.9947 91.9871 15.872C91.2511 15.7187 90.2391 15.642 88.9511 15.642H83.3851V25.992ZM106.636 42V10.352H121.77C123.825 10.352 125.466 10.582 126.692 11.042C127.95 11.502 128.9 12.1767 129.544 13.066C130.188 13.9247 130.618 14.9827 130.832 16.24C131.078 17.4667 131.2 18.8467 131.2 20.38C131.2 21.4533 131.108 22.6033 130.924 23.83C130.74 25.0567 130.326 26.1913 129.682 27.234C129.069 28.2767 128.088 29.0433 126.738 29.534L131.798 42H124.898L120.114 29.304L121.724 30.178C121.51 30.27 121.249 30.3313 120.942 30.362C120.666 30.3927 120.344 30.408 119.976 30.408H113.168V42H106.636ZM113.168 25.118H119.148C120.436 25.118 121.448 25.0413 122.184 24.888C122.92 24.7347 123.472 24.4893 123.84 24.152C124.208 23.784 124.438 23.3087 124.53 22.726C124.622 22.1127 124.668 21.3307 124.668 20.38C124.668 19.4293 124.622 18.6473 124.53 18.034C124.438 17.4207 124.224 16.9453 123.886 16.608C123.549 16.2707 122.997 16.0253 122.23 15.872C121.494 15.7187 120.482 15.642 119.194 15.642H113.168V25.118ZM169.288 42V36.986C170.913 36.9553 172.171 36.8787 173.06 36.756C173.949 36.6027 174.578 36.3113 174.946 35.882C175.345 35.4527 175.59 34.778 175.682 33.858C175.774 32.9073 175.82 31.6347 175.82 30.04V10.352H182.352V28.292C182.352 30.9293 182.291 33.1067 182.168 34.824C182.045 36.5107 181.769 37.8447 181.34 38.826C180.911 39.8073 180.221 40.528 179.27 40.988C178.35 41.4173 177.077 41.6933 175.452 41.816C173.857 41.9387 171.803 42 169.288 42ZM189.697 42V10.352H211.317V15.688H196.229V23.37H209.155V28.706H196.229V36.664H211.317V42H189.697ZM229.92 42.368C227.59 42.368 225.642 42.2147 224.078 41.908C222.514 41.6013 221.242 41.08 220.26 40.344C219.279 39.608 218.528 38.6267 218.006 37.4C217.516 36.1733 217.178 34.64 216.994 32.8C216.81 30.96 216.718 28.752 216.718 26.176C216.718 23.6 216.81 21.392 216.994 19.552C217.178 17.712 217.516 16.1787 218.006 14.952C218.528 13.7253 219.279 12.744 220.26 12.008C221.242 11.272 222.514 10.7507 224.078 10.444C225.642 10.1373 227.59 9.984 229.92 9.984C230.81 9.984 231.73 10.0147 232.68 10.076C233.662 10.1373 234.597 10.2293 235.486 10.352C236.376 10.4747 237.127 10.6127 237.74 10.766V15.78C236.912 15.688 236.115 15.6113 235.348 15.55C234.582 15.458 233.861 15.3967 233.186 15.366C232.542 15.3353 231.99 15.32 231.53 15.32C229.966 15.32 228.678 15.3813 227.666 15.504C226.654 15.6267 225.842 15.8873 225.228 16.286C224.646 16.654 224.216 17.2367 223.94 18.034C223.664 18.8007 223.48 19.8433 223.388 21.162C223.296 22.4807 223.25 24.152 223.25 26.176C223.25 28.1693 223.296 29.8407 223.388 31.19C223.48 32.5087 223.664 33.5667 223.94 34.364C224.216 35.1307 224.646 35.7133 225.228 36.112C225.842 36.48 226.654 36.7253 227.666 36.848C228.678 36.9707 229.966 37.032 231.53 37.032C232.542 37.032 233.646 36.986 234.842 36.894C236.038 36.802 237.066 36.6947 237.924 36.572V41.678C237.25 41.8007 236.452 41.908 235.532 42C234.612 42.1227 233.662 42.2147 232.68 42.276C231.73 42.3373 230.81 42.368 229.92 42.368ZM250.266 42V15.872H241.112V10.352H265.952V15.872H256.798V42H250.266Z" fill="#F1F1F1"/>
<path d="M151.21 43C160.461 43 167.376 36.2135 167.376 27C167.376 17.7865 160.461 11 151.21 11C141.872 11 135 17.8315 135 27C135 36.1686 141.872 43 151.21 43ZM151.21 40.0337C143.766 40.0337 138.216 34.5056 138.216 27C138.216 19.4944 143.766 13.9663 151.21 13.9663C158.611 13.9663 164.117 19.4944 164.117 27C164.117 34.5056 158.611 40.0337 151.21 40.0337Z" fill="#F1F1F1"/>
<path d="M161.729 27.1875C161.729 33.0095 157.095 37.7293 151.376 37.7293C145.657 37.7293 141.023 33.0109 141.023 27.1875C141.023 26.4876 141.093 25.8064 141.22 25.1463C146.307 27.0467 151.32 22.0467 149.519 16.8156C150.119 16.7107 150.741 16.647 151.375 16.647C157.093 16.647 161.728 21.3695 161.728 27.1888L161.729 27.1875Z" fill="#F74264"/>
</svg>
