<svg width="340" height="53" viewBox="0 0 340 53" fill="none" xmlns="http://www.w3.org/2000/svg">
<path d="M63.7808 42V10.352H78.9148C80.9695 10.352 82.6101 10.582 83.8368 11.042C85.0941 11.502 86.0448 12.1767 86.6888 13.066C87.3328 13.9247 87.7621 14.9827 87.9768 16.24C88.2221 17.4667 88.3448 18.8467 88.3448 20.38C88.3448 21.4533 88.2528 22.6033 88.0688 23.83C87.8848 25.0567 87.4708 26.1913 86.8268 27.234C86.2135 28.2767 85.2321 29.0433 83.8828 29.534L88.9428 42H82.0428L77.2588 29.304L78.8688 30.178C78.6541 30.27 78.3935 30.3313 78.0868 30.362C77.8108 30.3927 77.4888 30.408 77.1208 30.408H70.3128V42H63.7808ZM70.3128 25.118H76.2928C77.5808 25.118 78.5928 25.0413 79.3288 24.888C80.0648 24.7347 80.6168 24.4893 80.9848 24.152C81.3528 23.784 81.5828 23.3087 81.6748 22.726C81.7668 22.1127 81.8128 21.3307 81.8128 20.38C81.8128 19.4293 81.7668 18.6473 81.6748 18.034C81.5828 17.4207 81.3681 16.9453 81.0308 16.608C80.6935 16.2707 80.1415 16.0253 79.3748 15.872C78.6388 15.7187 77.6268 15.642 76.3388 15.642H70.3128V25.118ZM94.8667 42V10.352H116.487V15.688H101.399V23.37H114.325V28.706H101.399V36.664H116.487V42H94.8667ZM119.726 42L130.444 10.352H139.184L149.902 42H143.232L140.886 35.008H128.512L126.258 42H119.726ZM130.168 29.718H139.184L134.814 16.286H134.538L130.168 29.718ZM154.343 42V10.352H165.107C167.837 10.352 170.06 10.49 171.777 10.766C173.525 11.042 174.89 11.5327 175.871 12.238C176.883 12.9127 177.604 13.8633 178.033 15.09C178.493 16.286 178.785 17.7887 178.907 19.598C179.03 21.4073 179.091 23.6 179.091 26.176C179.091 28.752 179.03 30.9447 178.907 32.754C178.785 34.5633 178.493 36.0813 178.033 37.308C177.604 38.504 176.883 39.4547 175.871 40.16C174.89 40.8347 173.525 41.31 171.777 41.586C170.06 41.862 167.837 42 165.107 42H154.343ZM160.875 36.664H164.739C166.242 36.664 167.469 36.6333 168.419 36.572C169.401 36.48 170.167 36.2807 170.719 35.974C171.302 35.6673 171.716 35.146 171.961 34.41C172.207 33.6433 172.36 32.6007 172.421 31.282C172.513 29.9633 172.559 28.2613 172.559 26.176C172.559 24.1213 172.513 22.4347 172.421 21.116C172.36 19.7667 172.191 18.724 171.915 17.988C171.67 17.252 171.256 16.7307 170.673 16.424C170.121 16.0867 169.37 15.8873 168.419 15.826C167.469 15.734 166.242 15.688 164.739 15.688H160.875V36.664ZM192.338 42V30.776L181.482 10.352H188.336L195.604 24.428H195.926L203.148 10.352H209.772L198.87 30.776V42H192.338ZM230.814 42V15.872H221.66V10.352H246.5V15.872H237.346V42H230.814ZM263.706 42.368C261.13 42.368 258.998 42.2147 257.312 41.908C255.656 41.6013 254.352 41.0953 253.402 40.39C252.451 39.654 251.761 38.6727 251.332 37.446C250.902 36.1887 250.626 34.64 250.504 32.8C250.381 30.96 250.32 28.752 250.32 26.176C250.32 23.6 250.381 21.392 250.504 19.552C250.626 17.712 250.902 16.1787 251.332 14.952C251.761 13.6947 252.451 12.7133 253.402 12.008C254.352 11.272 255.656 10.7507 257.312 10.444C258.998 10.1373 261.13 9.984 263.706 9.984C266.282 9.984 268.398 10.1373 270.054 10.444C271.74 10.7507 273.059 11.272 274.01 12.008C274.96 12.7133 275.65 13.6947 276.08 14.952C276.54 16.1787 276.831 17.712 276.954 19.552C277.076 21.392 277.138 23.6 277.138 26.176C277.138 28.752 277.076 30.96 276.954 32.8C276.831 34.64 276.54 36.1887 276.08 37.446C275.65 38.6727 274.96 39.654 274.01 40.39C273.059 41.0953 271.74 41.6013 270.054 41.908C268.398 42.2147 266.282 42.368 263.706 42.368ZM263.706 37.032C265.055 37.032 266.144 36.986 266.972 36.894C267.83 36.802 268.505 36.5873 268.996 36.25C269.486 35.9127 269.839 35.3607 270.054 34.594C270.299 33.8273 270.452 32.7693 270.514 31.42C270.575 30.0707 270.606 28.3227 270.606 26.176C270.606 24.0293 270.575 22.2813 270.514 20.932C270.452 19.5827 270.299 18.5247 270.054 17.758C269.839 16.9913 269.486 16.4393 268.996 16.102C268.505 15.7647 267.83 15.55 266.972 15.458C266.144 15.366 265.055 15.32 263.706 15.32C262.387 15.32 261.298 15.366 260.44 15.458C259.612 15.55 258.952 15.7647 258.462 16.102C257.971 16.4393 257.603 16.9913 257.358 17.758C257.143 18.5247 257.005 19.5827 256.944 20.932C256.882 22.2813 256.852 24.0293 256.852 26.176C256.852 28.3227 256.882 30.0707 256.944 31.42C257.005 32.7693 257.143 33.8273 257.358 34.594C257.603 35.3607 257.971 35.9127 258.462 36.25C258.952 36.5873 259.612 36.802 260.44 36.894C261.298 36.986 262.387 37.032 263.706 37.032Z" fill="#F1F1F1"/>
</svg>
