<svg width="340" height="53" viewBox="0 0 340 53" fill="none" xmlns="http://www.w3.org/2000/svg">
<path d="M41.9628 42V15.872H32.8088V10.352H57.6488V15.872H48.4948V42H41.9628ZM57.2398 42L67.9578 10.352H76.6978L87.4158 42H80.7458L78.3998 35.008H66.0258L63.7718 42H57.2398ZM67.6818 29.718H76.6978L72.3278 16.286H72.0518L67.6818 29.718ZM91.857 42V10.352H98.389V23.232H101.747L111.361 10.352H118.491L106.991 25.486L118.629 42H111.131L101.747 28.568H98.389V42H91.857ZM123.033 42V10.352H144.653V15.688H129.565V23.37H142.491V28.706H129.565V36.664H144.653V42H123.033ZM159.257 42L169.975 10.352H178.715L189.433 42H182.763L180.417 35.008H168.043L165.789 42H159.257ZM169.699 29.718H178.715L174.345 16.286H174.069L169.699 29.718ZM205.24 42V10.352H212.002L224.468 29.856H224.698V10.352H230.954V42H224.744L211.726 21.438H211.496V42H205.24ZM238.482 42V10.352H260.102V15.688H245.014V23.37H257.94V28.706H245.014V36.664H260.102V42H238.482ZM271.345 42L263.709 10.352H270.241L275.807 34.41H276.037L282.155 10.352H288.963L295.173 34.41H295.403L300.601 10.352H307.133L299.451 42H291.309L285.513 19.874H285.283L279.487 42H271.345Z" fill="#F1F1F1"/>
</svg>
