<svg width="340" height="53" viewBox="0 0 340 53" fill="none" xmlns="http://www.w3.org/2000/svg">
<path d="M9.18131 42L1.5453 10.352H8.0773L13.6433 34.41H13.8733L19.9913 10.352H26.7993L33.0093 34.41H33.2393L38.4373 10.352H44.9693L37.2873 42H29.1453L23.3493 19.874H23.1193L17.3233 42H9.18131ZM49.7652 42V10.352H71.3852V15.688H56.2972V23.37H69.2232V28.706H56.2972V36.664H71.3852V42H49.7652ZM76.3726 22.174V19.69C77.2006 19.69 77.8292 19.6287 78.2586 19.506C78.6879 19.3527 78.9792 19.0767 79.1326 18.678C79.3166 18.2487 79.4086 17.6353 79.4086 16.838V16.056H76.8786V10.352H83.2266V14.446C83.2266 16.0407 83.1499 17.344 82.9966 18.356C82.8739 19.3373 82.5672 20.1193 82.0766 20.702C81.6166 21.254 80.9266 21.6373 80.0066 21.852C79.1172 22.0667 77.9059 22.174 76.3726 22.174ZM89.9702 42V10.352H105.104C107.159 10.352 108.8 10.582 110.026 11.042C111.284 11.502 112.234 12.1767 112.878 13.066C113.522 13.9247 113.952 14.9827 114.166 16.24C114.412 17.4667 114.534 18.8467 114.534 20.38C114.534 21.4533 114.442 22.6033 114.258 23.83C114.074 25.0567 113.66 26.1913 113.016 27.234C112.403 28.2767 111.422 29.0433 110.072 29.534L115.132 42H108.232L103.448 29.304L105.058 30.178C104.844 30.27 104.583 30.3313 104.276 30.362C104 30.3927 103.678 30.408 103.31 30.408H96.5022V42H89.9702ZM96.5022 25.118H102.482C103.77 25.118 104.782 25.0413 105.518 24.888C106.254 24.7347 106.806 24.4893 107.174 24.152C107.542 23.784 107.772 23.3087 107.864 22.726C107.956 22.1127 108.002 21.3307 108.002 20.38C108.002 19.4293 107.956 18.6473 107.864 18.034C107.772 17.4207 107.558 16.9453 107.22 16.608C106.883 16.2707 106.331 16.0253 105.564 15.872C104.828 15.7187 103.816 15.642 102.528 15.642H96.5022V25.118ZM121.056 42V10.352H142.676V15.688H127.588V23.37H140.514V28.706H127.588V36.664H142.676V42H121.056ZM157.281 42L167.999 10.352H176.739L187.457 42H180.787L178.441 35.008H166.067L163.813 42H157.281ZM167.723 29.718H176.739L172.369 16.286H172.093L167.723 29.718ZM191.898 42V10.352H198.43V36.48H211.678V42H191.898ZM219.685 42L212.049 10.352H218.581L224.147 34.41H224.377L230.495 10.352H237.303L243.513 34.41H243.743L248.941 10.352H255.473L247.791 42H239.649L233.853 19.874H233.623L227.827 42H219.685ZM255.345 42L266.063 10.352H274.803L285.521 42H278.851L276.505 35.008H264.131L261.877 42H255.345ZM265.787 29.718H274.803L270.433 16.286H270.157L265.787 29.718ZM293.996 42V30.776L283.14 10.352H289.994L297.262 24.428H297.584L304.806 10.352H311.43L300.528 30.776V42H293.996ZM325.891 42.368C324.726 42.368 323.438 42.3373 322.027 42.276C320.647 42.2147 319.298 42.1227 317.979 42C316.661 41.908 315.449 41.8007 314.345 41.678V36.48C315.48 36.572 316.63 36.664 317.795 36.756C318.991 36.848 320.126 36.9247 321.199 36.986C322.273 37.0167 323.193 37.032 323.959 37.032C325.523 37.032 326.735 36.9707 327.593 36.848C328.452 36.6947 329.096 36.48 329.525 36.204C329.863 35.9587 330.093 35.698 330.215 35.422C330.338 35.1153 330.415 34.7627 330.445 34.364C330.476 33.9347 330.491 33.4593 330.491 32.938C330.491 32.2327 330.445 31.65 330.353 31.19C330.292 30.73 330.169 30.3773 329.985 30.132C329.801 29.856 329.495 29.6567 329.065 29.534C328.667 29.4113 328.145 29.3193 327.501 29.258L320.417 28.384C319.007 28.2 317.841 27.878 316.921 27.418C316.032 26.958 315.327 26.3447 314.805 25.578C314.284 24.8113 313.916 23.9067 313.701 22.864C313.517 21.8213 313.425 20.6407 313.425 19.322C313.425 17.2367 313.717 15.5807 314.299 14.354C314.882 13.1273 315.695 12.192 316.737 11.548C317.811 10.904 319.068 10.49 320.509 10.306C321.951 10.0913 323.515 9.984 325.201 9.984C326.428 9.984 327.685 10.03 328.973 10.122C330.261 10.1833 331.473 10.2753 332.607 10.398C333.742 10.5207 334.693 10.674 335.459 10.858V15.918C334.693 15.7953 333.803 15.688 332.791 15.596C331.779 15.504 330.721 15.4427 329.617 15.412C328.513 15.3507 327.471 15.32 326.489 15.32C325.048 15.32 323.898 15.3813 323.039 15.504C322.211 15.596 321.567 15.7647 321.107 16.01C320.586 16.3167 320.264 16.7153 320.141 17.206C320.049 17.6967 320.003 18.31 320.003 19.046C320.003 19.966 320.065 20.6713 320.187 21.162C320.31 21.622 320.601 21.944 321.061 22.128C321.521 22.312 322.242 22.4653 323.223 22.588L330.307 23.416C331.166 23.508 331.963 23.6613 332.699 23.876C333.435 24.0907 334.095 24.428 334.677 24.888C335.26 25.348 335.735 25.992 336.103 26.82C336.318 27.2493 336.487 27.7553 336.609 28.338C336.732 28.89 336.824 29.5187 336.885 30.224C336.977 30.9293 337.023 31.7113 337.023 32.57C337.023 34.3487 336.839 35.836 336.471 37.032C336.134 38.228 335.643 39.1787 334.999 39.884C334.355 40.5893 333.558 41.126 332.607 41.494C331.687 41.862 330.66 42.092 329.525 42.184C328.391 42.3067 327.179 42.368 325.891 42.368Z" fill="#F1F1F1"/>
</svg>
