<svg width="350" height="51" viewBox="0 0 350 51" fill="none" xmlns="http://www.w3.org/2000/svg">
<path d="M100.581 42L111.299 10.352H120.039L130.757 42H124.087L121.741 35.008H109.367L107.113 42H100.581ZM111.023 29.718H120.039L115.669 16.286H115.393L111.023 29.718ZM158.845 42.368C156.514 42.368 154.567 42.2147 153.003 41.908C151.439 41.6013 150.166 41.08 149.185 40.344C148.204 39.608 147.452 38.6267 146.931 37.4C146.44 36.1733 146.103 34.64 145.919 32.8C145.735 30.96 145.643 28.752 145.643 26.176C145.643 23.6 145.735 21.392 145.919 19.552C146.103 17.712 146.44 16.1787 146.931 14.952C147.452 13.7253 148.204 12.744 149.185 12.008C150.166 11.272 151.439 10.7507 153.003 10.444C154.567 10.1373 156.514 9.984 158.845 9.984C159.734 9.984 160.654 10.0147 161.605 10.076C162.586 10.1373 163.522 10.2293 164.411 10.352C165.3 10.4747 166.052 10.6127 166.665 10.766V15.78C165.837 15.688 165.04 15.6113 164.273 15.55C163.506 15.458 162.786 15.3967 162.111 15.366C161.467 15.3353 160.915 15.32 160.455 15.32C158.891 15.32 157.603 15.3813 156.591 15.504C155.579 15.6267 154.766 15.8873 154.153 16.286C153.57 16.654 153.141 17.2367 152.865 18.034C152.589 18.8007 152.405 19.8433 152.313 21.162C152.221 22.4807 152.175 24.152 152.175 26.176C152.175 28.1693 152.221 29.8407 152.313 31.19C152.405 32.5087 152.589 33.5667 152.865 34.364C153.141 35.1307 153.57 35.7133 154.153 36.112C154.766 36.48 155.579 36.7253 156.591 36.848C157.603 36.9707 158.891 37.032 160.455 37.032C161.467 37.032 162.571 36.986 163.767 36.894C164.963 36.802 165.99 36.6947 166.849 36.572V41.678C166.174 41.8007 165.377 41.908 164.457 42C163.537 42.1227 162.586 42.2147 161.605 42.276C160.654 42.3373 159.734 42.368 158.845 42.368ZM169.76 42L180.478 10.352H189.218L199.936 42H193.266L190.92 35.008H178.546L176.292 42H169.76ZM180.202 29.718H189.218L184.848 16.286H184.572L180.202 29.718ZM204.377 42V10.352H210.909V36.48H224.157V42H204.377ZM229.129 42V10.352H235.661V36.48H248.909V42H229.129Z" fill="#F1F1F1"/>
</svg>
