<svg width="350" height="51" viewBox="0 0 350 51" fill="none" xmlns="http://www.w3.org/2000/svg">
<path d="M94.2916 42L105.01 10.352H113.75L124.468 42H117.798L115.452 35.008H103.078L100.824 42H94.2916ZM104.734 29.718H113.75L109.38 16.286H109.104L104.734 29.718ZM152.556 42.368C150.225 42.368 148.278 42.2147 146.714 41.908C145.15 41.6013 143.877 41.08 142.896 40.344C141.915 39.608 141.163 38.6267 140.642 37.4C140.151 36.1733 139.814 34.64 139.63 32.8C139.446 30.96 139.354 28.752 139.354 26.176C139.354 23.6 139.446 21.392 139.63 19.552C139.814 17.712 140.151 16.1787 140.642 14.952C141.163 13.7253 141.915 12.744 142.896 12.008C143.877 11.272 145.15 10.7507 146.714 10.444C148.278 10.1373 150.225 9.984 152.556 9.984C153.445 9.984 154.365 10.0147 155.316 10.076C156.297 10.1373 157.233 10.2293 158.122 10.352C159.011 10.4747 159.763 10.6127 160.376 10.766V15.78C159.548 15.688 158.751 15.6113 157.984 15.55C157.217 15.458 156.497 15.3967 155.822 15.366C155.178 15.3353 154.626 15.32 154.166 15.32C152.602 15.32 151.314 15.3813 150.302 15.504C149.29 15.6267 148.477 15.8873 147.864 16.286C147.281 16.654 146.852 17.2367 146.576 18.034C146.3 18.8007 146.116 19.8433 146.024 21.162C145.932 22.4807 145.886 24.152 145.886 26.176C145.886 28.1693 145.932 29.8407 146.024 31.19C146.116 32.5087 146.3 33.5667 146.576 34.364C146.852 35.1307 147.281 35.7133 147.864 36.112C148.477 36.48 149.29 36.7253 150.302 36.848C151.314 36.9707 152.602 37.032 154.166 37.032C155.178 37.032 156.282 36.986 157.478 36.894C158.674 36.802 159.701 36.6947 160.56 36.572V41.678C159.885 41.8007 159.088 41.908 158.168 42C157.248 42.1227 156.297 42.2147 155.316 42.276C154.365 42.3373 153.445 42.368 152.556 42.368ZM163.471 42L174.189 10.352H182.929L193.647 42H186.977L184.631 35.008H172.257L170.003 42H163.471ZM173.913 29.718H182.929L178.559 16.286H178.283L173.913 29.718ZM198.088 42V10.352H204.62V36.48H217.868V42H198.088ZM222.84 42V10.352H229.372V36.48H242.62V42H222.84ZM246.764 42V35.974H253.434V42H246.764Z" fill="#F1F1F1"/>
</svg>
