<svg width="350" height="51" viewBox="0 0 350 51" fill="none" xmlns="http://www.w3.org/2000/svg">
<path d="M64.4185 42L75.1365 10.352H83.8765L94.5945 42H87.9245L85.5785 35.008H73.2045L70.9505 42H64.4185ZM74.8605 29.718H83.8765L79.5065 16.286H79.2305L74.8605 29.718ZM122.683 42.368C120.352 42.368 118.405 42.2147 116.841 41.908C115.277 41.6013 114.004 41.08 113.023 40.344C112.042 39.608 111.29 38.6267 110.769 37.4C110.278 36.1733 109.941 34.64 109.757 32.8C109.573 30.96 109.481 28.752 109.481 26.176C109.481 23.6 109.573 21.392 109.757 19.552C109.941 17.712 110.278 16.1787 110.769 14.952C111.29 13.7253 112.042 12.744 113.023 12.008C114.004 11.272 115.277 10.7507 116.841 10.444C118.405 10.1373 120.352 9.984 122.683 9.984C123.572 9.984 124.492 10.0147 125.443 10.076C126.424 10.1373 127.36 10.2293 128.249 10.352C129.138 10.4747 129.89 10.6127 130.503 10.766V15.78C129.675 15.688 128.878 15.6113 128.111 15.55C127.344 15.458 126.624 15.3967 125.949 15.366C125.305 15.3353 124.753 15.32 124.293 15.32C122.729 15.32 121.441 15.3813 120.429 15.504C119.417 15.6267 118.604 15.8873 117.991 16.286C117.408 16.654 116.979 17.2367 116.703 18.034C116.427 18.8007 116.243 19.8433 116.151 21.162C116.059 22.4807 116.013 24.152 116.013 26.176C116.013 28.1693 116.059 29.8407 116.151 31.19C116.243 32.5087 116.427 33.5667 116.703 34.364C116.979 35.1307 117.408 35.7133 117.991 36.112C118.604 36.48 119.417 36.7253 120.429 36.848C121.441 36.9707 122.729 37.032 124.293 37.032C125.305 37.032 126.409 36.986 127.605 36.894C128.801 36.802 129.828 36.6947 130.687 36.572V41.678C130.012 41.8007 129.215 41.908 128.295 42C127.375 42.1227 126.424 42.2147 125.443 42.276C124.492 42.3373 123.572 42.368 122.683 42.368ZM149.146 42.368C146.57 42.368 144.439 42.2147 142.752 41.908C141.096 41.6013 139.793 41.0953 138.842 40.39C137.892 39.654 137.202 38.6727 136.772 37.446C136.343 36.1887 136.067 34.64 135.944 32.8C135.822 30.96 135.76 28.752 135.76 26.176C135.76 23.6 135.822 21.392 135.944 19.552C136.067 17.712 136.343 16.1787 136.772 14.952C137.202 13.6947 137.892 12.7133 138.842 12.008C139.793 11.272 141.096 10.7507 142.752 10.444C144.439 10.1373 146.57 9.984 149.146 9.984C151.722 9.984 153.838 10.1373 155.494 10.444C157.181 10.7507 158.5 11.272 159.45 12.008C160.401 12.7133 161.091 13.6947 161.52 14.952C161.98 16.1787 162.272 17.712 162.394 19.552C162.517 21.392 162.578 23.6 162.578 26.176C162.578 28.752 162.517 30.96 162.394 32.8C162.272 34.64 161.98 36.1887 161.52 37.446C161.091 38.6727 160.401 39.654 159.45 40.39C158.5 41.0953 157.181 41.6013 155.494 41.908C153.838 42.2147 151.722 42.368 149.146 42.368ZM149.146 37.032C150.496 37.032 151.584 36.986 152.412 36.894C153.271 36.802 153.946 36.5873 154.436 36.25C154.927 35.9127 155.28 35.3607 155.494 34.594C155.74 33.8273 155.893 32.7693 155.954 31.42C156.016 30.0707 156.046 28.3227 156.046 26.176C156.046 24.0293 156.016 22.2813 155.954 20.932C155.893 19.5827 155.74 18.5247 155.494 17.758C155.28 16.9913 154.927 16.4393 154.436 16.102C153.946 15.7647 153.271 15.55 152.412 15.458C151.584 15.366 150.496 15.32 149.146 15.32C147.828 15.32 146.739 15.366 145.88 15.458C145.052 15.55 144.393 15.7647 143.902 16.102C143.412 16.4393 143.044 16.9913 142.798 17.758C142.584 18.5247 142.446 19.5827 142.384 20.932C142.323 22.2813 142.292 24.0293 142.292 26.176C142.292 28.3227 142.323 30.0707 142.384 31.42C142.446 32.7693 142.584 33.8273 142.798 34.594C143.044 35.3607 143.412 35.9127 143.902 36.25C144.393 36.5873 145.052 36.802 145.88 36.894C146.739 36.986 147.828 37.032 149.146 37.032ZM169.204 42V10.352H189.904V15.688H175.736V24.244H188.202V29.58H175.736V42H169.204ZM195.393 42V10.352H216.093V15.688H201.925V24.244H214.391V29.58H201.925V42H195.393ZM221.583 42V10.352H243.203V15.688H228.115V23.37H241.041V28.706H228.115V36.664H243.203V42H221.583ZM249.524 42V10.352H271.144V15.688H256.056V23.37H268.982V28.706H256.056V36.664H271.144V42H249.524ZM276.637 42V35.974H283.307V42H276.637Z" fill="#F1F1F1"/>
</svg>
