<svg width="350" height="51" viewBox="0 0 350 51" fill="none" xmlns="http://www.w3.org/2000/svg">
<path d="M70.7076 42L81.4256 10.352H90.1656L100.884 42H94.2136L91.8676 35.008H79.4936L77.2396 42H70.7076ZM81.1496 29.718H90.1656L85.7956 16.286H85.5196L81.1496 29.718ZM128.972 42.368C126.641 42.368 124.694 42.2147 123.13 41.908C121.566 41.6013 120.293 41.08 119.312 40.344C118.331 39.608 117.579 38.6267 117.058 37.4C116.567 36.1733 116.23 34.64 116.046 32.8C115.862 30.96 115.77 28.752 115.77 26.176C115.77 23.6 115.862 21.392 116.046 19.552C116.23 17.712 116.567 16.1787 117.058 14.952C117.579 13.7253 118.331 12.744 119.312 12.008C120.293 11.272 121.566 10.7507 123.13 10.444C124.694 10.1373 126.641 9.984 128.972 9.984C129.861 9.984 130.781 10.0147 131.732 10.076C132.713 10.1373 133.649 10.2293 134.538 10.352C135.427 10.4747 136.179 10.6127 136.792 10.766V15.78C135.964 15.688 135.167 15.6113 134.4 15.55C133.633 15.458 132.913 15.3967 132.238 15.366C131.594 15.3353 131.042 15.32 130.582 15.32C129.018 15.32 127.73 15.3813 126.718 15.504C125.706 15.6267 124.893 15.8873 124.28 16.286C123.697 16.654 123.268 17.2367 122.992 18.034C122.716 18.8007 122.532 19.8433 122.44 21.162C122.348 22.4807 122.302 24.152 122.302 26.176C122.302 28.1693 122.348 29.8407 122.44 31.19C122.532 32.5087 122.716 33.5667 122.992 34.364C123.268 35.1307 123.697 35.7133 124.28 36.112C124.893 36.48 125.706 36.7253 126.718 36.848C127.73 36.9707 129.018 37.032 130.582 37.032C131.594 37.032 132.698 36.986 133.894 36.894C135.09 36.802 136.117 36.6947 136.976 36.572V41.678C136.301 41.8007 135.504 41.908 134.584 42C133.664 42.1227 132.713 42.2147 131.732 42.276C130.781 42.3373 129.861 42.368 128.972 42.368ZM155.435 42.368C152.859 42.368 150.728 42.2147 149.041 41.908C147.385 41.6013 146.082 41.0953 145.131 40.39C144.181 39.654 143.491 38.6727 143.061 37.446C142.632 36.1887 142.356 34.64 142.233 32.8C142.111 30.96 142.049 28.752 142.049 26.176C142.049 23.6 142.111 21.392 142.233 19.552C142.356 17.712 142.632 16.1787 143.061 14.952C143.491 13.6947 144.181 12.7133 145.131 12.008C146.082 11.272 147.385 10.7507 149.041 10.444C150.728 10.1373 152.859 9.984 155.435 9.984C158.011 9.984 160.127 10.1373 161.783 10.444C163.47 10.7507 164.789 11.272 165.739 12.008C166.69 12.7133 167.38 13.6947 167.809 14.952C168.269 16.1787 168.561 17.712 168.683 19.552C168.806 21.392 168.867 23.6 168.867 26.176C168.867 28.752 168.806 30.96 168.683 32.8C168.561 34.64 168.269 36.1887 167.809 37.446C167.38 38.6727 166.69 39.654 165.739 40.39C164.789 41.0953 163.47 41.6013 161.783 41.908C160.127 42.2147 158.011 42.368 155.435 42.368ZM155.435 37.032C156.785 37.032 157.873 36.986 158.701 36.894C159.56 36.802 160.235 36.5873 160.725 36.25C161.216 35.9127 161.569 35.3607 161.783 34.594C162.029 33.8273 162.182 32.7693 162.243 31.42C162.305 30.0707 162.335 28.3227 162.335 26.176C162.335 24.0293 162.305 22.2813 162.243 20.932C162.182 19.5827 162.029 18.5247 161.783 17.758C161.569 16.9913 161.216 16.4393 160.725 16.102C160.235 15.7647 159.56 15.55 158.701 15.458C157.873 15.366 156.785 15.32 155.435 15.32C154.117 15.32 153.028 15.366 152.169 15.458C151.341 15.55 150.682 15.7647 150.191 16.102C149.701 16.4393 149.333 16.9913 149.087 17.758C148.873 18.5247 148.735 19.5827 148.673 20.932C148.612 22.2813 148.581 24.0293 148.581 26.176C148.581 28.3227 148.612 30.0707 148.673 31.42C148.735 32.7693 148.873 33.8273 149.087 34.594C149.333 35.3607 149.701 35.9127 150.191 36.25C150.682 36.5873 151.341 36.802 152.169 36.894C153.028 36.986 154.117 37.032 155.435 37.032ZM175.493 42V10.352H196.193V15.688H182.025V24.244H194.491V29.58H182.025V42H175.493ZM201.682 42V10.352H222.382V15.688H208.214V24.244H220.68V29.58H208.214V42H201.682ZM227.872 42V10.352H249.492V15.688H234.404V23.37H247.33V28.706H234.404V36.664H249.492V42H227.872ZM255.813 42V10.352H277.433V15.688H262.345V23.37H275.271V28.706H262.345V36.664H277.433V42H255.813Z" fill="#F1F1F1"/>
</svg>
