<svg width="350" height="51" viewBox="0 0 350 51" fill="none" xmlns="http://www.w3.org/2000/svg">
<path d="M39.6441 42L50.3621 10.352H59.1021L69.8201 42H63.1501L60.8041 35.008H48.4301L46.1761 42H39.6441ZM50.0861 29.718H59.1021L54.7321 16.286H54.4561L50.0861 29.718ZM85.6265 42V10.352H94.5965L102.416 31.236H102.692L110.466 10.352H119.39V42H113.088V19.966H112.858L104.67 42H100.162L91.9745 19.966H91.7445V42H85.6265ZM127 42V10.352H148.62V15.688H133.532V23.37H146.458V28.706H133.532V36.664H148.62V42H127ZM166.073 42.368C164.908 42.368 163.62 42.3373 162.209 42.276C160.829 42.2147 159.48 42.1227 158.161 42C156.842 41.908 155.631 41.8007 154.527 41.678V36.48C155.662 36.572 156.812 36.664 157.977 36.756C159.173 36.848 160.308 36.9247 161.381 36.986C162.454 37.0167 163.374 37.032 164.141 37.032C165.705 37.032 166.916 36.9707 167.775 36.848C168.634 36.6947 169.278 36.48 169.707 36.204C170.044 35.9587 170.274 35.698 170.397 35.422C170.52 35.1153 170.596 34.7627 170.627 34.364C170.658 33.9347 170.673 33.4593 170.673 32.938C170.673 32.2327 170.627 31.65 170.535 31.19C170.474 30.73 170.351 30.3773 170.167 30.132C169.983 29.856 169.676 29.6567 169.247 29.534C168.848 29.4113 168.327 29.3193 167.683 29.258L160.599 28.384C159.188 28.2 158.023 27.878 157.103 27.418C156.214 26.958 155.508 26.3447 154.987 25.578C154.466 24.8113 154.098 23.9067 153.883 22.864C153.699 21.8213 153.607 20.6407 153.607 19.322C153.607 17.2367 153.898 15.5807 154.481 14.354C155.064 13.1273 155.876 12.192 156.919 11.548C157.992 10.904 159.25 10.49 160.691 10.306C162.132 10.0913 163.696 9.984 165.383 9.984C166.61 9.984 167.867 10.03 169.155 10.122C170.443 10.1833 171.654 10.2753 172.789 10.398C173.924 10.5207 174.874 10.674 175.641 10.858V15.918C174.874 15.7953 173.985 15.688 172.973 15.596C171.961 15.504 170.903 15.4427 169.799 15.412C168.695 15.3507 167.652 15.32 166.671 15.32C165.23 15.32 164.08 15.3813 163.221 15.504C162.393 15.596 161.749 15.7647 161.289 16.01C160.768 16.3167 160.446 16.7153 160.323 17.206C160.231 17.6967 160.185 18.31 160.185 19.046C160.185 19.966 160.246 20.6713 160.369 21.162C160.492 21.622 160.783 21.944 161.243 22.128C161.703 22.312 162.424 22.4653 163.405 22.588L170.489 23.416C171.348 23.508 172.145 23.6613 172.881 23.876C173.617 24.0907 174.276 24.428 174.859 24.888C175.442 25.348 175.917 25.992 176.285 26.82C176.5 27.2493 176.668 27.7553 176.791 28.338C176.914 28.89 177.006 29.5187 177.067 30.224C177.159 30.9293 177.205 31.7113 177.205 32.57C177.205 34.3487 177.021 35.836 176.653 37.032C176.316 38.228 175.825 39.1787 175.181 39.884C174.537 40.5893 173.74 41.126 172.789 41.494C171.869 41.862 170.842 42.092 169.707 42.184C168.572 42.3067 167.361 42.368 166.073 42.368ZM194.598 42.368C193.433 42.368 192.145 42.3373 190.734 42.276C189.354 42.2147 188.005 42.1227 186.686 42C185.368 41.908 184.156 41.8007 183.052 41.678V36.48C184.187 36.572 185.337 36.664 186.502 36.756C187.698 36.848 188.833 36.9247 189.906 36.986C190.98 37.0167 191.9 37.032 192.666 37.032C194.23 37.032 195.442 36.9707 196.3 36.848C197.159 36.6947 197.803 36.48 198.232 36.204C198.57 35.9587 198.8 35.698 198.922 35.422C199.045 35.1153 199.122 34.7627 199.152 34.364C199.183 33.9347 199.198 33.4593 199.198 32.938C199.198 32.2327 199.152 31.65 199.06 31.19C198.999 30.73 198.876 30.3773 198.692 30.132C198.508 29.856 198.202 29.6567 197.772 29.534C197.374 29.4113 196.852 29.3193 196.208 29.258L189.124 28.384C187.714 28.2 186.548 27.878 185.628 27.418C184.739 26.958 184.034 26.3447 183.512 25.578C182.991 24.8113 182.623 23.9067 182.408 22.864C182.224 21.8213 182.132 20.6407 182.132 19.322C182.132 17.2367 182.424 15.5807 183.006 14.354C183.589 13.1273 184.402 12.192 185.444 11.548C186.518 10.904 187.775 10.49 189.216 10.306C190.658 10.0913 192.222 9.984 193.908 9.984C195.135 9.984 196.392 10.03 197.68 10.122C198.968 10.1833 200.18 10.2753 201.314 10.398C202.449 10.5207 203.4 10.674 204.166 10.858V15.918C203.4 15.7953 202.51 15.688 201.498 15.596C200.486 15.504 199.428 15.4427 198.324 15.412C197.22 15.3507 196.178 15.32 195.196 15.32C193.755 15.32 192.605 15.3813 191.746 15.504C190.918 15.596 190.274 15.7647 189.814 16.01C189.293 16.3167 188.971 16.7153 188.848 17.206C188.756 17.6967 188.71 18.31 188.71 19.046C188.71 19.966 188.772 20.6713 188.894 21.162C189.017 21.622 189.308 21.944 189.768 22.128C190.228 22.312 190.949 22.4653 191.93 22.588L199.014 23.416C199.873 23.508 200.67 23.6613 201.406 23.876C202.142 24.0907 202.802 24.428 203.384 24.888C203.967 25.348 204.442 25.992 204.81 26.82C205.025 27.2493 205.194 27.7553 205.316 28.338C205.439 28.89 205.531 29.5187 205.592 30.224C205.684 30.9293 205.73 31.7113 205.73 32.57C205.73 34.3487 205.546 35.836 205.178 37.032C204.841 38.228 204.35 39.1787 203.706 39.884C203.062 40.5893 202.265 41.126 201.314 41.494C200.394 41.862 199.367 42.092 198.232 42.184C197.098 42.3067 195.886 42.368 194.598 42.368ZM208.91 42L219.628 10.352H228.368L239.086 42H232.416L230.07 35.008H217.696L215.442 42H208.91ZM219.352 29.718H228.368L223.998 16.286H223.722L219.352 29.718ZM256.499 42.368C254.199 42.368 252.236 42.2147 250.611 41.908C249.016 41.6013 247.682 41.0953 246.609 40.39C245.566 39.654 244.754 38.6727 244.171 37.446C243.588 36.2193 243.174 34.686 242.929 32.846C242.714 30.9753 242.607 28.752 242.607 26.176C242.607 23.6 242.714 21.392 242.929 19.552C243.174 17.6813 243.588 16.1327 244.171 14.906C244.784 13.6793 245.612 12.7133 246.655 12.008C247.728 11.272 249.062 10.7507 250.657 10.444C252.252 10.1373 254.199 9.984 256.499 9.984C257.511 9.984 258.63 10.03 259.857 10.122C261.114 10.214 262.356 10.3367 263.583 10.49C264.81 10.6127 265.944 10.7813 266.987 10.996V16.01C265.914 15.8567 264.871 15.734 263.859 15.642C262.847 15.55 261.927 15.4733 261.099 15.412C260.271 15.3507 259.581 15.32 259.029 15.32C257.281 15.32 255.824 15.366 254.659 15.458C253.494 15.5193 252.543 15.7187 251.807 16.056C251.071 16.3933 250.504 16.9453 250.105 17.712C249.737 18.4787 249.476 19.552 249.323 20.932C249.17 22.2813 249.093 24.0293 249.093 26.176C249.093 28.0773 249.139 29.672 249.231 30.96C249.354 32.248 249.553 33.306 249.829 34.134C250.136 34.962 250.565 35.606 251.117 36.066C251.7 36.4953 252.436 36.7867 253.325 36.94C254.245 37.0933 255.38 37.17 256.729 37.17C257.22 37.17 257.726 37.17 258.247 37.17C258.799 37.1393 259.305 37.1087 259.765 37.078C260.256 37.0473 260.654 37.0167 260.961 36.986V29.166H255.671V24.014H267.125V41.356C266.082 41.5707 264.917 41.7547 263.629 41.908C262.341 42.0307 261.084 42.138 259.857 42.23C258.63 42.322 257.511 42.368 256.499 42.368ZM274.298 42V10.352H295.918V15.688H280.83V23.37H293.756V28.706H280.83V36.664H295.918V42H274.298ZM301.412 42V35.974H308.082V42H301.412Z" fill="#F1F1F1"/>
</svg>
