<svg width="350" height="51" viewBox="0 0 350 51" fill="none" xmlns="http://www.w3.org/2000/svg">
<path d="M117.853 42L128.571 10.352H137.311L148.029 42H141.359L139.013 35.008H126.639L124.385 42H117.853ZM128.295 29.718H137.311L132.941 16.286H132.665L128.295 29.718ZM163.835 42V10.352H174.599C177.329 10.352 179.552 10.49 181.269 10.766C183.017 11.042 184.382 11.5327 185.363 12.238C186.375 12.9127 187.096 13.8633 187.525 15.09C187.985 16.286 188.277 17.7887 188.399 19.598C188.522 21.4073 188.583 23.6 188.583 26.176C188.583 28.752 188.522 30.9447 188.399 32.754C188.277 34.5633 187.985 36.0813 187.525 37.308C187.096 38.504 186.375 39.4547 185.363 40.16C184.382 40.8347 183.017 41.31 181.269 41.586C179.552 41.862 177.329 42 174.599 42H163.835ZM170.367 36.664H174.231C175.734 36.664 176.961 36.6333 177.911 36.572C178.893 36.48 179.659 36.2807 180.211 35.974C180.794 35.6673 181.208 35.146 181.453 34.41C181.699 33.6433 181.852 32.6007 181.913 31.282C182.005 29.9633 182.051 28.2613 182.051 26.176C182.051 24.1213 182.005 22.4347 181.913 21.116C181.852 19.7667 181.683 18.724 181.407 17.988C181.162 17.252 180.748 16.7307 180.165 16.424C179.613 16.0867 178.862 15.8873 177.911 15.826C176.961 15.734 175.734 15.688 174.231 15.688H170.367V36.664ZM195.236 42V10.352H204.206L212.026 31.236H212.302L220.076 10.352H229V42H222.698V19.966H222.468L214.28 42H209.772L201.584 19.966H201.354V42H195.236Z" fill="#F1F1F1"/>
</svg>
