<svg width="350" height="51" viewBox="0 0 350 51" fill="none" xmlns="http://www.w3.org/2000/svg">
<path d="M61.4986 42L72.2166 10.352H80.9566L91.6746 42H85.0046L82.6586 35.008H70.2846L68.0306 42H61.4986ZM71.9406 29.718H80.9566L76.5866 16.286H76.3106L71.9406 29.718ZM96.1158 42V10.352H102.878L115.344 29.856H115.574V10.352H121.83V42H115.62L102.602 21.438H102.372V42H96.1158ZM140.723 42V10.352H162.343V15.688H147.255V23.37H160.181V28.706H147.255V36.664H162.343V42H140.723ZM168.665 42V10.352H177.635L185.455 31.236H185.731L193.505 10.352H202.429V42H196.127V19.966H195.897L187.709 42H183.201L175.013 19.966H174.783V42H168.665ZM206.956 42L217.674 10.352H226.414L237.132 42H230.462L228.116 35.008H215.742L213.488 42H206.956ZM217.398 29.718H226.414L222.044 16.286H221.768L217.398 29.718ZM241.573 42V10.352H248.105V42H241.573ZM255.633 42V10.352H262.165V36.48H275.413V42H255.633ZM279.557 42V35.974H286.227V42H279.557Z" fill="#F1F1F1"/>
</svg>
