<svg width="350" height="51" viewBox="0 0 350 51" fill="none" xmlns="http://www.w3.org/2000/svg">
<path d="M67.7877 42L78.5057 10.352H87.2457L97.9637 42H91.2937L88.9477 35.008H76.5737L74.3197 42H67.7877ZM78.2297 29.718H87.2457L82.8757 16.286H82.5997L78.2297 29.718ZM102.405 42V10.352H109.167L121.633 29.856H121.863V10.352H128.119V42H121.909L108.891 21.438H108.661V42H102.405ZM147.012 42V10.352H168.632V15.688H153.544V23.37H166.47V28.706H153.544V36.664H168.632V42H147.012ZM174.954 42V10.352H183.924L191.744 31.236H192.02L199.794 10.352H208.718V42H202.416V19.966H202.186L193.998 42H189.49L181.302 19.966H181.072V42H174.954ZM213.245 42L223.963 10.352H232.703L243.421 42H236.751L234.405 35.008H222.031L219.777 42H213.245ZM223.687 29.718H232.703L228.333 16.286H228.057L223.687 29.718ZM247.862 42V10.352H254.394V42H247.862ZM261.922 42V10.352H268.454V36.48H281.702V42H261.922Z" fill="#F1F1F1"/>
</svg>
