<svg width="350" height="51" viewBox="0 0 350 51" fill="none" xmlns="http://www.w3.org/2000/svg">
<path d="M42.7669 42.368C40.4362 42.368 38.4889 42.2147 36.9249 41.908C35.3609 41.6013 34.0882 41.08 33.1069 40.344C32.1256 39.608 31.3742 38.6267 30.8529 37.4C30.3622 36.1733 30.0249 34.64 29.8409 32.8C29.6569 30.96 29.5649 28.752 29.5649 26.176C29.5649 23.6 29.6569 21.392 29.8409 19.552C30.0249 17.712 30.3622 16.1787 30.8529 14.952C31.3742 13.7253 32.1256 12.744 33.1069 12.008C34.0882 11.272 35.3609 10.7507 36.9249 10.444C38.4889 10.1373 40.4362 9.984 42.7669 9.984C43.6562 9.984 44.5762 10.0147 45.5269 10.076C46.5082 10.1373 47.4436 10.2293 48.3329 10.352C49.2222 10.4747 49.9736 10.6127 50.5869 10.766V15.78C49.7589 15.688 48.9616 15.6113 48.1949 15.55C47.4282 15.458 46.7076 15.3967 46.0329 15.366C45.3889 15.3353 44.8369 15.32 44.3769 15.32C42.8129 15.32 41.5249 15.3813 40.5129 15.504C39.5009 15.6267 38.6882 15.8873 38.0749 16.286C37.4922 16.654 37.0629 17.2367 36.7869 18.034C36.5109 18.8007 36.3269 19.8433 36.2349 21.162C36.1429 22.4807 36.0969 24.152 36.0969 26.176C36.0969 28.1693 36.1429 29.8407 36.2349 31.19C36.3269 32.5087 36.5109 33.5667 36.7869 34.364C37.0629 35.1307 37.4922 35.7133 38.0749 36.112C38.6882 36.48 39.5009 36.7253 40.5129 36.848C41.5249 36.9707 42.8129 37.032 44.3769 37.032C45.3889 37.032 46.4929 36.986 47.6889 36.894C48.8849 36.802 49.9122 36.6947 50.7709 36.572V41.678C50.0962 41.8007 49.2989 41.908 48.3789 42C47.4589 42.1227 46.5082 42.2147 45.5269 42.276C44.5762 42.3373 43.6562 42.368 42.7669 42.368ZM69.2302 42.368C66.6542 42.368 64.5229 42.2147 62.8362 41.908C61.1802 41.6013 59.8769 41.0953 58.9262 40.39C57.9755 39.654 57.2855 38.6727 56.8562 37.446C56.4269 36.1887 56.1509 34.64 56.0282 32.8C55.9055 30.96 55.8442 28.752 55.8442 26.176C55.8442 23.6 55.9055 21.392 56.0282 19.552C56.1509 17.712 56.4269 16.1787 56.8562 14.952C57.2855 13.6947 57.9755 12.7133 58.9262 12.008C59.8769 11.272 61.1802 10.7507 62.8362 10.444C64.5229 10.1373 66.6542 9.984 69.2302 9.984C71.8062 9.984 73.9222 10.1373 75.5782 10.444C77.2649 10.7507 78.5835 11.272 79.5342 12.008C80.4849 12.7133 81.1749 13.6947 81.6042 14.952C82.0642 16.1787 82.3555 17.712 82.4782 19.552C82.6009 21.392 82.6622 23.6 82.6622 26.176C82.6622 28.752 82.6009 30.96 82.4782 32.8C82.3555 34.64 82.0642 36.1887 81.6042 37.446C81.1749 38.6727 80.4849 39.654 79.5342 40.39C78.5835 41.0953 77.2649 41.6013 75.5782 41.908C73.9222 42.2147 71.8062 42.368 69.2302 42.368ZM69.2302 37.032C70.5795 37.032 71.6682 36.986 72.4962 36.894C73.3549 36.802 74.0295 36.5873 74.5202 36.25C75.0109 35.9127 75.3635 35.3607 75.5782 34.594C75.8235 33.8273 75.9769 32.7693 76.0382 31.42C76.0995 30.0707 76.1302 28.3227 76.1302 26.176C76.1302 24.0293 76.0995 22.2813 76.0382 20.932C75.9769 19.5827 75.8235 18.5247 75.5782 17.758C75.3635 16.9913 75.0109 16.4393 74.5202 16.102C74.0295 15.7647 73.3549 15.55 72.4962 15.458C71.6682 15.366 70.5795 15.32 69.2302 15.32C67.9115 15.32 66.8229 15.366 65.9642 15.458C65.1362 15.55 64.4769 15.7647 63.9862 16.102C63.4955 16.4393 63.1275 16.9913 62.8822 17.758C62.6675 18.5247 62.5295 19.5827 62.4682 20.932C62.4069 22.2813 62.3762 24.0293 62.3762 26.176C62.3762 28.3227 62.4069 30.0707 62.4682 31.42C62.5295 32.7693 62.6675 33.8273 62.8822 34.594C63.1275 35.3607 63.4955 35.9127 63.9862 36.25C64.4769 36.5873 65.1362 36.802 65.9642 36.894C66.8229 36.986 67.9115 37.032 69.2302 37.032ZM89.2876 42V10.352H95.8196V36.48H109.068V42H89.2876ZM110.958 42L121.676 10.352H130.416L141.134 42H134.464L132.118 35.008H119.744L117.49 42H110.958ZM121.4 29.718H130.416L126.046 16.286H125.77L121.4 29.718ZM145.575 42V10.352H161.031C163.085 10.352 164.757 10.6587 166.045 11.272C167.363 11.8547 168.329 12.744 168.943 13.94C169.587 15.1053 169.909 16.562 169.909 18.31C169.909 19.7513 169.709 20.978 169.311 21.99C168.912 23.002 168.314 23.8147 167.517 24.428C166.719 25.0413 165.692 25.486 164.435 25.762V25.946C165.845 26.222 166.965 26.682 167.793 27.326C168.651 27.9393 169.265 28.7673 169.633 29.81C170.001 30.822 170.185 32.0947 170.185 33.628C170.185 34.8853 170.031 36.0353 169.725 37.078C169.418 38.09 168.912 38.964 168.207 39.7C167.532 40.436 166.612 41.0033 165.447 41.402C164.281 41.8007 162.825 42 161.077 42H145.575ZM152.107 36.756H158.915C160.141 36.756 161.107 36.6487 161.813 36.434C162.518 36.1887 162.993 35.7747 163.239 35.192C163.515 34.5787 163.653 33.7353 163.653 32.662C163.653 31.6193 163.515 30.8067 163.239 30.224C162.963 29.6107 162.472 29.1813 161.767 28.936C161.092 28.6907 160.141 28.568 158.915 28.568H152.107V36.756ZM152.107 23.416H158.685C159.85 23.416 160.77 23.2933 161.445 23.048C162.15 22.8027 162.641 22.404 162.917 21.852C163.223 21.2693 163.377 20.518 163.377 19.598C163.377 18.5247 163.239 17.712 162.963 17.16C162.717 16.5773 162.257 16.1787 161.583 15.964C160.939 15.7493 159.973 15.642 158.685 15.642H152.107V23.416ZM189.082 42.368C186.506 42.368 184.374 42.2147 182.688 41.908C181.032 41.6013 179.728 41.0953 178.778 40.39C177.827 39.654 177.137 38.6727 176.708 37.446C176.278 36.1887 176.002 34.64 175.88 32.8C175.757 30.96 175.696 28.752 175.696 26.176C175.696 23.6 175.757 21.392 175.88 19.552C176.002 17.712 176.278 16.1787 176.708 14.952C177.137 13.6947 177.827 12.7133 178.778 12.008C179.728 11.272 181.032 10.7507 182.688 10.444C184.374 10.1373 186.506 9.984 189.082 9.984C191.658 9.984 193.774 10.1373 195.43 10.444C197.116 10.7507 198.435 11.272 199.386 12.008C200.336 12.7133 201.026 13.6947 201.456 14.952C201.916 16.1787 202.207 17.712 202.33 19.552C202.452 21.392 202.514 23.6 202.514 26.176C202.514 28.752 202.452 30.96 202.33 32.8C202.207 34.64 201.916 36.1887 201.456 37.446C201.026 38.6727 200.336 39.654 199.386 40.39C198.435 41.0953 197.116 41.6013 195.43 41.908C193.774 42.2147 191.658 42.368 189.082 42.368ZM189.082 37.032C190.431 37.032 191.52 36.986 192.348 36.894C193.206 36.802 193.881 36.5873 194.372 36.25C194.862 35.9127 195.215 35.3607 195.43 34.594C195.675 33.8273 195.828 32.7693 195.89 31.42C195.951 30.0707 195.982 28.3227 195.982 26.176C195.982 24.0293 195.951 22.2813 195.89 20.932C195.828 19.5827 195.675 18.5247 195.43 17.758C195.215 16.9913 194.862 16.4393 194.372 16.102C193.881 15.7647 193.206 15.55 192.348 15.458C191.52 15.366 190.431 15.32 189.082 15.32C187.763 15.32 186.674 15.366 185.816 15.458C184.988 15.55 184.328 15.7647 183.838 16.102C183.347 16.4393 182.979 16.9913 182.734 17.758C182.519 18.5247 182.381 19.5827 182.32 20.932C182.258 22.2813 182.228 24.0293 182.228 26.176C182.228 28.3227 182.258 30.0707 182.32 31.42C182.381 32.7693 182.519 33.8273 182.734 34.594C182.979 35.3607 183.347 35.9127 183.838 36.25C184.328 36.5873 184.988 36.802 185.816 36.894C186.674 36.986 187.763 37.032 189.082 37.032ZM209.139 42V10.352H224.273C226.328 10.352 227.969 10.582 229.195 11.042C230.453 11.502 231.403 12.1767 232.047 13.066C232.691 13.9247 233.121 14.9827 233.335 16.24C233.581 17.4667 233.703 18.8467 233.703 20.38C233.703 21.4533 233.611 22.6033 233.427 23.83C233.243 25.0567 232.829 26.1913 232.185 27.234C231.572 28.2767 230.591 29.0433 229.241 29.534L234.301 42H227.401L222.617 29.304L224.227 30.178C224.013 30.27 223.752 30.3313 223.445 30.362C223.169 30.3927 222.847 30.408 222.479 30.408H215.671V42H209.139ZM215.671 25.118H221.651C222.939 25.118 223.951 25.0413 224.687 24.888C225.423 24.7347 225.975 24.4893 226.343 24.152C226.711 23.784 226.941 23.3087 227.033 22.726C227.125 22.1127 227.171 21.3307 227.171 20.38C227.171 19.4293 227.125 18.6473 227.033 18.034C226.941 17.4207 226.727 16.9453 226.389 16.608C226.052 16.2707 225.5 16.0253 224.733 15.872C223.997 15.7187 222.985 15.642 221.697 15.642H215.671V25.118ZM237.143 42L247.861 10.352H256.601L267.319 42H260.649L258.303 35.008H245.929L243.675 42H237.143ZM247.585 29.718H256.601L252.231 16.286H251.955L247.585 29.718ZM252.185 7.408C250.652 7.408 249.425 7.23933 248.505 6.902C247.616 6.56466 246.941 6.10466 246.481 5.522C246.052 4.90867 245.76 4.188 245.607 3.36C245.484 2.50133 245.423 1.58133 245.423 0.599998H248.919C248.919 1.30533 248.965 1.90333 249.057 2.394C249.149 2.88466 249.425 3.268 249.885 3.544C250.345 3.82 251.096 3.958 252.139 3.958C253.243 3.958 254.01 3.82 254.439 3.544C254.899 3.268 255.175 2.88466 255.267 2.394C255.39 1.90333 255.451 1.30533 255.451 0.599998H258.993C258.993 1.58133 258.916 2.50133 258.763 3.36C258.64 4.188 258.349 4.90867 257.889 5.522C257.429 6.10466 256.739 6.56466 255.819 6.902C254.899 7.23933 253.688 7.408 252.185 7.408ZM271.76 42V10.352H280.73L288.55 31.236H288.826L296.6 10.352H305.524V42H299.222V19.966H298.992L290.804 42H286.296L278.108 19.966H277.878V42H271.76ZM314.283 31.788C314.191 30.4387 314.084 29.0127 313.961 27.51C313.839 26.0073 313.716 24.52 313.593 23.048C313.471 21.5453 313.363 20.1347 313.271 18.816C313.21 17.4973 313.149 16.3473 313.087 15.366C313.057 14.354 313.041 13.5873 313.041 13.066V10.352H320.171V13.066C320.171 13.5873 320.141 14.354 320.079 15.366C320.049 16.3473 319.987 17.4973 319.895 18.816C319.834 20.1347 319.742 21.5453 319.619 23.048C319.497 24.52 319.374 26.0073 319.251 27.51C319.129 29.0127 319.021 30.4387 318.929 31.788H314.283ZM313.271 42V35.974H319.941V42H313.271Z" fill="#F1F1F1"/>
</svg>
