<svg width="350" height="51" viewBox="0 0 350 51" fill="none" xmlns="http://www.w3.org/2000/svg">
<rect x="7" y="31" width="337" height="15" fill="#F74264"/>
<path d="M24.7532 42.368C22.4226 42.368 20.4752 42.2147 18.9112 41.908C17.3472 41.6013 16.0746 41.08 15.0932 40.344C14.1119 39.608 13.3606 38.6267 12.8392 37.4C12.3486 36.1733 12.0112 34.64 11.8272 32.8C11.6432 30.96 11.5512 28.752 11.5512 26.176C11.5512 23.6 11.6432 21.392 11.8272 19.552C12.0112 17.712 12.3486 16.1787 12.8392 14.952C13.3606 13.7253 14.1119 12.744 15.0932 12.008C16.0746 11.272 17.3472 10.7507 18.9112 10.444C20.4752 10.1373 22.4226 9.984 24.7532 9.984C25.6426 9.984 26.5626 10.0147 27.5132 10.076C28.4946 10.1373 29.4299 10.2293 30.3192 10.352C31.2086 10.4747 31.9599 10.6127 32.5732 10.766V15.78C31.7452 15.688 30.9479 15.6113 30.1812 15.55C29.4146 15.458 28.6939 15.3967 28.0192 15.366C27.3752 15.3353 26.8232 15.32 26.3632 15.32C24.7992 15.32 23.5112 15.3813 22.4992 15.504C21.4872 15.6267 20.6746 15.8873 20.0612 16.286C19.4786 16.654 19.0492 17.2367 18.7732 18.034C18.4972 18.8007 18.3132 19.8433 18.2212 21.162C18.1292 22.4807 18.0832 24.152 18.0832 26.176C18.0832 28.1693 18.1292 29.8407 18.2212 31.19C18.3132 32.5087 18.4972 33.5667 18.7732 34.364C19.0492 35.1307 19.4786 35.7133 20.0612 36.112C20.6746 36.48 21.4872 36.7253 22.4992 36.848C23.5112 36.9707 24.7992 37.032 26.3632 37.032C27.3752 37.032 28.4792 36.986 29.6752 36.894C30.8712 36.802 31.8986 36.6947 32.7572 36.572V41.678C32.0826 41.8007 31.2852 41.908 30.3652 42C29.4452 42.1227 28.4946 42.2147 27.5132 42.276C26.5626 42.3373 25.6426 42.368 24.7532 42.368ZM51.2165 42.368C48.6405 42.368 46.5092 42.2147 44.8225 41.908C43.1665 41.6013 41.8632 41.0953 40.9125 40.39C39.9618 39.654 39.2718 38.6727 38.8425 37.446C38.4132 36.1887 38.1372 34.64 38.0145 32.8C37.8918 30.96 37.8305 28.752 37.8305 26.176C37.8305 23.6 37.8918 21.392 38.0145 19.552C38.1372 17.712 38.4132 16.1787 38.8425 14.952C39.2718 13.6947 39.9618 12.7133 40.9125 12.008C41.8632 11.272 43.1665 10.7507 44.8225 10.444C46.5092 10.1373 48.6405 9.984 51.2165 9.984C53.7925 9.984 55.9085 10.1373 57.5645 10.444C59.2512 10.7507 60.5698 11.272 61.5205 12.008C62.4712 12.7133 63.1612 13.6947 63.5905 14.952C64.0505 16.1787 64.3419 17.712 64.4645 19.552C64.5872 21.392 64.6485 23.6 64.6485 26.176C64.6485 28.752 64.5872 30.96 64.4645 32.8C64.3419 34.64 64.0505 36.1887 63.5905 37.446C63.1612 38.6727 62.4712 39.654 61.5205 40.39C60.5698 41.0953 59.2512 41.6013 57.5645 41.908C55.9085 42.2147 53.7925 42.368 51.2165 42.368ZM51.2165 37.032C52.5658 37.032 53.6545 36.986 54.4825 36.894C55.3412 36.802 56.0159 36.5873 56.5065 36.25C56.9972 35.9127 57.3499 35.3607 57.5645 34.594C57.8098 33.8273 57.9632 32.7693 58.0245 31.42C58.0859 30.0707 58.1165 28.3227 58.1165 26.176C58.1165 24.0293 58.0859 22.2813 58.0245 20.932C57.9632 19.5827 57.8098 18.5247 57.5645 17.758C57.3499 16.9913 56.9972 16.4393 56.5065 16.102C56.0159 15.7647 55.3412 15.55 54.4825 15.458C53.6545 15.366 52.5658 15.32 51.2165 15.32C49.8978 15.32 48.8092 15.366 47.9505 15.458C47.1225 15.55 46.4632 15.7647 45.9725 16.102C45.4818 16.4393 45.1138 16.9913 44.8685 17.758C44.6538 18.5247 44.5158 19.5827 44.4545 20.932C44.3932 22.2813 44.3625 24.0293 44.3625 26.176C44.3625 28.3227 44.3932 30.0707 44.4545 31.42C44.5158 32.7693 44.6538 33.8273 44.8685 34.594C45.1138 35.3607 45.4818 35.9127 45.9725 36.25C46.4632 36.5873 47.1225 36.802 47.9505 36.894C48.8092 36.986 49.8978 37.032 51.2165 37.032ZM71.274 42V10.352H77.806V36.48H91.054V42H71.274ZM96.0259 42V10.352H102.558V36.48H115.806V42H96.0259ZM117.696 42L128.414 10.352H137.154L147.872 42H141.202L138.856 35.008H126.482L124.228 42H117.696ZM128.138 29.718H137.154L132.784 16.286H132.508L128.138 29.718ZM152.313 42V10.352H167.769C169.824 10.352 171.495 10.6587 172.783 11.272C174.102 11.8547 175.068 12.744 175.681 13.94C176.325 15.1053 176.647 16.562 176.647 18.31C176.647 19.7513 176.448 20.978 176.049 21.99C175.65 23.002 175.052 23.8147 174.255 24.428C173.458 25.0413 172.43 25.486 171.173 25.762V25.946C172.584 26.222 173.703 26.682 174.531 27.326C175.39 27.9393 176.003 28.7673 176.371 29.81C176.739 30.822 176.923 32.0947 176.923 33.628C176.923 34.8853 176.77 36.0353 176.463 37.078C176.156 38.09 175.65 38.964 174.945 39.7C174.27 40.436 173.35 41.0033 172.185 41.402C171.02 41.8007 169.563 42 167.815 42H152.313ZM158.845 36.756H165.653C166.88 36.756 167.846 36.6487 168.551 36.434C169.256 36.1887 169.732 35.7747 169.977 35.192C170.253 34.5787 170.391 33.7353 170.391 32.662C170.391 31.6193 170.253 30.8067 169.977 30.224C169.701 29.6107 169.21 29.1813 168.505 28.936C167.83 28.6907 166.88 28.568 165.653 28.568H158.845V36.756ZM158.845 23.416H165.423C166.588 23.416 167.508 23.2933 168.183 23.048C168.888 22.8027 169.379 22.404 169.655 21.852C169.962 21.2693 170.115 20.518 170.115 19.598C170.115 18.5247 169.977 17.712 169.701 17.16C169.456 16.5773 168.996 16.1787 168.321 15.964C167.677 15.7493 166.711 15.642 165.423 15.642H158.845V23.416ZM195.82 42.368C193.244 42.368 191.113 42.2147 189.426 41.908C187.77 41.6013 186.467 41.0953 185.516 40.39C184.565 39.654 183.875 38.6727 183.446 37.446C183.017 36.1887 182.741 34.64 182.618 32.8C182.495 30.96 182.434 28.752 182.434 26.176C182.434 23.6 182.495 21.392 182.618 19.552C182.741 17.712 183.017 16.1787 183.446 14.952C183.875 13.6947 184.565 12.7133 185.516 12.008C186.467 11.272 187.77 10.7507 189.426 10.444C191.113 10.1373 193.244 9.984 195.82 9.984C198.396 9.984 200.512 10.1373 202.168 10.444C203.855 10.7507 205.173 11.272 206.124 12.008C207.075 12.7133 207.765 13.6947 208.194 14.952C208.654 16.1787 208.945 17.712 209.068 19.552C209.191 21.392 209.252 23.6 209.252 26.176C209.252 28.752 209.191 30.96 209.068 32.8C208.945 34.64 208.654 36.1887 208.194 37.446C207.765 38.6727 207.075 39.654 206.124 40.39C205.173 41.0953 203.855 41.6013 202.168 41.908C200.512 42.2147 198.396 42.368 195.82 42.368ZM195.82 37.032C197.169 37.032 198.258 36.986 199.086 36.894C199.945 36.802 200.619 36.5873 201.11 36.25C201.601 35.9127 201.953 35.3607 202.168 34.594C202.413 33.8273 202.567 32.7693 202.628 31.42C202.689 30.0707 202.72 28.3227 202.72 26.176C202.72 24.0293 202.689 22.2813 202.628 20.932C202.567 19.5827 202.413 18.5247 202.168 17.758C201.953 16.9913 201.601 16.4393 201.11 16.102C200.619 15.7647 199.945 15.55 199.086 15.458C198.258 15.366 197.169 15.32 195.82 15.32C194.501 15.32 193.413 15.366 192.554 15.458C191.726 15.55 191.067 15.7647 190.576 16.102C190.085 16.4393 189.717 16.9913 189.472 17.758C189.257 18.5247 189.119 19.5827 189.058 20.932C188.997 22.2813 188.966 24.0293 188.966 26.176C188.966 28.3227 188.997 30.0707 189.058 31.42C189.119 32.7693 189.257 33.8273 189.472 34.594C189.717 35.3607 190.085 35.9127 190.576 36.25C191.067 36.5873 191.726 36.802 192.554 36.894C193.413 36.986 194.501 37.032 195.82 37.032ZM215.877 42V10.352H231.011C233.066 10.352 234.707 10.582 235.933 11.042C237.191 11.502 238.141 12.1767 238.785 13.066C239.429 13.9247 239.859 14.9827 240.073 16.24C240.319 17.4667 240.441 18.8467 240.441 20.38C240.441 21.4533 240.349 22.6033 240.165 23.83C239.981 25.0567 239.567 26.1913 238.923 27.234C238.31 28.2767 237.329 29.0433 235.979 29.534L241.039 42H234.139L229.355 29.304L230.965 30.178C230.751 30.27 230.49 30.3313 230.183 30.362C229.907 30.3927 229.585 30.408 229.217 30.408H222.409V42H215.877ZM222.409 25.118H228.389C229.677 25.118 230.689 25.0413 231.425 24.888C232.161 24.7347 232.713 24.4893 233.081 24.152C233.449 23.784 233.679 23.3087 233.771 22.726C233.863 22.1127 233.909 21.3307 233.909 20.38C233.909 19.4293 233.863 18.6473 233.771 18.034C233.679 17.4207 233.465 16.9453 233.127 16.608C232.79 16.2707 232.238 16.0253 231.471 15.872C230.735 15.7187 229.723 15.642 228.435 15.642H222.409V25.118ZM243.881 42L254.599 10.352H263.339L274.057 42H267.387L265.041 35.008H252.667L250.413 42H243.881ZM254.323 29.718H263.339L258.969 16.286H258.693L254.323 29.718ZM282.78 42V15.872H273.626V10.352H298.466V15.872H289.312V42H282.78ZM303.206 42V10.352H324.826V15.688H309.738V23.37H322.664V28.706H309.738V36.664H324.826V42H303.206ZM332.297 31.788C332.205 30.4387 332.098 29.0127 331.975 27.51C331.852 26.0073 331.73 24.52 331.607 23.048C331.484 21.5453 331.377 20.1347 331.285 18.816C331.224 17.4973 331.162 16.3473 331.101 15.366C331.07 14.354 331.055 13.5873 331.055 13.066V10.352H338.185V13.066C338.185 13.5873 338.154 14.354 338.093 15.366C338.062 16.3473 338.001 17.4973 337.909 18.816C337.848 20.1347 337.756 21.5453 337.633 23.048C337.51 24.52 337.388 26.0073 337.265 27.51C337.142 29.0127 337.035 30.4387 336.943 31.788H332.297ZM331.285 42V35.974H337.955V42H331.285Z" fill="#F1F1F1"/>
</svg>
