<svg width="350" height="51" viewBox="0 0 350 51" fill="none" xmlns="http://www.w3.org/2000/svg">
<path d="M22.3274 42.368C19.9968 42.368 18.0494 42.2147 16.4854 41.908C14.9214 41.6013 13.6488 41.08 12.6674 40.344C11.6861 39.608 10.9348 38.6267 10.4134 37.4C9.92277 36.1733 9.58544 34.64 9.40144 32.8C9.21744 30.96 9.12544 28.752 9.12544 26.176C9.12544 23.6 9.21744 21.392 9.40144 19.552C9.58544 17.712 9.92277 16.1787 10.4134 14.952C10.9348 13.7253 11.6861 12.744 12.6674 12.008C13.6488 11.272 14.9214 10.7507 16.4854 10.444C18.0494 10.1373 19.9968 9.984 22.3274 9.984C23.2168 9.984 24.1368 10.0147 25.0874 10.076C26.0688 10.1373 27.0041 10.2293 27.8934 10.352C28.7828 10.4747 29.5341 10.6127 30.1474 10.766V15.78C29.3194 15.688 28.5221 15.6113 27.7554 15.55C26.9888 15.458 26.2681 15.3967 25.5934 15.366C24.9494 15.3353 24.3974 15.32 23.9374 15.32C22.3734 15.32 21.0854 15.3813 20.0734 15.504C19.0614 15.6267 18.2488 15.8873 17.6354 16.286C17.0528 16.654 16.6234 17.2367 16.3474 18.034C16.0714 18.8007 15.8874 19.8433 15.7954 21.162C15.7034 22.4807 15.6574 24.152 15.6574 26.176C15.6574 28.1693 15.7034 29.8407 15.7954 31.19C15.8874 32.5087 16.0714 33.5667 16.3474 34.364C16.6234 35.1307 17.0528 35.7133 17.6354 36.112C18.2488 36.48 19.0614 36.7253 20.0734 36.848C21.0854 36.9707 22.3734 37.032 23.9374 37.032C24.9494 37.032 26.0534 36.986 27.2494 36.894C28.4454 36.802 29.4728 36.6947 30.3314 36.572V41.678C29.6568 41.8007 28.8594 41.908 27.9394 42C27.0194 42.1227 26.0688 42.2147 25.0874 42.276C24.1368 42.3373 23.2168 42.368 22.3274 42.368ZM48.7907 42.368C46.2147 42.368 44.0834 42.2147 42.3967 41.908C40.7407 41.6013 39.4374 41.0953 38.4867 40.39C37.5361 39.654 36.8461 38.6727 36.4167 37.446C35.9874 36.1887 35.7114 34.64 35.5887 32.8C35.4661 30.96 35.4047 28.752 35.4047 26.176C35.4047 23.6 35.4661 21.392 35.5887 19.552C35.7114 17.712 35.9874 16.1787 36.4167 14.952C36.8461 13.6947 37.5361 12.7133 38.4867 12.008C39.4374 11.272 40.7407 10.7507 42.3967 10.444C44.0834 10.1373 46.2147 9.984 48.7907 9.984C51.3667 9.984 53.4827 10.1373 55.1387 10.444C56.8254 10.7507 58.1441 11.272 59.0947 12.008C60.0454 12.7133 60.7354 13.6947 61.1647 14.952C61.6247 16.1787 61.9161 17.712 62.0387 19.552C62.1614 21.392 62.2227 23.6 62.2227 26.176C62.2227 28.752 62.1614 30.96 62.0387 32.8C61.9161 34.64 61.6247 36.1887 61.1647 37.446C60.7354 38.6727 60.0454 39.654 59.0947 40.39C58.1441 41.0953 56.8254 41.6013 55.1387 41.908C53.4827 42.2147 51.3667 42.368 48.7907 42.368ZM48.7907 37.032C50.1401 37.032 51.2287 36.986 52.0567 36.894C52.9154 36.802 53.5901 36.5873 54.0807 36.25C54.5714 35.9127 54.9241 35.3607 55.1387 34.594C55.3841 33.8273 55.5374 32.7693 55.5987 31.42C55.6601 30.0707 55.6907 28.3227 55.6907 26.176C55.6907 24.0293 55.6601 22.2813 55.5987 20.932C55.5374 19.5827 55.3841 18.5247 55.1387 17.758C54.9241 16.9913 54.5714 16.4393 54.0807 16.102C53.5901 15.7647 52.9154 15.55 52.0567 15.458C51.2287 15.366 50.1401 15.32 48.7907 15.32C47.4721 15.32 46.3834 15.366 45.5247 15.458C44.6967 15.55 44.0374 15.7647 43.5467 16.102C43.0561 16.4393 42.6881 16.9913 42.4427 17.758C42.2281 18.5247 42.0901 19.5827 42.0287 20.932C41.9674 22.2813 41.9367 24.0293 41.9367 26.176C41.9367 28.3227 41.9674 30.0707 42.0287 31.42C42.0901 32.7693 42.2281 33.8273 42.4427 34.594C42.6881 35.3607 43.0561 35.9127 43.5467 36.25C44.0374 36.5873 44.6967 36.802 45.5247 36.894C46.3834 36.986 47.4721 37.032 48.7907 37.032ZM68.8482 42V10.352H75.6102L88.0762 29.856H88.3062V10.352H94.5622V42H88.3522L75.3342 21.438H75.1042V42H68.8482ZM108.438 42V15.872H99.2844V10.352H124.124V15.872H114.97V42H108.438ZM123.715 42L134.433 10.352H143.173L153.891 42H147.221L144.875 35.008H132.501L130.247 42H123.715ZM134.157 29.718H143.173L138.803 16.286H138.527L134.157 29.718ZM170.615 42.368C168.284 42.368 166.337 42.2147 164.773 41.908C163.209 41.6013 161.936 41.08 160.955 40.344C159.973 39.608 159.222 38.6267 158.701 37.4C158.21 36.1733 157.873 34.64 157.689 32.8C157.505 30.96 157.413 28.752 157.413 26.176C157.413 23.6 157.505 21.392 157.689 19.552C157.873 17.712 158.21 16.1787 158.701 14.952C159.222 13.7253 159.973 12.744 160.955 12.008C161.936 11.272 163.209 10.7507 164.773 10.444C166.337 10.1373 168.284 9.984 170.615 9.984C171.504 9.984 172.424 10.0147 173.375 10.076C174.356 10.1373 175.291 10.2293 176.181 10.352C177.07 10.4747 177.821 10.6127 178.435 10.766V15.78C177.607 15.688 176.809 15.6113 176.043 15.55C175.276 15.458 174.555 15.3967 173.881 15.366C173.237 15.3353 172.685 15.32 172.225 15.32C170.661 15.32 169.373 15.3813 168.361 15.504C167.349 15.6267 166.536 15.8873 165.923 16.286C165.34 16.654 164.911 17.2367 164.635 18.034C164.359 18.8007 164.175 19.8433 164.083 21.162C163.991 22.4807 163.945 24.152 163.945 26.176C163.945 28.1693 163.991 29.8407 164.083 31.19C164.175 32.5087 164.359 33.5667 164.635 34.364C164.911 35.1307 165.34 35.7133 165.923 36.112C166.536 36.48 167.349 36.7253 168.361 36.848C169.373 36.9707 170.661 37.032 172.225 37.032C173.237 37.032 174.341 36.986 175.537 36.894C176.733 36.802 177.76 36.6947 178.619 36.572V41.678C177.944 41.8007 177.147 41.908 176.227 42C175.307 42.1227 174.356 42.2147 173.375 42.276C172.424 42.3373 171.504 42.368 170.615 42.368ZM190.96 42V15.872H181.806V10.352H206.646V15.872H197.492V42H190.96ZM211.385 42V10.352H233.005V15.688H217.917V23.37H230.843V28.706H217.917V36.664H233.005V42H211.385ZM236.245 42L246.963 10.352H255.703L266.421 42H259.751L257.405 35.008H245.031L242.777 42H236.245ZM246.687 29.718H255.703L251.333 16.286H251.057L246.687 29.718ZM269.252 42V36.894L284.754 15.688H269.758V10.352H292.988V15.274L277.302 36.71H293.126V42H269.252ZM295.901 42L306.619 10.352H315.359L326.077 42H319.407L317.061 35.008H304.687L302.433 42H295.901ZM306.343 29.718H315.359L310.989 16.286H310.713L306.343 29.718ZM310.943 7.408C309.41 7.408 308.183 7.23933 307.263 6.902C306.374 6.56466 305.699 6.10466 305.239 5.522C304.81 4.90867 304.518 4.188 304.365 3.36C304.242 2.50133 304.181 1.58133 304.181 0.599998H307.677C307.677 1.30533 307.723 1.90333 307.815 2.394C307.907 2.88466 308.183 3.268 308.643 3.544C309.103 3.82 309.854 3.958 310.897 3.958C312.001 3.958 312.768 3.82 313.197 3.544C313.657 3.268 313.933 2.88466 314.025 2.394C314.148 1.90333 314.209 1.30533 314.209 0.599998H317.751C317.751 1.58133 317.674 2.50133 317.521 3.36C317.398 4.188 317.107 4.90867 316.647 5.522C316.187 6.10466 315.497 6.56466 314.577 6.902C313.657 7.23933 312.446 7.408 310.943 7.408ZM329.184 31.512V26.314H341.282V31.512H329.184Z" fill="#F1F1F1"/>
</svg>
