<svg width="283" height="68" viewBox="0 0 283 68" fill="none" xmlns="http://www.w3.org/2000/svg">
<path d="M0.173047 68H-1.82695V70H0.173047V68ZM0.173047 0.575998V-1.424H-1.82695V0.575998H0.173047ZM43.9791 0.575998H45.9791V-1.424H43.9791V0.575998ZM43.9791 7.828V9.828H45.9791V7.828H43.9791ZM8.60105 7.828V5.828H6.60105V7.828H8.60105ZM8.60105 30.27H6.60105V32.27H8.60105V30.27ZM39.373 30.27H41.373V28.27H39.373V30.27ZM39.373 37.62V39.62H41.373V37.62H39.373ZM8.60105 37.62V35.62H6.60105V37.62H8.60105ZM8.60105 60.748H6.60105V62.748H8.60105V60.748ZM43.9791 60.748H45.9791V58.748H43.9791V60.748ZM43.9791 68V70H45.9791V68H43.9791ZM2.17305 68V0.575998H-1.82695V68H2.17305ZM0.173047 2.576H43.9791V-1.424H0.173047V2.576ZM41.9791 0.575998V7.828H45.9791V0.575998H41.9791ZM43.9791 5.828H8.60105V9.828H43.9791V5.828ZM6.60105 7.828V30.27H10.601V7.828H6.60105ZM8.60105 32.27H39.373V28.27H8.60105V32.27ZM37.373 30.27V37.62H41.373V30.27H37.373ZM39.373 35.62H8.60105V39.62H39.373V35.62ZM6.60105 37.62V60.748H10.601V37.62H6.60105ZM8.60105 62.748H43.9791V58.748H8.60105V62.748ZM41.9791 60.748V68H45.9791V60.748H41.9791ZM43.9791 66H0.173047V70H43.9791V66ZM59.2219 68H57.2219V70H59.2219V68ZM59.2219 0.575998V-1.424H57.2219V0.575998H59.2219ZM70.5899 0.575998L72.428 -0.212246L71.9083 -1.424H70.5899V0.575998ZM93.6199 54.28L91.7818 55.0682L92.3014 56.28H93.6199V54.28ZM94.1099 54.28V56.28H95.4306L95.9492 55.0654L94.1099 54.28ZM117.042 0.575998V-1.424H115.721L115.203 -0.20941L117.042 0.575998ZM128.41 0.575998H130.41V-1.424H128.41V0.575998ZM128.41 68V70H130.41V68H128.41ZM120.178 68H118.178V70H120.178V68ZM120.178 14.1H122.178V12.1H120.178V14.1ZM119.786 14.1V12.1H118.466L117.947 13.3142L119.786 14.1ZM96.7559 68V70H98.0762L98.595 68.7858L96.7559 68ZM90.5819 68L88.7427 68.7858L89.2615 70H90.5819V68ZM67.5519 14.1L69.391 13.3142L68.8722 12.1H67.5519V14.1ZM67.1599 14.1V12.1H65.1599V14.1H67.1599ZM67.1599 68V70H69.1599V68H67.1599ZM61.2219 68V0.575998H57.2219V68H61.2219ZM59.2219 2.576H70.5899V-1.424H59.2219V2.576ZM68.7518 1.36424L91.7818 55.0682L95.458 53.4918L72.428 -0.212246L68.7518 1.36424ZM93.6199 56.28H94.1099V52.28H93.6199V56.28ZM95.9492 55.0654L118.881 1.3614L115.203 -0.20941L92.2705 53.4946L95.9492 55.0654ZM117.042 2.576H128.41V-1.424H117.042V2.576ZM126.41 0.575998V68H130.41V0.575998H126.41ZM128.41 66H120.178V70H128.41V66ZM122.178 68V14.1H118.178V68H122.178ZM120.178 12.1H119.786V16.1H120.178V12.1ZM117.947 13.3142L94.9167 67.2142L98.595 68.7858L121.625 14.8858L117.947 13.3142ZM96.7559 66H90.5819V70H96.7559V66ZM92.421 67.2142L69.391 13.3142L65.7127 14.8858L88.7427 68.7858L92.421 67.2142ZM67.5519 12.1H67.1599V16.1H67.5519V12.1ZM65.1599 14.1V68H69.1599V14.1H65.1599ZM67.1599 66H59.2219V70H67.1599V66ZM140.978 68L139.108 67.293L138.085 70H140.978V68ZM166.458 0.575998V-1.424H165.076L164.588 -0.131016L166.458 0.575998ZM177.042 0.575998L178.914 -0.128633L178.426 -1.424H177.042V0.575998ZM202.424 68V70H205.314L204.296 67.2954L202.424 68ZM193.702 68L191.831 68.7066L192.32 70H193.702V68ZM186.744 49.576L188.615 48.8694L188.127 47.576H186.744V49.576ZM156.462 49.576V47.576H155.08L154.591 48.8694L156.462 49.576ZM149.504 68V70H150.887L151.375 68.7066L149.504 68ZM159.01 42.226L157.137 41.5256L156.127 44.226H159.01V42.226ZM184.196 42.226V44.226H187.079L186.07 41.5256L184.196 42.226ZM171.848 9.2L173.722 8.49958L173.236 7.2H171.848V9.2ZM171.358 9.2V7.2H169.971L169.485 8.49958L171.358 9.2ZM142.849 68.707L168.329 1.28301L164.588 -0.131016L139.108 67.293L142.849 68.707ZM166.458 2.576H177.042V-1.424H166.458V2.576ZM175.171 1.28063L200.553 68.7046L204.296 67.2954L178.914 -0.128633L175.171 1.28063ZM202.424 66H193.702V70H202.424V66ZM195.573 67.2934L188.615 48.8694L184.873 50.2826L191.831 68.7066L195.573 67.2934ZM186.744 47.576H156.462V51.576H186.744V47.576ZM154.591 48.8694L147.633 67.2934L151.375 68.7066L158.333 50.2826L154.591 48.8694ZM149.504 66H140.978V70H149.504V66ZM159.01 44.226H184.196V40.226H159.01V44.226ZM186.07 41.5256L173.722 8.49958L169.975 9.90042L182.323 42.9264L186.07 41.5256ZM171.848 7.2H171.358V11.2H171.848V7.2ZM169.485 8.49958L157.137 41.5256L160.884 42.9264L173.232 9.90042L169.485 8.49958ZM215.027 68H213.027V70H215.027V68ZM215.027 0.575998V-1.424H213.027V0.575998H215.027ZM223.455 0.575998H225.455V-1.424H223.455V0.575998ZM223.455 68V70H225.455V68H223.455ZM217.027 68V0.575998H213.027V68H217.027ZM215.027 2.576H223.455V-1.424H215.027V2.576ZM221.455 0.575998V68H225.455V0.575998H221.455ZM223.455 66H215.027V70H223.455V66ZM243.068 68H241.068V70H243.068V68ZM243.068 0.575998V-1.424H241.068V0.575998H243.068ZM251.496 0.575998H253.496V-1.424H251.496V0.575998ZM251.496 60.552H249.496V62.552H251.496V60.552ZM282.954 60.552H284.954V58.552H282.954V60.552ZM282.954 68V70H284.954V68H282.954ZM245.068 68V0.575998H241.068V68H245.068ZM243.068 2.576H251.496V-1.424H243.068V2.576ZM249.496 0.575998V60.552H253.496V0.575998H249.496ZM251.496 62.552H282.954V58.552H251.496V62.552ZM280.954 60.552V68H284.954V60.552H280.954ZM282.954 66H243.068V70H282.954V66Z" fill="#F1F1F1"/>
</svg>
