<svg width="350" height="51" viewBox="0 0 350 51" fill="none" xmlns="http://www.w3.org/2000/svg">
<path d="M38.8749 42.368C36.5749 42.368 34.6122 42.2147 32.9869 41.908C31.3922 41.6013 30.0582 41.0953 28.9849 40.39C27.9422 39.654 27.1295 38.6727 26.5469 37.446C25.9642 36.2193 25.5502 34.686 25.3049 32.846C25.0902 30.9753 24.9829 28.752 24.9829 26.176C24.9829 23.6 25.0902 21.392 25.3049 19.552C25.5502 17.6813 25.9642 16.1327 26.5469 14.906C27.1602 13.6793 27.9882 12.7133 29.0309 12.008C30.1042 11.272 31.4382 10.7507 33.0329 10.444C34.6275 10.1373 36.5749 9.984 38.8749 9.984C39.8869 9.984 41.0062 10.03 42.2329 10.122C43.4902 10.214 44.7322 10.3367 45.9589 10.49C47.1855 10.6127 48.3202 10.7813 49.3629 10.996V16.01C48.2895 15.8567 47.2469 15.734 46.2349 15.642C45.2229 15.55 44.3029 15.4733 43.4749 15.412C42.6469 15.3507 41.9569 15.32 41.4049 15.32C39.6569 15.32 38.2002 15.366 37.0349 15.458C35.8695 15.5193 34.9189 15.7187 34.1829 16.056C33.4469 16.3933 32.8795 16.9453 32.4809 17.712C32.1129 18.4787 31.8522 19.552 31.6989 20.932C31.5455 22.2813 31.4689 24.0293 31.4689 26.176C31.4689 28.0773 31.5149 29.672 31.6069 30.96C31.7295 32.248 31.9289 33.306 32.2049 34.134C32.5115 34.962 32.9409 35.606 33.4929 36.066C34.0755 36.4953 34.8115 36.7867 35.7009 36.94C36.6209 37.0933 37.7555 37.17 39.1049 37.17C39.5955 37.17 40.1015 37.17 40.6229 37.17C41.1749 37.1393 41.6809 37.1087 42.1409 37.078C42.6315 37.0473 43.0302 37.0167 43.3369 36.986V29.166H38.0469V24.014H49.5009V41.356C48.4582 41.5707 47.2929 41.7547 46.0049 41.908C44.7169 42.0307 43.4595 42.138 42.2329 42.23C41.0062 42.322 39.8869 42.368 38.8749 42.368ZM56.6743 42V10.352H78.2943V15.688H63.2063V23.37H76.1323V28.706H63.2063V36.664H78.2943V42H56.6743ZM90.9638 42V15.872H81.8098V10.352H106.65V15.872H97.4958V42H90.9638ZM122.081 42V10.352H128.613V42H122.081ZM136.141 42V10.352H142.903L155.369 29.856H155.599V10.352H161.855V42H155.645L142.627 21.438H142.397V42H136.141ZM187.097 42V15.872H177.943V10.352H202.783V15.872H193.629V42H187.097ZM219.988 42.368C217.412 42.368 215.281 42.2147 213.594 41.908C211.938 41.6013 210.635 41.0953 209.684 40.39C208.733 39.654 208.043 38.6727 207.614 37.446C207.185 36.1887 206.909 34.64 206.786 32.8C206.663 30.96 206.602 28.752 206.602 26.176C206.602 23.6 206.663 21.392 206.786 19.552C206.909 17.712 207.185 16.1787 207.614 14.952C208.043 13.6947 208.733 12.7133 209.684 12.008C210.635 11.272 211.938 10.7507 213.594 10.444C215.281 10.1373 217.412 9.984 219.988 9.984C222.564 9.984 224.68 10.1373 226.336 10.444C228.023 10.7507 229.341 11.272 230.292 12.008C231.243 12.7133 231.933 13.6947 232.362 14.952C232.822 16.1787 233.113 17.712 233.236 19.552C233.359 21.392 233.42 23.6 233.42 26.176C233.42 28.752 233.359 30.96 233.236 32.8C233.113 34.64 232.822 36.1887 232.362 37.446C231.933 38.6727 231.243 39.654 230.292 40.39C229.341 41.0953 228.023 41.6013 226.336 41.908C224.68 42.2147 222.564 42.368 219.988 42.368ZM219.988 37.032C221.337 37.032 222.426 36.986 223.254 36.894C224.113 36.802 224.787 36.5873 225.278 36.25C225.769 35.9127 226.121 35.3607 226.336 34.594C226.581 33.8273 226.735 32.7693 226.796 31.42C226.857 30.0707 226.888 28.3227 226.888 26.176C226.888 24.0293 226.857 22.2813 226.796 20.932C226.735 19.5827 226.581 18.5247 226.336 17.758C226.121 16.9913 225.769 16.4393 225.278 16.102C224.787 15.7647 224.113 15.55 223.254 15.458C222.426 15.366 221.337 15.32 219.988 15.32C218.669 15.32 217.581 15.366 216.722 15.458C215.894 15.55 215.235 15.7647 214.744 16.102C214.253 16.4393 213.885 16.9913 213.64 17.758C213.425 18.5247 213.287 19.5827 213.226 20.932C213.165 22.2813 213.134 24.0293 213.134 26.176C213.134 28.3227 213.165 30.0707 213.226 31.42C213.287 32.7693 213.425 33.8273 213.64 34.594C213.885 35.3607 214.253 35.9127 214.744 36.25C215.235 36.5873 215.894 36.802 216.722 36.894C217.581 36.986 218.669 37.032 219.988 37.032ZM252.327 42.368C250.089 42.368 248.218 42.23 246.715 41.954C245.213 41.678 244.001 41.2333 243.081 40.62C242.161 40.0067 241.456 39.148 240.965 38.044C240.505 36.94 240.183 35.56 239.999 33.904C239.846 32.2173 239.769 30.2087 239.769 27.878V10.352H246.301V29.534C246.301 31.1593 246.347 32.478 246.439 33.49C246.562 34.4713 246.792 35.2227 247.129 35.744C247.497 36.2653 248.095 36.618 248.923 36.802C249.751 36.9553 250.886 37.032 252.327 37.032C253.769 37.032 254.888 36.9553 255.685 36.802C256.513 36.618 257.111 36.2653 257.479 35.744C257.847 35.2227 258.077 34.4713 258.169 33.49C258.261 32.478 258.307 31.1593 258.307 29.534V10.352H264.839V27.878C264.839 30.2087 264.747 32.2173 264.563 33.904C264.41 35.56 264.103 36.94 263.643 38.044C263.183 39.148 262.493 40.0067 261.573 40.62C260.653 41.2333 259.442 41.678 257.939 41.954C256.437 42.23 254.566 42.368 252.327 42.368ZM284.447 42.368C282.116 42.368 280.169 42.2147 278.605 41.908C277.041 41.6013 275.768 41.08 274.787 40.344C273.805 39.608 273.054 38.6267 272.533 37.4C272.042 36.1733 271.705 34.64 271.521 32.8C271.337 30.96 271.245 28.752 271.245 26.176C271.245 23.6 271.337 21.392 271.521 19.552C271.705 17.712 272.042 16.1787 272.533 14.952C273.054 13.7253 273.805 12.744 274.787 12.008C275.768 11.272 277.041 10.7507 278.605 10.444C280.169 10.1373 282.116 9.984 284.447 9.984C285.336 9.984 286.256 10.0147 287.207 10.076C288.188 10.1373 289.123 10.2293 290.013 10.352C290.902 10.4747 291.653 10.6127 292.267 10.766V15.78C291.439 15.688 290.641 15.6113 289.875 15.55C289.108 15.458 288.387 15.3967 287.713 15.366C287.069 15.3353 286.517 15.32 286.057 15.32C284.493 15.32 283.205 15.3813 282.193 15.504C281.181 15.6267 280.368 15.8873 279.755 16.286C279.172 16.654 278.743 17.2367 278.467 18.034C278.191 18.8007 278.007 19.8433 277.915 21.162C277.823 22.4807 277.777 24.152 277.777 26.176C277.777 28.1693 277.823 29.8407 277.915 31.19C278.007 32.5087 278.191 33.5667 278.467 34.364C278.743 35.1307 279.172 35.7133 279.755 36.112C280.368 36.48 281.181 36.7253 282.193 36.848C283.205 36.9707 284.493 37.032 286.057 37.032C287.069 37.032 288.173 36.986 289.369 36.894C290.565 36.802 291.592 36.6947 292.451 36.572V41.678C291.776 41.8007 290.979 41.908 290.059 42C289.139 42.1227 288.188 42.2147 287.207 42.276C286.256 42.3373 285.336 42.368 284.447 42.368ZM298.444 42V10.352H304.976V23.278H317.58V10.352H324.112V42H317.58V28.89H304.976V42H298.444Z" fill="#F1F1F1"/>
</svg>
