<svg width="350" height="51" viewBox="0 0 350 51" fill="none" xmlns="http://www.w3.org/2000/svg">
<path d="M103.663 42V10.352H110.195V23.278H122.799V10.352H129.331V42H122.799V28.89H110.195V42H103.663ZM133.778 42L144.496 10.352H153.236L163.954 42H157.284L154.938 35.008H142.564L140.31 42H133.778ZM144.22 29.718H153.236L148.866 16.286H148.59L144.22 29.718ZM168.395 42V10.352H174.927V42H168.395ZM204.953 42.368C203.787 42.368 202.499 42.3373 201.089 42.276C199.709 42.2147 198.359 42.1227 197.041 42C195.722 41.908 194.511 41.8007 193.407 41.678V36.48C194.541 36.572 195.691 36.664 196.857 36.756C198.053 36.848 199.187 36.9247 200.261 36.986C201.334 37.0167 202.254 37.032 203.021 37.032C204.585 37.032 205.796 36.9707 206.655 36.848C207.513 36.6947 208.157 36.48 208.587 36.204C208.924 35.9587 209.154 35.698 209.277 35.422C209.399 35.1153 209.476 34.7627 209.507 34.364C209.537 33.9347 209.553 33.4593 209.553 32.938C209.553 32.2327 209.507 31.65 209.415 31.19C209.353 30.73 209.231 30.3773 209.047 30.132C208.863 29.856 208.556 29.6567 208.127 29.534C207.728 29.4113 207.207 29.3193 206.563 29.258L199.479 28.384C198.068 28.2 196.903 27.878 195.983 27.418C195.093 26.958 194.388 26.3447 193.867 25.578C193.345 24.8113 192.977 23.9067 192.763 22.864C192.579 21.8213 192.487 20.6407 192.487 19.322C192.487 17.2367 192.778 15.5807 193.361 14.354C193.943 13.1273 194.756 12.192 195.799 11.548C196.872 10.904 198.129 10.49 199.571 10.306C201.012 10.0913 202.576 9.984 204.263 9.984C205.489 9.984 206.747 10.03 208.035 10.122C209.323 10.1833 210.534 10.2753 211.669 10.398C212.803 10.5207 213.754 10.674 214.521 10.858V15.918C213.754 15.7953 212.865 15.688 211.853 15.596C210.841 15.504 209.783 15.4427 208.679 15.412C207.575 15.3507 206.532 15.32 205.551 15.32C204.109 15.32 202.959 15.3813 202.101 15.504C201.273 15.596 200.629 15.7647 200.169 16.01C199.647 16.3167 199.325 16.7153 199.203 17.206C199.111 17.6967 199.065 18.31 199.065 19.046C199.065 19.966 199.126 20.6713 199.249 21.162C199.371 21.622 199.663 21.944 200.123 22.128C200.583 22.312 201.303 22.4653 202.285 22.588L209.369 23.416C210.227 23.508 211.025 23.6613 211.761 23.876C212.497 24.0907 213.156 24.428 213.739 24.888C214.321 25.348 214.797 25.992 215.165 26.82C215.379 27.2493 215.548 27.7553 215.671 28.338C215.793 28.89 215.885 29.5187 215.947 30.224C216.039 30.9293 216.085 31.7113 216.085 32.57C216.085 34.3487 215.901 35.836 215.533 37.032C215.195 38.228 214.705 39.1787 214.061 39.884C213.417 40.5893 212.619 41.126 211.669 41.494C210.749 41.862 209.721 42.092 208.587 42.184C207.452 42.3067 206.241 42.368 204.953 42.368ZM219.264 42L229.982 10.352H238.722L249.44 42H242.77L240.424 35.008H228.05L225.796 42H219.264ZM229.706 29.718H238.722L234.352 16.286H234.076L229.706 29.718ZM234.306 7.408C232.773 7.408 231.546 7.23933 230.626 6.902C229.737 6.56466 229.062 6.10466 228.602 5.522C228.173 4.90867 227.882 4.188 227.728 3.36C227.606 2.50133 227.544 1.58133 227.544 0.599998H231.04C231.04 1.30533 231.086 1.90333 231.178 2.394C231.27 2.88466 231.546 3.268 232.006 3.544C232.466 3.82 233.218 3.958 234.26 3.958C235.364 3.958 236.131 3.82 236.56 3.544C237.02 3.268 237.296 2.88466 237.388 2.394C237.511 1.90333 237.572 1.30533 237.572 0.599998H241.114C241.114 1.58133 241.038 2.50133 240.884 3.36C240.762 4.188 240.47 4.90867 240.01 5.522C239.55 6.10466 238.86 6.56466 237.94 6.902C237.02 7.23933 235.809 7.408 234.306 7.408Z" fill="#F1F1F1"/>
</svg>
