<svg width="350" height="51" viewBox="0 0 350 51" fill="none" xmlns="http://www.w3.org/2000/svg">
<path d="M118.644 42V10.352H125.176V36.48H138.424V42H118.644ZM143.396 42V10.352H165.016V15.688H149.928V23.37H162.854V28.706H149.928V36.664H165.016V42H143.396ZM177.685 42V15.872H168.531V10.352H193.371V15.872H184.217V42H177.685ZM196.777 22.174V19.69C197.605 19.69 198.234 19.6287 198.663 19.506C199.092 19.3527 199.384 19.0767 199.537 18.678C199.721 18.2487 199.813 17.6353 199.813 16.838V16.056H197.283V10.352H203.631V14.446C203.631 16.0407 203.554 17.344 203.401 18.356C203.278 19.3373 202.972 20.1193 202.481 20.702C202.021 21.254 201.331 21.6373 200.411 21.852C199.522 22.0667 198.31 22.174 196.777 22.174ZM221.507 42.368C220.341 42.368 219.053 42.3373 217.643 42.276C216.263 42.2147 214.913 42.1227 213.595 42C212.276 41.908 211.065 41.8007 209.961 41.678V36.48C211.095 36.572 212.245 36.664 213.411 36.756C214.607 36.848 215.741 36.9247 216.815 36.986C217.888 37.0167 218.808 37.032 219.575 37.032C221.139 37.032 222.35 36.9707 223.209 36.848C224.067 36.6947 224.711 36.48 225.141 36.204C225.478 35.9587 225.708 35.698 225.831 35.422C225.953 35.1153 226.03 34.7627 226.061 34.364C226.091 33.9347 226.107 33.4593 226.107 32.938C226.107 32.2327 226.061 31.65 225.969 31.19C225.907 30.73 225.785 30.3773 225.601 30.132C225.417 29.856 225.11 29.6567 224.681 29.534C224.282 29.4113 223.761 29.3193 223.117 29.258L216.033 28.384C214.622 28.2 213.457 27.878 212.537 27.418C211.647 26.958 210.942 26.3447 210.421 25.578C209.899 24.8113 209.531 23.9067 209.317 22.864C209.133 21.8213 209.041 20.6407 209.041 19.322C209.041 17.2367 209.332 15.5807 209.915 14.354C210.497 13.1273 211.31 12.192 212.353 11.548C213.426 10.904 214.683 10.49 216.125 10.306C217.566 10.0913 219.13 9.984 220.817 9.984C222.043 9.984 223.301 10.03 224.589 10.122C225.877 10.1833 227.088 10.2753 228.223 10.398C229.357 10.5207 230.308 10.674 231.075 10.858V15.918C230.308 15.7953 229.419 15.688 228.407 15.596C227.395 15.504 226.337 15.4427 225.233 15.412C224.129 15.3507 223.086 15.32 222.105 15.32C220.663 15.32 219.513 15.3813 218.655 15.504C217.827 15.596 217.183 15.7647 216.723 16.01C216.201 16.3167 215.879 16.7153 215.757 17.206C215.665 17.6967 215.619 18.31 215.619 19.046C215.619 19.966 215.68 20.6713 215.803 21.162C215.925 21.622 216.217 21.944 216.677 22.128C217.137 22.312 217.857 22.4653 218.839 22.588L225.923 23.416C226.781 23.508 227.579 23.6613 228.315 23.876C229.051 24.0907 229.71 24.428 230.293 24.888C230.875 25.348 231.351 25.992 231.719 26.82C231.933 27.2493 232.102 27.7553 232.225 28.338C232.347 28.89 232.439 29.5187 232.501 30.224C232.593 30.9293 232.639 31.7113 232.639 32.57C232.639 34.3487 232.455 35.836 232.087 37.032C231.749 38.228 231.259 39.1787 230.615 39.884C229.971 40.5893 229.173 41.126 228.223 41.494C227.303 41.862 226.275 42.092 225.141 42.184C224.006 42.3067 222.795 42.368 221.507 42.368Z" fill="#F1F1F1"/>
</svg>
