<svg width="350" height="51" viewBox="0 0 350 51" fill="none" xmlns="http://www.w3.org/2000/svg">
<path d="M113.298 42V10.352H120.06L132.526 29.856H132.756V10.352H139.012V42H132.802L119.784 21.438H119.554V42H113.298ZM146.541 42V10.352H168.161V15.688H153.073V23.37H165.999V28.706H153.073V36.664H168.161V42H146.541ZM198.129 42.368C195.799 42.368 193.851 42.2147 192.287 41.908C190.723 41.6013 189.451 41.08 188.469 40.344C187.488 39.608 186.737 38.6267 186.215 37.4C185.725 36.1733 185.387 34.64 185.203 32.8C185.019 30.96 184.927 28.752 184.927 26.176C184.927 23.6 185.019 21.392 185.203 19.552C185.387 17.712 185.725 16.1787 186.215 14.952C186.737 13.7253 187.488 12.744 188.469 12.008C189.451 11.272 190.723 10.7507 192.287 10.444C193.851 10.1373 195.799 9.984 198.129 9.984C199.019 9.984 199.939 10.0147 200.889 10.076C201.871 10.1373 202.806 10.2293 203.695 10.352C204.585 10.4747 205.336 10.6127 205.949 10.766V15.78C205.121 15.688 204.324 15.6113 203.557 15.55C202.791 15.458 202.07 15.3967 201.395 15.366C200.751 15.3353 200.199 15.32 199.739 15.32C198.175 15.32 196.887 15.3813 195.875 15.504C194.863 15.6267 194.051 15.8873 193.437 16.286C192.855 16.654 192.425 17.2367 192.149 18.034C191.873 18.8007 191.689 19.8433 191.597 21.162C191.505 22.4807 191.459 24.152 191.459 26.176C191.459 28.1693 191.505 29.8407 191.597 31.19C191.689 32.5087 191.873 33.5667 192.149 34.364C192.425 35.1307 192.855 35.7133 193.437 36.112C194.051 36.48 194.863 36.7253 195.875 36.848C196.887 36.9707 198.175 37.032 199.739 37.032C200.751 37.032 201.855 36.986 203.051 36.894C204.247 36.802 205.275 36.6947 206.133 36.572V41.678C205.459 41.8007 204.661 41.908 203.741 42C202.821 42.1227 201.871 42.2147 200.889 42.276C199.939 42.3373 199.019 42.368 198.129 42.368ZM224.408 42.368C222.17 42.368 220.299 42.23 218.796 41.954C217.294 41.678 216.082 41.2333 215.162 40.62C214.242 40.0067 213.537 39.148 213.046 38.044C212.586 36.94 212.264 35.56 212.08 33.904C211.927 32.2173 211.85 30.2087 211.85 27.878V10.352H218.382V29.534C218.382 31.1593 218.428 32.478 218.52 33.49C218.643 34.4713 218.873 35.2227 219.21 35.744C219.578 36.2653 220.176 36.618 221.004 36.802C221.832 36.9553 222.967 37.032 224.408 37.032C225.85 37.032 226.969 36.9553 227.766 36.802C228.594 36.618 229.192 36.2653 229.56 35.744C229.928 35.2227 230.158 34.4713 230.25 33.49C230.342 32.478 230.388 31.1593 230.388 29.534V10.352H236.92V27.878C236.92 30.2087 236.828 32.2173 236.644 33.904C236.491 35.56 236.184 36.94 235.724 38.044C235.264 39.148 234.574 40.0067 233.654 40.62C232.734 41.2333 231.523 41.678 230.02 41.954C228.518 42.23 226.647 42.368 224.408 42.368Z" fill="#F1F1F1"/>
</svg>
