<svg width="350" height="51" viewBox="0 0 350 51" fill="none" xmlns="http://www.w3.org/2000/svg">
<path d="M97.5534 42.368C94.9774 42.368 92.8461 42.2147 91.1594 41.908C89.5034 41.6013 88.2001 41.0953 87.2494 40.39C86.2988 39.654 85.6088 38.6727 85.1794 37.446C84.7501 36.1887 84.4741 34.64 84.3514 32.8C84.2288 30.96 84.1674 28.752 84.1674 26.176C84.1674 23.6 84.2288 21.392 84.3514 19.552C84.4741 17.712 84.7501 16.1787 85.1794 14.952C85.6088 13.6947 86.2988 12.7133 87.2494 12.008C88.2001 11.272 89.5034 10.7507 91.1594 10.444C92.8461 10.1373 94.9774 9.984 97.5534 9.984C100.129 9.984 102.245 10.1373 103.901 10.444C105.588 10.7507 106.907 11.272 107.857 12.008C108.808 12.7133 109.498 13.6947 109.927 14.952C110.387 16.1787 110.679 17.712 110.801 19.552C110.924 21.392 110.985 23.6 110.985 26.176C110.985 28.752 110.924 30.96 110.801 32.8C110.679 34.64 110.387 36.1887 109.927 37.446C109.498 38.6727 108.808 39.654 107.857 40.39C106.907 41.0953 105.588 41.6013 103.901 41.908C102.245 42.2147 100.129 42.368 97.5534 42.368ZM97.5534 37.032C98.9028 37.032 99.9914 36.986 100.819 36.894C101.678 36.802 102.353 36.5873 102.843 36.25C103.334 35.9127 103.687 35.3607 103.901 34.594C104.147 33.8273 104.3 32.7693 104.361 31.42C104.423 30.0707 104.453 28.3227 104.453 26.176C104.453 24.0293 104.423 22.2813 104.361 20.932C104.3 19.5827 104.147 18.5247 103.901 17.758C103.687 16.9913 103.334 16.4393 102.843 16.102C102.353 15.7647 101.678 15.55 100.819 15.458C99.9914 15.366 98.9028 15.32 97.5534 15.32C96.2348 15.32 95.1461 15.366 94.2874 15.458C93.4594 15.55 92.8001 15.7647 92.3094 16.102C91.8188 16.4393 91.4508 16.9913 91.2054 17.758C90.9908 18.5247 90.8528 19.5827 90.7914 20.932C90.7301 22.2813 90.6994 24.0293 90.6994 26.176C90.6994 28.3227 90.7301 30.0707 90.7914 31.42C90.8528 32.7693 90.9908 33.8273 91.2054 34.594C91.4508 35.3607 91.8188 35.9127 92.3094 36.25C92.8001 36.5873 93.4594 36.802 94.2874 36.894C95.1461 36.986 96.2348 37.032 97.5534 37.032ZM141.258 42.368C138.927 42.368 136.98 42.2147 135.416 41.908C133.852 41.6013 132.579 41.08 131.598 40.344C130.617 39.608 129.865 38.6267 129.344 37.4C128.853 36.1733 128.516 34.64 128.332 32.8C128.148 30.96 128.056 28.752 128.056 26.176C128.056 23.6 128.148 21.392 128.332 19.552C128.516 17.712 128.853 16.1787 129.344 14.952C129.865 13.7253 130.617 12.744 131.598 12.008C132.579 11.272 133.852 10.7507 135.416 10.444C136.98 10.1373 138.927 9.984 141.258 9.984C142.147 9.984 143.067 10.0147 144.018 10.076C144.999 10.1373 145.935 10.2293 146.824 10.352C147.713 10.4747 148.465 10.6127 149.078 10.766V15.78C148.25 15.688 147.453 15.6113 146.686 15.55C145.919 15.458 145.199 15.3967 144.524 15.366C143.88 15.3353 143.328 15.32 142.868 15.32C141.304 15.32 140.016 15.3813 139.004 15.504C137.992 15.6267 137.179 15.8873 136.566 16.286C135.983 16.654 135.554 17.2367 135.278 18.034C135.002 18.8007 134.818 19.8433 134.726 21.162C134.634 22.4807 134.588 24.152 134.588 26.176C134.588 28.1693 134.634 29.8407 134.726 31.19C134.818 32.5087 135.002 33.5667 135.278 34.364C135.554 35.1307 135.983 35.7133 136.566 36.112C137.179 36.48 137.992 36.7253 139.004 36.848C140.016 36.9707 141.304 37.032 142.868 37.032C143.88 37.032 144.984 36.986 146.18 36.894C147.376 36.802 148.403 36.6947 149.262 36.572V41.678C148.587 41.8007 147.79 41.908 146.87 42C145.95 42.1227 144.999 42.2147 144.018 42.276C143.067 42.3373 142.147 42.368 141.258 42.368ZM152.173 42L162.891 10.352H171.631L182.349 42H175.679L173.333 35.008H160.959L158.705 42H152.173ZM162.615 29.718H171.631L167.261 16.286H166.985L162.615 29.718ZM186.791 42V10.352H207.491V15.688H193.323V24.244H205.789V29.58H193.323V42H186.791ZM212.98 42V10.352H234.6V15.688H219.512V23.37H232.438V28.706H219.512V36.664H234.6V42H212.98ZM237.839 42L248.557 10.352H257.297L268.015 42H261.345L258.999 35.008H246.625L244.371 42H237.839ZM248.281 29.718H257.297L252.927 16.286H252.651L248.281 29.718Z" fill="#F1F1F1"/>
</svg>
