<svg width="350" height="51" viewBox="0 0 350 51" fill="none" xmlns="http://www.w3.org/2000/svg">
<path d="M143.697 42V9.156H169.687V42H162.741V14.952H150.643V42H143.697ZM207.78 25.532C207.78 28.0773 207.458 30.3927 206.814 32.478C206.201 34.5327 205.25 36.3113 203.962 37.814C202.705 39.3167 201.079 40.4667 199.086 41.264C197.123 42.0613 194.808 42.46 192.14 42.46C189.472 42.46 187.141 42.0613 185.148 41.264C183.185 40.436 181.56 39.286 180.272 37.814C179.015 36.3113 178.064 34.5173 177.42 32.432C176.807 30.3467 176.5 28.0313 176.5 25.486C176.5 22.082 177.052 19.1227 178.156 16.608C179.291 14.0933 181.008 12.146 183.308 10.766C185.639 9.35533 188.598 8.65 192.186 8.65C195.743 8.65 198.672 9.35533 200.972 10.766C203.272 12.146 204.974 14.1087 206.078 16.654C207.213 19.1687 207.78 22.128 207.78 25.532ZM183.814 25.532C183.814 27.832 184.105 29.81 184.688 31.466C185.271 33.122 186.175 34.3947 187.402 35.284C188.629 36.1733 190.208 36.618 192.14 36.618C194.133 36.618 195.728 36.1733 196.924 35.284C198.151 34.3947 199.04 33.122 199.592 31.466C200.175 29.81 200.466 27.832 200.466 25.532C200.466 22.0667 199.822 19.3527 198.534 17.39C197.246 15.4273 195.13 14.446 192.186 14.446C190.223 14.446 188.629 14.8907 187.402 15.78C186.175 16.6693 185.271 17.942 184.688 19.598C184.105 21.254 183.814 23.232 183.814 25.532Z" fill="#F1F1F1"/>
</svg>
