<svg width="350" height="51" viewBox="0 0 350 51" fill="none" xmlns="http://www.w3.org/2000/svg">
<path d="M94.9339 42V9.156H120.924V42H113.978V14.952H101.88V42H94.9339ZM159.017 25.532C159.017 28.0773 158.695 30.3927 158.051 32.478C157.438 34.5327 156.487 36.3113 155.199 37.814C153.942 39.3167 152.317 40.4667 150.323 41.264C148.361 42.0613 146.045 42.46 143.377 42.46C140.709 42.46 138.379 42.0613 136.385 41.264C134.423 40.436 132.797 39.286 131.509 37.814C130.252 36.3113 129.301 34.5173 128.657 32.432C128.044 30.3467 127.737 28.0313 127.737 25.486C127.737 22.082 128.289 19.1227 129.393 16.608C130.528 14.0933 132.245 12.146 134.545 10.766C136.876 9.35533 139.835 8.65 143.423 8.65C146.981 8.65 149.909 9.35533 152.209 10.766C154.509 12.146 156.211 14.1087 157.315 16.654C158.45 19.1687 159.017 22.128 159.017 25.532ZM135.051 25.532C135.051 27.832 135.343 29.81 135.925 31.466C136.508 33.122 137.413 34.3947 138.639 35.284C139.866 36.1733 141.445 36.618 143.377 36.618C145.371 36.618 146.965 36.1733 148.161 35.284C149.388 34.3947 150.277 33.122 150.829 31.466C151.412 29.81 151.703 27.832 151.703 25.532C151.703 22.0667 151.059 19.3527 149.771 17.39C148.483 15.4273 146.367 14.446 143.423 14.446C141.461 14.446 139.866 14.8907 138.639 15.78C137.413 16.6693 136.508 17.942 135.925 19.598C135.343 21.254 135.051 23.232 135.051 25.532ZM190.13 42H183.184V29.304C181.252 29.9787 179.474 30.4847 177.848 30.822C176.254 31.1593 174.644 31.328 173.018 31.328C169.952 31.328 167.544 30.592 165.796 29.12C164.079 27.6173 163.22 25.486 163.22 22.726V9.156H170.166V20.748C170.166 22.3427 170.534 23.5387 171.27 24.336C172.006 25.1333 173.248 25.532 174.996 25.532C176.284 25.532 177.572 25.394 178.86 25.118C180.148 24.842 181.59 24.428 183.184 23.876V9.156H190.13V42ZM211.039 42H204.093V14.952H195.169V9.156H219.963V14.952H211.039V42ZM243.934 42H225.028V9.156H243.934V14.86H231.974V22.082H243.106V27.786H231.974V36.25H243.934V42ZM249.572 42V35.974H256.242V42H249.572Z" fill="#F1F1F1"/>
</svg>
