<svg width="350" height="51" viewBox="0 0 350 51" fill="none" xmlns="http://www.w3.org/2000/svg">
<path d="M66.0255 9.156C70.2575 9.156 73.3395 10.076 75.2715 11.916C77.2341 13.7253 78.2155 16.2247 78.2155 19.414C78.2155 20.8553 78.0008 22.2353 77.5715 23.554C77.1421 24.842 76.4215 26.0073 75.4095 27.05C74.4281 28.062 73.1248 28.8593 71.4995 29.442C69.8741 30.0247 67.8655 30.316 65.4735 30.316H62.4835V42H55.5375V9.156H66.0255ZM65.6575 14.86H62.4835V24.612H64.7835C66.1021 24.612 67.2368 24.4433 68.1875 24.106C69.1381 23.7687 69.8741 23.232 70.3955 22.496C70.9168 21.76 71.1775 20.8093 71.1775 19.644C71.1775 18.0187 70.7328 16.8227 69.8435 16.056C68.9541 15.2587 67.5588 14.86 65.6575 14.86ZM102.233 42L99.8412 34.18H87.8812L85.4892 42H77.9912L89.5832 9.018H98.0932L109.731 42H102.233ZM95.7932 20.702C95.6399 20.1807 95.4405 19.5213 95.1952 18.724C94.9499 17.9267 94.7045 17.114 94.4592 16.286C94.2139 15.458 94.0145 14.7373 93.8612 14.124C93.7079 14.7373 93.4932 15.504 93.2172 16.424C92.9719 17.3133 92.7265 18.172 92.4812 19C92.2665 19.7973 92.0979 20.3647 91.9752 20.702L89.6292 28.338H98.1852L95.7932 20.702ZM113.891 42V9.156H134.637V14.906H120.837V21.76H123.597C126.694 21.76 129.224 22.1893 131.187 23.048C133.18 23.9067 134.652 25.0873 135.603 26.59C136.554 28.0927 137.029 29.81 137.029 31.742C137.029 33.8887 136.554 35.7287 135.603 37.262C134.652 38.7953 133.18 39.976 131.187 40.804C129.194 41.6013 126.618 42 123.459 42H113.891ZM123.183 36.296C125.299 36.296 126.955 35.9587 128.151 35.284C129.378 34.6093 129.991 33.4287 129.991 31.742C129.991 30.5767 129.684 29.6873 129.071 29.074C128.488 28.4607 127.645 28.0467 126.541 27.832C125.468 27.5867 124.164 27.464 122.631 27.464H120.837V36.296H123.183ZM173.033 25.532C173.033 28.0773 172.711 30.3927 172.067 32.478C171.454 34.5327 170.503 36.3113 169.215 37.814C167.958 39.3167 166.332 40.4667 164.339 41.264C162.376 42.0613 160.061 42.46 157.393 42.46C154.725 42.46 152.394 42.0613 150.401 41.264C148.438 40.436 146.813 39.286 145.525 37.814C144.268 36.3113 143.317 34.5173 142.673 32.432C142.06 30.3467 141.753 28.0313 141.753 25.486C141.753 22.082 142.305 19.1227 143.409 16.608C144.544 14.0933 146.261 12.146 148.561 10.766C150.892 9.35533 153.851 8.65 157.439 8.65C160.996 8.65 163.925 9.35533 166.225 10.766C168.525 12.146 170.227 14.1087 171.331 16.654C172.466 19.1687 173.033 22.128 173.033 25.532ZM149.067 25.532C149.067 27.832 149.358 29.81 149.941 31.466C150.524 33.122 151.428 34.3947 152.655 35.284C153.882 36.1733 155.461 36.618 157.393 36.618C159.386 36.618 160.981 36.1733 162.177 35.284C163.404 34.3947 164.293 33.122 164.845 31.466C165.428 29.81 165.719 27.832 165.719 25.532C165.719 22.0667 165.075 19.3527 163.787 17.39C162.499 15.4273 160.383 14.446 157.439 14.446C155.476 14.446 153.882 14.8907 152.655 15.78C151.428 16.6693 150.524 17.942 149.941 19.598C149.358 21.254 149.067 23.232 149.067 25.532ZM191.094 42H184.148V14.952H175.224V9.156H200.018V14.952H191.094V42ZM221.95 42L219.558 34.18H207.598L205.206 42H197.708L209.3 9.018H217.81L229.448 42H221.95ZM215.51 20.702C215.357 20.1807 215.157 19.5213 214.912 18.724C214.667 17.9267 214.421 17.114 214.176 16.286C213.931 15.458 213.731 14.7373 213.578 14.124C213.425 14.7373 213.21 15.504 212.934 16.424C212.689 17.3133 212.443 18.172 212.198 19C211.983 19.7973 211.815 20.3647 211.692 20.702L209.346 28.338H217.902L215.51 20.702ZM252.514 42H233.608V9.156H252.514V14.86H240.554V22.082H251.686V27.786H240.554V36.25H252.514V42ZM273.24 42L265.328 16.24H265.144C265.175 16.8533 265.221 17.7733 265.282 19C265.343 20.2267 265.405 21.5453 265.466 22.956C265.527 24.336 265.558 25.5933 265.558 26.728V42H259.348V9.156H268.824L276.598 34.272H276.736L284.97 9.156H294.446V42H287.96V26.452C287.96 25.4093 287.975 24.2133 288.006 22.864C288.067 21.5147 288.113 20.242 288.144 19.046C288.205 17.8193 288.251 16.8993 288.282 16.286H288.098L279.634 42H273.24Z" fill="#F1F1F1"/>
</svg>
