<svg width="350" height="52" viewBox="0 0 350 52" fill="none" xmlns="http://www.w3.org/2000/svg">
<path d="M98.3243 9.156C102.556 9.156 105.638 10.076 107.57 11.916C109.533 13.7253 110.514 16.2247 110.514 19.414C110.514 20.8553 110.3 22.2353 109.87 23.554C109.441 24.842 108.72 26.0073 107.708 27.05C106.727 28.062 105.424 28.8593 103.798 29.442C102.173 30.0247 100.164 30.316 97.7723 30.316H94.7823V42H87.8363V9.156H98.3243ZM97.9563 14.86H94.7823V24.612H97.0823C98.401 24.612 99.5356 24.4433 100.486 24.106C101.437 23.7687 102.173 23.232 102.694 22.496C103.216 21.76 103.476 20.8093 103.476 19.644C103.476 18.0187 103.032 16.8227 102.142 16.056C101.253 15.2587 99.8576 14.86 97.9563 14.86ZM134.532 42L132.14 34.18H120.18L117.788 42H110.29L121.882 9.018H130.392L142.03 42H134.532ZM128.092 20.702C127.939 20.1807 127.739 19.5213 127.494 18.724C127.249 17.9267 127.003 17.114 126.758 16.286C126.513 15.458 126.313 14.7373 126.16 14.124C126.007 14.7373 125.792 15.504 125.516 16.424C125.271 17.3133 125.025 18.172 124.78 19C124.565 19.7973 124.397 20.3647 124.274 20.702L121.928 28.338H130.484L128.092 20.702ZM177.056 36.48V51.568H170.34V42H146.19V9.156H153.136V36.204H165.234V9.156H172.18V36.48H177.056ZM182.127 9.156H188.383V25.026C188.383 25.7927 188.368 26.6513 188.337 27.602C188.307 28.5527 188.276 29.488 188.245 30.408C188.215 31.2973 188.184 32.0793 188.153 32.754C188.123 33.398 188.092 33.8427 188.061 34.088H188.199L203.379 9.156H211.705V42H205.495V26.222C205.495 25.394 205.511 24.4893 205.541 23.508C205.572 22.496 205.603 21.53 205.633 20.61C205.695 19.69 205.741 18.8927 205.771 18.218C205.833 17.5127 205.879 17.0527 205.909 16.838H205.725L190.499 42H182.127V9.156ZM219.996 9.156H226.252V25.026C226.252 25.7927 226.237 26.6513 226.206 27.602C226.176 28.5527 226.145 29.488 226.114 30.408C226.084 31.2973 226.053 32.0793 226.022 32.754C225.992 33.398 225.961 33.8427 225.93 34.088H226.068L241.248 9.156H249.574V42H243.364V26.222C243.364 25.394 243.38 24.4893 243.41 23.508C243.441 22.496 243.472 21.53 243.502 20.61C243.564 19.69 243.61 18.8927 243.64 18.218C243.702 17.5127 243.748 17.0527 243.778 16.838H243.594L228.368 42H219.996V9.156ZM256.67 42V35.974H263.34V42H256.67Z" fill="#F1F1F1"/>
</svg>
