<svg width="350" height="52" viewBox="0 0 350 52" fill="none" xmlns="http://www.w3.org/2000/svg">
<path d="M58.4921 14.492C57.1734 14.492 55.9927 14.7527 54.9501 15.274C53.9381 15.7953 53.0794 16.5467 52.3741 17.528C51.6687 18.4787 51.1321 19.644 50.7641 21.024C50.4267 22.404 50.2581 23.9527 50.2581 25.67C50.2581 28.0007 50.5341 29.994 51.0861 31.65C51.6687 33.2753 52.5734 34.5173 53.8001 35.376C55.0267 36.2347 56.5907 36.664 58.4921 36.664C59.8414 36.664 61.1754 36.5107 62.4941 36.204C63.8434 35.8973 65.3001 35.468 66.8641 34.916V40.758C65.4227 41.3407 63.9967 41.77 62.5861 42.046C61.1754 42.322 59.5961 42.46 57.8481 42.46C54.4747 42.46 51.6841 41.77 49.4761 40.39C47.2987 38.9793 45.6887 37.0167 44.6461 34.502C43.6034 31.9567 43.0821 28.9973 43.0821 25.624C43.0821 23.14 43.4194 20.8707 44.0941 18.816C44.7687 16.7307 45.7501 14.9367 47.0381 13.434C48.3567 11.9313 49.9667 10.766 51.8681 9.938C53.8001 9.11 56.0081 8.696 58.4921 8.696C60.1174 8.696 61.7427 8.91066 63.3681 9.34C65.0241 9.73867 66.6034 10.2907 68.1061 10.996L65.8521 16.654C64.6254 16.0713 63.3834 15.5653 62.1261 15.136C60.8994 14.7067 59.6881 14.492 58.4921 14.492ZM102.753 25.532C102.753 28.0773 102.431 30.3927 101.787 32.478C101.173 34.5327 100.223 36.3113 98.9347 37.814C97.6774 39.3167 96.052 40.4667 94.0587 41.264C92.096 42.0613 89.7807 42.46 87.1127 42.46C84.4447 42.46 82.114 42.0613 80.1207 41.264C78.158 40.436 76.5327 39.286 75.2447 37.814C73.9874 36.3113 73.0367 34.5173 72.3927 32.432C71.7794 30.3467 71.4727 28.0313 71.4727 25.486C71.4727 22.082 72.0247 19.1227 73.1287 16.608C74.2634 14.0933 75.9807 12.146 78.2807 10.766C80.6114 9.35533 83.5707 8.65 87.1587 8.65C90.716 8.65 93.6447 9.35533 95.9447 10.766C98.2447 12.146 99.9467 14.1087 101.051 16.654C102.185 19.1687 102.753 22.128 102.753 25.532ZM78.7867 25.532C78.7867 27.832 79.078 29.81 79.6607 31.466C80.2434 33.122 81.148 34.3947 82.3747 35.284C83.6014 36.1733 85.1807 36.618 87.1127 36.618C89.106 36.618 90.7007 36.1733 91.8967 35.284C93.1234 34.3947 94.0127 33.122 94.5647 31.466C95.1474 29.81 95.4387 27.832 95.4387 25.532C95.4387 22.0667 94.7947 19.3527 93.5067 17.39C92.2187 15.4273 90.1027 14.446 87.1587 14.446C85.196 14.446 83.6014 14.8907 82.3747 15.78C81.148 16.6693 80.2434 17.942 79.6607 19.598C79.078 21.254 78.7867 23.232 78.7867 25.532ZM140.422 36.48V51.568H133.706V42H109.556V9.156H116.502V36.204H128.6V9.156H135.546V36.48H140.422ZM159.432 14.492C158.113 14.492 156.932 14.7527 155.89 15.274C154.878 15.7953 154.019 16.5467 153.314 17.528C152.608 18.4787 152.072 19.644 151.704 21.024C151.366 22.404 151.198 23.9527 151.198 25.67C151.198 28.0007 151.474 29.994 152.026 31.65C152.608 33.2753 153.513 34.5173 154.74 35.376C155.966 36.2347 157.53 36.664 159.432 36.664C160.781 36.664 162.115 36.5107 163.434 36.204C164.783 35.8973 166.24 35.468 167.804 34.916V40.758C166.362 41.3407 164.936 41.77 163.526 42.046C162.115 42.322 160.536 42.46 158.788 42.46C155.414 42.46 152.624 41.77 150.416 40.39C148.238 38.9793 146.628 37.0167 145.586 34.502C144.543 31.9567 144.022 28.9973 144.022 25.624C144.022 23.14 144.359 20.8707 145.034 18.816C145.708 16.7307 146.69 14.9367 147.978 13.434C149.296 11.9313 150.906 10.766 152.808 9.938C154.74 9.11 156.948 8.696 159.432 8.696C161.057 8.696 162.682 8.91066 164.308 9.34C165.964 9.73867 167.543 10.2907 169.046 10.996L166.792 16.654C165.565 16.0713 164.323 15.5653 163.066 15.136C161.839 14.7067 160.628 14.492 159.432 14.492ZM193.689 42H174.783V9.156H193.689V14.86H181.729V22.082H192.861V27.786H181.729V36.25H193.689V42ZM213.173 42H206.227V14.952H197.303V9.156H222.097V14.952H213.173V42ZM238.201 29.396L230.519 42H222.791L232.129 27.556C231.24 27.188 230.351 26.6513 229.461 25.946C228.572 25.21 227.836 24.244 227.253 23.048C226.671 21.8213 226.379 20.3187 226.379 18.54C226.379 15.504 227.468 13.1887 229.645 11.594C231.823 9.96867 234.874 9.156 238.799 9.156H249.471V42H242.525V29.396H238.201ZM239.075 14.86C237.879 14.86 236.852 14.998 235.993 15.274C235.165 15.55 234.521 15.9947 234.061 16.608C233.632 17.2213 233.417 18.034 233.417 19.046C233.417 20.4873 233.893 21.6373 234.843 22.496C235.825 23.324 237.297 23.738 239.259 23.738H242.525V14.86H239.075ZM271.645 42L263.733 16.24H263.549C263.58 16.8533 263.626 17.7733 263.687 19C263.749 20.2267 263.81 21.5453 263.871 22.956C263.933 24.336 263.963 25.5933 263.963 26.728V42H257.753V9.156H267.229L275.003 34.272H275.141L283.375 9.156H292.851V42H286.365V26.452C286.365 25.4093 286.381 24.2133 286.411 22.864C286.473 21.5147 286.519 20.242 286.549 19.046C286.611 17.8193 286.657 16.8993 286.687 16.286H286.503L278.039 42H271.645ZM299.952 42V35.974H306.622V42H299.952Z" fill="#F1F1F1"/>
</svg>
