<svg width="350" height="51" viewBox="0 0 350 51" fill="none" xmlns="http://www.w3.org/2000/svg">
<path d="M51.5516 14.492C50.233 14.492 49.0523 14.7527 48.0096 15.274C46.9976 15.7953 46.139 16.5467 45.4336 17.528C44.7283 18.4787 44.1916 19.644 43.8236 21.024C43.4863 22.404 43.3176 23.9527 43.3176 25.67C43.3176 28.0007 43.5936 29.994 44.1456 31.65C44.7283 33.2753 45.633 34.5173 46.8596 35.376C48.0863 36.2347 49.6503 36.664 51.5516 36.664C52.901 36.664 54.235 36.5107 55.5536 36.204C56.903 35.8973 58.3596 35.468 59.9236 34.916V40.758C58.4823 41.3407 57.0563 41.77 55.6456 42.046C54.235 42.322 52.6556 42.46 50.9076 42.46C47.5343 42.46 44.7436 41.77 42.5356 40.39C40.3583 38.9793 38.7483 37.0167 37.7056 34.502C36.663 31.9567 36.1416 28.9973 36.1416 25.624C36.1416 23.14 36.479 20.8707 37.1536 18.816C37.8283 16.7307 38.8096 14.9367 40.0976 13.434C41.4163 11.9313 43.0263 10.766 44.9276 9.938C46.8596 9.11 49.0676 8.696 51.5516 8.696C53.177 8.696 54.8023 8.91066 56.4276 9.34C58.0836 9.73867 59.663 10.2907 61.1656 10.996L58.9116 16.654C57.685 16.0713 56.443 15.5653 55.1856 15.136C53.959 14.7067 52.7476 14.492 51.5516 14.492ZM77.1147 9.156C80.028 9.156 82.466 9.432 84.4287 9.984C86.422 10.5053 87.9094 11.3793 88.8907 12.606C89.9027 13.802 90.4087 15.4273 90.4087 17.482C90.4087 18.7087 90.2094 19.828 89.8107 20.84C89.412 21.852 88.8294 22.68 88.0627 23.324C87.3267 23.968 86.422 24.382 85.3487 24.566V24.796C86.4527 25.0107 87.4494 25.394 88.3387 25.946C89.228 26.498 89.9334 27.2953 90.4547 28.338C90.976 29.3807 91.2367 30.7607 91.2367 32.478C91.2367 34.4713 90.746 36.1887 89.7647 37.63C88.814 39.0407 87.434 40.1293 85.6247 40.896C83.8154 41.632 81.6687 42 79.1847 42H66.9027V9.156H77.1147ZM77.8967 22.174C79.9207 22.174 81.316 21.852 82.0827 21.208C82.88 20.564 83.2787 19.6287 83.2787 18.402C83.2787 17.1447 82.8187 16.24 81.8987 15.688C80.9787 15.136 79.522 14.86 77.5287 14.86H73.8487V22.174H77.8967ZM73.8487 27.694V36.25H78.4027C80.488 36.25 81.9447 35.8513 82.7727 35.054C83.6007 34.226 84.0147 33.1373 84.0147 31.788C84.0147 30.96 83.8307 30.2393 83.4627 29.626C83.1254 29.0127 82.5274 28.5373 81.6687 28.2C80.81 27.8627 79.6447 27.694 78.1727 27.694H73.8487ZM108.849 29.396L101.167 42H93.4389L102.777 27.556C101.888 27.188 100.998 26.6513 100.109 25.946C99.2196 25.21 98.4836 24.244 97.9009 23.048C97.3183 21.8213 97.0269 20.3187 97.0269 18.54C97.0269 15.504 98.1156 13.1887 100.293 11.594C102.47 9.96867 105.522 9.156 109.447 9.156H120.119V42H113.173V29.396H108.849ZM109.723 14.86C108.527 14.86 107.5 14.998 106.641 15.274C105.813 15.55 105.169 15.9947 104.709 16.608C104.28 17.2213 104.065 18.034 104.065 19.046C104.065 20.4873 104.54 21.6373 105.491 22.496C106.472 23.324 107.944 23.738 109.907 23.738H113.173V14.86H109.723ZM135.945 24.934L124.905 9.156H132.081L142.707 25.072V9.156H149.193V25.072L159.819 9.156H166.995L155.955 24.934L167.639 42H160.187L149.193 25.348V42H142.707V25.348L131.713 42H124.261L135.945 24.934ZM171.795 9.156H178.051V25.026C178.051 25.7927 178.036 26.6513 178.005 27.602C177.975 28.5527 177.944 29.488 177.913 30.408C177.883 31.2973 177.852 32.0793 177.821 32.754C177.791 33.398 177.76 33.8427 177.729 34.088H177.867L193.047 9.156H201.373V42H195.163V26.222C195.163 25.394 195.179 24.4893 195.209 23.508C195.24 22.496 195.271 21.53 195.301 20.61C195.363 19.69 195.409 18.8927 195.439 18.218C195.501 17.5127 195.547 17.0527 195.577 16.838H195.393L180.167 42H171.795V9.156ZM222.314 42H215.368V14.952H206.444V9.156H231.238V14.952H222.314V42ZM255.209 42H236.303V9.156H255.209V14.86H243.249V22.082H254.381V27.786H243.249V36.25H255.209V42ZM275.981 14.492C274.663 14.492 273.482 14.7527 272.439 15.274C271.427 15.7953 270.569 16.5467 269.863 17.528C269.158 18.4787 268.621 19.644 268.253 21.024C267.916 22.404 267.747 23.9527 267.747 25.67C267.747 28.0007 268.023 29.994 268.575 31.65C269.158 33.2753 270.063 34.5173 271.289 35.376C272.516 36.2347 274.08 36.664 275.981 36.664C277.331 36.664 278.665 36.5107 279.983 36.204C281.333 35.8973 282.789 35.468 284.353 34.916V40.758C282.912 41.3407 281.486 41.77 280.075 42.046C278.665 42.322 277.085 42.46 275.337 42.46C271.964 42.46 269.173 41.77 266.965 40.39C264.788 38.9793 263.178 37.0167 262.135 34.502C261.093 31.9567 260.571 28.9973 260.571 25.624C260.571 23.14 260.909 20.8707 261.583 18.816C262.258 16.7307 263.239 14.9367 264.527 13.434C265.846 11.9313 267.456 10.766 269.357 9.938C271.289 9.11 273.497 8.696 275.981 8.696C277.607 8.696 279.232 8.91066 280.857 9.34C282.513 9.73867 284.093 10.2907 285.595 10.996L283.341 16.654C282.115 16.0713 280.873 15.5653 279.615 15.136C278.389 14.7067 277.177 14.492 275.981 14.492ZM291.332 42V9.156H298.278V21.76H301.038C304.136 21.76 306.666 22.1893 308.628 23.048C310.622 23.9067 312.094 25.0873 313.044 26.59C313.995 28.0927 314.47 29.81 314.47 31.742C314.47 33.8887 313.995 35.7287 313.044 37.262C312.094 38.7953 310.622 39.976 308.628 40.804C306.635 41.6013 304.059 42 300.9 42H291.332ZM300.624 36.296C302.74 36.296 304.396 35.9587 305.592 35.284C306.819 34.6093 307.432 33.4287 307.432 31.742C307.432 30.5767 307.126 29.6873 306.512 29.074C305.93 28.4607 305.086 28.0467 303.982 27.832C302.909 27.5867 301.606 27.464 300.072 27.464H298.278V36.296H300.624Z" fill="#F1F1F1"/>
</svg>
