<svg width="350" height="51" viewBox="0 0 350 51" fill="none" xmlns="http://www.w3.org/2000/svg">
<path d="M58.372 42H51.426V14.952H42.502V9.156H67.296V14.952H58.372V42ZM91.2667 42H72.3607V9.156H91.2667V14.86H79.3067V22.082H90.4387V27.786H79.3067V36.25H91.2667V42ZM124.091 42H117.145V14.952H109.095C108.911 16.3627 108.712 17.896 108.497 19.552C108.313 21.208 108.098 22.8947 107.853 24.612C107.638 26.2987 107.408 27.9087 107.163 29.442C106.918 30.9447 106.672 32.2787 106.427 33.444C106.028 35.3453 105.492 36.9707 104.817 38.32C104.173 39.6693 103.268 40.6967 102.103 41.402C100.968 42.1073 99.4809 42.46 97.6409 42.46C97.0276 42.46 96.4449 42.414 95.8929 42.322C95.3409 42.23 94.8196 42.1073 94.3289 41.954V36.25C94.7276 36.3727 95.1109 36.48 95.4789 36.572C95.8776 36.664 96.3069 36.71 96.7669 36.71C97.3803 36.71 97.8863 36.5107 98.2849 36.112C98.6836 35.7133 99.0363 35.0387 99.3429 34.088C99.6496 33.1067 99.9563 31.7573 100.263 30.04C100.416 29.304 100.6 28.2613 100.815 26.912C101.03 25.532 101.275 23.922 101.551 22.082C101.858 20.2113 102.164 18.1873 102.471 16.01C102.778 13.802 103.069 11.5173 103.345 9.156H124.091V42ZM151.282 42H132.376V9.156H151.282V14.86H139.322V22.082H150.454V27.786H139.322V36.25H151.282V42ZM176.885 8.696V12.744C180.473 12.836 183.325 13.4647 185.441 14.63C187.587 15.7647 189.121 17.2367 190.041 19.046C190.991 20.8553 191.467 22.8333 191.467 24.98C191.467 26.36 191.221 27.7707 190.731 29.212C190.271 30.6533 189.473 31.9873 188.339 33.214C187.235 34.41 185.747 35.3913 183.877 36.158C182.006 36.9247 179.675 37.3387 176.885 37.4V42.46H170.629V37.4C167.807 37.3387 165.446 36.9247 163.545 36.158C161.674 35.3913 160.187 34.3947 159.083 33.168C157.979 31.9413 157.197 30.6227 156.737 29.212C156.277 27.7707 156.047 26.36 156.047 24.98C156.047 23.3853 156.307 21.8673 156.829 20.426C157.35 18.9847 158.178 17.6967 159.313 16.562C160.447 15.4273 161.95 14.5227 163.821 13.848C165.691 13.1733 167.961 12.8053 170.629 12.744V8.696H176.885ZM170.629 18.172C168.635 18.264 167.041 18.6167 165.845 19.23C164.679 19.8127 163.836 20.5947 163.315 21.576C162.824 22.5573 162.579 23.6767 162.579 24.934C162.579 26.314 162.855 27.5253 163.407 28.568C163.989 29.58 164.863 30.3927 166.029 31.006C167.225 31.5887 168.758 31.926 170.629 32.018V18.172ZM176.885 32.018C178.755 31.926 180.273 31.5887 181.439 31.006C182.635 30.3927 183.509 29.58 184.061 28.568C184.643 27.5253 184.935 26.314 184.935 24.934C184.935 23.6767 184.674 22.5573 184.153 21.576C183.662 20.5947 182.819 19.8127 181.623 19.23C180.457 18.6167 178.878 18.264 176.885 18.172V32.018ZM227.501 25.532C227.501 28.0773 227.179 30.3927 226.535 32.478C225.921 34.5327 224.971 36.3113 223.683 37.814C222.425 39.3167 220.8 40.4667 218.807 41.264C216.844 42.0613 214.529 42.46 211.861 42.46C209.193 42.46 206.862 42.0613 204.869 41.264C202.906 40.436 201.281 39.286 199.993 37.814C198.735 36.3113 197.785 34.5173 197.141 32.432C196.527 30.3467 196.221 28.0313 196.221 25.486C196.221 22.082 196.773 19.1227 197.877 16.608C199.011 14.0933 200.729 12.146 203.029 10.766C205.359 9.35533 208.319 8.65 211.907 8.65C215.464 8.65 218.393 9.35533 220.693 10.766C222.993 12.146 224.695 14.1087 225.799 16.654C226.933 19.1687 227.501 22.128 227.501 25.532ZM203.535 25.532C203.535 27.832 203.826 29.81 204.409 31.466C204.991 33.122 205.896 34.3947 207.123 35.284C208.349 36.1733 209.929 36.618 211.861 36.618C213.854 36.618 215.449 36.1733 216.645 35.284C217.871 34.3947 218.761 33.122 219.313 31.466C219.895 29.81 220.187 27.832 220.187 25.532C220.187 22.0667 219.543 19.3527 218.255 17.39C216.967 15.4273 214.851 14.446 211.907 14.446C209.944 14.446 208.349 14.8907 207.123 15.78C205.896 16.6693 204.991 17.942 204.409 19.598C203.826 21.254 203.535 23.232 203.535 25.532ZM261.214 42H254.268V27.832H241.25V42H234.304V9.156H241.25V22.036H254.268V9.156H261.214V42ZM285.67 32.386C284.75 34.4713 283.769 36.2807 282.726 37.814C281.714 39.3167 280.411 40.4667 278.816 41.264C277.221 42.0613 275.136 42.46 272.56 42.46C271.763 42.46 270.889 42.3987 269.938 42.276C268.987 42.1533 268.113 41.9847 267.316 41.77V35.79C268.052 36.0967 268.865 36.3113 269.754 36.434C270.643 36.5567 271.471 36.618 272.238 36.618C273.25 36.618 274.063 36.4493 274.676 36.112C275.32 35.7747 275.826 35.3147 276.194 34.732C276.593 34.1187 276.915 33.4593 277.16 32.754L265.798 9.156H273.158L279.276 23.37C279.429 23.6767 279.613 24.0753 279.828 24.566C280.043 25.0567 280.257 25.5627 280.472 26.084C280.687 26.6053 280.855 27.0653 280.978 27.464H281.208C281.331 27.096 281.484 26.6513 281.668 26.13C281.883 25.578 282.097 25.026 282.312 24.474C282.557 23.8913 282.772 23.3853 282.956 22.956L288.66 9.156H295.836L285.67 32.386ZM298.784 42V35.974H305.454V42H298.784Z" fill="#F1F1F1"/>
</svg>
