<svg width="350" height="51" viewBox="0 0 350 51" fill="none" xmlns="http://www.w3.org/2000/svg">
<path d="M89.3958 42.368C87.1571 42.368 85.2865 42.23 83.7838 41.954C82.2811 41.678 81.0698 41.2333 80.1498 40.62C79.2298 40.0067 78.5245 39.148 78.0338 38.044C77.5738 36.94 77.2518 35.56 77.0678 33.904C76.9145 32.2173 76.8378 30.2087 76.8378 27.878V10.352H83.3698V29.534C83.3698 31.1593 83.4158 32.478 83.5078 33.49C83.6305 34.4713 83.8605 35.2227 84.1978 35.744C84.5658 36.2653 85.1638 36.618 85.9918 36.802C86.8198 36.9553 87.9545 37.032 89.3958 37.032C90.8371 37.032 91.9565 36.9553 92.7538 36.802C93.5818 36.618 94.1798 36.2653 94.5478 35.744C94.9158 35.2227 95.1458 34.4713 95.2378 33.49C95.3298 32.478 95.3758 31.1593 95.3758 29.534V10.352H101.908V27.878C101.908 30.2087 101.816 32.2173 101.632 33.904C101.478 35.56 101.172 36.94 100.712 38.044C100.252 39.148 99.5618 40.0067 98.6418 40.62C97.7218 41.2333 96.5105 41.678 95.0078 41.954C93.5051 42.23 91.6345 42.368 89.3958 42.368ZM109.233 42V10.352H115.995L128.461 29.856H128.691V10.352H134.947V42H128.737L115.719 21.438H115.489V42H109.233ZM150.758 42L161.476 10.352H170.216L180.934 42H174.264L171.918 35.008H159.544L157.29 42H150.758ZM161.2 29.718H170.216L165.846 16.286H165.57L161.2 29.718ZM185.376 42V10.352H200.05C202.012 10.352 203.607 10.5973 204.834 11.088C206.091 11.5787 207.057 12.284 207.732 13.204C208.406 14.0933 208.866 15.182 209.112 16.47C209.388 17.758 209.526 19.2147 209.526 20.84C209.526 22.3427 209.403 23.738 209.158 25.026C208.943 26.2833 208.498 27.3873 207.824 28.338C207.149 29.2887 206.168 30.0247 204.88 30.546C203.622 31.0673 201.951 31.328 199.866 31.328H191.908V42H185.376ZM191.908 25.992H197.29C198.608 25.992 199.651 25.9307 200.418 25.808C201.184 25.6547 201.752 25.394 202.12 25.026C202.488 24.658 202.718 24.1367 202.81 23.462C202.932 22.7873 202.994 21.9133 202.994 20.84C202.994 19.7667 202.932 18.8927 202.81 18.218C202.718 17.5433 202.488 17.022 202.12 16.654C201.782 16.2553 201.246 15.9947 200.51 15.872C199.774 15.7187 198.762 15.642 197.474 15.642H191.908V25.992ZM215.159 42V10.352H236.779V15.688H221.691V23.37H234.617V28.706H221.691V36.664H236.779V42H215.159ZM243.1 42V10.352H249.632V36.48H262.88V42H243.1ZM267.024 42V35.974H273.694V42H267.024Z" fill="#F1F1F1"/>
</svg>
