<svg width="350" height="51" viewBox="0 0 350 51" fill="none" xmlns="http://www.w3.org/2000/svg">
<path d="M76.5706 42.368C74.3319 42.368 72.4613 42.23 70.9586 41.954C69.4559 41.678 68.2446 41.2333 67.3246 40.62C66.4046 40.0067 65.6993 39.148 65.2086 38.044C64.7486 36.94 64.4266 35.56 64.2426 33.904C64.0893 32.2173 64.0126 30.2087 64.0126 27.878V10.352H70.5446V29.534C70.5446 31.1593 70.5906 32.478 70.6826 33.49C70.8053 34.4713 71.0353 35.2227 71.3726 35.744C71.7406 36.2653 72.3386 36.618 73.1666 36.802C73.9946 36.9553 75.1293 37.032 76.5706 37.032C78.0119 37.032 79.1313 36.9553 79.9286 36.802C80.7566 36.618 81.3546 36.2653 81.7226 35.744C82.0906 35.2227 82.3206 34.4713 82.4126 33.49C82.5046 32.478 82.5506 31.1593 82.5506 29.534V10.352H89.0826V27.878C89.0826 30.2087 88.9906 32.2173 88.8066 33.904C88.6533 35.56 88.3466 36.94 87.8866 38.044C87.4266 39.148 86.7366 40.0067 85.8166 40.62C84.8966 41.2333 83.6853 41.678 82.1826 41.954C80.6799 42.23 78.8093 42.368 76.5706 42.368ZM96.4077 42V10.352H103.17L115.636 29.856H115.866V10.352H122.122V42H115.912L102.894 21.438H102.664V42H96.4077ZM141.015 42V10.352H162.635V15.688H147.547V23.37H160.473V28.706H147.547V36.664H162.635V42H141.015ZM168.957 42V10.352H177.927L185.747 31.236H186.023L193.797 10.352H202.721V42H196.419V19.966H196.189L188.001 42H183.493L175.305 19.966H175.075V42H168.957ZM207.248 42L217.966 10.352H226.706L237.424 42H230.754L228.408 35.008H216.034L213.78 42H207.248ZM217.69 29.718H226.706L222.336 16.286H222.06L217.69 29.718ZM241.865 42V10.352H248.397V42H241.865ZM255.925 42V10.352H262.457V36.48H275.705V42H255.925ZM279.849 42V35.974H286.519V42H279.849Z" fill="#F1F1F1"/>
</svg>
