<svg width="350" height="51" viewBox="0 0 350 51" fill="none" xmlns="http://www.w3.org/2000/svg">
<path d="M72.7747 42.368C70.536 42.368 68.6654 42.23 67.1627 41.954C65.66 41.678 64.4487 41.2333 63.5287 40.62C62.6087 40.0067 61.9034 39.148 61.4127 38.044C60.9527 36.94 60.6307 35.56 60.4467 33.904C60.2934 32.2173 60.2167 30.2087 60.2167 27.878V10.352H66.7487V29.534C66.7487 31.1593 66.7947 32.478 66.8867 33.49C67.0094 34.4713 67.2394 35.2227 67.5767 35.744C67.9447 36.2653 68.5427 36.618 69.3707 36.802C70.1987 36.9553 71.3334 37.032 72.7747 37.032C74.216 37.032 75.3354 36.9553 76.1327 36.802C76.9607 36.618 77.5587 36.2653 77.9267 35.744C78.2947 35.2227 78.5247 34.4713 78.6167 33.49C78.7087 32.478 78.7547 31.1593 78.7547 29.534V10.352H85.2867V27.878C85.2867 30.2087 85.1947 32.2173 85.0107 33.904C84.8574 35.56 84.5507 36.94 84.0907 38.044C83.6307 39.148 82.9407 40.0067 82.0207 40.62C81.1007 41.2333 79.8894 41.678 78.3867 41.954C76.884 42.23 75.0134 42.368 72.7747 42.368ZM92.6118 42V10.352H99.3738L111.84 29.856H112.07V10.352H118.326V42H112.116L99.0978 21.438H98.8678V42H92.6118ZM137.219 42V10.352H146.189L154.009 31.236H154.285L162.059 10.352H170.983V42H164.681V19.966H164.451L156.263 42H151.755L143.567 19.966H143.337V42H137.219ZM178.592 42V10.352H200.212V15.688H185.124V23.37H198.05V28.706H185.124V36.664H200.212V42H178.592ZM217.666 42.368C216.5 42.368 215.212 42.3373 213.802 42.276C212.422 42.2147 211.072 42.1227 209.754 42C208.435 41.908 207.224 41.8007 206.12 41.678V36.48C207.254 36.572 208.404 36.664 209.57 36.756C210.766 36.848 211.9 36.9247 212.974 36.986C214.047 37.0167 214.967 37.032 215.734 37.032C217.298 37.032 218.509 36.9707 219.368 36.848C220.226 36.6947 220.87 36.48 221.3 36.204C221.637 35.9587 221.867 35.698 221.99 35.422C222.112 35.1153 222.189 34.7627 222.22 34.364C222.25 33.9347 222.266 33.4593 222.266 32.938C222.266 32.2327 222.22 31.65 222.128 31.19C222.066 30.73 221.944 30.3773 221.76 30.132C221.576 29.856 221.269 29.6567 220.84 29.534C220.441 29.4113 219.92 29.3193 219.276 29.258L212.192 28.384C210.781 28.2 209.616 27.878 208.696 27.418C207.806 26.958 207.101 26.3447 206.58 25.578C206.058 24.8113 205.69 23.9067 205.476 22.864C205.292 21.8213 205.2 20.6407 205.2 19.322C205.2 17.2367 205.491 15.5807 206.074 14.354C206.656 13.1273 207.469 12.192 208.512 11.548C209.585 10.904 210.842 10.49 212.284 10.306C213.725 10.0913 215.289 9.984 216.976 9.984C218.202 9.984 219.46 10.03 220.748 10.122C222.036 10.1833 223.247 10.2753 224.382 10.398C225.516 10.5207 226.467 10.674 227.234 10.858V15.918C226.467 15.7953 225.578 15.688 224.566 15.596C223.554 15.504 222.496 15.4427 221.392 15.412C220.288 15.3507 219.245 15.32 218.264 15.32C216.822 15.32 215.672 15.3813 214.814 15.504C213.986 15.596 213.342 15.7647 212.882 16.01C212.36 16.3167 212.038 16.7153 211.916 17.206C211.824 17.6967 211.778 18.31 211.778 19.046C211.778 19.966 211.839 20.6713 211.962 21.162C212.084 21.622 212.376 21.944 212.836 22.128C213.296 22.312 214.016 22.4653 214.998 22.588L222.082 23.416C222.94 23.508 223.738 23.6613 224.474 23.876C225.21 24.0907 225.869 24.428 226.452 24.888C227.034 25.348 227.51 25.992 227.878 26.82C228.092 27.2493 228.261 27.7553 228.384 28.338C228.506 28.89 228.598 29.5187 228.66 30.224C228.752 30.9293 228.798 31.7113 228.798 32.57C228.798 34.3487 228.614 35.836 228.246 37.032C227.908 38.228 227.418 39.1787 226.774 39.884C226.13 40.5893 225.332 41.126 224.382 41.494C223.462 41.862 222.434 42.092 221.3 42.184C220.165 42.3067 218.954 42.368 217.666 42.368ZM231.977 42L242.695 10.352H251.435L262.153 42H255.483L253.137 35.008H240.763L238.509 42H231.977ZM242.419 29.718H251.435L247.065 16.286H246.789L242.419 29.718ZM264.064 42V36.986C265.69 36.9553 266.947 36.8787 267.836 36.756C268.726 36.6027 269.354 36.3113 269.722 35.882C270.121 35.4527 270.366 34.778 270.458 33.858C270.55 32.9073 270.596 31.6347 270.596 30.04V10.352H277.128V28.292C277.128 30.9293 277.067 33.1067 276.944 34.824C276.822 36.5107 276.546 37.8447 276.116 38.826C275.687 39.8073 274.997 40.528 274.046 40.988C273.126 41.4173 271.854 41.6933 270.228 41.816C268.634 41.9387 266.579 42 264.064 42ZM283.645 42V35.974H290.315V42H283.645Z" fill="#F1F1F1"/>
</svg>
