<svg width="350" height="51" viewBox="0 0 350 51" fill="none" xmlns="http://www.w3.org/2000/svg">
<path d="M86.7504 9.156C89.6638 9.156 92.1018 9.432 94.0644 9.984C96.0578 10.5053 97.5451 11.3793 98.5264 12.606C99.5384 13.802 100.044 15.4273 100.044 17.482C100.044 18.7087 99.8451 19.828 99.4464 20.84C99.0478 21.852 98.4651 22.68 97.6984 23.324C96.9624 23.968 96.0578 24.382 94.9844 24.566V24.796C96.0884 25.0107 97.0851 25.394 97.9744 25.946C98.8638 26.498 99.5691 27.2953 100.09 28.338C100.612 29.3807 100.872 30.7607 100.872 32.478C100.872 34.4713 100.382 36.1887 99.4004 37.63C98.4498 39.0407 97.0698 40.1293 95.2604 40.896C93.4511 41.632 91.3044 42 88.8204 42H76.5384V9.156H86.7504ZM87.5324 22.174C89.5564 22.174 90.9518 21.852 91.7184 21.208C92.5158 20.564 92.9144 19.6287 92.9144 18.402C92.9144 17.1447 92.4544 16.24 91.5344 15.688C90.6144 15.136 89.1578 14.86 87.1644 14.86H83.4844V22.174H87.5324ZM83.4844 27.694V36.25H88.0384C90.1238 36.25 91.5804 35.8513 92.4084 35.054C93.2364 34.226 93.6504 33.1373 93.6504 31.788C93.6504 30.96 93.4664 30.2393 93.0984 29.626C92.7611 29.0127 92.1631 28.5373 91.3044 28.2C90.4458 27.8627 89.2804 27.694 87.8084 27.694H83.4844ZM121.337 42L113.425 16.24H113.241C113.271 16.8533 113.317 17.7733 113.379 19C113.44 20.2267 113.501 21.5453 113.563 22.956C113.624 24.336 113.655 25.5933 113.655 26.728V42H107.445V9.156H116.921L124.695 34.272H124.833L133.067 9.156H142.543V42H136.057V26.452C136.057 25.4093 136.072 24.2133 136.103 22.864C136.164 21.5147 136.21 20.242 136.241 19.046C136.302 17.8193 136.348 16.8993 136.379 16.286H136.195L127.731 42H121.337ZM169.745 42H150.839V9.156H169.745V14.86H157.785V22.082H168.917V27.786H157.785V36.25H169.745V42ZM190.517 14.492C189.199 14.492 188.018 14.7527 186.975 15.274C185.963 15.7953 185.105 16.5467 184.399 17.528C183.694 18.4787 183.157 19.644 182.789 21.024C182.452 22.404 182.283 23.9527 182.283 25.67C182.283 28.0007 182.559 29.994 183.111 31.65C183.694 33.2753 184.599 34.5173 185.825 35.376C187.052 36.2347 188.616 36.664 190.517 36.664C191.867 36.664 193.201 36.5107 194.519 36.204C195.869 35.8973 197.325 35.468 198.889 34.916V40.758C197.448 41.3407 196.022 41.77 194.611 42.046C193.201 42.322 191.621 42.46 189.873 42.46C186.5 42.46 183.709 41.77 181.501 40.39C179.324 38.9793 177.714 37.0167 176.671 34.502C175.629 31.9567 175.107 28.9973 175.107 25.624C175.107 23.14 175.445 20.8707 176.119 18.816C176.794 16.7307 177.775 14.9367 179.063 13.434C180.382 11.9313 181.992 10.766 183.893 9.938C185.825 9.11 188.033 8.696 190.517 8.696C192.143 8.696 193.768 8.91066 195.393 9.34C197.049 9.73867 198.629 10.2907 200.131 10.996L197.877 16.654C196.651 16.0713 195.409 15.5653 194.151 15.136C192.925 14.7067 191.713 14.492 190.517 14.492ZM218.519 42H211.573V14.952H202.649V9.156H227.443V14.952H218.519V42ZM251.413 42H232.507V9.156H251.413V14.86H239.453V22.082H250.585V27.786H239.453V36.25H251.413V42ZM260.685 31.788V28.476C260.685 27.3107 260.793 26.3907 261.007 25.716C261.253 25.0413 261.605 24.52 262.065 24.152C262.525 23.784 263.093 23.4927 263.767 23.278L265.561 22.68C266.359 22.3733 266.941 22.1127 267.309 21.898C267.708 21.6527 267.969 21.2847 268.091 20.794C268.245 20.3033 268.321 19.5827 268.321 18.632C268.321 17.5587 268.153 16.792 267.815 16.332C267.478 15.8413 266.926 15.55 266.159 15.458C265.393 15.366 264.335 15.32 262.985 15.32C262.525 15.32 261.989 15.3353 261.375 15.366C260.762 15.3967 260.118 15.4427 259.443 15.504C258.799 15.5347 258.155 15.5807 257.511 15.642C256.898 15.7033 256.331 15.7647 255.809 15.826V10.766C256.699 10.6127 257.695 10.4747 258.799 10.352C259.903 10.2293 261.007 10.1373 262.111 10.076C263.246 10.0147 264.289 9.984 265.239 9.984C266.926 9.984 268.367 10.1373 269.563 10.444C270.79 10.7507 271.787 11.2567 272.553 11.962C273.32 12.6367 273.887 13.526 274.255 14.63C274.623 15.7033 274.807 17.0373 274.807 18.632C274.807 19.7053 274.715 20.6407 274.531 21.438C274.378 22.2353 274.133 22.9253 273.795 23.508C273.489 24.06 273.09 24.52 272.599 24.888C272.139 25.256 271.603 25.5473 270.989 25.762L268.965 26.406C268.352 26.6207 267.846 26.8047 267.447 26.958C267.079 27.1113 266.803 27.2953 266.619 27.51C266.466 27.7247 266.359 28.0313 266.297 28.43C266.236 28.798 266.205 29.304 266.205 29.948V31.788H260.685ZM260.133 42V35.974H266.803V42H260.133Z" fill="#F1F1F1"/>
</svg>
