<svg width="340" height="51" viewBox="0 0 340 51" fill="none" xmlns="http://www.w3.org/2000/svg">
<path d="M51.1128 42V10.352H65.7868C67.7495 10.352 69.3442 10.5973 70.5708 11.088C71.8282 11.5787 72.7942 12.284 73.4688 13.204C74.1435 14.0933 74.6035 15.182 74.8488 16.47C75.1248 17.758 75.2628 19.2147 75.2628 20.84C75.2628 22.3427 75.1402 23.738 74.8948 25.026C74.6802 26.2833 74.2355 27.3873 73.5608 28.338C72.8862 29.2887 71.9048 30.0247 70.6168 30.546C69.3595 31.0673 67.6882 31.328 65.6028 31.328H57.6448V42H51.1128ZM57.6448 25.992H63.0268C64.3455 25.992 65.3882 25.9307 66.1548 25.808C66.9215 25.6547 67.4888 25.394 67.8568 25.026C68.2248 24.658 68.4548 24.1367 68.5468 23.462C68.6695 22.7873 68.7308 21.9133 68.7308 20.84C68.7308 19.7667 68.6695 18.8927 68.5468 18.218C68.4548 17.5433 68.2248 17.022 67.8568 16.654C67.5195 16.2553 66.9828 15.9947 66.2468 15.872C65.5108 15.7187 64.4988 15.642 63.2108 15.642H57.6448V25.992ZM80.896 42V10.352H96.03C98.0847 10.352 99.7254 10.582 100.952 11.042C102.209 11.502 103.16 12.1767 103.804 13.066C104.448 13.9247 104.877 14.9827 105.092 16.24C105.337 17.4667 105.46 18.8467 105.46 20.38C105.46 21.4533 105.368 22.6033 105.184 23.83C105 25.0567 104.586 26.1913 103.942 27.234C103.329 28.2767 102.347 29.0433 100.998 29.534L106.058 42H99.158L94.374 29.304L95.984 30.178C95.7694 30.27 95.5087 30.3313 95.202 30.362C94.926 30.3927 94.604 30.408 94.236 30.408H87.428V42H80.896ZM87.428 25.118H93.408C94.696 25.118 95.708 25.0413 96.444 24.888C97.18 24.7347 97.732 24.4893 98.1 24.152C98.468 23.784 98.698 23.3087 98.79 22.726C98.882 22.1127 98.928 21.3307 98.928 20.38C98.928 19.4293 98.882 18.6473 98.79 18.034C98.698 17.4207 98.4834 16.9453 98.146 16.608C97.8087 16.2707 97.2567 16.0253 96.49 15.872C95.754 15.7187 94.742 15.642 93.454 15.642H87.428V25.118ZM111.982 42V10.352H133.602V15.688H118.514V23.37H131.44V28.706H118.514V36.664H133.602V42H111.982ZM151.055 42.368C149.89 42.368 148.602 42.3373 147.191 42.276C145.811 42.2147 144.462 42.1227 143.143 42C141.825 41.908 140.613 41.8007 139.509 41.678V36.48C140.644 36.572 141.794 36.664 142.959 36.756C144.155 36.848 145.29 36.9247 146.363 36.986C147.437 37.0167 148.357 37.032 149.123 37.032C150.687 37.032 151.899 36.9707 152.757 36.848C153.616 36.6947 154.26 36.48 154.689 36.204C155.027 35.9587 155.257 35.698 155.379 35.422C155.502 35.1153 155.579 34.7627 155.609 34.364C155.64 33.9347 155.655 33.4593 155.655 32.938C155.655 32.2327 155.609 31.65 155.517 31.19C155.456 30.73 155.333 30.3773 155.149 30.132C154.965 29.856 154.659 29.6567 154.229 29.534C153.831 29.4113 153.309 29.3193 152.665 29.258L145.581 28.384C144.171 28.2 143.005 27.878 142.085 27.418C141.196 26.958 140.491 26.3447 139.969 25.578C139.448 24.8113 139.08 23.9067 138.865 22.864C138.681 21.8213 138.589 20.6407 138.589 19.322C138.589 17.2367 138.881 15.5807 139.463 14.354C140.046 13.1273 140.859 12.192 141.901 11.548C142.975 10.904 144.232 10.49 145.673 10.306C147.115 10.0913 148.679 9.984 150.365 9.984C151.592 9.984 152.849 10.03 154.137 10.122C155.425 10.1833 156.637 10.2753 157.771 10.398C158.906 10.5207 159.857 10.674 160.623 10.858V15.918C159.857 15.7953 158.967 15.688 157.955 15.596C156.943 15.504 155.885 15.4427 154.781 15.412C153.677 15.3507 152.635 15.32 151.653 15.32C150.212 15.32 149.062 15.3813 148.203 15.504C147.375 15.596 146.731 15.7647 146.271 16.01C145.75 16.3167 145.428 16.7153 145.305 17.206C145.213 17.6967 145.167 18.31 145.167 19.046C145.167 19.966 145.229 20.6713 145.351 21.162C145.474 21.622 145.765 21.944 146.225 22.128C146.685 22.312 147.406 22.4653 148.387 22.588L155.471 23.416C156.33 23.508 157.127 23.6613 157.863 23.876C158.599 24.0907 159.259 24.428 159.841 24.888C160.424 25.348 160.899 25.992 161.267 26.82C161.482 27.2493 161.651 27.7553 161.773 28.338C161.896 28.89 161.988 29.5187 162.049 30.224C162.141 30.9293 162.187 31.7113 162.187 32.57C162.187 34.3487 162.003 35.836 161.635 37.032C161.298 38.228 160.807 39.1787 160.163 39.884C159.519 40.5893 158.722 41.126 157.771 41.494C156.851 41.862 155.824 42.092 154.689 42.184C153.555 42.3067 152.343 42.368 151.055 42.368ZM168.449 42V10.352H190.069V15.688H174.981V23.37H187.907V28.706H174.981V36.664H190.069V42H168.449ZM196.39 42V10.352H203.152L215.618 29.856H215.848V10.352H222.104V42H215.894L202.876 21.438H202.646V42H196.39ZM241.914 42.368C239.584 42.368 237.636 42.2147 236.072 41.908C234.508 41.6013 233.236 41.08 232.254 40.344C231.273 39.608 230.522 38.6267 230 37.4C229.51 36.1733 229.172 34.64 228.988 32.8C228.804 30.96 228.712 28.752 228.712 26.176C228.712 23.6 228.804 21.392 228.988 19.552C229.172 17.712 229.51 16.1787 230 14.952C230.522 13.7253 231.273 12.744 232.254 12.008C233.236 11.272 234.508 10.7507 236.072 10.444C237.636 10.1373 239.584 9.984 241.914 9.984C242.804 9.984 243.724 10.0147 244.674 10.076C245.656 10.1373 246.591 10.2293 247.48 10.352C248.37 10.4747 249.121 10.6127 249.734 10.766V15.78C248.906 15.688 248.109 15.6113 247.342 15.55C246.576 15.458 245.855 15.3967 245.18 15.366C244.536 15.3353 243.984 15.32 243.524 15.32C241.96 15.32 240.672 15.3813 239.66 15.504C238.648 15.6267 237.836 15.8873 237.222 16.286C236.64 16.654 236.21 17.2367 235.934 18.034C235.658 18.8007 235.474 19.8433 235.382 21.162C235.29 22.4807 235.244 24.152 235.244 26.176C235.244 28.1693 235.29 29.8407 235.382 31.19C235.474 32.5087 235.658 33.5667 235.934 34.364C236.21 35.1307 236.64 35.7133 237.222 36.112C237.836 36.48 238.648 36.7253 239.66 36.848C240.672 36.9707 241.96 37.032 243.524 37.032C244.536 37.032 245.64 36.986 246.836 36.894C248.032 36.802 249.06 36.6947 249.918 36.572V41.678C249.244 41.8007 248.446 41.908 247.526 42C246.606 42.1227 245.656 42.2147 244.674 42.276C243.724 42.3373 242.804 42.368 241.914 42.368ZM255.912 42V10.352H277.532V15.688H262.444V23.37H275.37V28.706H262.444V36.664H277.532V42H255.912ZM283.025 42V35.974H289.695V42H283.025Z" fill="#F1F1F1"/>
</svg>
