<svg width="340" height="51" viewBox="0 0 340 51" fill="none" xmlns="http://www.w3.org/2000/svg">
<rect x="122" y="31" width="217" height="15" fill="#F74264"/>
<path d="M11.7868 42L4.15077 10.352H10.6828L16.2488 34.41H16.4788L22.5968 10.352H29.4048L35.6148 34.41H35.8448L41.0428 10.352H47.5748L39.8928 42H31.7508L25.9548 19.874H25.7248L19.9288 42H11.7868ZM52.3706 42V10.352H58.9026V42H52.3706ZM66.4312 42V10.352H72.9632V36.48H86.2112V42H66.4312ZM91.1831 42V10.352H97.7151V36.48H110.963V42H91.1831ZM127.3 42V10.352H148.92V15.688H133.832V23.37H146.758V28.706H133.832V36.664H148.92V42H127.3ZM155.242 42V10.352H162.004L174.47 29.856H174.7V10.352H180.956V42H174.746L161.728 21.438H161.498V42H155.242ZM188.484 42V10.352H195.016V23.278H207.62V10.352H214.152V42H207.62V28.89H195.016V42H188.484ZM218.599 42L229.317 10.352H238.057L248.775 42H242.105L239.759 35.008H227.385L225.131 42H218.599ZM229.041 29.718H238.057L233.687 16.286H233.411L229.041 29.718ZM253.216 42V10.352H259.978L272.444 29.856H272.674V10.352H278.93V42H272.72L259.702 21.438H259.472V42H253.216ZM298.741 42.368C296.41 42.368 294.463 42.2147 292.899 41.908C291.335 41.6013 290.062 41.08 289.081 40.344C288.099 39.608 287.348 38.6267 286.827 37.4C286.336 36.1733 285.999 34.64 285.815 32.8C285.631 30.96 285.539 28.752 285.539 26.176C285.539 23.6 285.631 21.392 285.815 19.552C285.999 17.712 286.336 16.1787 286.827 14.952C287.348 13.7253 288.099 12.744 289.081 12.008C290.062 11.272 291.335 10.7507 292.899 10.444C294.463 10.1373 296.41 9.984 298.741 9.984C299.63 9.984 300.55 10.0147 301.501 10.076C302.482 10.1373 303.417 10.2293 304.307 10.352C305.196 10.4747 305.947 10.6127 306.561 10.766V15.78C305.733 15.688 304.935 15.6113 304.169 15.55C303.402 15.458 302.681 15.3967 302.007 15.366C301.363 15.3353 300.811 15.32 300.351 15.32C298.787 15.32 297.499 15.3813 296.487 15.504C295.475 15.6267 294.662 15.8873 294.049 16.286C293.466 16.654 293.037 17.2367 292.761 18.034C292.485 18.8007 292.301 19.8433 292.209 21.162C292.117 22.4807 292.071 24.152 292.071 26.176C292.071 28.1693 292.117 29.8407 292.209 31.19C292.301 32.5087 292.485 33.5667 292.761 34.364C293.037 35.1307 293.466 35.7133 294.049 36.112C294.662 36.48 295.475 36.7253 296.487 36.848C297.499 36.9707 298.787 37.032 300.351 37.032C301.363 37.032 302.467 36.986 303.663 36.894C304.859 36.802 305.886 36.6947 306.745 36.572V41.678C306.07 41.8007 305.273 41.908 304.353 42C303.433 42.1227 302.482 42.2147 301.501 42.276C300.55 42.3373 299.63 42.368 298.741 42.368ZM312.738 42V10.352H334.358V15.688H319.27V23.37H332.196V28.706H319.27V36.664H334.358V42H312.738Z" fill="#F1F1F1"/>
</svg>
