<svg width="340" height="51" viewBox="0 0 340 51" fill="none" xmlns="http://www.w3.org/2000/svg">
<path d="M30.5966 42V30.776L19.7406 10.352H26.5946L33.8626 24.428H34.1846L41.4066 10.352H48.0306L37.1286 30.776V42H30.5966ZM63.8259 42.368C61.2499 42.368 59.1186 42.2147 57.4319 41.908C55.7759 41.6013 54.4726 41.0953 53.5219 40.39C52.5712 39.654 51.8812 38.6727 51.4519 37.446C51.0226 36.1887 50.7466 34.64 50.6239 32.8C50.5012 30.96 50.4399 28.752 50.4399 26.176C50.4399 23.6 50.5012 21.392 50.6239 19.552C50.7466 17.712 51.0226 16.1787 51.4519 14.952C51.8812 13.6947 52.5712 12.7133 53.5219 12.008C54.4726 11.272 55.7759 10.7507 57.4319 10.444C59.1186 10.1373 61.2499 9.984 63.8259 9.984C66.4019 9.984 68.5179 10.1373 70.1739 10.444C71.8606 10.7507 73.1792 11.272 74.1299 12.008C75.0806 12.7133 75.7706 13.6947 76.1999 14.952C76.6599 16.1787 76.9512 17.712 77.0739 19.552C77.1966 21.392 77.2579 23.6 77.2579 26.176C77.2579 28.752 77.1966 30.96 77.0739 32.8C76.9512 34.64 76.6599 36.1887 76.1999 37.446C75.7706 38.6727 75.0806 39.654 74.1299 40.39C73.1792 41.0953 71.8606 41.6013 70.1739 41.908C68.5179 42.2147 66.4019 42.368 63.8259 42.368ZM63.8259 37.032C65.1752 37.032 66.2639 36.986 67.0919 36.894C67.9506 36.802 68.6252 36.5873 69.1159 36.25C69.6066 35.9127 69.9592 35.3607 70.1739 34.594C70.4192 33.8273 70.5726 32.7693 70.6339 31.42C70.6952 30.0707 70.7259 28.3227 70.7259 26.176C70.7259 24.0293 70.6952 22.2813 70.6339 20.932C70.5726 19.5827 70.4192 18.5247 70.1739 17.758C69.9592 16.9913 69.6066 16.4393 69.1159 16.102C68.6252 15.7647 67.9506 15.55 67.0919 15.458C66.2639 15.366 65.1752 15.32 63.8259 15.32C62.5072 15.32 61.4186 15.366 60.5599 15.458C59.7319 15.55 59.0726 15.7647 58.5819 16.102C58.0912 16.4393 57.7232 16.9913 57.4779 17.758C57.2632 18.5247 57.1252 19.5827 57.0639 20.932C57.0026 22.2813 56.9719 24.0293 56.9719 26.176C56.9719 28.3227 57.0026 30.0707 57.0639 31.42C57.1252 32.7693 57.2632 33.8273 57.4779 34.594C57.7232 35.3607 58.0912 35.9127 58.5819 36.25C59.0726 36.5873 59.7319 36.802 60.5599 36.894C61.4186 36.986 62.5072 37.032 63.8259 37.032ZM96.1653 42.368C93.9267 42.368 92.056 42.23 90.5533 41.954C89.0507 41.678 87.8393 41.2333 86.9193 40.62C85.9993 40.0067 85.294 39.148 84.8033 38.044C84.3433 36.94 84.0213 35.56 83.8373 33.904C83.684 32.2173 83.6073 30.2087 83.6073 27.878V10.352H90.1393V29.534C90.1393 31.1593 90.1853 32.478 90.2773 33.49C90.4 34.4713 90.63 35.2227 90.9673 35.744C91.3353 36.2653 91.9333 36.618 92.7613 36.802C93.5893 36.9553 94.724 37.032 96.1653 37.032C97.6067 37.032 98.726 36.9553 99.5233 36.802C100.351 36.618 100.949 36.2653 101.317 35.744C101.685 35.2227 101.915 34.4713 102.007 33.49C102.099 32.478 102.145 31.1593 102.145 29.534V10.352H108.677V27.878C108.677 30.2087 108.585 32.2173 108.401 33.904C108.248 35.56 107.941 36.94 107.481 38.044C107.021 39.148 106.331 40.0067 105.411 40.62C104.491 41.2333 103.28 41.678 101.777 41.954C100.275 42.23 98.404 42.368 96.1653 42.368ZM116.002 42V10.352H131.136C133.191 10.352 134.832 10.582 136.058 11.042C137.316 11.502 138.266 12.1767 138.91 13.066C139.554 13.9247 139.984 14.9827 140.198 16.24C140.444 17.4667 140.566 18.8467 140.566 20.38C140.566 21.4533 140.474 22.6033 140.29 23.83C140.106 25.0567 139.692 26.1913 139.048 27.234C138.435 28.2767 137.454 29.0433 136.104 29.534L141.164 42H134.264L129.48 29.304L131.09 30.178C130.876 30.27 130.615 30.3313 130.308 30.362C130.032 30.3927 129.71 30.408 129.342 30.408H122.534V42H116.002ZM122.534 25.118H128.514C129.802 25.118 130.814 25.0413 131.55 24.888C132.286 24.7347 132.838 24.4893 133.206 24.152C133.574 23.784 133.804 23.3087 133.896 22.726C133.988 22.1127 134.034 21.3307 134.034 20.38C134.034 19.4293 133.988 18.6473 133.896 18.034C133.804 17.4207 133.59 16.9453 133.252 16.608C132.915 16.2707 132.363 16.0253 131.596 15.872C130.86 15.7187 129.848 15.642 128.56 15.642H122.534V25.118ZM170.92 42.368C168.344 42.368 166.212 42.2147 164.526 41.908C162.87 41.6013 161.566 41.0953 160.616 40.39C159.665 39.654 158.975 38.6727 158.546 37.446C158.116 36.1887 157.84 34.64 157.718 32.8C157.595 30.96 157.534 28.752 157.534 26.176C157.534 23.6 157.595 21.392 157.718 19.552C157.84 17.712 158.116 16.1787 158.546 14.952C158.975 13.6947 159.665 12.7133 160.616 12.008C161.566 11.272 162.87 10.7507 164.526 10.444C166.212 10.1373 168.344 9.984 170.92 9.984C173.496 9.984 175.612 10.1373 177.268 10.444C178.954 10.7507 180.273 11.272 181.224 12.008C182.174 12.7133 182.864 13.6947 183.294 14.952C183.754 16.1787 184.045 17.712 184.168 19.552C184.29 21.392 184.352 23.6 184.352 26.176C184.352 28.752 184.29 30.96 184.168 32.8C184.045 34.64 183.754 36.1887 183.294 37.446C182.864 38.6727 182.174 39.654 181.224 40.39C180.273 41.0953 178.954 41.6013 177.268 41.908C175.612 42.2147 173.496 42.368 170.92 42.368ZM170.92 37.032C172.269 37.032 173.358 36.986 174.186 36.894C175.044 36.802 175.719 36.5873 176.21 36.25C176.7 35.9127 177.053 35.3607 177.268 34.594C177.513 33.8273 177.666 32.7693 177.728 31.42C177.789 30.0707 177.82 28.3227 177.82 26.176C177.82 24.0293 177.789 22.2813 177.728 20.932C177.666 19.5827 177.513 18.5247 177.268 17.758C177.053 16.9913 176.7 16.4393 176.21 16.102C175.719 15.7647 175.044 15.55 174.186 15.458C173.358 15.366 172.269 15.32 170.92 15.32C169.601 15.32 168.512 15.366 167.654 15.458C166.826 15.55 166.166 15.7647 165.676 16.102C165.185 16.4393 164.817 16.9913 164.572 17.758C164.357 18.5247 164.219 19.5827 164.158 20.932C164.096 22.2813 164.066 24.0293 164.066 26.176C164.066 28.3227 164.096 30.0707 164.158 31.42C164.219 32.7693 164.357 33.8273 164.572 34.594C164.817 35.3607 165.185 35.9127 165.676 36.25C166.166 36.5873 166.826 36.802 167.654 36.894C168.512 36.986 169.601 37.032 170.92 37.032ZM190.977 42V10.352H197.739L210.205 29.856H210.435V10.352H216.691V42H210.481L197.463 21.438H197.233V42H190.977ZM224.219 42V10.352H230.751V36.48H243.999V42H224.219ZM248.971 42V10.352H255.503V42H248.971ZM263.032 42V10.352H269.794L282.26 29.856H282.49V10.352H288.746V42H282.536L269.518 21.438H269.288V42H263.032ZM296.274 42V10.352H317.894V15.688H302.806V23.37H315.732V28.706H302.806V36.664H317.894V42H296.274Z" fill="#F1F1F1"/>
</svg>
