<svg width="340" height="51" viewBox="0 0 340 51" fill="none" xmlns="http://www.w3.org/2000/svg">
<path d="M55.5825 42V10.352H71.0385C73.0932 10.352 74.7645 10.6587 76.0525 11.272C77.3712 11.8547 78.3372 12.744 78.9505 13.94C79.5945 15.1053 79.9165 16.562 79.9165 18.31C79.9165 19.7513 79.7172 20.978 79.3185 21.99C78.9199 23.002 78.3219 23.8147 77.5245 24.428C76.7272 25.0413 75.6999 25.486 74.4425 25.762V25.946C75.8532 26.222 76.9725 26.682 77.8005 27.326C78.6592 27.9393 79.2725 28.7673 79.6405 29.81C80.0085 30.822 80.1925 32.0947 80.1925 33.628C80.1925 34.8853 80.0392 36.0353 79.7325 37.078C79.4259 38.09 78.9199 38.964 78.2145 39.7C77.5399 40.436 76.6199 41.0033 75.4545 41.402C74.2892 41.8007 72.8325 42 71.0845 42H55.5825ZM62.1145 36.756H68.9225C70.1492 36.756 71.1152 36.6487 71.8205 36.434C72.5259 36.1887 73.0012 35.7747 73.2465 35.192C73.5225 34.5787 73.6605 33.7353 73.6605 32.662C73.6605 31.6193 73.5225 30.8067 73.2465 30.224C72.9705 29.6107 72.4799 29.1813 71.7745 28.936C71.0999 28.6907 70.1492 28.568 68.9225 28.568H62.1145V36.756ZM62.1145 23.416H68.6925C69.8579 23.416 70.7779 23.2933 71.4525 23.048C72.1579 22.8027 72.6485 22.404 72.9245 21.852C73.2312 21.2693 73.3845 20.518 73.3845 19.598C73.3845 18.5247 73.2465 17.712 72.9705 17.16C72.7252 16.5773 72.2652 16.1787 71.5905 15.964C70.9465 15.7493 69.9805 15.642 68.6925 15.642H62.1145V23.416ZM86.6236 42V10.352H101.758C103.812 10.352 105.453 10.582 106.68 11.042C107.937 11.502 108.888 12.1767 109.532 13.066C110.176 13.9247 110.605 14.9827 110.82 16.24C111.065 17.4667 111.188 18.8467 111.188 20.38C111.188 21.4533 111.096 22.6033 110.912 23.83C110.728 25.0567 110.314 26.1913 109.67 27.234C109.056 28.2767 108.075 29.0433 106.726 29.534L111.786 42H104.886L100.102 29.304L101.712 30.178C101.497 30.27 101.236 30.3313 100.93 30.362C100.654 30.3927 100.332 30.408 99.9636 30.408H93.1556V42H86.6236ZM93.1556 25.118H99.1356C100.424 25.118 101.436 25.0413 102.172 24.888C102.908 24.7347 103.46 24.4893 103.828 24.152C104.196 23.784 104.426 23.3087 104.518 22.726C104.61 22.1127 104.656 21.3307 104.656 20.38C104.656 19.4293 104.61 18.6473 104.518 18.034C104.426 17.4207 104.211 16.9453 103.874 16.608C103.536 16.2707 102.984 16.0253 102.218 15.872C101.482 15.7187 100.47 15.642 99.1816 15.642H93.1556V25.118ZM114.628 42L125.346 10.352H134.086L144.804 42H138.134L135.788 35.008H123.414L121.16 42H114.628ZM125.07 29.718H134.086L129.716 16.286H129.44L125.07 29.718ZM149.245 42V10.352H156.007L168.473 29.856H168.703V10.352H174.959V42H168.749L155.731 21.438H155.501V42H149.245ZM182.487 42V10.352H193.251C195.98 10.352 198.204 10.49 199.921 10.766C201.669 11.042 203.034 11.5327 204.015 12.238C205.027 12.9127 205.748 13.8633 206.177 15.09C206.637 16.286 206.928 17.7887 207.051 19.598C207.174 21.4073 207.235 23.6 207.235 26.176C207.235 28.752 207.174 30.9447 207.051 32.754C206.928 34.5633 206.637 36.0813 206.177 37.308C205.748 38.504 205.027 39.4547 204.015 40.16C203.034 40.8347 201.669 41.31 199.921 41.586C198.204 41.862 195.98 42 193.251 42H182.487ZM189.019 36.664H192.883C194.386 36.664 195.612 36.6333 196.563 36.572C197.544 36.48 198.311 36.2807 198.863 35.974C199.446 35.6673 199.86 35.146 200.105 34.41C200.35 33.6433 200.504 32.6007 200.565 31.282C200.657 29.9633 200.703 28.2613 200.703 26.176C200.703 24.1213 200.657 22.4347 200.565 21.116C200.504 19.7667 200.335 18.724 200.059 17.988C199.814 17.252 199.4 16.7307 198.817 16.424C198.265 16.0867 197.514 15.8873 196.563 15.826C195.612 15.734 194.386 15.688 192.883 15.688H189.019V36.664ZM213.887 42V10.352H220.419V42H213.887ZM227.948 42V10.352H234.71L247.176 29.856H247.406V10.352H253.662V42H247.452L234.434 21.438H234.204V42H227.948ZM274.162 42.368C271.862 42.368 269.899 42.2147 268.274 41.908C266.679 41.6013 265.345 41.0953 264.272 40.39C263.229 39.654 262.417 38.6727 261.834 37.446C261.251 36.2193 260.837 34.686 260.592 32.846C260.377 30.9753 260.27 28.752 260.27 26.176C260.27 23.6 260.377 21.392 260.592 19.552C260.837 17.6813 261.251 16.1327 261.834 14.906C262.447 13.6793 263.275 12.7133 264.318 12.008C265.391 11.272 266.725 10.7507 268.32 10.444C269.915 10.1373 271.862 9.984 274.162 9.984C275.174 9.984 276.293 10.03 277.52 10.122C278.777 10.214 280.019 10.3367 281.246 10.49C282.473 10.6127 283.607 10.7813 284.65 10.996V16.01C283.577 15.8567 282.534 15.734 281.522 15.642C280.51 15.55 279.59 15.4733 278.762 15.412C277.934 15.3507 277.244 15.32 276.692 15.32C274.944 15.32 273.487 15.366 272.322 15.458C271.157 15.5193 270.206 15.7187 269.47 16.056C268.734 16.3933 268.167 16.9453 267.768 17.712C267.4 18.4787 267.139 19.552 266.986 20.932C266.833 22.2813 266.756 24.0293 266.756 26.176C266.756 28.0773 266.802 29.672 266.894 30.96C267.017 32.248 267.216 33.306 267.492 34.134C267.799 34.962 268.228 35.606 268.78 36.066C269.363 36.4953 270.099 36.7867 270.988 36.94C271.908 37.0933 273.043 37.17 274.392 37.17C274.883 37.17 275.389 37.17 275.91 37.17C276.462 37.1393 276.968 37.1087 277.428 37.078C277.919 37.0473 278.317 37.0167 278.624 36.986V29.166H273.334V24.014H284.788V41.356C283.745 41.5707 282.58 41.7547 281.292 41.908C280.004 42.0307 278.747 42.138 277.52 42.23C276.293 42.322 275.174 42.368 274.162 42.368Z" fill="#F1F1F1"/>
</svg>
