<svg width="1620" height="178" viewBox="0 0 1620 178" fill="none" xmlns="http://www.w3.org/2000/svg">
<path d="M12.956 142V33.296H66.044C73.1013 33.296 78.842 34.3493 83.266 36.456C87.7953 38.4573 91.1133 41.512 93.22 45.62C95.432 49.6227 96.538 54.626 96.538 60.63C96.538 65.5807 95.8533 69.794 94.484 73.27C93.1147 76.746 91.0607 79.5373 88.322 81.644C85.5833 83.7507 82.0547 85.278 77.736 86.226V86.858C82.5813 87.806 86.426 89.386 89.27 91.598C92.2193 93.7047 94.326 96.5487 95.59 100.13C96.854 103.606 97.486 107.977 97.486 113.244C97.486 117.563 96.9593 121.513 95.906 125.094C94.8527 128.57 93.1147 131.572 90.692 134.1C88.3747 136.628 85.2147 138.577 81.212 139.946C77.2093 141.315 72.206 142 66.202 142H12.956ZM35.392 123.988H58.776C62.9893 123.988 66.3073 123.619 68.73 122.882C71.1527 122.039 72.7853 120.617 73.628 118.616C74.576 116.509 75.05 113.613 75.05 109.926C75.05 106.345 74.576 103.553 73.628 101.552C72.68 99.4453 70.9947 97.9707 68.572 97.128C66.2547 96.2853 62.9893 95.864 58.776 95.864H35.392V123.988ZM35.392 78.168H57.986C61.9887 78.168 65.1487 77.7467 67.466 76.904C69.8887 76.0613 71.574 74.692 72.522 72.796C73.5753 70.7947 74.102 68.214 74.102 65.054C74.102 61.3673 73.628 58.576 72.68 56.68C71.8373 54.6787 70.2573 53.3093 67.94 52.572C65.728 51.8347 62.41 51.466 57.986 51.466H35.392V78.168ZM119.575 142V33.296H171.557C178.614 33.296 184.25 34.086 188.463 35.666C192.782 37.246 196.047 39.5633 198.259 42.618C200.471 45.5673 201.946 49.2013 202.683 53.52C203.526 57.7333 203.947 62.4733 203.947 67.74C203.947 71.4267 203.631 75.3767 202.999 79.59C202.367 83.8033 200.945 87.7007 198.733 91.282C196.626 94.8633 193.256 97.4967 188.621 99.182L206.001 142H182.301L165.869 98.392L171.399 101.394C170.662 101.71 169.766 101.921 168.713 102.026C167.765 102.131 166.659 102.184 165.395 102.184H142.011V142H119.575ZM142.011 84.014H162.551C166.975 84.014 170.451 83.7507 172.979 83.224C175.507 82.6973 177.403 81.8547 178.667 80.696C179.931 79.432 180.721 77.7993 181.037 75.798C181.353 73.6913 181.511 71.0053 181.511 67.74C181.511 64.4747 181.353 61.7887 181.037 59.682C180.721 57.5753 179.984 55.9427 178.825 54.784C177.666 53.6253 175.77 52.7827 173.137 52.256C170.609 51.7293 167.133 51.466 162.709 51.466H142.011V84.014ZM215.763 142L252.577 33.296H282.597L319.411 142H296.501L288.443 117.984H245.941L238.199 142H215.763ZM251.629 99.814H282.597L267.587 53.678H266.639L251.629 99.814ZM334.665 142V33.296H357.891L400.709 100.288H401.499V33.296H422.987V142H401.657L356.943 71.374H356.153V142H334.665ZM448.845 142V33.296H485.817C495.191 33.296 502.828 33.77 508.727 34.718C514.731 35.666 519.418 37.3513 522.789 39.774C526.265 42.0913 528.74 45.3567 530.215 49.57C531.795 53.678 532.795 58.8393 533.217 65.054C533.638 71.2687 533.849 78.8 533.849 87.648C533.849 96.496 533.638 104.027 533.217 110.242C532.795 116.457 531.795 121.671 530.215 125.884C528.74 129.992 526.265 133.257 522.789 135.68C519.418 137.997 514.731 139.63 508.727 140.578C502.828 141.526 495.191 142 485.817 142H448.845ZM471.281 123.672H484.553C489.714 123.672 493.927 123.567 497.193 123.356C500.563 123.04 503.197 122.355 505.093 121.302C507.094 120.249 508.516 118.458 509.359 115.93C510.201 113.297 510.728 109.715 510.939 105.186C511.255 100.657 511.413 94.8107 511.413 87.648C511.413 80.5907 511.255 74.7973 510.939 70.268C510.728 65.6333 510.149 62.052 509.201 59.524C508.358 56.996 506.936 55.2053 504.935 54.152C503.039 52.9933 500.458 52.3087 497.193 52.098C493.927 51.782 489.714 51.624 484.553 51.624H471.281V123.672ZM556.698 142V33.296H579.134V142H556.698ZM604.993 142V33.296H628.219L671.037 100.288H671.827V33.296H693.315V142H671.985L627.271 71.374H626.481V142H604.993ZM763.729 143.264C755.829 143.264 749.087 142.737 743.505 141.684C738.027 140.631 733.445 138.893 729.759 136.47C726.177 133.942 723.386 130.571 721.385 126.358C719.383 122.145 717.961 116.878 717.119 110.558C716.381 104.133 716.013 96.496 716.013 87.648C716.013 78.8 716.381 71.216 717.119 64.896C717.961 58.4707 719.383 53.1513 721.385 48.938C723.491 44.7247 726.335 41.4067 729.917 38.984C733.603 36.456 738.185 34.6653 743.663 33.612C749.14 32.5587 755.829 32.032 763.729 32.032C767.205 32.032 771.049 32.19 775.263 32.506C779.581 32.822 783.847 33.2433 788.061 33.77C792.274 34.1913 796.171 34.7707 799.753 35.508V52.73C796.066 52.2033 792.485 51.782 789.009 51.466C785.533 51.15 782.373 50.8867 779.529 50.676C776.685 50.4653 774.315 50.36 772.419 50.36C766.415 50.36 761.411 50.518 757.409 50.834C753.406 51.0447 750.141 51.7293 747.613 52.888C745.085 54.0467 743.136 55.9427 741.767 58.576C740.503 61.2093 739.607 64.896 739.081 69.636C738.554 74.2707 738.291 80.2747 738.291 87.648C738.291 94.1787 738.449 99.656 738.765 104.08C739.186 108.504 739.871 112.138 740.819 114.982C741.872 117.826 743.347 120.038 745.243 121.618C747.244 123.093 749.772 124.093 752.827 124.62C755.987 125.147 759.884 125.41 764.519 125.41C766.204 125.41 767.942 125.41 769.733 125.41C771.629 125.305 773.367 125.199 774.947 125.094C776.632 124.989 778.001 124.883 779.055 124.778V97.918H760.885V80.222H800.227V139.788C796.645 140.525 792.643 141.157 788.219 141.684C783.795 142.105 779.476 142.474 775.263 142.79C771.049 143.106 767.205 143.264 763.729 143.264Z" fill="#F1F1F1"/>
</svg>
