<svg width="789" height="112" viewBox="0 0 789 112" fill="none" xmlns="http://www.w3.org/2000/svg">
<path d="M0.956 110V1.296H54.044C61.1013 1.296 66.842 2.34933 71.266 4.45599C75.7953 6.45733 79.1133 9.51199 81.22 13.62C83.432 17.6227 84.538 22.626 84.538 28.63C84.538 33.5807 83.8533 37.794 82.484 41.27C81.1147 44.746 79.0607 47.5373 76.322 49.644C73.5833 51.7507 70.0547 53.278 65.736 54.226V54.858C70.5813 55.806 74.426 57.386 77.27 59.598C80.2193 61.7047 82.326 64.5487 83.59 68.13C84.854 71.606 85.486 75.9773 85.486 81.244C85.486 85.5627 84.9593 89.5127 83.906 93.094C82.8527 96.57 81.1147 99.572 78.692 102.1C76.3747 104.628 73.2147 106.577 69.212 107.946C65.2093 109.315 60.206 110 54.202 110H0.956ZM23.392 91.988H46.776C50.9893 91.988 54.3073 91.6193 56.73 90.882C59.1527 90.0393 60.7853 88.6173 61.628 86.616C62.576 84.5093 63.05 81.6127 63.05 77.926C63.05 74.3447 62.576 71.5533 61.628 69.552C60.68 67.4453 58.9947 65.9707 56.572 65.128C54.2547 64.2853 50.9893 63.864 46.776 63.864H23.392V91.988ZM23.392 46.168H45.986C49.9887 46.168 53.1487 45.7467 55.466 44.904C57.8887 44.0613 59.574 42.692 60.522 40.796C61.5753 38.7947 62.102 36.214 62.102 33.054C62.102 29.3673 61.628 26.576 60.68 24.68C59.8373 22.6787 58.2573 21.3093 55.94 20.572C53.728 19.8347 50.41 19.466 45.986 19.466H23.392V46.168ZM107.575 110V1.296H159.557C166.614 1.296 172.25 2.086 176.463 3.66599C180.782 5.24599 184.047 7.56333 186.259 10.618C188.471 13.5673 189.946 17.2013 190.683 21.52C191.526 25.7333 191.947 30.4733 191.947 35.74C191.947 39.4267 191.631 43.3767 190.999 47.59C190.367 51.8033 188.945 55.7007 186.733 59.282C184.626 62.8633 181.256 65.4967 176.621 67.182L194.001 110H170.301L153.869 66.392L159.399 69.394C158.662 69.71 157.766 69.9207 156.713 70.026C155.765 70.1313 154.659 70.184 153.395 70.184H130.011V110H107.575ZM130.011 52.014H150.551C154.975 52.014 158.451 51.7507 160.979 51.224C163.507 50.6973 165.403 49.8547 166.667 48.696C167.931 47.432 168.721 45.7993 169.037 43.798C169.353 41.6913 169.511 39.0053 169.511 35.74C169.511 32.4747 169.353 29.7887 169.037 27.682C168.721 25.5753 167.984 23.9427 166.825 22.784C165.666 21.6253 163.77 20.7827 161.137 20.256C158.609 19.7293 155.133 19.466 150.709 19.466H130.011V52.014ZM203.763 110L240.577 1.296H270.597L307.411 110H284.501L276.443 85.984H233.941L226.199 110H203.763ZM239.629 67.814H270.597L255.587 21.678H254.639L239.629 67.814ZM322.665 110V1.296H345.891L388.709 68.288H389.499V1.296H410.987V110H389.657L344.943 39.374H344.153V110H322.665ZM436.845 110V1.296H473.817C483.191 1.296 490.828 1.77 496.727 2.718C502.731 3.666 507.418 5.35133 510.789 7.774C514.265 10.0913 516.74 13.3567 518.215 17.57C519.795 21.678 520.795 26.8393 521.217 33.054C521.638 39.2687 521.849 46.8 521.849 55.648C521.849 64.496 521.638 72.0273 521.217 78.242C520.795 84.4567 519.795 89.6707 518.215 93.884C516.74 97.992 514.265 101.257 510.789 103.68C507.418 105.997 502.731 107.63 496.727 108.578C490.828 109.526 483.191 110 473.817 110H436.845ZM459.281 91.672H472.553C477.714 91.672 481.927 91.5667 485.193 91.356C488.563 91.04 491.197 90.3553 493.093 89.302C495.094 88.2487 496.516 86.458 497.359 83.93C498.201 81.2967 498.728 77.7153 498.939 73.186C499.255 68.6567 499.413 62.8107 499.413 55.648C499.413 48.5907 499.255 42.7973 498.939 38.268C498.728 33.6333 498.149 30.052 497.201 27.524C496.358 24.996 494.936 23.2053 492.935 22.152C491.039 20.9933 488.458 20.3087 485.193 20.098C481.927 19.782 477.714 19.624 472.553 19.624H459.281V91.672ZM544.698 110V1.296H567.134V110H544.698ZM592.993 110V1.296H616.219L659.037 68.288H659.827V1.296H681.315V110H659.985L615.271 39.374H614.481V110H592.993ZM751.729 111.264C743.829 111.264 737.087 110.737 731.505 109.684C726.027 108.631 721.445 106.893 717.759 104.47C714.177 101.942 711.386 98.5713 709.385 94.358C707.383 90.1447 705.961 84.878 705.119 78.558C704.381 72.1327 704.013 64.496 704.013 55.648C704.013 46.8 704.381 39.216 705.119 32.896C705.961 26.4707 707.383 21.1513 709.385 16.938C711.491 12.7247 714.335 9.40667 717.917 6.984C721.603 4.45599 726.185 2.66532 731.663 1.61199C737.14 0.55866 743.829 0.0319937 751.729 0.0319937C755.205 0.0319937 759.049 0.189995 763.263 0.505997C767.581 0.821993 771.847 1.24332 776.061 1.76999C780.274 2.19132 784.171 2.77066 787.753 3.508V20.73C784.066 20.2033 780.485 19.782 777.009 19.466C773.533 19.15 770.373 18.8867 767.529 18.676C764.685 18.4653 762.315 18.36 760.419 18.36C754.415 18.36 749.411 18.518 745.409 18.834C741.406 19.0447 738.141 19.7293 735.613 20.888C733.085 22.0467 731.136 23.9427 729.767 26.576C728.503 29.2093 727.607 32.896 727.081 37.636C726.554 42.2707 726.291 48.2747 726.291 55.648C726.291 62.1787 726.449 67.656 726.765 72.08C727.186 76.504 727.871 80.138 728.819 82.982C729.872 85.826 731.347 88.038 733.243 89.618C735.244 91.0927 737.772 92.0933 740.827 92.62C743.987 93.1467 747.884 93.41 752.519 93.41C754.204 93.41 755.942 93.41 757.733 93.41C759.629 93.3047 761.367 93.1993 762.947 93.094C764.632 92.9887 766.001 92.8833 767.055 92.778V65.918H748.885V48.222H788.227V107.788C784.645 108.525 780.643 109.157 776.219 109.684C771.795 110.105 767.476 110.474 763.263 110.79C759.049 111.106 755.205 111.264 751.729 111.264Z" fill="#F1F1F1"/>
</svg>
