<svg width="1268" height="109" viewBox="0 0 1268 109" fill="none" xmlns="http://www.w3.org/2000/svg">
<path d="M0.956 109V0.295996H54.044C61.1013 0.295996 66.842 1.34933 71.266 3.45599C75.7953 5.45733 79.1133 8.51199 81.22 12.62C83.432 16.6227 84.538 21.626 84.538 27.63C84.538 32.5807 83.8533 36.794 82.484 40.27C81.1147 43.746 79.0607 46.5373 76.322 48.644C73.5833 50.7507 70.0547 52.278 65.736 53.226V53.858C70.5813 54.806 74.426 56.386 77.27 58.598C80.2193 60.7047 82.326 63.5487 83.59 67.13C84.854 70.606 85.486 74.9773 85.486 80.244C85.486 84.5627 84.9593 88.5127 83.906 92.094C82.8527 95.57 81.1147 98.572 78.692 101.1C76.3747 103.628 73.2147 105.577 69.212 106.946C65.2093 108.315 60.206 109 54.202 109H0.956ZM23.392 90.988H46.776C50.9893 90.988 54.3073 90.6193 56.73 89.882C59.1527 89.0393 60.7853 87.6173 61.628 85.616C62.576 83.5093 63.05 80.6127 63.05 76.926C63.05 73.3447 62.576 70.5533 61.628 68.552C60.68 66.4453 58.9947 64.9707 56.572 64.128C54.2547 63.2853 50.9893 62.864 46.776 62.864H23.392V90.988ZM23.392 45.168H45.986C49.9887 45.168 53.1487 44.7467 55.466 43.904C57.8887 43.0613 59.574 41.692 60.522 39.796C61.5753 37.7947 62.102 35.214 62.102 32.054C62.102 28.3673 61.628 25.576 60.68 23.68C59.8373 21.6787 58.2573 20.3093 55.94 19.572C53.728 18.8347 50.41 18.466 45.986 18.466H23.392V45.168ZM107.575 109V0.295996H159.557C166.614 0.295996 172.25 1.086 176.463 2.66599C180.782 4.24599 184.047 6.56333 186.259 9.618C188.471 12.5673 189.946 16.2013 190.683 20.52C191.526 24.7333 191.947 29.4733 191.947 34.74C191.947 38.4267 191.631 42.3767 190.999 46.59C190.367 50.8033 188.945 54.7007 186.733 58.282C184.626 61.8633 181.256 64.4967 176.621 66.182L194.001 109H170.301L153.869 65.392L159.399 68.394C158.662 68.71 157.766 68.9207 156.713 69.026C155.765 69.1313 154.659 69.184 153.395 69.184H130.011V109H107.575ZM130.011 51.014H150.551C154.975 51.014 158.451 50.7507 160.979 50.224C163.507 49.6973 165.403 48.8547 166.667 47.696C167.931 46.432 168.721 44.7993 169.037 42.798C169.353 40.6913 169.511 38.0053 169.511 34.74C169.511 31.4747 169.353 28.7887 169.037 26.682C168.721 24.5753 167.984 22.9427 166.825 21.784C165.666 20.6253 163.77 19.7827 161.137 19.256C158.609 18.7293 155.133 18.466 150.709 18.466H130.011V51.014ZM203.763 109L240.577 0.295996H270.597L307.411 109H284.501L276.443 84.984H233.941L226.199 109H203.763ZM239.629 66.814H270.597L255.587 20.678H254.639L239.629 66.814ZM322.665 109V0.295996H345.891L388.709 67.288H389.499V0.295996H410.987V109H389.657L344.943 38.374H344.153V109H322.665ZM436.845 109V0.295996H473.817C483.191 0.295996 490.828 0.769996 496.727 1.718C502.731 2.666 507.418 4.35133 510.789 6.774C514.265 9.09133 516.74 12.3567 518.215 16.57C519.795 20.678 520.795 25.8393 521.217 32.054C521.638 38.2687 521.849 45.8 521.849 54.648C521.849 63.496 521.638 71.0273 521.217 77.242C520.795 83.4567 519.795 88.6707 518.215 92.884C516.74 96.992 514.265 100.257 510.789 102.68C507.418 104.997 502.731 106.63 496.727 107.578C490.828 108.526 483.191 109 473.817 109H436.845ZM459.281 90.672H472.553C477.714 90.672 481.927 90.5667 485.193 90.356C488.563 90.04 491.197 89.3553 493.093 88.302C495.094 87.2487 496.516 85.458 497.359 82.93C498.201 80.2967 498.728 76.7153 498.939 72.186C499.255 67.6567 499.413 61.8107 499.413 54.648C499.413 47.5907 499.255 41.7973 498.939 37.268C498.728 32.6333 498.149 29.052 497.201 26.524C496.358 23.996 494.936 22.2053 492.935 21.152C491.039 19.9933 488.458 19.3087 485.193 19.098C481.927 18.782 477.714 18.624 472.553 18.624H459.281V90.672ZM583.735 109V0.295996H606.171V109H583.735ZM632.03 109V0.295996H669.002C678.377 0.295996 686.014 0.769996 691.912 1.718C697.916 2.666 702.604 4.35133 705.974 6.774C709.45 9.09133 711.926 12.3567 713.4 16.57C714.98 20.678 715.981 25.8393 716.402 32.054C716.824 38.2687 717.034 45.8 717.034 54.648C717.034 63.496 716.824 71.0273 716.402 77.242C715.981 83.4567 714.98 88.6707 713.4 92.884C711.926 96.992 709.45 100.257 705.974 102.68C702.604 104.997 697.916 106.63 691.912 107.578C686.014 108.526 678.377 109 669.002 109H632.03ZM654.466 90.672H667.738C672.9 90.672 677.113 90.5667 680.378 90.356C683.749 90.04 686.382 89.3553 688.278 88.302C690.28 87.2487 691.702 85.458 692.544 82.93C693.387 80.2967 693.914 76.7153 694.124 72.186C694.44 67.6567 694.598 61.8107 694.598 54.648C694.598 47.5907 694.44 41.7973 694.124 37.268C693.914 32.6333 693.334 29.052 692.386 26.524C691.544 23.996 690.122 22.2053 688.12 21.152C686.224 19.9933 683.644 19.3087 680.378 19.098C677.113 18.782 672.9 18.624 667.738 18.624H654.466V90.672ZM739.884 109V0.295996H814.144V18.624H762.32V45.01H806.718V63.338H762.32V90.672H814.144V109H739.884ZM835.856 109V0.295996H859.082L901.9 67.288H902.69V0.295996H924.178V109H902.848L858.134 38.374H857.344V109H835.856ZM971.84 109V19.256H940.398V0.295996H1025.72V19.256H994.276V109H971.84ZM1042 109V0.295996H1064.43V109H1042ZM1112.1 109V19.256H1080.65V0.295996H1165.97V19.256H1134.53V109H1112.1ZM1207.22 109V70.448L1169.93 0.295996H1193.47L1218.43 48.644H1219.54L1244.35 0.295996H1267.1L1229.65 70.448V109H1207.22Z" fill="#F1F1F1"/>
</svg>
