<svg width="130" height="130" viewBox="0 0 130 130" fill="none" xmlns="http://www.w3.org/2000/svg">
<path d="M108.545 70.4211C108.65 69.5152 108.798 68.7652 108.988 68.1711C109.177 67.5771 109.437 67.1059 109.768 66.7577C110.098 66.4095 110.514 66.1618 111.014 66.0145C111.513 65.8792 112.124 65.8173 112.848 65.8288C113.571 65.8404 114.433 65.9043 115.435 66.0206C116.436 66.1369 117.29 66.2723 117.997 66.4269C118.704 66.5815 119.285 66.7819 119.739 67.028C120.193 67.286 120.54 67.6223 120.782 68.037C121.024 68.4516 121.169 68.9699 121.217 69.5916C121.266 70.2134 121.238 70.9772 121.132 71.8831C121.092 72.2288 121.039 72.585 120.972 72.9517C120.904 73.3304 120.826 73.6898 120.738 74.03C120.65 74.3701 120.563 74.6559 120.475 74.8874L118.527 74.661C118.6 74.3433 118.665 74.0369 118.724 73.7416C118.794 73.4478 118.851 73.1705 118.893 72.9096C118.934 72.6607 118.965 72.4468 118.986 72.268C119.056 71.6601 119.091 71.1567 119.089 70.7578C119.087 70.3589 119.022 70.0313 118.895 69.7749C118.778 69.5318 118.571 69.3386 118.273 69.1953C117.988 69.0534 117.591 68.9348 117.083 68.8395C116.574 68.7442 115.927 68.6509 115.14 68.5595C114.365 68.4695 113.713 68.412 113.185 68.3868C112.668 68.363 112.248 68.3868 111.926 68.4581C111.616 68.5307 111.37 68.6713 111.189 68.8798C111.018 69.1016 110.886 69.4064 110.792 69.7942C110.699 70.182 110.617 70.6799 110.546 71.2878C110.501 71.6812 110.469 72.1123 110.451 72.5814C110.432 73.0504 110.428 73.4546 110.437 73.7939L108.452 73.5633C108.435 73.2956 108.429 72.9808 108.435 72.6191C108.429 72.2559 108.436 71.8823 108.456 71.498C108.475 71.1258 108.505 70.7668 108.545 70.4211Z" fill="white"/>
<path d="M106.022 80.6088C106.394 79.6718 106.758 78.9187 107.112 78.3495C107.463 77.7914 107.835 77.3904 108.229 77.1464C108.634 76.9069 109.09 76.7975 109.598 76.8184C110.118 76.8437 110.721 76.9668 111.408 77.1877C112.095 77.4086 112.907 77.7049 113.844 78.0767C114.781 78.4484 115.575 78.7893 116.226 79.0995C116.878 79.4096 117.396 79.7313 117.78 80.0645C118.175 80.4021 118.433 80.7947 118.552 81.2422C118.683 81.6942 118.684 82.2435 118.557 82.8901C118.425 83.5478 118.173 84.3452 117.801 85.2821C117.429 86.219 117.068 86.9666 116.718 87.5246C116.363 88.0938 115.983 88.4982 115.578 88.7378C115.184 88.9818 114.728 89.0912 114.209 89.0659C113.696 89.0562 113.096 88.9408 112.409 88.7199C111.722 88.499 110.91 88.2027 109.973 87.831C109.037 87.4592 108.242 87.1183 107.591 86.8081C106.939 86.498 106.418 86.1685 106.027 85.8198C105.643 85.4866 105.385 85.094 105.255 84.642C105.136 84.1944 105.142 83.6418 105.274 82.9841C105.401 82.3375 105.651 81.5457 106.022 80.6088ZM107.963 81.3788C107.769 81.8696 107.628 82.2722 107.542 82.5866C107.452 82.9122 107.432 83.1886 107.484 83.4157C107.536 83.6429 107.686 83.8508 107.934 84.0395C108.177 84.2394 108.54 84.4479 109.022 84.6649C109.504 84.8819 110.135 85.1453 110.916 85.4551C111.697 85.7649 112.337 86.006 112.837 86.1784C113.336 86.3508 113.743 86.4477 114.058 86.4691C114.367 86.5017 114.619 86.4531 114.813 86.3233C115.006 86.1935 115.182 85.9791 115.339 85.6801C115.492 85.3922 115.666 85.0028 115.86 84.5121C116.051 84.0324 116.191 83.6298 116.282 83.3042C116.368 82.9898 116.385 82.719 116.333 82.4919C116.281 82.2647 116.133 82.0512 115.89 81.8513C115.642 81.6626 115.277 81.4597 114.795 81.2427C114.313 81.0257 113.682 80.7623 112.901 80.4525C112.12 80.1427 111.48 79.9016 110.98 79.7292C110.481 79.5568 110.076 79.4543 109.766 79.4217C109.452 79.4003 109.198 79.4545 109.004 79.5843C108.811 79.7141 108.638 79.9229 108.485 80.2108C108.327 80.5098 108.154 80.8992 107.963 81.3788Z" fill="white"/>
<path d="M103.263 87.5777L112.978 95.2585L111.336 97.3341L102.324 96.427L102.268 96.4976L108.255 101.231L106.737 103.151L97.0225 95.4706L98.5297 93.5644L108.001 94.5588L108.056 94.4882L101.745 89.498L103.263 87.5777Z" fill="white"/>
<path d="M92.6209 99.3283L98.6653 107.574L101.554 105.457L102.831 107.199L94.9918 112.945L93.7148 111.203L96.6038 109.085L90.5594 100.839L92.6209 99.3283Z" fill="white"/>
<path d="M87.2316 103.565L87.8514 116.625L84.6678 117.875L76.2397 107.879L78.6693 106.925L80.5233 109.137L85.0307 107.368L84.8522 104.499L87.2316 103.565ZM85.1836 109.532L81.8995 110.82L85.4113 115.088L85.5119 115.049L85.1836 109.532Z" fill="white"/>
<path d="M69.5941 108.623C70.5004 108.521 71.2643 108.496 71.8859 108.547C72.5074 108.598 73.0251 108.745 73.4388 108.989C73.8526 109.232 74.1876 109.581 74.4438 110.035C74.6882 110.491 74.8863 111.072 75.0382 111.78C75.19 112.487 75.3222 113.342 75.4346 114.343C75.5471 115.345 75.6077 116.208 75.6164 116.931C75.6252 117.655 75.561 118.266 75.4237 118.764C75.2745 119.264 75.0252 119.678 74.6757 120.007C74.3262 120.336 73.8541 120.595 73.2593 120.782C72.6645 120.97 71.914 121.114 71.0077 121.216C70.6618 121.255 70.3027 121.283 69.9304 121.301C69.5461 121.32 69.1784 121.325 68.8272 121.316C68.476 121.307 68.1778 121.286 67.9326 121.253L67.7138 119.304C68.0398 119.303 68.3532 119.298 68.654 119.289C68.9561 119.291 69.239 119.283 69.5027 119.266C69.7545 119.25 69.9698 119.231 70.1487 119.211C70.7569 119.143 71.255 119.063 71.6432 118.971C72.0314 118.879 72.336 118.742 72.5571 118.561C72.7676 118.392 72.9091 118.147 72.9817 117.825C73.0555 117.515 73.0816 117.101 73.0598 116.584C73.038 116.067 72.9829 115.416 72.8946 114.628C72.8076 113.853 72.7167 113.205 72.622 112.685C72.5287 112.176 72.411 111.773 72.2688 111.475C72.1281 111.189 71.9357 110.981 71.6917 110.851C71.4371 110.735 71.1104 110.675 70.7115 110.671C70.3126 110.668 69.8091 110.7 69.2009 110.768C68.8074 110.813 68.3801 110.879 67.919 110.967C67.458 111.055 67.0632 111.141 66.7346 111.226L66.5117 109.241C66.7687 109.164 67.0741 109.087 67.4278 109.011C67.7802 108.923 68.1459 108.846 68.5248 108.779C68.8918 108.714 69.2482 108.662 69.5941 108.623Z" fill="white"/>
<path d="M61.1981 108.884L59.8626 119.02L63.4139 119.488L63.1318 121.629L53.4951 120.36L53.7772 118.218L57.3285 118.686L58.664 108.55L61.1981 108.884Z" fill="white"/>
<path d="M53.2768 107.48L52.532 109.717L50.0556 108.893L50.8004 106.655L53.2768 107.48Z" fill="white"/>
<path d="M38.8601 100.206C39.5956 100.745 40.1747 101.244 40.5974 101.703C41.02 102.161 41.3011 102.62 41.4405 103.079C41.58 103.539 41.5901 104.022 41.4708 104.53C41.3419 105.031 41.0936 105.593 40.7261 106.216C40.3585 106.839 39.8767 107.557 39.2808 108.37C38.6848 109.183 38.145 109.859 37.6613 110.397C37.1775 110.935 36.7164 111.341 36.2777 111.615C35.8294 111.881 35.3653 112.017 34.8853 112.022C34.4053 112.027 33.8831 111.898 33.3186 111.633C32.754 111.368 32.104 110.965 31.3684 110.426C31.0877 110.22 30.8045 109.998 30.5187 109.759C30.2231 109.512 29.9492 109.267 29.6969 109.022C29.4446 108.778 29.2395 108.561 29.0814 108.37L30.2413 106.788C30.4813 107.009 30.7152 107.217 30.943 107.414C31.1637 107.62 31.3769 107.806 31.5827 107.972C31.7789 108.131 31.9496 108.263 32.0947 108.37C32.5883 108.732 33.009 109.01 33.3568 109.206C33.7045 109.401 34.0213 109.507 34.3071 109.523C34.5761 109.541 34.8464 109.457 35.118 109.269C35.3824 109.091 35.6817 108.804 36.0158 108.41C36.3499 108.015 36.7511 107.498 37.2193 106.859C37.6804 106.23 38.0525 105.692 38.3357 105.245C38.6117 104.807 38.7984 104.431 38.8957 104.115C38.986 103.81 38.9853 103.526 38.8936 103.266C38.7852 103.008 38.5855 102.742 38.2945 102.469C38.0035 102.197 37.6112 101.879 37.1176 101.518C36.7982 101.283 36.4391 101.043 36.0404 100.795C35.6416 100.547 35.2926 100.343 34.9932 100.184L36.1744 98.5721C36.4157 98.6894 36.6922 98.84 37.0038 99.0238C37.3226 99.1979 37.6439 99.3888 37.9678 99.5965C38.282 99.797 38.5794 100 38.8601 100.206Z" fill="white"/>
<path d="M31.2764 93.0219C31.9102 93.8057 32.3879 94.492 32.7096 95.0806C33.0237 95.66 33.1904 96.1811 33.2097 96.6439C33.2196 97.1142 33.0908 97.5656 32.8231 97.998C32.5462 98.438 32.1429 98.903 31.6132 99.3931C31.0835 99.8831 30.4267 100.445 29.6429 101.079C28.8591 101.713 28.1721 102.237 27.5821 102.653C26.992 103.068 26.4576 103.361 25.9787 103.532C25.4905 103.711 25.0221 103.743 24.5736 103.627C24.1157 103.519 23.6364 103.25 23.1357 102.822C22.6274 102.384 22.0564 101.773 21.4226 100.989C20.7888 100.206 20.3148 99.5241 20.0007 98.9447C19.6791 98.3561 19.5133 97.8265 19.5033 97.3562C19.484 96.8934 19.6129 96.442 19.8898 96.002C20.1499 95.5602 20.5448 95.0943 21.0745 94.6043C21.6042 94.1143 22.2609 93.5524 23.0448 92.9186C23.8286 92.2848 24.5155 91.7602 25.1056 91.3449C25.6956 90.9295 26.2385 90.6371 26.7343 90.4677C27.2132 90.2966 27.6815 90.2651 28.1394 90.3733C28.5879 90.489 29.0663 90.7657 29.5746 91.2035C30.0753 91.6319 30.6426 92.2381 31.2764 93.0219ZM29.6528 94.3347C29.3208 93.9242 29.0389 93.6042 28.8072 93.3749C28.568 93.1363 28.3366 92.9838 28.1133 92.9175C27.8899 92.8512 27.6352 92.8797 27.3491 93.003C27.0555 93.117 26.6958 93.3306 26.2701 93.6439C25.8445 93.9573 25.305 94.378 24.6519 94.9062C23.9987 95.4343 23.4743 95.8737 23.0788 96.2244C22.6834 96.575 22.3992 96.882 22.2262 97.1452C22.0458 97.3992 21.9646 97.6423 21.9826 97.8746C22.0007 98.1069 22.1014 98.365 22.2847 98.6489C22.4604 98.9235 22.7142 99.2661 23.0462 99.6766C23.3707 100.078 23.6525 100.398 23.8918 100.636C24.1235 100.866 24.351 101.014 24.5744 101.08C24.7977 101.146 25.0562 101.122 25.3499 101.008C25.636 100.885 25.9919 100.667 26.4175 100.353C26.8432 100.04 27.3826 99.6194 28.0358 99.0912C28.689 98.5631 29.2133 98.1237 29.6088 97.773C30.0043 97.4224 30.2923 97.1201 30.4727 96.8661C30.6457 96.6029 30.7231 96.3551 30.705 96.1228C30.6869 95.8905 30.59 95.6371 30.4143 95.3625C30.231 95.0786 29.9772 94.736 29.6528 94.3347Z" fill="white"/>
<path d="M26.5677 87.2384L15.1086 91.9345L14.1052 89.4861L19.3175 82.0783L19.2833 81.995L12.2213 84.8891L11.293 82.624L22.7521 77.9279L23.6736 80.1764L18.1602 87.941L18.1943 88.0243L25.6394 84.9732L26.5677 87.2384Z" fill="white"/>
<path d="M21.5768 72.318L11.4257 73.5366L11.8527 77.093L9.70806 77.3505L8.54953 67.6998L10.6941 67.4423L11.1211 70.9988L21.2722 69.7802L21.5768 72.318Z" fill="white"/>
<path d="M20.5094 65.3649L8.84665 59.4545L9.3324 56.0692L22.1865 53.6766L21.8158 56.2601L18.9772 56.7802L18.2895 61.5731L20.8725 62.8348L20.5094 65.3649ZM16.3325 60.6377L16.8336 57.1455L11.388 58.0916L11.3726 58.1985L16.3325 60.6377Z" fill="white"/>
<path d="M24.7635 47.566C24.4051 48.4047 24.0505 49.0818 23.6996 49.5974C23.3488 50.113 22.9655 50.4908 22.5497 50.7307C22.134 50.9706 21.6654 51.09 21.1438 51.089C20.627 51.0769 20.0234 50.9625 19.333 50.7458C18.6426 50.529 17.834 50.2226 16.9071 49.8264C15.9802 49.4303 15.1999 49.0577 14.5661 48.7085C13.9323 48.3593 13.4325 48.0022 13.0665 47.637C12.7053 47.2608 12.4678 46.8395 12.3538 46.3732C12.2399 45.9069 12.248 45.3688 12.3782 44.7589C12.5084 44.149 12.7527 43.4247 13.1111 42.5861C13.2478 42.2661 13.4003 41.9398 13.5686 41.6071C13.7416 41.2635 13.9185 40.9411 14.0994 40.6399C14.2803 40.3388 14.4455 40.0897 14.595 39.8926L16.3991 40.6636C16.2387 40.9474 16.0885 41.2225 15.9485 41.4889C15.7975 41.7506 15.6646 42.0005 15.5499 42.2386C15.4398 42.4656 15.3494 42.6618 15.2787 42.8273C15.0381 43.3901 14.8621 43.863 14.7507 44.246C14.6392 44.629 14.608 44.9615 14.6571 45.2435C14.6999 45.5097 14.8436 45.7538 15.088 45.9757C15.3215 46.193 15.6683 46.4195 16.1287 46.6554C16.589 46.8913 17.1833 47.1648 17.9116 47.4761C18.6288 47.7826 19.2373 48.0231 19.737 48.1975C20.2256 48.3671 20.6346 48.4636 20.9639 48.4869C21.2822 48.5055 21.5579 48.4406 21.791 48.2923C22.0177 48.1282 22.2309 47.8735 22.4307 47.5282C22.6305 47.183 22.8506 46.7289 23.0911 46.1662C23.2467 45.802 23.3999 45.3977 23.5508 44.9532C23.7016 44.5087 23.8209 44.1226 23.9088 43.7947L25.7461 44.5799C25.6865 44.8416 25.6025 45.145 25.4941 45.4901C25.3968 45.84 25.2837 46.1963 25.1548 46.5588C25.0307 46.9103 24.9003 47.246 24.7635 47.566Z" fill="white"/>
<path d="M28.5147 40.3346L20.3355 34.2002L18.1863 37.0658L16.4583 35.7698L22.2903 27.9938L24.0183 29.2898L21.8691 32.1554L30.0483 38.2898L28.5147 40.3346Z" fill="white"/>
<path d="M33.6076 34.0937L32.0208 32.3494L33.9514 30.5931L35.5382 32.3373L33.6076 34.0937Z" fill="white"/>
<path d="M47.1423 24.9393C46.3119 25.3164 45.5933 25.5768 44.9864 25.7206C44.3796 25.8644 43.8418 25.8845 43.3731 25.7811C42.9044 25.6776 42.4779 25.4495 42.0937 25.0968C41.7204 24.7391 41.3522 24.2474 40.9889 23.6216C40.6257 22.9958 40.2357 22.224 39.8189 21.3062C39.4021 20.3884 39.0777 19.5868 38.8456 18.9014C38.6134 18.2161 38.4855 17.6152 38.4619 17.0988C38.4492 16.5774 38.5581 16.1062 38.7887 15.6852C39.0193 15.2642 39.3883 14.8725 39.896 14.5102C40.4036 14.1479 41.0726 13.7782 41.903 13.4012C42.2199 13.2573 42.5526 13.1194 42.9013 12.9874C43.2608 12.8505 43.609 12.732 43.9457 12.6318C44.2824 12.5316 44.5724 12.4592 44.8157 12.4146L45.6269 14.2011C45.317 14.3022 45.0205 14.4039 44.7375 14.5061C44.4494 14.5974 44.1827 14.6921 43.9374 14.7903C43.703 14.8836 43.5038 14.9674 43.3399 15.0419C42.7827 15.2949 42.3337 15.5251 41.993 15.7326C41.6523 15.94 41.4049 16.1644 41.2509 16.4056C41.1028 16.631 41.0441 16.9081 41.0748 17.2368C41.1005 17.5546 41.2036 17.9559 41.3842 18.4406C41.5647 18.9253 41.8187 19.5282 42.1462 20.2494C42.4687 20.9596 42.7555 21.5476 43.0066 22.0135C43.2527 22.4684 43.4894 22.8156 43.7168 23.0551C43.9391 23.2836 44.1864 23.4217 44.4585 23.4695C44.7365 23.5014 45.0658 23.4573 45.4462 23.3373C45.8266 23.2172 46.2954 23.0307 46.8527 22.7777C47.2132 22.6139 47.5991 22.4189 48.0104 22.1927C48.4216 21.9664 48.7703 21.7619 49.0564 21.5793L49.8825 23.3985C49.6619 23.5514 49.3952 23.7186 49.0823 23.9003C48.7744 24.0928 48.4505 24.2794 48.1108 24.46C47.782 24.6357 47.4592 24.7954 47.1423 24.9393Z" fill="white"/>
<path d="M57.0197 21.8655C56.0255 22.0316 55.193 22.1098 54.5222 22.1002C53.8633 22.0886 53.3277 21.9773 52.9153 21.7664C52.5009 21.5436 52.1713 21.2094 51.9265 20.7636C51.6798 20.306 51.4734 19.7261 51.3074 19.0238C51.1415 18.3216 50.9754 17.4733 50.8094 16.4791C50.6433 15.4849 50.5246 14.6288 50.4533 13.9107C50.382 13.1926 50.3897 12.583 50.4763 12.0819C50.561 11.5689 50.764 11.1457 51.0854 10.8122C51.4049 10.4668 51.8743 10.1816 52.4937 9.95647C53.1249 9.72936 53.9376 9.53277 54.9319 9.36669C55.9261 9.20061 56.7526 9.12337 57.4116 9.13497C58.0823 9.14459 58.6249 9.26078 59.0392 9.48355C59.4516 9.69449 59.7812 10.0288 60.028 10.4864C60.2846 10.9301 60.4959 11.5032 60.6619 12.2054C60.8278 12.9077 60.9939 13.7559 61.1599 14.7501C61.326 15.7443 61.4447 16.6005 61.516 17.3186C61.5873 18.0366 61.5747 18.6531 61.4782 19.1681C61.3916 19.6692 61.1885 20.0924 60.8691 20.4378C60.5476 20.7713 60.0713 21.0516 59.4401 21.2787C58.8207 21.5038 58.0139 21.6994 57.0197 21.8655ZM56.6757 19.806C57.1965 19.7191 57.6137 19.6311 57.9273 19.5422C58.2528 19.4514 58.4993 19.325 58.667 19.1632C58.8346 19.0013 58.9351 18.7656 58.9686 18.4558C59.0138 18.1441 59.0048 17.7259 58.9415 17.2011C58.8781 16.6764 58.7773 15.9998 58.6389 15.1712C58.5005 14.3427 58.3759 13.6701 58.2653 13.1532C58.1546 12.6364 58.0272 12.2379 57.8831 11.9579C57.7508 11.6758 57.5791 11.4855 57.368 11.3869C57.1569 11.2884 56.8826 11.249 56.5453 11.2689C56.2198 11.2867 55.7967 11.3392 55.2759 11.4262C54.7669 11.5112 54.3497 11.5991 54.0242 11.69C53.7106 11.7789 53.47 11.9042 53.3023 12.0661C53.1347 12.2279 53.0283 12.4647 52.983 12.7764C52.9496 13.0861 52.9645 13.5034 53.0278 14.0281C53.0912 14.5528 53.192 15.2295 53.3304 16.058C53.4688 16.8865 53.5934 17.5592 53.704 18.076C53.8147 18.5928 53.9362 18.9923 54.0684 19.2744C54.2126 19.5544 54.3902 19.7438 54.6013 19.8423C54.8124 19.9409 55.0807 19.9812 55.4062 19.9634C55.7436 19.9435 56.1667 19.8911 56.6757 19.806Z" fill="white"/>
<path d="M64.67 20.5926L66.2404 8.30858L68.8651 8.64414L72.7358 16.8331L72.8251 16.8445L73.793 9.27416L76.2212 9.58461L74.6507 21.8686L72.2403 21.5605L68.2078 12.9334L68.1185 12.922L67.0982 20.903L64.67 20.5926Z" fill="white"/>
<path d="M79.9971 23.5567L83.9447 14.1255L80.6405 12.7425L81.4745 10.75L90.4407 14.5029L89.6067 16.4954L86.3025 15.1124L82.3549 24.5436L79.9971 23.5567Z" fill="white"/>
<path d="M86.5382 26.0185L97.4304 18.7857L100.136 20.8774L95.8803 33.2403L93.8153 31.644L94.7624 28.9179L90.9316 25.9565L88.5604 27.5817L86.5382 26.0185ZM92.7103 24.7151L95.5015 26.8729L97.3632 21.6687L97.2777 21.6026L92.7103 24.7151Z" fill="white"/>
<path d="M99.9806 38.5177C99.4254 37.7942 99.0092 37.1531 98.7319 36.5945C98.4545 36.0359 98.3133 35.5166 98.308 35.0366C98.3028 34.5567 98.4284 34.0897 98.6851 33.6356C98.9491 33.1911 99.3447 32.7211 99.8721 32.2258C100.4 31.7304 101.063 31.1759 101.863 30.5623C102.663 29.9487 103.37 29.4513 103.985 29.0702C104.6 28.689 105.157 28.4285 105.654 28.2887C106.159 28.1583 106.643 28.1579 107.105 28.2872C107.567 28.4166 108.032 28.6875 108.5 29.1C108.968 29.5125 109.479 30.0805 110.034 30.8041C110.246 31.0802 110.456 31.3731 110.663 31.6829C110.878 32.0022 111.072 32.3145 111.246 32.6198C111.42 32.9251 111.556 33.1912 111.654 33.4182L110.098 34.6125C109.929 34.3335 109.763 34.0677 109.599 33.8151C109.445 33.5551 109.293 33.3168 109.141 33.1C108.998 32.8928 108.871 32.7178 108.761 32.5749C108.389 32.0894 108.063 31.7041 107.784 31.4192C107.505 31.1342 107.23 30.944 106.96 30.8485C106.707 30.7553 106.424 30.7608 106.111 30.865C105.807 30.962 105.44 31.1532 105.008 31.4387C104.577 31.7243 104.047 32.1081 103.419 32.5902C102.8 33.065 102.292 33.4774 101.895 33.8273C101.508 34.17 101.223 34.4791 101.041 34.7547C100.869 35.023 100.79 35.2951 100.805 35.5709C100.837 35.849 100.954 36.1597 101.157 36.5031C101.36 36.8465 101.648 37.261 102.021 37.7466C102.262 38.0608 102.539 38.3926 102.852 38.7419C103.166 39.0913 103.444 39.3847 103.686 39.6221L102.101 40.8383C101.903 40.658 101.679 40.4361 101.432 40.1724C101.174 39.916 100.919 39.6427 100.667 39.3527C100.421 39.0722 100.192 38.7938 99.9806 38.5177Z" fill="white"/>
<path d="M104.463 45.3666L113.819 41.2437L112.374 37.9658L114.351 37.0948L118.271 45.9895L116.294 46.8605L114.85 43.5827L105.494 47.7055L104.463 45.3666Z" fill="white"/>
<path d="M107.409 52.9247L109.709 52.4036L110.286 54.9491L107.986 55.4702L107.409 52.9247Z" fill="white"/>
</svg>
