<svg width="130" height="130" viewBox="0 0 130 130" fill="none" xmlns="http://www.w3.org/2000/svg">
<path d="M108.517 70.5675C108.615 69.6608 108.757 68.9097 108.942 68.3142C109.128 67.7187 109.384 67.2456 109.712 66.8948C110.039 66.5441 110.453 66.2932 110.952 66.1421C111.45 66.0029 112.061 65.9363 112.784 65.9423C113.508 65.9483 114.371 66.0056 115.373 66.1141C116.375 66.2227 117.23 66.3516 117.938 66.5008C118.646 66.6499 119.228 66.8458 119.685 67.0884C120.14 67.3429 120.49 67.6765 120.735 68.0893C120.98 68.5021 121.129 69.0192 121.183 69.6406C121.236 70.2619 121.214 71.026 121.115 71.9327C121.078 72.2786 121.027 72.6352 120.963 73.0025C120.898 73.3817 120.823 73.7417 120.738 74.0825C120.652 74.4233 120.567 74.7097 120.482 74.9419L118.531 74.7305C118.602 74.4123 118.665 74.1053 118.721 73.8097C118.789 73.5153 118.844 73.2375 118.884 72.9763C118.923 72.7271 118.952 72.513 118.972 72.3341C119.038 71.7256 119.068 71.222 119.063 70.8231C119.058 70.4242 118.991 70.0971 118.862 69.8417C118.743 69.5995 118.534 69.4079 118.236 69.2669C117.949 69.1272 117.551 69.0117 117.042 68.9203C116.533 68.8289 115.885 68.7406 115.097 68.6553C114.322 68.5712 113.67 68.5187 113.141 68.4976C112.624 68.4778 112.205 68.5048 111.883 68.5785C111.573 68.6536 111.328 68.796 111.149 69.0059C110.98 69.229 110.85 69.5348 110.76 69.9233C110.669 70.3119 110.591 70.8103 110.525 71.4188C110.482 71.8125 110.454 72.2439 110.439 72.713C110.425 73.1822 110.423 73.5864 110.435 73.9256L108.448 73.7104C108.429 73.4427 108.421 73.128 108.424 72.7662C108.415 72.4032 108.419 72.0294 108.437 71.6451C108.453 71.2727 108.48 70.9135 108.517 70.5675Z" fill="#F1F1F1"/>
<path d="M106.285 79.8441C106.629 78.8964 106.969 78.1328 107.307 77.5531C107.64 76.9848 108 76.5728 108.387 76.3171C108.784 76.0655 109.237 75.9425 109.746 75.9481C110.265 75.9578 110.872 76.0627 111.565 76.2629C112.259 76.4631 113.079 76.735 114.027 77.0784C114.974 77.4219 115.778 77.7389 116.439 78.0293C117.1 78.3198 117.627 78.6258 118.021 78.9473C118.426 79.2729 118.695 79.6575 118.828 80.1013C118.972 80.5492 118.99 81.0982 118.882 81.7483C118.77 82.4097 118.542 83.2142 118.199 84.1619C117.855 85.1096 117.517 85.8676 117.183 86.4359C116.845 87.0155 116.478 87.4312 116.08 87.6828C115.694 87.9385 115.241 88.0615 114.721 88.0518C114.209 88.0574 113.606 87.9602 112.912 87.76C112.219 87.5598 111.399 87.2879 110.451 86.9445C109.503 86.601 108.699 86.284 108.039 85.9936C107.378 85.7031 106.847 85.3895 106.446 85.0526C106.052 84.7311 105.783 84.3464 105.639 83.8985C105.506 83.4547 105.496 82.9022 105.608 82.2408C105.716 81.5907 105.942 80.7918 106.285 79.8441ZM108.248 80.5555C108.068 81.0519 107.94 81.4586 107.863 81.7755C107.783 82.1036 107.772 82.3804 107.83 82.6059C107.889 82.8314 108.045 83.0348 108.299 83.216C108.548 83.4084 108.917 83.6059 109.405 83.8084C109.893 84.0109 110.532 84.2552 111.322 84.5414C112.112 84.8276 112.759 85.0494 113.263 85.2068C113.768 85.3641 114.178 85.4488 114.492 85.4607C114.803 85.484 115.053 85.4278 115.243 85.2923C115.432 85.1568 115.601 84.9372 115.749 84.6336C115.894 84.3412 116.056 83.9469 116.236 83.4504C116.412 82.9653 116.54 82.5587 116.62 82.2305C116.697 81.9136 116.706 81.6425 116.647 81.417C116.589 81.1915 116.435 80.9825 116.185 80.79C115.932 80.6088 115.561 80.417 115.073 80.2145C114.584 80.0121 113.946 79.7677 113.156 79.4815C112.366 79.1953 111.719 78.9735 111.214 78.8161C110.71 78.6588 110.302 78.5685 109.991 78.5453C109.677 78.5333 109.425 78.5951 109.235 78.7306C109.045 78.8661 108.879 79.0801 108.734 79.3724C108.586 79.676 108.424 80.0704 108.248 80.5555Z" fill="#F1F1F1"/>
<path d="M103.959 86.0821L114.105 93.1828L112.588 95.3506L103.538 94.9712L103.487 95.0449L109.74 99.4209L108.336 101.427L98.1899 94.3258L99.5832 92.335L109.096 92.7749L109.148 92.7011L102.556 88.0877L103.959 86.0821Z" fill="#F1F1F1"/>
<path d="M95.2103 97.0249L101.98 104.687L104.664 102.315L106.094 103.934L98.8098 110.37L97.3796 108.751L100.064 106.379L93.2947 98.7173L95.2103 97.0249Z" fill="#F1F1F1"/>
<path d="M90.8798 101.132L92.9032 114.05L89.8727 115.635L80.4166 106.605L82.7294 105.395L84.8109 107.394L89.1014 105.15L88.6149 102.317L90.8798 101.132ZM89.4867 107.285L86.3605 108.92L90.3118 112.785L90.4075 112.735L89.4867 107.285Z" fill="#F1F1F1"/>
<path d="M74.7111 107.787C75.5966 107.569 76.3508 107.445 76.9737 107.415C77.5966 107.385 78.129 107.463 78.5708 107.651C79.0126 107.839 79.39 108.141 79.703 108.558C80.0044 108.978 80.2763 109.529 80.5186 110.211C80.7609 110.893 81.0028 111.723 81.2442 112.702C81.4857 113.68 81.6576 114.528 81.7602 115.244C81.8627 115.96 81.8782 116.575 81.8068 117.087C81.7237 117.601 81.5302 118.045 81.2264 118.416C80.9225 118.788 80.4879 119.105 79.9224 119.368C79.357 119.631 78.6315 119.872 77.7461 120.091C77.4082 120.174 77.0558 120.248 76.6889 120.314C76.3103 120.383 75.9463 120.436 75.597 120.472C75.2476 120.509 74.9492 120.527 74.7018 120.526L74.2319 118.621C74.5551 118.579 74.8652 118.533 75.1622 118.485C75.4621 118.448 75.7417 118.404 76.0009 118.352C76.2484 118.303 76.4596 118.257 76.6343 118.214C77.2285 118.068 77.7121 117.924 78.0851 117.782C78.458 117.641 78.7424 117.466 78.938 117.257C79.1249 117.062 79.2334 116.801 79.2635 116.472C79.2965 116.155 79.2687 115.741 79.1801 115.232C79.0915 114.722 78.9523 114.083 78.7626 113.314C78.5758 112.557 78.4017 111.926 78.2403 111.422C78.0818 110.93 77.9127 110.545 77.7331 110.268C77.5564 110.002 77.3387 109.821 77.08 109.724C76.8125 109.642 76.4807 109.625 76.0848 109.673C75.6888 109.722 75.1937 109.819 74.5995 109.965C74.2151 110.06 73.7999 110.181 73.3542 110.328C72.9084 110.475 72.5282 110.612 72.2135 110.739L71.7349 108.8C71.9798 108.69 72.2726 108.574 72.6135 108.453C72.9515 108.32 73.3041 108.196 73.6712 108.081C74.0266 107.969 74.3732 107.871 74.7111 107.787Z" fill="#F1F1F1"/>
<path d="M67.4549 108.954L67.6916 119.176L71.2727 119.093L71.3227 121.252L61.6053 121.477L61.5553 119.318L65.1363 119.235L64.8996 109.014L67.4549 108.954Z" fill="#F1F1F1"/>
<path d="M60.0626 108.902L57.6031 121.04L49.3116 119.359L49.7263 117.313L55.5127 118.486L56.1097 115.54L51.1525 114.535L51.5671 112.489L56.5244 113.493L57.1428 110.441L51.3564 109.269L51.7711 107.222L60.0626 108.902Z" fill="#F1F1F1"/>
<path d="M50.6423 106.625L49.8057 108.83L47.3655 107.904L48.2022 105.699L50.6423 106.625Z" fill="#F1F1F1"/>
<path d="M38.7933 100.175C39.5347 100.706 40.1192 101.199 40.5469 101.653C40.9745 102.107 41.2606 102.563 41.4051 103.02C41.5495 103.478 41.5649 103.962 41.4512 104.471C41.3278 104.973 41.0857 105.537 40.725 106.164C40.3643 106.792 39.8904 107.515 39.3034 108.335C38.7164 109.154 38.184 109.835 37.7062 110.379C37.2284 110.922 36.7717 111.333 36.3361 111.612C35.8907 111.883 35.4281 112.024 34.9482 112.034C34.4684 112.045 33.9447 111.921 33.3773 111.662C32.8099 111.403 32.1555 111.008 31.4141 110.477C31.1312 110.274 30.8455 110.055 30.557 109.819C30.2588 109.576 29.9823 109.333 29.7273 109.092C29.4723 108.85 29.2648 108.635 29.1046 108.446L30.2471 106.851C30.4896 107.069 30.7257 107.275 30.9557 107.47C31.1786 107.674 31.3939 107.857 31.6015 108.021C31.7994 108.177 31.9715 108.308 32.1178 108.413C32.6153 108.769 33.039 109.043 33.3889 109.235C33.7388 109.426 34.0567 109.529 34.3427 109.542C34.6119 109.557 34.8812 109.47 35.1507 109.279C35.4132 109.098 35.7093 108.808 36.0391 108.41C36.3688 108.011 36.7643 107.49 37.2255 106.846C37.6797 106.212 38.0459 105.67 38.3241 105.22C38.5953 104.779 38.7779 104.401 38.8718 104.084C38.9587 103.777 38.9549 103.494 38.8603 103.235C38.7491 102.978 38.5465 102.715 38.2525 102.445C37.9585 102.175 37.5628 101.862 37.0652 101.506C36.7433 101.275 36.3816 101.038 35.9802 100.795C35.5788 100.552 35.2275 100.352 34.9264 100.195L36.0899 98.571C36.3325 98.6857 36.6106 98.8333 36.9242 99.0136C37.2448 99.1843 37.5682 99.3716 37.8943 99.5757C38.2107 99.7728 38.5104 99.9727 38.7933 100.175Z" fill="#F1F1F1"/>
<path d="M31.7842 93.6337C32.4406 94.3988 32.9381 95.0708 33.2767 95.6499C33.6076 96.2198 33.7894 96.7358 33.8221 97.1979C33.8458 97.6677 33.7301 98.1227 33.4752 98.5627C33.2112 99.0106 32.8216 99.4871 32.3064 99.9924C31.7912 100.498 31.151 101.078 30.386 101.735C29.621 102.391 28.9496 102.935 28.3719 103.368C27.7942 103.8 27.2685 104.109 26.7948 104.294C26.312 104.487 25.8447 104.532 25.393 104.429C24.9322 104.334 24.4453 104.08 23.9323 103.667C23.4115 103.244 22.8229 102.65 22.1666 101.885C21.5102 101.12 21.0166 100.452 20.6858 99.8823C20.3471 99.3033 20.166 98.7788 20.1423 98.3089C20.1096 97.8469 20.2252 97.3919 20.4892 96.9441C20.7364 96.4949 21.1175 96.0177 21.6327 95.5125C22.1479 95.0072 22.788 94.4265 23.5531 93.7701C24.3181 93.1138 24.9895 92.5694 25.5672 92.137C26.1449 91.7047 26.6791 91.3966 27.1697 91.2129C27.6434 91.0278 28.1106 90.9827 28.5714 91.0775C29.0231 91.1802 29.5094 91.4429 30.0302 91.8656C30.5432 92.2793 31.1279 92.8687 31.7842 93.6337ZM30.1995 94.9933C29.8557 94.5925 29.5647 94.2809 29.3264 94.0585C29.0803 93.8269 28.8446 93.6812 28.6194 93.6215C28.3942 93.5617 28.1404 93.5976 27.858 93.7292C27.5678 93.8516 27.2146 94.0757 26.7982 94.4013C26.3818 94.7268 25.8549 95.1631 25.2174 95.71C24.5798 96.257 24.0685 96.7115 23.6834 97.0735C23.2983 97.4355 23.0231 97.7506 22.858 98.0188C22.685 98.2779 22.6109 98.5233 22.6357 98.7549C22.6605 98.9866 22.7687 99.2417 22.9601 99.5201C23.1438 99.7895 23.4075 100.125 23.7513 100.525C24.0873 100.917 24.3783 101.228 24.6244 101.46C24.8627 101.683 25.0945 101.824 25.3197 101.883C25.5449 101.943 25.8026 101.912 26.0928 101.789C26.3751 101.658 26.7245 101.429 27.1409 101.104C27.5572 100.778 28.0842 100.342 28.7217 99.7948C29.3593 99.2479 29.8706 98.7934 30.2557 98.4314C30.6408 98.0694 30.9198 97.7588 31.0928 97.4997C31.258 97.2315 31.3282 96.9816 31.3034 96.7499C31.2785 96.5183 31.1743 96.2677 30.9907 95.9984C30.7992 95.7199 30.5355 95.3849 30.1995 94.9933Z" fill="#F1F1F1"/>
<path d="M27.5629 88.6495L16.424 94.0614L15.2677 91.6815L20.0006 83.9587L19.9613 83.8777L13.0966 87.213L12.0268 85.0111L23.1657 79.5992L24.2276 81.7848L19.2167 89.8829L19.256 89.9638L26.4931 86.4476L27.5629 88.6495Z" fill="#F1F1F1"/>
<path d="M22.2644 75.6203L12.2598 77.7273L12.998 81.2324L10.8844 81.6775L8.88128 72.1662L10.9949 71.7211L11.7331 75.2262L21.7376 73.1192L22.2644 75.6203Z" fill="#F1F1F1"/>
<path d="M20.8137 69.6672L8.58284 65.0456L8.70161 61.6277L21.2238 57.8663L21.1331 60.4747L18.3669 61.2971L18.1988 66.1362L20.9025 67.1127L20.8137 69.6672ZM16.1525 65.4167L16.275 61.8908L10.9628 63.4173L10.9591 63.5252L16.1525 65.4167Z" fill="#F1F1F1"/>
<path d="M22.9565 52.4646C22.7113 53.343 22.4486 54.0608 22.1685 54.618C21.8884 55.1752 21.558 55.6 21.1773 55.8925C20.7967 56.1849 20.3478 56.3648 19.8306 56.4322C19.3167 56.4881 18.7033 56.4539 17.9904 56.3297C17.2776 56.2054 16.4357 56.0078 15.4648 55.7368C14.4939 55.4658 13.6714 55.1988 12.9973 54.9359C12.3232 54.6729 11.7808 54.3845 11.3701 54.0705C10.9626 53.7449 10.6718 53.3585 10.4976 52.9112C10.3235 52.4639 10.2609 51.9294 10.3099 51.3077C10.3588 50.6859 10.5059 49.9359 10.7511 49.0575C10.8447 48.7223 10.9531 48.3788 11.0762 48.0269C11.2026 47.6635 11.3356 47.3207 11.4754 46.9984C11.6152 46.6761 11.7463 46.4074 11.8686 46.1924L13.7584 46.7199C13.6366 47.0223 13.5238 47.3148 13.42 47.5973C13.3047 47.8765 13.2057 48.1417 13.1232 48.3928C13.0439 48.6323 12.98 48.8387 12.9316 49.0121C12.7671 49.6015 12.6547 50.0934 12.5945 50.4877C12.5342 50.8821 12.547 51.2158 12.6327 51.4889C12.7101 51.7472 12.8845 51.9703 13.156 52.1582C13.4159 52.3429 13.7895 52.522 14.2768 52.6954C14.7642 52.8688 15.3892 53.062 16.1521 53.2749C16.9033 53.4846 17.5381 53.6431 18.0563 53.7504C18.563 53.8545 18.9811 53.8965 19.3107 53.8763C19.6287 53.853 19.8934 53.7525 20.105 53.5748C20.3082 53.3823 20.4862 53.1019 20.6389 52.7334C20.7916 52.3648 20.9502 51.8859 21.1148 51.2964C21.2213 50.915 21.3201 50.494 21.4112 50.0336C21.5024 49.5732 21.57 49.1747 21.6141 48.8381L23.5386 49.3753C23.5138 49.6425 23.4704 49.9543 23.4082 50.3107C23.3577 50.6704 23.2923 51.0384 23.2122 51.4147C23.1353 51.7794 23.0501 52.1294 22.9565 52.4646Z" fill="#F1F1F1"/>
<path d="M25.4455 45.6411L16.4391 40.8022L14.7438 43.9576L12.841 42.9354L17.4414 34.3729L19.3441 35.3952L17.6488 38.5506L26.6552 43.3895L25.4455 45.6411Z" fill="#F1F1F1"/>
<path d="M28.9935 39.3752L19.6238 31.2775L25.1557 24.8767L26.7355 26.2421L22.8749 30.709L25.1493 32.6746L28.4566 28.8477L30.0364 30.213L26.729 34.0399L29.0851 36.0761L32.9456 31.6091L34.5254 32.9744L28.9935 39.3752Z" fill="#F1F1F1"/>
<path d="M35.6311 32.2066L34.1154 30.4003L36.1147 28.7226L37.6305 30.5289L35.6311 32.2066Z" fill="#F1F1F1"/>
<path d="M47.0906 24.9483C46.2645 25.3346 45.5488 25.603 44.9436 25.7536C44.3384 25.9041 43.8009 25.9303 43.331 25.832C42.8612 25.7338 42.4322 25.5105 42.0441 25.1621C41.6668 24.8086 41.2931 24.321 40.9229 23.6993C40.5527 23.0776 40.1541 22.3102 39.7271 21.3971C39.3001 20.484 38.9667 19.6861 38.727 19.0034C38.4872 18.3207 38.3526 17.7212 38.3232 17.2051C38.3047 16.6839 38.4084 16.2115 38.6342 15.7879C38.8601 15.3644 39.2248 14.9687 39.7283 14.6007C40.2319 14.2328 40.8967 13.8556 41.7228 13.4693C42.0381 13.3219 42.3693 13.1803 42.7164 13.0445C43.0744 12.9035 43.4212 12.7811 43.7568 12.6772C44.0924 12.5732 44.3816 12.4976 44.6244 12.4503L45.4555 14.2276C45.1467 14.3322 44.8514 14.4372 44.5695 14.5426C44.2825 14.637 44.0168 14.7347 43.7726 14.8357C43.5393 14.9316 43.3411 15.0176 43.178 15.0939C42.6236 15.3531 42.1772 15.5884 41.8388 15.7996C41.5005 16.0108 41.2556 16.2379 41.1043 16.4809C40.9587 16.7079 40.9031 16.9856 40.9375 17.314C40.9667 17.6315 41.0743 18.0316 41.2603 18.5142C41.4463 18.9969 41.707 19.5969 42.0425 20.3144C42.3729 21.0209 42.6662 21.6058 42.9225 22.0688C43.1737 22.521 43.4142 22.8655 43.6442 23.1024C43.8692 23.3284 44.1179 23.4637 44.3905 23.5085C44.6689 23.5373 44.9977 23.4895 45.3767 23.3653C45.7558 23.241 46.2225 23.0492 46.7769 22.79C47.1356 22.6223 47.5193 22.423 47.928 22.1921C48.3367 21.9613 48.683 21.7529 48.967 21.5671L49.8134 23.377C49.5946 23.5323 49.3297 23.7025 49.0189 23.8876C48.7131 24.0836 48.3914 24.2738 48.0537 24.4582C47.7269 24.6375 47.4059 24.8009 47.0906 24.9483Z" fill="#F1F1F1"/>
<path d="M56.1614 22.0329C55.1727 22.2293 54.343 22.333 53.6723 22.3439C53.0133 22.3525 52.4745 22.2576 52.0558 22.0594C51.6349 21.8494 51.2952 21.5254 51.0369 21.0873C50.7762 20.6375 50.5522 20.0642 50.3648 19.3673C50.1775 18.6705 49.9856 17.8277 49.7891 16.839C49.5927 15.8504 49.4479 14.9982 49.3547 14.2827C49.2615 13.5671 49.2505 12.9576 49.3217 12.4541C49.3906 11.9388 49.5806 11.5095 49.8917 11.1663C50.2005 10.8113 50.6609 10.5119 51.2731 10.2679C51.8971 10.0216 52.7034 9.80023 53.6921 9.60381C54.6808 9.40739 55.5046 9.3049 56.1636 9.29633C56.8343 9.28542 57.3802 9.38496 57.8011 9.59495C58.2198 9.79317 58.5594 10.1172 58.8201 10.567C59.0902 11.0028 59.3189 11.569 59.5063 12.2659C59.6937 12.9627 59.8856 13.8055 60.082 14.7942C60.2784 15.7828 60.4232 16.635 60.5164 17.3505C60.6097 18.0661 60.6159 18.6827 60.5353 19.2003C60.464 19.7038 60.274 20.1331 59.9653 20.4881C59.6542 20.8313 59.1866 21.126 58.5627 21.3723C57.9505 21.6163 57.1501 21.8365 56.1614 22.0329ZM55.7545 19.9849C56.2724 19.882 56.6867 19.7814 56.9975 19.6829C57.32 19.5821 57.5626 19.4483 57.7252 19.2814C57.8878 19.1145 57.9811 18.8758 58.005 18.5652C58.0407 18.2522 58.0189 17.8345 57.9395 17.3119C57.8602 16.7894 57.7387 16.1161 57.575 15.2922C57.4113 14.4683 57.2662 13.7998 57.1398 13.2866C57.0134 12.7734 56.8739 12.379 56.7213 12.1035C56.5804 11.8256 56.403 11.6406 56.1889 11.5486C55.9749 11.4565 55.6996 11.4256 55.363 11.4557C55.0382 11.4835 54.6169 11.5489 54.099 11.6518C53.5929 11.7523 53.1785 11.853 52.856 11.9538C52.5452 12.0522 52.3085 12.1849 52.1459 12.3518C51.9833 12.5187 51.8842 12.7586 51.8485 13.0715C51.8246 13.3821 51.8523 13.7987 51.9316 14.3213C52.011 14.8438 52.1325 15.5171 52.2962 16.341C52.4598 17.1649 52.6049 17.8334 52.7313 18.3466C52.8577 18.8598 52.9914 19.2554 53.1322 19.5332C53.2848 19.8088 53.4682 19.9926 53.6822 20.0846C53.8963 20.1767 54.1657 20.2088 54.4905 20.181C54.8271 20.1508 55.2484 20.0855 55.7545 19.9849Z" fill="#F1F1F1"/>
<path d="M62.8144 20.7588L63.626 8.40144L66.2663 8.57486L70.6337 16.5101L70.7235 16.516L71.2237 8.90046L73.6664 9.0609L72.8548 21.4183L70.43 21.259L65.8743 12.8965L65.7845 12.8906L65.2571 20.9193L62.8144 20.7588Z" fill="#F1F1F1"/>
<path d="M76.7183 22.5421L79.8009 12.7938L76.3856 11.7139L77.0368 9.65437L86.3045 12.585L85.6533 14.6445L82.2379 13.5645L79.1554 23.3127L76.7183 22.5421Z" fill="#F1F1F1"/>
<path d="M82.5362 24.1414L92.5704 15.7588L95.4891 17.5414L92.6133 30.2961L90.3859 28.9357L91.0286 26.1223L86.8963 23.5984L84.7175 25.4736L82.5362 24.1414ZM88.5283 22.1696L91.5391 24.0086L92.8194 18.6317L92.7272 18.5754L88.5283 22.1696Z" fill="#F1F1F1"/>
<path d="M96.4852 34.4597C95.8403 33.8148 95.3439 33.2336 94.996 32.716C94.6481 32.1984 94.4402 31.702 94.3724 31.2268C94.3045 30.7516 94.3681 30.2722 94.5633 29.7885C94.7669 29.3134 95.0979 28.7958 95.5561 28.2357C96.0143 27.6757 96.5997 27.0393 97.3125 26.3265C98.0253 25.6138 98.6617 25.0283 99.2217 24.5701C99.7817 24.1119 100.299 23.781 100.775 23.5773C101.258 23.3822 101.738 23.3185 102.213 23.3864C102.688 23.4543 103.184 23.6622 103.702 24.0101C104.22 24.358 104.801 24.8543 105.446 25.4992C105.692 25.7453 105.938 26.0083 106.184 26.2884C106.438 26.5769 106.672 26.8611 106.884 27.1411C107.096 27.4211 107.266 27.6672 107.393 27.8794L106.006 29.2667C105.802 29.0121 105.603 28.7703 105.407 28.5412C105.221 28.3036 105.038 28.0872 104.86 27.8921C104.69 27.7054 104.542 27.5484 104.415 27.4211C103.982 26.9884 103.609 26.649 103.295 26.4029C102.981 26.1568 102.684 26.0041 102.404 25.9447C102.141 25.8853 101.861 25.9277 101.564 26.072C101.275 26.2077 100.936 26.4453 100.545 26.7847C100.155 27.1242 99.6799 27.5739 99.1199 28.1339C98.5683 28.6855 98.1186 29.1606 97.7707 29.5594C97.4313 29.9498 97.1895 30.2934 97.0452 30.5904C96.9095 30.8789 96.867 31.1589 96.9179 31.4304C96.9858 31.702 97.1428 31.9947 97.3889 32.3087C97.635 32.6226 97.9744 32.996 98.4071 33.4287C98.6871 33.7087 99.0053 34.0015 99.3617 34.307C99.7181 34.6124 100.032 34.867 100.304 35.0706L98.8908 36.4834C98.6702 36.3307 98.4198 36.1398 98.1398 35.9107C97.8513 35.6901 97.5628 35.4525 97.2743 35.1979C96.9943 34.9518 96.7313 34.7058 96.4852 34.4597Z" fill="#F1F1F1"/>
<path d="M101.279 40.0354L109.905 34.547L107.982 31.5249L109.805 30.3653L115.023 38.5661L113.2 39.7256L111.277 36.7035L102.651 42.1919L101.279 40.0354Z" fill="#F1F1F1"/>
<path d="M105.073 46.344L116.732 42.1681L119.585 50.1327L117.619 50.8367L115.628 45.2785L112.798 46.2921L114.504 51.0539L112.538 51.758L110.833 46.9962L107.901 48.0463L109.892 53.6045L107.926 54.3086L105.073 46.344Z" fill="#F1F1F1"/>
<path d="M108.001 55.5066L110.319 55.0737L110.798 57.6393L108.48 58.0722L108.001 55.5066Z" fill="#F1F1F1"/>
</svg>
