<svg width="66" height="66" viewBox="0 0 66 66" fill="none" xmlns="http://www.w3.org/2000/svg">
<path d="M54.7897 35.4866C54.816 35.2601 54.851 35.0105 54.8948 34.7377C54.9379 34.4709 54.9862 34.2107 55.0398 33.9572C55.0875 33.703 55.1357 33.47 55.1844 33.2582L56.1946 33.3756C56.1511 33.594 56.1073 33.8154 56.0631 34.0398C56.0182 34.2702 55.9777 34.489 55.9416 34.6962C55.9114 34.9041 55.8876 35.0825 55.8703 35.2315C55.835 35.5355 55.8196 35.7723 55.8241 35.9419C55.8345 36.1123 55.8617 36.2423 55.9056 36.332C55.9457 36.4031 55.9911 36.4536 56.042 36.4837C56.0988 36.5145 56.1656 36.5373 56.2424 36.5523C56.3252 36.5679 56.4172 36.5817 56.5185 36.5934C56.6556 36.6093 56.7699 36.6136 56.8614 36.6061C56.9521 36.6045 57.0235 36.5886 57.0753 36.5584C57.1331 36.5289 57.1787 36.4738 57.2123 36.3931C57.2451 36.3184 57.2748 36.2192 57.3012 36.0954L57.631 34.7384C57.6986 34.4684 57.7875 34.2492 57.8976 34.0808C58.0071 33.9183 58.1422 33.7951 58.303 33.7111C58.4638 33.627 58.6479 33.5759 58.8554 33.5578C59.0622 33.5455 59.2937 33.5543 59.55 33.5841C59.9553 33.6311 60.2705 33.7251 60.4958 33.8661C60.721 34.007 60.8844 34.1861 60.9861 34.4032C61.087 34.6264 61.1391 34.8801 61.1423 35.1643C61.1515 35.4493 61.137 35.7557 61.099 36.0835C61.0713 36.3219 61.0339 36.5652 60.987 36.8134C60.946 37.0624 60.9008 37.2957 60.8513 37.5135C60.8019 37.7312 60.7506 37.9125 60.6975 38.0573L59.7142 37.9431C59.7553 37.7969 59.7962 37.6265 59.837 37.4319C59.8777 37.2373 59.9135 37.033 59.9444 36.8192C59.9812 36.606 60.0107 36.4041 60.0329 36.2133C60.0654 35.9332 60.0794 35.7083 60.075 35.5387C60.0758 35.3757 60.0575 35.2467 60.0202 35.1518C59.9724 35.0436 59.9022 34.972 59.8096 34.9371C59.7163 34.9081 59.5982 34.8853 59.4551 34.8687C59.2763 34.8479 59.1379 34.8439 59.0397 34.8567C58.9476 34.8702 58.8784 34.9195 58.8323 35.0048C58.7861 35.09 58.7401 35.2266 58.6941 35.4145L58.3732 36.7726C58.336 36.9374 58.2882 37.0889 58.2299 37.2271C58.1715 37.3653 58.0911 37.4858 57.9885 37.5887C57.886 37.6915 57.7501 37.7694 57.5809 37.8222C57.4926 37.8542 57.3904 37.8756 57.2744 37.8863C57.1644 37.8976 57.0401 37.9013 56.9017 37.8973C56.7625 37.8993 56.6095 37.8906 56.4426 37.8712C56.0969 37.831 55.812 37.7617 55.5879 37.6632C55.3631 37.5706 55.1894 37.4538 55.0669 37.3127C54.9443 37.1717 54.858 37.0046 54.8079 36.8115C54.7572 36.6244 54.7357 36.4196 54.7434 36.197C54.7452 35.9737 54.7606 35.7369 54.7897 35.4866Z" fill="white"/>
<path d="M54.3957 38.6191L60.193 40.7943L58.707 44.7547L57.7296 44.388L58.7666 41.6241L57.3594 41.0961L56.471 43.4639L55.4935 43.0971L56.382 40.7293L54.9242 40.1824L53.8871 42.9462L52.9097 42.5794L54.3957 38.6191Z" fill="white"/>
<path d="M52.5213 43.5114L57.5682 47.0987L55.8528 49.5122C55.6199 49.8398 55.3972 50.0754 55.1848 50.2189C54.9689 50.3673 54.7536 50.4424 54.5388 50.4443C54.3288 50.4496 54.1115 50.3982 53.8866 50.2899C53.6632 50.19 53.4292 50.0531 53.1847 49.8793C53.0135 49.7577 52.8406 49.6126 52.6658 49.4442C52.491 49.2759 52.357 49.0812 52.2637 48.8603C52.167 48.6443 52.156 48.4009 52.2307 48.1301L49.6691 47.524L50.4512 46.4237L53.0182 47.0999L52.6963 47.2575C52.706 47.2129 52.7257 47.1644 52.7556 47.112C52.782 47.0645 52.816 47.0114 52.8578 46.9527L53.6295 45.867L51.7809 44.5531L52.5213 43.5114ZM54.4731 46.4667L53.7952 47.4203C53.6492 47.6257 53.5467 47.7958 53.4878 47.9305C53.4288 48.0653 53.4053 48.1811 53.4174 48.278C53.4344 48.3784 53.4841 48.469 53.5666 48.5497C53.654 48.6339 53.7735 48.7299 53.9251 48.8376C54.0767 48.9454 54.2066 49.0267 54.3149 49.0816C54.4231 49.1364 54.5232 49.1561 54.6153 49.1405C54.7073 49.1249 54.809 49.0647 54.9203 48.9598C55.0282 48.8598 55.1552 48.7072 55.3012 48.5018L55.9842 47.5408L54.4731 46.4667Z" fill="white"/>
<path d="M47.6914 49.3958L53.1757 52.8863L52.1661 53.7273L47.9112 50.9815L47.8766 51.0103L49.8218 55.68L48.8329 56.5037L46.3914 50.4787L47.6914 49.3958Z" fill="white"/>
<path d="M44.4212 51.8198L47.4719 57.2082L46.3598 57.8378L43.3091 52.4494L44.4212 51.8198Z" fill="white"/>
<path d="M39.9921 53.7913C40.4231 53.6424 40.793 53.5463 41.1019 53.5031C41.4107 53.4599 41.6793 53.475 41.9078 53.5484C42.1363 53.6218 42.338 53.7553 42.5127 53.9488C42.6819 54.1443 42.8422 54.4063 42.9938 54.7348C43.1454 55.0633 43.3035 55.4657 43.468 55.9421C43.6326 56.4185 43.7567 56.8327 43.8402 57.1847C43.9238 57.5367 43.9593 57.8418 43.947 58.1C43.9289 58.3602 43.8527 58.5896 43.7183 58.7884C43.5838 58.9873 43.3818 59.165 43.1121 59.3216C42.8425 59.4782 42.4922 59.631 42.0612 59.7799C41.8967 59.8368 41.7246 59.8899 41.5449 59.9393C41.3595 59.9906 41.1807 60.0334 41.0084 60.0675C40.8361 60.1016 40.6883 60.1241 40.5651 60.1349L40.2447 59.2077C40.4037 59.1718 40.5561 59.1351 40.7018 59.0974C40.8494 59.0655 40.9866 59.0308 41.1134 58.9933C41.2344 58.9579 41.3375 58.9254 41.4225 58.896C41.7118 58.7961 41.946 58.7025 42.1253 58.6151C42.3046 58.5278 42.4383 58.4277 42.5262 58.3147C42.6105 58.2095 42.6526 58.0743 42.6527 57.9092C42.6548 57.7498 42.6222 57.5452 42.5549 57.2955C42.4877 57.0458 42.3894 56.7337 42.2601 56.3595C42.1328 55.9908 42.0175 55.6847 41.9142 55.441C41.813 55.2031 41.7113 55.0192 41.6094 54.8894C41.5093 54.7652 41.3927 54.6849 41.2595 54.6484C41.1226 54.6195 40.9566 54.6261 40.7616 54.6681C40.5666 54.71 40.3245 54.781 40.0353 54.8809C39.8482 54.9456 39.647 55.0246 39.4317 55.118C39.2164 55.2115 39.0332 55.297 38.8823 55.3745L38.5561 54.4303C38.673 54.3645 38.8136 54.2937 38.9778 54.2179C39.1401 54.1364 39.31 54.0587 39.4876 53.9846C39.6595 53.9126 39.8277 53.8481 39.9921 53.7913Z" fill="white"/>
<path d="M37.2472 54.7018L37.8195 60.8673L33.6076 61.2582L33.5111 60.2187L36.4505 59.9459L36.3116 58.4493L33.7934 58.6831L33.6969 57.6435L36.2151 57.4098L36.0712 55.8595L33.1318 56.1323L33.0353 55.0927L37.2472 54.7018Z" fill="white"/>
<path d="M29.7351 54.6869C29.9606 54.721 30.2088 54.7646 30.4799 54.8178C30.7451 54.87 31.0034 54.9273 31.2549 54.9897C31.5074 55.0461 31.7385 55.1023 31.9485 55.1583L31.7964 56.1639C31.5795 56.1129 31.3598 56.0614 31.137 56.0095C30.9084 55.9567 30.6911 55.9087 30.4853 55.8654C30.2785 55.828 30.101 55.7981 29.9527 55.7757C29.6501 55.7299 29.414 55.7063 29.2443 55.7049C29.0737 55.7094 28.9428 55.7321 28.8517 55.7729C28.7793 55.8105 28.7271 55.8542 28.6953 55.904C28.6626 55.9597 28.6375 56.0257 28.6199 56.1019C28.6014 56.1841 28.5845 56.2756 28.5692 56.3764C28.5486 56.5129 28.5404 56.6269 28.5448 56.7186C28.5431 56.8094 28.5566 56.8812 28.585 56.9341C28.6125 56.9928 28.666 57.0404 28.7454 57.0767C28.819 57.1121 28.9171 57.1451 29.0399 57.1759L30.3847 57.5523C30.6522 57.6292 30.8682 57.7256 31.0327 57.8415C31.1913 57.9565 31.3098 58.0958 31.3882 58.2594C31.4666 58.423 31.5113 58.6088 31.5223 58.8168C31.5274 59.0239 31.5106 59.2549 31.472 59.51C31.411 59.9134 31.3062 60.2253 31.1575 60.4455C31.0089 60.6658 30.8243 60.8229 30.6038 60.917C30.3773 61.0101 30.1219 61.0534 29.8377 61.0468C29.5526 61.0461 29.2469 61.0211 28.9206 60.9717C28.6833 60.9358 28.4414 60.8901 28.195 60.8346C27.9476 60.7851 27.716 60.7318 27.5001 60.6749C27.2841 60.6179 27.1047 60.5604 26.9618 60.5024L27.1099 59.5235C27.2546 59.5697 27.4235 59.6165 27.6166 59.6639C27.8097 59.7113 28.0126 59.7542 28.2252 59.7924C28.437 59.8366 28.6378 59.8731 28.8277 59.9018C29.1065 59.944 29.3308 59.9658 29.5005 59.9672C29.6633 59.9736 29.7928 59.9599 29.889 59.9259C29.9988 59.8818 30.0728 59.8141 30.1109 59.7228C30.1431 59.6305 30.1699 59.5132 30.1915 59.3709C30.2184 59.1929 30.2272 59.0547 30.2178 58.9561C30.2075 58.8636 30.1606 58.7927 30.077 58.7437C29.9934 58.6946 29.8585 58.6439 29.6722 58.5914L28.3261 58.2239C28.1627 58.1809 28.0129 58.1279 27.8768 58.0648C27.7407 58.0018 27.623 57.9172 27.5238 57.8112C27.4245 57.7051 27.3514 57.5666 27.3045 57.3957C27.2755 57.3063 27.2577 57.2035 27.251 57.0872C27.2435 56.9768 27.2441 56.8525 27.2529 56.7143C27.2557 56.5751 27.2697 56.4225 27.2948 56.2564C27.3469 55.9123 27.426 55.63 27.5322 55.4094C27.6325 55.1879 27.7553 55.0184 27.9005 54.9008C28.0457 54.7832 28.2157 54.7027 28.4104 54.6593C28.5991 54.6151 28.8046 54.6007 29.0268 54.6161C29.2499 54.6256 29.486 54.6492 29.7351 54.6869Z" fill="white"/>
<path d="M26.6821 54.1004L26.2971 55.2147L25.0636 54.7886L25.4486 53.6742L26.6821 54.1004Z" fill="white"/>
<path d="M20.1008 50.7355C20.2847 50.8703 20.4844 51.0241 20.6999 51.197C20.9105 51.3663 21.1128 51.5369 21.3067 51.7087C21.5041 51.8758 21.6829 52.0328 21.8429 52.1799L21.2417 53.0001C21.0732 52.8544 20.9024 52.7068 20.7292 52.5575C20.5511 52.4047 20.3809 52.2613 20.2186 52.1275C20.0528 51.9985 19.9094 51.8897 19.7884 51.801C19.5416 51.6201 19.3434 51.4896 19.1937 51.4097C19.0405 51.3346 18.914 51.2939 18.8143 51.2878C18.7327 51.2875 18.6663 51.302 18.615 51.3314C18.5602 51.3656 18.5073 51.4124 18.4563 51.4718C18.4018 51.536 18.3444 51.6092 18.2841 51.6915C18.2026 51.8028 18.1424 51.9 18.1037 51.9833C18.0602 52.0629 18.0388 52.1328 18.0394 52.1928C18.0365 52.2576 18.0619 52.3245 18.1154 52.3936C18.1641 52.459 18.2358 52.5338 18.3303 52.618L19.347 53.5753C19.5484 53.7675 19.695 53.9531 19.787 54.1321C19.8741 54.3076 19.9145 54.486 19.908 54.6672C19.9016 54.8485 19.8551 55.0338 19.7683 55.2232C19.6768 55.409 19.5547 55.606 19.4022 55.8141C19.161 56.1431 18.9234 56.3707 18.6896 56.4969C18.4558 56.6231 18.2194 56.6767 17.9803 56.6577C17.7365 56.6352 17.4902 56.5551 17.2415 56.4174C16.9892 56.2845 16.73 56.1206 16.4638 55.9255C16.2703 55.7836 16.0772 55.6309 15.8846 55.4674C15.6884 55.3087 15.5079 55.1541 15.343 55.0035C15.1782 54.8529 15.0459 54.7187 14.9462 54.601L15.5315 53.8025C15.6383 53.9106 15.7662 54.0304 15.9153 54.162C16.0643 54.2935 16.2242 54.4256 16.3948 54.5581C16.5619 54.6955 16.7229 54.821 16.8778 54.9345C17.1052 55.1012 17.2938 55.2245 17.4435 55.3045C17.5848 55.3857 17.7059 55.4336 17.8069 55.4481C17.9246 55.46 18.0215 55.4344 18.0976 55.3711C18.1689 55.3043 18.2471 55.2129 18.3322 55.0967C18.4387 54.9516 18.5106 54.8332 18.548 54.7416C18.5818 54.6548 18.5731 54.5703 18.5218 54.488C18.4705 54.4058 18.3745 54.2982 18.2338 54.1654L17.2118 53.2153C17.0869 53.1015 16.9788 52.985 16.8875 52.866C16.7962 52.747 16.7312 52.6175 16.6925 52.4775C16.6537 52.3376 16.6532 52.181 16.6909 52.0077C16.7067 51.9152 16.7386 51.8158 16.7866 51.7097C16.8311 51.6084 16.8893 51.4985 16.9612 51.3801C17.0283 51.2582 17.1115 51.1295 17.2108 50.994C17.4166 50.7133 17.6176 50.4999 17.8141 50.3537C18.0056 50.204 18.193 50.1108 18.3762 50.074C18.5594 50.0371 18.7473 50.0447 18.9399 50.0966C19.1276 50.1449 19.3164 50.2275 19.506 50.3442C19.6993 50.4561 19.8975 50.5865 20.1008 50.7355Z" fill="white"/>
<path d="M17.6155 48.8803L12.8868 52.8778L10.1559 49.6474L10.9532 48.9734L12.859 51.2278L14.0068 50.2575L12.3741 48.3261L13.1714 47.6521L14.8041 49.5835L15.9932 48.5783L14.0874 46.3239L14.8847 45.6499L17.6155 48.8803Z" fill="white"/>
<path d="M14.2608 44.8543L8.66157 47.498L7.39735 44.8205C7.22571 44.457 7.12935 44.1475 7.10826 43.892C7.08461 43.6312 7.12456 43.4066 7.22811 43.2184C7.32623 43.0327 7.47755 42.8684 7.68207 42.7254C7.8786 42.5795 8.11251 42.4425 8.38379 42.3144C8.57368 42.2248 8.78483 42.145 9.01723 42.0751C9.24962 42.0051 9.48495 41.9836 9.72322 42.0104C9.95893 42.0319 10.1765 42.1414 10.3761 42.3392L12.1589 40.4026L12.7353 41.6234L10.8887 43.5303L10.9089 43.1725C10.9431 43.2028 10.9757 43.2438 11.0067 43.2954C11.0352 43.3417 11.0648 43.3974 11.0956 43.4625L11.6643 44.667L13.7152 43.6987L14.2608 44.8543ZM10.7284 45.1089L10.2288 44.0509C10.1212 43.823 10.0231 43.6504 9.93451 43.533C9.8459 43.4156 9.75638 43.3384 9.66596 43.3015C9.57011 43.2671 9.4668 43.2661 9.35603 43.2985C9.23983 43.3335 9.09763 43.3907 8.92944 43.4701C8.76125 43.5495 8.62673 43.623 8.52591 43.6905C8.42508 43.758 8.35892 43.8357 8.32741 43.9235C8.29591 44.0114 8.29862 44.1296 8.33553 44.278C8.36989 44.421 8.44086 44.6065 8.54845 44.8344L9.05184 45.9005L10.7284 45.1089Z" fill="white"/>
<path d="M11.4975 37.7561L5.75086 40.7955L5.5195 39.502L10.0108 37.1626L10.0028 37.1183L4.98228 36.4987L4.75567 35.2318L11.1996 36.0906L11.4975 37.7561Z" fill="white"/>
<path d="M10.9969 33.6752L4.80496 33.6513L4.80989 32.3733L11.0018 32.3973L10.9969 33.6752Z" fill="white"/>
<path d="M11.4716 28.807C11.3879 29.2553 11.2885 29.6243 11.1733 29.9141C11.0581 30.2039 10.9121 30.4299 10.7353 30.5922C10.5585 30.7545 10.3428 30.8638 10.0882 30.92C9.83462 30.9703 9.5276 30.9801 9.16711 30.9494C8.80662 30.9186 8.37866 30.857 7.88323 30.7645C7.38779 30.672 6.96644 30.5749 6.61917 30.4735C6.2719 30.372 5.98912 30.252 5.77083 30.1136C5.55363 29.9692 5.39189 29.7895 5.28559 29.5743C5.17928 29.3591 5.12474 29.0957 5.12194 28.7838C5.11914 28.472 5.1596 28.092 5.24333 27.6437C5.27527 27.4727 5.31422 27.2969 5.36017 27.1162C5.40721 26.9297 5.45851 26.7531 5.51405 26.5865C5.56958 26.4198 5.62311 26.2803 5.67464 26.1678L6.63896 26.348C6.59152 26.5039 6.54814 26.6545 6.5088 26.7997C6.46357 26.9439 6.42588 27.0803 6.39575 27.2089C6.36672 27.3317 6.34394 27.4373 6.32741 27.5258C6.27123 27.8266 6.23676 28.0765 6.224 28.2755C6.21124 28.4746 6.23218 28.6402 6.28682 28.7725C6.33666 28.8978 6.4333 29.0013 6.57674 29.083C6.71427 29.1637 6.9082 29.2365 7.1585 29.3016C7.40881 29.3666 7.7286 29.4355 8.11787 29.5082C8.50124 29.5798 8.82433 29.631 9.08715 29.6618C9.34407 29.6915 9.55416 29.6941 9.71742 29.6696C9.87479 29.6441 10.0023 29.5825 10.0999 29.4847C10.1927 29.38 10.2691 29.2325 10.329 29.0423C10.389 28.852 10.447 28.6065 10.5032 28.3057C10.5396 28.1111 10.5704 27.8971 10.5956 27.6638C10.6209 27.4305 10.6372 27.229 10.6444 27.0595L11.6264 27.2429C11.6258 27.377 11.6178 27.5343 11.6024 27.7145C11.593 27.8958 11.5765 28.082 11.5531 28.2729C11.5307 28.458 11.5036 28.636 11.4716 28.807Z" fill="white"/>
<path d="M12.0217 25.9759L6.38373 23.4158L8.13265 19.5643L9.08324 19.9959L7.86272 22.6838L9.23124 23.3052L10.2769 21.0025L11.2275 21.4341L10.1818 23.7369L11.5995 24.3806L12.82 21.6927L13.7706 22.1244L12.0217 25.9759Z" fill="white"/>
<path d="M15.6768 19.5542C15.5361 19.7335 15.3758 19.9281 15.1959 20.1378C15.0198 20.3428 14.8427 20.5393 14.6645 20.7275C14.4911 20.9193 14.3282 21.0928 14.176 21.2479L13.376 20.6201C13.5272 20.4565 13.6802 20.2907 13.8352 20.1224C13.9938 19.9494 14.1426 19.7841 14.2817 19.6263C14.4161 19.4648 14.5296 19.325 14.6222 19.207C14.8111 18.9663 14.9479 18.7724 15.0328 18.6254C15.1129 18.4748 15.1576 18.3497 15.167 18.2503C15.17 18.1687 15.1577 18.1018 15.13 18.0496C15.0976 17.9937 15.0526 17.9393 14.9949 17.8864C14.9326 17.8299 14.8612 17.7701 14.781 17.7071C14.6724 17.6219 14.5772 17.5586 14.4953 17.5172C14.4171 17.4711 14.348 17.4474 14.288 17.4461C14.2233 17.4411 14.1556 17.4642 14.0848 17.5154C14.0178 17.562 13.9407 17.6311 13.8534 17.7228L12.8633 18.7076C12.6646 18.9025 12.4742 19.043 12.2923 19.129C12.1141 19.2103 11.9345 19.2448 11.7535 19.2325C11.5725 19.2201 11.3889 19.1675 11.2024 19.0746C11.0197 18.9769 10.8269 18.8485 10.6239 18.6892C10.303 18.4373 10.0833 18.1925 9.96484 17.9546C9.84641 17.7168 9.80061 17.4787 9.82743 17.2405C9.85795 16.9975 9.9461 16.7539 10.0919 16.5099C10.2329 16.2621 10.4053 16.0084 10.609 15.7488C10.7572 15.56 10.9162 15.372 11.0859 15.1849C11.2509 14.9941 11.4114 14.8187 11.5673 14.6589C11.7232 14.4991 11.8617 14.3713 11.9826 14.2755L12.7614 14.8867C12.6499 14.9899 12.526 15.1138 12.3896 15.2584C12.2532 15.4031 12.116 15.5585 11.9779 15.7247C11.8351 15.8872 11.7044 16.044 11.5859 16.1951C11.4118 16.4169 11.2824 16.6013 11.1975 16.7483C11.1117 16.8869 11.0598 17.0064 11.042 17.1068C11.0263 17.2241 11.0487 17.3218 11.1094 17.3999C11.1739 17.4734 11.2627 17.5545 11.376 17.6434C11.5176 17.7545 11.6336 17.8303 11.7239 17.8707C11.8095 17.9074 11.8943 17.9014 11.9781 17.8528C12.062 17.8043 12.1727 17.7119 12.3101 17.5756L13.2932 16.5853C13.4111 16.4643 13.531 16.3601 13.6529 16.2727C13.7749 16.1853 13.9064 16.1246 14.0476 16.0905C14.1888 16.0564 14.3453 16.061 14.5172 16.1044C14.6092 16.1232 14.7075 16.1583 14.812 16.2098C14.9117 16.2576 15.0196 16.3194 15.1356 16.3952C15.2553 16.4662 15.3812 16.5536 15.5133 16.6573C15.7871 16.8721 15.9938 17.0801 16.1334 17.2812C16.2768 17.4776 16.3638 17.6679 16.3946 17.8522C16.4254 18.0366 16.4117 18.2241 16.3535 18.4149C16.299 18.6009 16.2103 18.7868 16.0874 18.9726C15.9693 19.1621 15.8324 19.3559 15.6768 19.5542Z" fill="white"/>
<path d="M17.6644 17.197L16.8806 16.3162L17.8554 15.4487L18.6392 16.3294L17.6644 17.197Z" fill="white"/>
<path d="M23.8565 13.0623C23.6489 13.1566 23.417 13.2553 23.1607 13.3585C22.9099 13.4592 22.6621 13.552 22.4173 13.6368C22.1749 13.7271 21.9504 13.8059 21.7438 13.8734L21.3234 12.9474C21.5329 12.872 21.7452 12.7954 21.9603 12.7175C22.1808 12.6371 22.3891 12.559 22.5853 12.4831C22.779 12.4017 22.9441 12.33 23.0807 12.268C23.3593 12.1415 23.5702 12.0326 23.7132 11.9413C23.8538 11.8445 23.9511 11.7542 24.0053 11.6703C24.0455 11.5993 24.0654 11.5342 24.0649 11.4751C24.062 11.4106 24.0471 11.3416 24.0203 11.2681C23.9911 11.1891 23.9553 11.1032 23.9132 11.0103C23.8561 10.8846 23.8008 10.7846 23.7472 10.7101C23.6991 10.6331 23.6487 10.5802 23.596 10.5514C23.5409 10.5171 23.4702 10.5064 23.3838 10.5192C23.3028 10.5296 23.2025 10.5554 23.0828 10.5966L21.7501 11.0139C21.484 11.0953 21.2503 11.1322 21.0492 11.1247C20.8536 11.1147 20.6783 11.0624 20.5234 10.968C20.3685 10.8736 20.2298 10.7422 20.1072 10.5739C19.9901 10.403 19.8782 10.2001 19.7715 9.96519C19.6028 9.5937 19.5207 9.27512 19.5253 9.00946C19.5299 8.7438 19.599 8.51144 19.7326 8.31237C19.8718 8.11081 20.0623 7.93535 20.3041 7.78598C20.5435 7.63114 20.8135 7.4855 21.1139 7.34906C21.3325 7.24983 21.5602 7.15632 21.7971 7.06852C22.0315 6.97525 22.2547 6.89365 22.4668 6.82372C22.6788 6.75378 22.8606 6.70419 23.0121 6.67495L23.4214 7.57637C23.2749 7.61654 23.1078 7.66936 22.9201 7.73484C22.7323 7.80031 22.5389 7.87497 22.3397 7.95881C22.1381 8.03719 21.9499 8.11607 21.7751 8.19546C21.5183 8.31205 21.3184 8.41601 21.1753 8.50732C21.0353 8.59069 20.9342 8.67283 20.8721 8.75375C20.804 8.85055 20.7789 8.94762 20.7967 9.04495C20.82 9.13981 20.8615 9.25279 20.921 9.38391C20.9954 9.5478 21.0634 9.66849 21.125 9.74598C21.184 9.818 21.262 9.8518 21.3588 9.84737C21.4556 9.84293 21.5964 9.81195 21.7812 9.75442L23.1101 9.32888C23.2705 9.27581 23.425 9.23862 23.5735 9.21733C23.7219 9.19603 23.8667 9.20279 24.0077 9.2376C24.1487 9.27242 24.2855 9.34869 24.418 9.46643C24.491 9.52554 24.562 9.60204 24.631 9.69592C24.6975 9.78433 24.7647 9.88888 24.8327 10.0096C24.9061 10.1278 24.9776 10.2634 25.0471 10.4163C25.1909 10.7332 25.2785 11.0131 25.3097 11.2559C25.3463 11.4962 25.3358 11.7053 25.2781 11.883C25.2205 12.0608 25.1218 12.2209 24.9823 12.3633C24.8481 12.5033 24.6837 12.6274 24.489 12.7356C24.2968 12.8492 24.086 12.9581 23.8565 13.0623Z" fill="white"/>
<path d="M26.6943 11.7929L25.5574 5.70616L29.7155 4.92952L29.9072 5.95577L27.0054 6.49776L27.2813 7.97521L29.7673 7.51088L29.959 8.53714L27.473 9.00147L27.7589 10.532L30.6607 9.99L30.8524 11.0163L26.6943 11.7929Z" fill="white"/>
<path d="M31.9553 10.8523L32.4326 4.67875L35.3848 4.90695C35.7856 4.93793 36.1021 5.00754 36.3345 5.11577C36.5728 5.22446 36.7481 5.3704 36.8603 5.55359C36.973 5.73081 37.0408 5.94366 37.0637 6.19217C37.0931 6.43515 37.0962 6.7062 37.0731 7.00531C37.0569 7.21468 37.0216 7.43763 36.9672 7.67414C36.9128 7.91065 36.8149 8.12575 36.6736 8.31943C36.5382 8.51358 36.3352 8.64833 36.0646 8.7237L36.8637 11.2317L35.5177 11.1277L34.7759 8.57895L35.0768 8.77372C35.0336 8.78843 34.9818 8.79646 34.9215 8.79782C34.8672 8.79964 34.8042 8.79778 34.7324 8.79223L33.4043 8.68957L33.2295 10.9508L31.9553 10.8523ZM33.4841 7.65765L34.6506 7.74782C34.9019 7.76724 35.1004 7.76755 35.2463 7.74873C35.3922 7.72992 35.5036 7.69039 35.5805 7.63013C35.6578 7.5639 35.7098 7.47464 35.7366 7.36237C35.7638 7.24411 35.7845 7.09226 35.7989 6.90681C35.8132 6.72137 35.816 6.56813 35.8073 6.4471C35.7986 6.32607 35.7639 6.23011 35.7032 6.15922C35.6425 6.08833 35.5385 6.03215 35.3912 5.99067C35.25 5.94967 35.0537 5.91945 34.8025 5.90003L33.627 5.80916L33.4841 7.65765Z" fill="white"/>
<path d="M39.3959 11.9228L39.571 5.42434L40.8113 5.8581L40.6431 10.9193L40.6856 10.9342L43.6913 6.86527L44.9061 7.29012L40.9931 12.4814L39.3959 11.9228Z" fill="white"/>
<path d="M43.2153 13.4941L46.2858 8.117L47.3956 8.75074L44.3251 14.1278L43.2153 13.4941Z" fill="white"/>
<path d="M47.1779 16.2715C46.8286 15.9784 46.556 15.7105 46.3602 15.4678C46.1643 15.2252 46.0391 14.987 45.9846 14.7533C45.9301 14.5195 45.9409 14.278 46.0171 14.0285C46.0978 13.783 46.2401 13.5108 46.4439 13.2118C46.6477 12.9129 46.9117 12.5704 47.2356 12.1844C47.5596 11.7983 47.8511 11.4789 48.1101 11.2263C48.369 10.9737 48.6124 10.7863 48.8403 10.6641C49.0727 10.5459 49.3087 10.4933 49.5483 10.5064C49.788 10.5195 50.0443 10.6014 50.3173 10.7521C50.5902 10.9029 50.9014 11.1248 51.2507 11.4179C51.384 11.5298 51.518 11.6501 51.6528 11.7788C51.7921 11.9114 51.9207 12.0429 52.0386 12.1731C52.1565 12.3033 52.2517 12.4185 52.3244 12.5186L51.6938 13.2701C51.5812 13.1522 51.4714 13.0404 51.3642 12.9348C51.2609 12.8246 51.1606 12.7248 51.0633 12.6353C50.9706 12.5497 50.8898 12.478 50.8209 12.4201C50.5865 12.2234 50.3857 12.0707 50.2186 11.9618C50.0515 11.8529 49.897 11.7897 49.7549 11.7723C49.6213 11.7542 49.4837 11.7876 49.342 11.8723C49.2042 11.9525 49.0455 12.0857 48.8659 12.2717C48.6863 12.4578 48.4692 12.7025 48.2146 13.0059C47.9639 13.3046 47.7606 13.5609 47.6047 13.7747C47.4527 13.9839 47.3472 14.1656 47.2883 14.3198C47.2332 14.4694 47.2243 14.6108 47.2615 14.7438C47.3071 14.8761 47.398 15.015 47.5343 15.1607C47.6705 15.3064 47.8559 15.4775 48.0903 15.6742C48.2419 15.8015 48.4132 15.9335 48.604 16.0701C48.7948 16.2067 48.9623 16.3198 49.1064 16.4094L48.4643 17.1747C48.3477 17.1082 48.2147 17.0241 48.0653 16.9221C47.912 16.8248 47.7579 16.719 47.6031 16.6048C47.4529 16.4945 47.3112 16.3833 47.1779 16.2715Z" fill="white"/>
<path d="M49.3363 18.0853L54.3169 14.4064L56.8301 17.8088L55.9903 18.4291L54.2364 16.0547L53.0275 16.9476L54.5301 18.9819L53.6903 19.6022L52.1877 17.5679L50.9353 18.493L52.6892 20.8675L51.8495 21.4878L49.3363 18.0853Z" fill="white"/>
<path d="M53.2362 24.5371C53.149 24.3265 53.0581 24.0913 52.9635 23.8317C52.8713 23.5777 52.7869 23.3269 52.7104 23.0794C52.6283 22.8341 52.557 22.6071 52.4965 22.3984L53.4361 22.0092C53.5044 22.2212 53.5739 22.436 53.6445 22.6535C53.7174 22.8766 53.7885 23.0874 53.8578 23.286C53.9326 23.4823 53.9987 23.6498 54.0561 23.7884C54.1732 24.0711 54.275 24.2855 54.3614 24.4315C54.4534 24.5752 54.5404 24.6756 54.6225 24.7325C54.6921 24.7751 54.7564 24.7972 54.8155 24.7987C54.8801 24.7979 54.9496 24.7853 55.024 24.761C55.1039 24.7344 55.1909 24.7016 55.2852 24.6626C55.4127 24.6098 55.5145 24.5578 55.5908 24.5068C55.6694 24.4613 55.7239 24.4127 55.7545 24.361C55.7906 24.3071 55.8037 24.2368 55.7937 24.15C55.786 24.0687 55.7636 23.9676 55.7265 23.8466L55.3541 22.5007C55.2818 22.2319 55.2527 21.9971 55.267 21.7964C55.2836 21.6012 55.3416 21.4278 55.4412 21.2761C55.5407 21.1245 55.6767 20.9903 55.8491 20.8734C56.0238 20.7621 56.2303 20.657 56.4687 20.5583C56.8457 20.4022 57.1668 20.3309 57.4322 20.3444C57.6975 20.3578 57.9274 20.4347 58.1219 20.575C58.3187 20.7208 58.4876 20.9171 58.6288 21.1638C58.7755 21.4083 58.912 21.683 59.0383 21.9878C59.1301 22.2096 59.216 22.4403 59.2958 22.68C59.3811 22.9174 59.4552 23.1433 59.5179 23.3576C59.5807 23.5718 59.6242 23.7552 59.6483 23.9075L58.7337 24.2864C58.6984 24.1386 58.6513 23.9698 58.5921 23.78C58.533 23.5902 58.4649 23.3943 58.3878 23.1925C58.3162 22.9883 58.2437 22.7975 58.1702 22.6202C58.0623 22.3596 57.9651 22.1563 57.8786 22.0103C57.8 21.8675 57.7213 21.7637 57.6425 21.699C57.5481 21.6277 57.4519 21.5993 57.354 21.6139C57.2584 21.634 57.1441 21.6716 57.0111 21.7267C56.8448 21.7956 56.7219 21.8595 56.6424 21.9184C56.5684 21.975 56.532 22.0518 56.5332 22.1487C56.5344 22.2456 56.5606 22.3874 56.6119 22.5739L56.9926 23.9164C57.0403 24.0785 57.0722 24.2341 57.0885 24.3833C57.1048 24.5324 57.0932 24.6768 57.0537 24.8166C57.0142 24.9563 56.9333 25.0905 56.8112 25.219C56.7497 25.2899 56.6709 25.3583 56.5747 25.4241C56.4841 25.4876 56.3774 25.5513 56.2545 25.6152C56.1339 25.6846 55.9959 25.7515 55.8407 25.8158C55.5192 25.9489 55.2366 26.027 54.9928 26.0501C54.7514 26.0786 54.5428 26.0611 54.3671 25.9975C54.1914 25.9339 54.0347 25.8299 53.897 25.6857C53.7616 25.5469 53.6431 25.3784 53.5415 25.1802C53.4344 24.9843 53.3326 24.7699 53.2362 24.5371Z" fill="white"/>
<path d="M54.3161 27.4548L55.4688 27.2074L55.7427 28.4833L54.5899 28.7307L54.3161 27.4548Z" fill="white"/>
</svg>
