<svg width="897" height="112" viewBox="0 0 897 112" fill="none" xmlns="http://www.w3.org/2000/svg">
<path d="M0.956 110V1.296H31.766L58.626 73.028H59.574L86.276 1.296H116.928V110H95.282V34.318H94.492L66.368 110H50.884L22.76 34.318H21.97V110H0.956ZM132.477 110L169.291 1.296H199.311L236.125 110H213.215L205.157 85.984H162.655L154.913 110H132.477ZM168.343 67.814H199.311L184.301 21.678H183.353L168.343 67.814ZM251.38 110V1.296H303.362C310.419 1.296 316.054 2.086 320.268 3.66599C324.586 5.24599 327.852 7.56333 330.064 10.618C332.276 13.5673 333.75 17.2013 334.488 21.52C335.331 25.7333 335.752 30.4733 335.752 35.74C335.752 39.4267 335.436 43.3767 334.804 47.59C334.172 51.8033 332.75 55.7007 330.538 59.282C328.431 62.8633 325.061 65.4967 320.426 67.182L337.806 110H314.106L297.674 66.392L303.204 69.394C302.466 69.71 301.571 69.9207 300.518 70.026C299.57 70.1313 298.464 70.184 297.2 70.184H273.816V110H251.38ZM273.816 52.014H294.356C298.78 52.014 302.256 51.7507 304.784 51.224C307.312 50.6973 309.208 49.8547 310.472 48.696C311.736 47.432 312.526 45.7993 312.842 43.798C313.158 41.6913 313.316 39.0053 313.316 35.74C313.316 32.4747 313.158 29.7887 312.842 27.682C312.526 25.5753 311.788 23.9427 310.63 22.784C309.471 21.6253 307.575 20.7827 304.942 20.256C302.414 19.7293 298.938 19.466 294.514 19.466H273.816V52.014ZM358.153 110V1.296H380.589V45.536H392.123L425.145 1.296H449.635L410.135 53.278L450.109 110H424.355L392.123 63.864H380.589V110H358.153ZM465.235 110V1.296H539.495V19.624H487.671V46.01H532.069V64.338H487.671V91.672H539.495V110H465.235ZM583.012 110V20.256H551.57V1.296H636.89V20.256H605.448V110H583.012ZM653.169 110V1.296H675.605V110H653.169ZM701.464 110V1.296H724.69L767.508 68.288H768.298V1.296H789.786V110H768.456L723.742 39.374H722.952V110H701.464ZM860.2 111.264C852.3 111.264 845.558 110.737 839.976 109.684C834.498 108.631 829.916 106.893 826.23 104.47C822.648 101.942 819.857 98.5713 817.856 94.358C815.854 90.1447 814.432 84.878 813.59 78.558C812.852 72.1327 812.484 64.496 812.484 55.648C812.484 46.8 812.852 39.216 813.59 32.896C814.432 26.4707 815.854 21.1513 817.856 16.938C819.962 12.7247 822.806 9.40667 826.388 6.984C830.074 4.45599 834.656 2.66532 840.134 1.61199C845.611 0.55866 852.3 0.0319937 860.2 0.0319937C863.676 0.0319937 867.52 0.189995 871.734 0.505997C876.052 0.821993 880.318 1.24332 884.532 1.76999C888.745 2.19132 892.642 2.77066 896.224 3.508V20.73C892.537 20.2033 888.956 19.782 885.48 19.466C882.004 19.15 878.844 18.8867 876 18.676C873.156 18.4653 870.786 18.36 868.89 18.36C862.886 18.36 857.882 18.518 853.88 18.834C849.877 19.0447 846.612 19.7293 844.084 20.888C841.556 22.0467 839.607 23.9427 838.238 26.576C836.974 29.2093 836.078 32.896 835.552 37.636C835.025 42.2707 834.762 48.2747 834.762 55.648C834.762 62.1787 834.92 67.656 835.236 72.08C835.657 76.504 836.342 80.138 837.29 82.982C838.343 85.826 839.818 88.038 841.714 89.618C843.715 91.0927 846.243 92.0933 849.298 92.62C852.458 93.1467 856.355 93.41 860.99 93.41C862.675 93.41 864.413 93.41 866.204 93.41C868.1 93.3047 869.838 93.1993 871.418 93.094C873.103 92.9887 874.472 92.8833 875.526 92.778V65.918H857.356V48.222H896.698V107.788C893.116 108.525 889.114 109.157 884.69 109.684C880.266 110.105 875.947 110.474 871.734 110.79C867.52 111.106 863.676 111.264 860.2 111.264Z" fill="#F1F1F1"/>
</svg>
