<svg width="340" height="51" viewBox="0 0 340 51" fill="none" xmlns="http://www.w3.org/2000/svg">
<path d="M39.7925 42V10.352H48.7625L56.5825 31.236H56.8585L64.6325 10.352H73.5565V42H67.2545V19.966H67.0245L58.8365 42H54.3285L46.1405 19.966H45.9105V42H39.7925ZM78.0836 42L88.8016 10.352H97.5416L108.26 42H101.59L99.2436 35.008H86.8696L84.6156 42H78.0836ZM88.5256 29.718H97.5416L93.1716 16.286H92.8956L88.5256 29.718ZM112.701 42V10.352H127.835C129.889 10.352 131.53 10.582 132.757 11.042C134.014 11.502 134.965 12.1767 135.609 13.066C136.253 13.9247 136.682 14.9827 136.897 16.24C137.142 17.4667 137.265 18.8467 137.265 20.38C137.265 21.4533 137.173 22.6033 136.989 23.83C136.805 25.0567 136.391 26.1913 135.747 27.234C135.133 28.2767 134.152 29.0433 132.803 29.534L137.863 42H130.963L126.179 29.304L127.789 30.178C127.574 30.27 127.313 30.3313 127.007 30.362C126.731 30.3927 126.409 30.408 126.041 30.408H119.233V42H112.701ZM119.233 25.118H125.213C126.501 25.118 127.513 25.0413 128.249 24.888C128.985 24.7347 129.537 24.4893 129.905 24.152C130.273 23.784 130.503 23.3087 130.595 22.726C130.687 22.1127 130.733 21.3307 130.733 20.38C130.733 19.4293 130.687 18.6473 130.595 18.034C130.503 17.4207 130.288 16.9453 129.951 16.608C129.613 16.2707 129.061 16.0253 128.295 15.872C127.559 15.7187 126.547 15.642 125.259 15.642H119.233V25.118ZM143.787 42V10.352H150.319V23.232H153.677L163.291 10.352H170.421L158.921 25.486L170.559 42H163.061L153.677 28.568H150.319V42H143.787ZM174.962 42V10.352H196.582V15.688H181.494V23.37H194.42V28.706H181.494V36.664H196.582V42H174.962ZM209.252 42V15.872H200.098V10.352H224.938V15.872H215.784V42H209.252ZM229.677 42V10.352H236.209V42H229.677ZM243.738 42V10.352H250.5L262.966 29.856H263.196V10.352H269.452V42H263.242L250.224 21.438H249.994V42H243.738ZM289.952 42.368C287.652 42.368 285.689 42.2147 284.064 41.908C282.469 41.6013 281.135 41.0953 280.062 40.39C279.019 39.654 278.207 38.6727 277.624 37.446C277.041 36.2193 276.627 34.686 276.382 32.846C276.167 30.9753 276.06 28.752 276.06 26.176C276.06 23.6 276.167 21.392 276.382 19.552C276.627 17.6813 277.041 16.1327 277.624 14.906C278.237 13.6793 279.065 12.7133 280.108 12.008C281.181 11.272 282.515 10.7507 284.11 10.444C285.705 10.1373 287.652 9.984 289.952 9.984C290.964 9.984 292.083 10.03 293.31 10.122C294.567 10.214 295.809 10.3367 297.036 10.49C298.263 10.6127 299.397 10.7813 300.44 10.996V16.01C299.367 15.8567 298.324 15.734 297.312 15.642C296.3 15.55 295.38 15.4733 294.552 15.412C293.724 15.3507 293.034 15.32 292.482 15.32C290.734 15.32 289.277 15.366 288.112 15.458C286.947 15.5193 285.996 15.7187 285.26 16.056C284.524 16.3933 283.957 16.9453 283.558 17.712C283.19 18.4787 282.929 19.552 282.776 20.932C282.623 22.2813 282.546 24.0293 282.546 26.176C282.546 28.0773 282.592 29.672 282.684 30.96C282.807 32.248 283.006 33.306 283.282 34.134C283.589 34.962 284.018 35.606 284.57 36.066C285.153 36.4953 285.889 36.7867 286.778 36.94C287.698 37.0933 288.833 37.17 290.182 37.17C290.673 37.17 291.179 37.17 291.7 37.17C292.252 37.1393 292.758 37.1087 293.218 37.078C293.709 37.0473 294.107 37.0167 294.414 36.986V29.166H289.124V24.014H300.578V41.356C299.535 41.5707 298.37 41.7547 297.082 41.908C295.794 42.0307 294.537 42.138 293.31 42.23C292.083 42.322 290.964 42.368 289.952 42.368Z" fill="#F1F1F1"/>
</svg>
