<svg width="1620" height="178" viewBox="0 0 1620 178" fill="none" xmlns="http://www.w3.org/2000/svg">
<path d="M12.956 142V33.296H43.766L70.626 105.028H71.574L98.276 33.296H128.928V142H107.282V66.318H106.492L78.368 142H62.884L34.76 66.318H33.97V142H12.956ZM144.477 142L181.291 33.296H211.311L248.125 142H225.215L217.157 117.984H174.655L166.913 142H144.477ZM180.343 99.814H211.311L196.301 53.678H195.353L180.343 99.814ZM263.38 142V33.296H315.362C322.419 33.296 328.054 34.086 332.268 35.666C336.586 37.246 339.852 39.5633 342.064 42.618C344.276 45.5673 345.75 49.2013 346.488 53.52C347.331 57.7333 347.752 62.4733 347.752 67.74C347.752 71.4267 347.436 75.3767 346.804 79.59C346.172 83.8033 344.75 87.7007 342.538 91.282C340.431 94.8633 337.061 97.4967 332.426 99.182L349.806 142H326.106L309.674 98.392L315.204 101.394C314.466 101.71 313.571 101.921 312.518 102.026C311.57 102.131 310.464 102.184 309.2 102.184H285.816V142H263.38ZM285.816 84.014H306.356C310.78 84.014 314.256 83.7507 316.784 83.224C319.312 82.6973 321.208 81.8547 322.472 80.696C323.736 79.432 324.526 77.7993 324.842 75.798C325.158 73.6913 325.316 71.0053 325.316 67.74C325.316 64.4747 325.158 61.7887 324.842 59.682C324.526 57.5753 323.788 55.9427 322.63 54.784C321.471 53.6253 319.575 52.7827 316.942 52.256C314.414 51.7293 310.938 51.466 306.514 51.466H285.816V84.014ZM370.153 142V33.296H392.589V77.536H404.123L437.145 33.296H461.635L422.135 85.278L462.109 142H436.355L404.123 95.864H392.589V142H370.153ZM477.235 142V33.296H551.495V51.624H499.671V78.01H544.069V96.338H499.671V123.672H551.495V142H477.235ZM595.012 142V52.256H563.57V33.296H648.89V52.256H617.448V142H595.012ZM665.169 142V33.296H687.605V142H665.169ZM713.464 142V33.296H736.69L779.508 100.288H780.298V33.296H801.786V142H780.456L735.742 71.374H734.952V142H713.464ZM872.2 143.264C864.3 143.264 857.558 142.737 851.976 141.684C846.498 140.631 841.916 138.893 838.23 136.47C834.648 133.942 831.857 130.571 829.856 126.358C827.854 122.145 826.432 116.878 825.59 110.558C824.852 104.133 824.484 96.496 824.484 87.648C824.484 78.8 824.852 71.216 825.59 64.896C826.432 58.4707 827.854 53.1513 829.856 48.938C831.962 44.7247 834.806 41.4067 838.388 38.984C842.074 36.456 846.656 34.6653 852.134 33.612C857.611 32.5587 864.3 32.032 872.2 32.032C875.676 32.032 879.52 32.19 883.734 32.506C888.052 32.822 892.318 33.2433 896.532 33.77C900.745 34.1913 904.642 34.7707 908.224 35.508V52.73C904.537 52.2033 900.956 51.782 897.48 51.466C894.004 51.15 890.844 50.8867 888 50.676C885.156 50.4653 882.786 50.36 880.89 50.36C874.886 50.36 869.882 50.518 865.88 50.834C861.877 51.0447 858.612 51.7293 856.084 52.888C853.556 54.0467 851.607 55.9427 850.238 58.576C848.974 61.2093 848.078 64.896 847.552 69.636C847.025 74.2707 846.762 80.2747 846.762 87.648C846.762 94.1787 846.92 99.656 847.236 104.08C847.657 108.504 848.342 112.138 849.29 114.982C850.343 117.826 851.818 120.038 853.714 121.618C855.715 123.093 858.243 124.093 861.298 124.62C864.458 125.147 868.355 125.41 872.99 125.41C874.675 125.41 876.413 125.41 878.204 125.41C880.1 125.305 881.838 125.199 883.418 125.094C885.103 124.989 886.472 124.883 887.526 124.778V97.918H869.356V80.222H908.698V139.788C905.116 140.525 901.114 141.157 896.69 141.684C892.266 142.105 887.947 142.474 883.734 142.79C879.52 143.106 875.676 143.264 872.2 143.264Z" fill="#F1F1F1"/>
</svg>
