<svg width="340" height="153" viewBox="0 0 340 153" fill="none" xmlns="http://www.w3.org/2000/svg">
<rect x="122" y="31" width="217" height="15" fill="#F74264"/>
<path d="M11.7868 42L4.15077 10.352H10.6828L16.2488 34.41H16.4788L22.5968 10.352H29.4048L35.6148 34.41H35.8448L41.0428 10.352H47.5748L39.8928 42H31.7508L25.9548 19.874H25.7248L19.9288 42H11.7868ZM52.3706 42V10.352H58.9026V42H52.3706ZM66.4312 42V10.352H72.9632V36.48H86.2112V42H66.4312ZM91.1831 42V10.352H97.7151V36.48H110.963V42H91.1831ZM127.3 42V10.352H148.92V15.688H133.832V23.37H146.758V28.706H133.832V36.664H148.92V42H127.3ZM155.242 42V10.352H162.004L174.47 29.856H174.7V10.352H180.956V42H174.746L161.728 21.438H161.498V42H155.242ZM188.484 42V10.352H195.016V23.278H207.62V10.352H214.152V42H207.62V28.89H195.016V42H188.484ZM218.599 42L229.317 10.352H238.057L248.775 42H242.105L239.759 35.008H227.385L225.131 42H218.599ZM229.041 29.718H238.057L233.687 16.286H233.411L229.041 29.718ZM253.216 42V10.352H259.978L272.444 29.856H272.674V10.352H278.93V42H272.72L259.702 21.438H259.472V42H253.216ZM298.741 42.368C296.41 42.368 294.463 42.2147 292.899 41.908C291.335 41.6013 290.062 41.08 289.081 40.344C288.099 39.608 287.348 38.6267 286.827 37.4C286.336 36.1733 285.999 34.64 285.815 32.8C285.631 30.96 285.539 28.752 285.539 26.176C285.539 23.6 285.631 21.392 285.815 19.552C285.999 17.712 286.336 16.1787 286.827 14.952C287.348 13.7253 288.099 12.744 289.081 12.008C290.062 11.272 291.335 10.7507 292.899 10.444C294.463 10.1373 296.41 9.984 298.741 9.984C299.63 9.984 300.55 10.0147 301.501 10.076C302.482 10.1373 303.417 10.2293 304.307 10.352C305.196 10.4747 305.947 10.6127 306.561 10.766V15.78C305.733 15.688 304.935 15.6113 304.169 15.55C303.402 15.458 302.681 15.3967 302.007 15.366C301.363 15.3353 300.811 15.32 300.351 15.32C298.787 15.32 297.499 15.3813 296.487 15.504C295.475 15.6267 294.662 15.8873 294.049 16.286C293.466 16.654 293.037 17.2367 292.761 18.034C292.485 18.8007 292.301 19.8433 292.209 21.162C292.117 22.4807 292.071 24.152 292.071 26.176C292.071 28.1693 292.117 29.8407 292.209 31.19C292.301 32.5087 292.485 33.5667 292.761 34.364C293.037 35.1307 293.466 35.7133 294.049 36.112C294.662 36.48 295.475 36.7253 296.487 36.848C297.499 36.9707 298.787 37.032 300.351 37.032C301.363 37.032 302.467 36.986 303.663 36.894C304.859 36.802 305.886 36.6947 306.745 36.572V41.678C306.07 41.8007 305.273 41.908 304.353 42C303.433 42.1227 302.482 42.2147 301.501 42.276C300.55 42.3373 299.63 42.368 298.741 42.368ZM312.738 42V10.352H334.358V15.688H319.27V23.37H332.196V28.706H319.27V36.664H334.358V42H312.738ZM24.914 93V81.776L14.058 61.352H20.912L28.18 75.428H28.502L35.724 61.352H42.348L31.446 81.776V93H24.914ZM58.1433 93.368C55.5673 93.368 53.4359 93.2147 51.7493 92.908C50.0933 92.6013 48.7899 92.0953 47.8393 91.39C46.8886 90.654 46.1986 89.6727 45.7693 88.446C45.3399 87.1887 45.0639 85.64 44.9413 83.8C44.8186 81.96 44.7573 79.752 44.7573 77.176C44.7573 74.6 44.8186 72.392 44.9413 70.552C45.0639 68.712 45.3399 67.1787 45.7693 65.952C46.1986 64.6947 46.8886 63.7133 47.8393 63.008C48.7899 62.272 50.0933 61.7507 51.7493 61.444C53.4359 61.1373 55.5673 60.984 58.1433 60.984C60.7193 60.984 62.8353 61.1373 64.4913 61.444C66.1779 61.7507 67.4966 62.272 68.4473 63.008C69.3979 63.7133 70.0879 64.6947 70.5173 65.952C70.9773 67.1787 71.2686 68.712 71.3913 70.552C71.5139 72.392 71.5753 74.6 71.5753 77.176C71.5753 79.752 71.5139 81.96 71.3913 83.8C71.2686 85.64 70.9773 87.1887 70.5173 88.446C70.0879 89.6727 69.3979 90.654 68.4473 91.39C67.4966 92.0953 66.1779 92.6013 64.4913 92.908C62.8353 93.2147 60.7193 93.368 58.1433 93.368ZM58.1433 88.032C59.4926 88.032 60.5813 87.986 61.4093 87.894C62.2679 87.802 62.9426 87.5873 63.4333 87.25C63.9239 86.9127 64.2766 86.3607 64.4913 85.594C64.7366 84.8273 64.8899 83.7693 64.9513 82.42C65.0126 81.0707 65.0433 79.3227 65.0433 77.176C65.0433 75.0293 65.0126 73.2813 64.9513 71.932C64.8899 70.5827 64.7366 69.5247 64.4913 68.758C64.2766 67.9913 63.9239 67.4393 63.4333 67.102C62.9426 66.7647 62.2679 66.55 61.4093 66.458C60.5813 66.366 59.4926 66.32 58.1433 66.32C56.8246 66.32 55.7359 66.366 54.8773 66.458C54.0493 66.55 53.3899 66.7647 52.8993 67.102C52.4086 67.4393 52.0406 67.9913 51.7953 68.758C51.5806 69.5247 51.4426 70.5827 51.3813 71.932C51.3199 73.2813 51.2893 75.0293 51.2893 77.176C51.2893 79.3227 51.3199 81.0707 51.3813 82.42C51.4426 83.7693 51.5806 84.8273 51.7953 85.594C52.0406 86.3607 52.4086 86.9127 52.8993 87.25C53.3899 87.5873 54.0493 87.802 54.8773 87.894C55.7359 87.986 56.8246 88.032 58.1433 88.032ZM90.4827 93.368C88.244 93.368 86.3734 93.23 84.8707 92.954C83.368 92.678 82.1567 92.2333 81.2367 91.62C80.3167 91.0067 79.6114 90.148 79.1207 89.044C78.6607 87.94 78.3387 86.56 78.1547 84.904C78.0014 83.2173 77.9247 81.2087 77.9247 78.878V61.352H84.4567V80.534C84.4567 82.1593 84.5027 83.478 84.5947 84.49C84.7174 85.4713 84.9474 86.2227 85.2847 86.744C85.6527 87.2653 86.2507 87.618 87.0787 87.802C87.9067 87.9553 89.0414 88.032 90.4827 88.032C91.924 88.032 93.0434 87.9553 93.8407 87.802C94.6687 87.618 95.2667 87.2653 95.6347 86.744C96.0027 86.2227 96.2327 85.4713 96.3247 84.49C96.4167 83.478 96.4627 82.1593 96.4627 80.534V61.352H102.995V78.878C102.995 81.2087 102.903 83.2173 102.719 84.904C102.565 86.56 102.259 87.94 101.799 89.044C101.339 90.148 100.649 91.0067 99.7287 91.62C98.8087 92.2333 97.5974 92.678 96.0947 92.954C94.592 93.23 92.7214 93.368 90.4827 93.368ZM110.32 93V61.352H125.454C127.509 61.352 129.149 61.582 130.376 62.042C131.633 62.502 132.584 63.1767 133.228 64.066C133.872 64.9247 134.301 65.9827 134.516 67.24C134.761 68.4667 134.884 69.8467 134.884 71.38C134.884 72.4533 134.792 73.6033 134.608 74.83C134.424 76.0567 134.01 77.1913 133.366 78.234C132.753 79.2767 131.771 80.0433 130.422 80.534L135.482 93H128.582L123.798 80.304L125.408 81.178C125.193 81.27 124.933 81.3313 124.626 81.362C124.35 81.3927 124.028 81.408 123.66 81.408H116.852V93H110.32ZM116.852 76.118H122.832C124.12 76.118 125.132 76.0413 125.868 75.888C126.604 75.7347 127.156 75.4893 127.524 75.152C127.892 74.784 128.122 74.3087 128.214 73.726C128.306 73.1127 128.352 72.3307 128.352 71.38C128.352 70.4293 128.306 69.6473 128.214 69.034C128.122 68.4207 127.907 67.9453 127.57 67.608C127.233 67.2707 126.681 67.0253 125.914 66.872C125.178 66.7187 124.166 66.642 122.878 66.642H116.852V76.118ZM176.602 93.368C174.026 93.368 171.895 93.2147 170.208 92.908C168.552 92.6013 167.249 92.0953 166.298 91.39C165.348 90.654 164.658 89.6727 164.228 88.446C163.799 87.1887 163.523 85.64 163.4 83.8C163.278 81.96 163.216 79.752 163.216 77.176C163.216 74.6 163.278 72.392 163.4 70.552C163.523 68.712 163.799 67.1787 164.228 65.952C164.658 64.6947 165.348 63.7133 166.298 63.008C167.249 62.272 168.552 61.7507 170.208 61.444C171.895 61.1373 174.026 60.984 176.602 60.984C179.178 60.984 181.294 61.1373 182.95 61.444C184.637 61.7507 185.956 62.272 186.906 63.008C187.857 63.7133 188.547 64.6947 188.976 65.952C189.436 67.1787 189.728 68.712 189.85 70.552C189.973 72.392 190.034 74.6 190.034 77.176C190.034 79.752 189.973 81.96 189.85 83.8C189.728 85.64 189.436 87.1887 188.976 88.446C188.547 89.6727 187.857 90.654 186.906 91.39C185.956 92.0953 184.637 92.6013 182.95 92.908C181.294 93.2147 179.178 93.368 176.602 93.368ZM176.602 88.032C177.952 88.032 179.04 87.986 179.868 87.894C180.727 87.802 181.402 87.5873 181.892 87.25C182.383 86.9127 182.736 86.3607 182.95 85.594C183.196 84.8273 183.349 83.7693 183.41 82.42C183.472 81.0707 183.502 79.3227 183.502 77.176C183.502 75.0293 183.472 73.2813 183.41 71.932C183.349 70.5827 183.196 69.5247 182.95 68.758C182.736 67.9913 182.383 67.4393 181.892 67.102C181.402 66.7647 180.727 66.55 179.868 66.458C179.04 66.366 177.952 66.32 176.602 66.32C175.284 66.32 174.195 66.366 173.336 66.458C172.508 66.55 171.849 66.7647 171.358 67.102C170.868 67.4393 170.5 67.9913 170.254 68.758C170.04 69.5247 169.902 70.5827 169.84 71.932C169.779 73.2813 169.748 75.0293 169.748 77.176C169.748 79.3227 169.779 81.0707 169.84 82.42C169.902 83.7693 170.04 84.8273 170.254 85.594C170.5 86.3607 170.868 86.9127 171.358 87.25C171.849 87.5873 172.508 87.802 173.336 87.894C174.195 87.986 175.284 88.032 176.602 88.032ZM196.66 93V61.352H203.422L215.888 80.856H216.118V61.352H222.374V93H216.164L203.146 72.438H202.916V93H196.66ZM229.902 93V61.352H236.434V87.48H249.682V93H229.902ZM254.654 93V61.352H261.186V93H254.654ZM268.714 93V61.352H275.476L287.942 80.856H288.172V61.352H294.428V93H288.218L275.2 72.438H274.97V93H268.714ZM301.957 93V61.352H323.577V66.688H308.489V74.37H321.415V79.706H308.489V87.664H323.577V93H301.957ZM51.1128 144V112.352H65.7868C67.7495 112.352 69.3442 112.597 70.5708 113.088C71.8282 113.579 72.7942 114.284 73.4688 115.204C74.1435 116.093 74.6035 117.182 74.8488 118.47C75.1248 119.758 75.2628 121.215 75.2628 122.84C75.2628 124.343 75.1402 125.738 74.8948 127.026C74.6802 128.283 74.2355 129.387 73.5608 130.338C72.8862 131.289 71.9048 132.025 70.6168 132.546C69.3595 133.067 67.6882 133.328 65.6028 133.328H57.6448V144H51.1128ZM57.6448 127.992H63.0268C64.3455 127.992 65.3882 127.931 66.1548 127.808C66.9215 127.655 67.4888 127.394 67.8568 127.026C68.2248 126.658 68.4548 126.137 68.5468 125.462C68.6695 124.787 68.7308 123.913 68.7308 122.84C68.7308 121.767 68.6695 120.893 68.5468 120.218C68.4548 119.543 68.2248 119.022 67.8568 118.654C67.5195 118.255 66.9828 117.995 66.2468 117.872C65.5108 117.719 64.4988 117.642 63.2108 117.642H57.6448V127.992ZM80.896 144V112.352H96.03C98.0847 112.352 99.7254 112.582 100.952 113.042C102.209 113.502 103.16 114.177 103.804 115.066C104.448 115.925 104.877 116.983 105.092 118.24C105.337 119.467 105.46 120.847 105.46 122.38C105.46 123.453 105.368 124.603 105.184 125.83C105 127.057 104.586 128.191 103.942 129.234C103.329 130.277 102.347 131.043 100.998 131.534L106.058 144H99.158L94.374 131.304L95.984 132.178C95.7694 132.27 95.5087 132.331 95.202 132.362C94.926 132.393 94.604 132.408 94.236 132.408H87.428V144H80.896ZM87.428 127.118H93.408C94.696 127.118 95.708 127.041 96.444 126.888C97.18 126.735 97.732 126.489 98.1 126.152C98.468 125.784 98.698 125.309 98.79 124.726C98.882 124.113 98.928 123.331 98.928 122.38C98.928 121.429 98.882 120.647 98.79 120.034C98.698 119.421 98.4834 118.945 98.146 118.608C97.8087 118.271 97.2567 118.025 96.49 117.872C95.754 117.719 94.742 117.642 93.454 117.642H87.428V127.118ZM111.982 144V112.352H133.602V117.688H118.514V125.37H131.44V130.706H118.514V138.664H133.602V144H111.982ZM151.055 144.368C149.89 144.368 148.602 144.337 147.191 144.276C145.811 144.215 144.462 144.123 143.143 144C141.825 143.908 140.613 143.801 139.509 143.678V138.48C140.644 138.572 141.794 138.664 142.959 138.756C144.155 138.848 145.29 138.925 146.363 138.986C147.437 139.017 148.357 139.032 149.123 139.032C150.687 139.032 151.899 138.971 152.757 138.848C153.616 138.695 154.26 138.48 154.689 138.204C155.027 137.959 155.257 137.698 155.379 137.422C155.502 137.115 155.579 136.763 155.609 136.364C155.64 135.935 155.655 135.459 155.655 134.938C155.655 134.233 155.609 133.65 155.517 133.19C155.456 132.73 155.333 132.377 155.149 132.132C154.965 131.856 154.659 131.657 154.229 131.534C153.831 131.411 153.309 131.319 152.665 131.258L145.581 130.384C144.171 130.2 143.005 129.878 142.085 129.418C141.196 128.958 140.491 128.345 139.969 127.578C139.448 126.811 139.08 125.907 138.865 124.864C138.681 123.821 138.589 122.641 138.589 121.322C138.589 119.237 138.881 117.581 139.463 116.354C140.046 115.127 140.859 114.192 141.901 113.548C142.975 112.904 144.232 112.49 145.673 112.306C147.115 112.091 148.679 111.984 150.365 111.984C151.592 111.984 152.849 112.03 154.137 112.122C155.425 112.183 156.637 112.275 157.771 112.398C158.906 112.521 159.857 112.674 160.623 112.858V117.918C159.857 117.795 158.967 117.688 157.955 117.596C156.943 117.504 155.885 117.443 154.781 117.412C153.677 117.351 152.635 117.32 151.653 117.32C150.212 117.32 149.062 117.381 148.203 117.504C147.375 117.596 146.731 117.765 146.271 118.01C145.75 118.317 145.428 118.715 145.305 119.206C145.213 119.697 145.167 120.31 145.167 121.046C145.167 121.966 145.229 122.671 145.351 123.162C145.474 123.622 145.765 123.944 146.225 124.128C146.685 124.312 147.406 124.465 148.387 124.588L155.471 125.416C156.33 125.508 157.127 125.661 157.863 125.876C158.599 126.091 159.259 126.428 159.841 126.888C160.424 127.348 160.899 127.992 161.267 128.82C161.482 129.249 161.651 129.755 161.773 130.338C161.896 130.89 161.988 131.519 162.049 132.224C162.141 132.929 162.187 133.711 162.187 134.57C162.187 136.349 162.003 137.836 161.635 139.032C161.298 140.228 160.807 141.179 160.163 141.884C159.519 142.589 158.722 143.126 157.771 143.494C156.851 143.862 155.824 144.092 154.689 144.184C153.555 144.307 152.343 144.368 151.055 144.368ZM168.449 144V112.352H190.069V117.688H174.981V125.37H187.907V130.706H174.981V138.664H190.069V144H168.449ZM196.39 144V112.352H203.152L215.618 131.856H215.848V112.352H222.104V144H215.894L202.876 123.438H202.646V144H196.39ZM241.914 144.368C239.584 144.368 237.636 144.215 236.072 143.908C234.508 143.601 233.236 143.08 232.254 142.344C231.273 141.608 230.522 140.627 230 139.4C229.51 138.173 229.172 136.64 228.988 134.8C228.804 132.96 228.712 130.752 228.712 128.176C228.712 125.6 228.804 123.392 228.988 121.552C229.172 119.712 229.51 118.179 230 116.952C230.522 115.725 231.273 114.744 232.254 114.008C233.236 113.272 234.508 112.751 236.072 112.444C237.636 112.137 239.584 111.984 241.914 111.984C242.804 111.984 243.724 112.015 244.674 112.076C245.656 112.137 246.591 112.229 247.48 112.352C248.37 112.475 249.121 112.613 249.734 112.766V117.78C248.906 117.688 248.109 117.611 247.342 117.55C246.576 117.458 245.855 117.397 245.18 117.366C244.536 117.335 243.984 117.32 243.524 117.32C241.96 117.32 240.672 117.381 239.66 117.504C238.648 117.627 237.836 117.887 237.222 118.286C236.64 118.654 236.21 119.237 235.934 120.034C235.658 120.801 235.474 121.843 235.382 123.162C235.29 124.481 235.244 126.152 235.244 128.176C235.244 130.169 235.29 131.841 235.382 133.19C235.474 134.509 235.658 135.567 235.934 136.364C236.21 137.131 236.64 137.713 237.222 138.112C237.836 138.48 238.648 138.725 239.66 138.848C240.672 138.971 241.96 139.032 243.524 139.032C244.536 139.032 245.64 138.986 246.836 138.894C248.032 138.802 249.06 138.695 249.918 138.572V143.678C249.244 143.801 248.446 143.908 247.526 144C246.606 144.123 245.656 144.215 244.674 144.276C243.724 144.337 242.804 144.368 241.914 144.368ZM255.912 144V112.352H277.532V117.688H262.444V125.37H275.37V130.706H262.444V138.664H277.532V144H255.912ZM283.025 144V137.974H289.695V144H283.025Z" fill="#F1F1F1"/>
</svg>
