<svg width="340" height="51" viewBox="0 0 340 51" fill="none" xmlns="http://www.w3.org/2000/svg">
<path d="M78.897 42V10.352H87.867L95.687 31.236H95.963L103.737 10.352H112.661V42H106.359V19.966H106.129L97.941 42H93.433L85.245 19.966H85.015V42H78.897ZM132.736 42.368C130.16 42.368 128.029 42.2147 126.342 41.908C124.686 41.6013 123.383 41.0953 122.432 40.39C121.481 39.654 120.791 38.6727 120.362 37.446C119.933 36.1887 119.657 34.64 119.534 32.8C119.411 30.96 119.35 28.752 119.35 26.176C119.35 23.6 119.411 21.392 119.534 19.552C119.657 17.712 119.933 16.1787 120.362 14.952C120.791 13.6947 121.481 12.7133 122.432 12.008C123.383 11.272 124.686 10.7507 126.342 10.444C128.029 10.1373 130.16 9.984 132.736 9.984C135.312 9.984 137.428 10.1373 139.084 10.444C140.771 10.7507 142.089 11.272 143.04 12.008C143.991 12.7133 144.681 13.6947 145.11 14.952C145.57 16.1787 145.861 17.712 145.984 19.552C146.107 21.392 146.168 23.6 146.168 26.176C146.168 28.752 146.107 30.96 145.984 32.8C145.861 34.64 145.57 36.1887 145.11 37.446C144.681 38.6727 143.991 39.654 143.04 40.39C142.089 41.0953 140.771 41.6013 139.084 41.908C137.428 42.2147 135.312 42.368 132.736 42.368ZM132.736 37.032C134.085 37.032 135.174 36.986 136.002 36.894C136.861 36.802 137.535 36.5873 138.026 36.25C138.517 35.9127 138.869 35.3607 139.084 34.594C139.329 33.8273 139.483 32.7693 139.544 31.42C139.605 30.0707 139.636 28.3227 139.636 26.176C139.636 24.0293 139.605 22.2813 139.544 20.932C139.483 19.5827 139.329 18.5247 139.084 17.758C138.869 16.9913 138.517 16.4393 138.026 16.102C137.535 15.7647 136.861 15.55 136.002 15.458C135.174 15.366 134.085 15.32 132.736 15.32C131.417 15.32 130.329 15.366 129.47 15.458C128.642 15.55 127.983 15.7647 127.492 16.102C127.001 16.4393 126.633 16.9913 126.388 17.758C126.173 18.5247 126.035 19.5827 125.974 20.932C125.913 22.2813 125.882 24.0293 125.882 26.176C125.882 28.3227 125.913 30.0707 125.974 31.42C126.035 32.7693 126.173 33.8273 126.388 34.594C126.633 35.3607 127.001 35.9127 127.492 36.25C127.983 36.5873 128.642 36.802 129.47 36.894C130.329 36.986 131.417 37.032 132.736 37.032ZM152.793 42V10.352H163.557C166.287 10.352 168.51 10.49 170.227 10.766C171.975 11.042 173.34 11.5327 174.321 12.238C175.333 12.9127 176.054 13.8633 176.483 15.09C176.943 16.286 177.235 17.7887 177.357 19.598C177.48 21.4073 177.541 23.6 177.541 26.176C177.541 28.752 177.48 30.9447 177.357 32.754C177.235 34.5633 176.943 36.0813 176.483 37.308C176.054 38.504 175.333 39.4547 174.321 40.16C173.34 40.8347 171.975 41.31 170.227 41.586C168.51 41.862 166.287 42 163.557 42H152.793ZM159.325 36.664H163.189C164.692 36.664 165.919 36.6333 166.869 36.572C167.851 36.48 168.617 36.2807 169.169 35.974C169.752 35.6673 170.166 35.146 170.411 34.41C170.657 33.6433 170.81 32.6007 170.871 31.282C170.963 29.9633 171.009 28.2613 171.009 26.176C171.009 24.1213 170.963 22.4347 170.871 21.116C170.81 19.7667 170.641 18.724 170.365 17.988C170.12 17.252 169.706 16.7307 169.123 16.424C168.571 16.0867 167.82 15.8873 166.869 15.826C165.919 15.734 164.692 15.688 163.189 15.688H159.325V36.664ZM202.689 42L192.569 10.352H199.285L207.013 35.054H207.243L214.879 10.352H221.457L211.337 42H202.689ZM226.061 42V10.352H232.593V42H226.061ZM251.254 42.368C250.088 42.368 248.8 42.3373 247.39 42.276C246.01 42.2147 244.66 42.1227 243.342 42C242.023 41.908 240.812 41.8007 239.708 41.678V36.48C240.842 36.572 241.992 36.664 243.158 36.756C244.354 36.848 245.488 36.9247 246.562 36.986C247.635 37.0167 248.555 37.032 249.322 37.032C250.886 37.032 252.097 36.9707 252.956 36.848C253.814 36.6947 254.458 36.48 254.888 36.204C255.225 35.9587 255.455 35.698 255.578 35.422C255.7 35.1153 255.777 34.7627 255.808 34.364C255.838 33.9347 255.854 33.4593 255.854 32.938C255.854 32.2327 255.808 31.65 255.716 31.19C255.654 30.73 255.532 30.3773 255.348 30.132C255.164 29.856 254.857 29.6567 254.428 29.534C254.029 29.4113 253.508 29.3193 252.864 29.258L245.78 28.384C244.369 28.2 243.204 27.878 242.284 27.418C241.394 26.958 240.689 26.3447 240.168 25.578C239.646 24.8113 239.278 23.9067 239.064 22.864C238.88 21.8213 238.788 20.6407 238.788 19.322C238.788 17.2367 239.079 15.5807 239.662 14.354C240.244 13.1273 241.057 12.192 242.1 11.548C243.173 10.904 244.43 10.49 245.872 10.306C247.313 10.0913 248.877 9.984 250.564 9.984C251.79 9.984 253.048 10.03 254.336 10.122C255.624 10.1833 256.835 10.2753 257.97 10.398C259.104 10.5207 260.055 10.674 260.822 10.858V15.918C260.055 15.7953 259.166 15.688 258.154 15.596C257.142 15.504 256.084 15.4427 254.98 15.412C253.876 15.3507 252.833 15.32 251.852 15.32C250.41 15.32 249.26 15.3813 248.402 15.504C247.574 15.596 246.93 15.7647 246.47 16.01C245.948 16.3167 245.626 16.7153 245.504 17.206C245.412 17.6967 245.366 18.31 245.366 19.046C245.366 19.966 245.427 20.6713 245.55 21.162C245.672 21.622 245.964 21.944 246.424 22.128C246.884 22.312 247.604 22.4653 248.586 22.588L255.67 23.416C256.528 23.508 257.326 23.6613 258.062 23.876C258.798 24.0907 259.457 24.428 260.04 24.888C260.622 25.348 261.098 25.992 261.466 26.82C261.68 27.2493 261.849 27.7553 261.972 28.338C262.094 28.89 262.186 29.5187 262.248 30.224C262.34 30.9293 262.386 31.7113 262.386 32.57C262.386 34.3487 262.202 35.836 261.834 37.032C261.496 38.228 261.006 39.1787 260.362 39.884C259.718 40.5893 258.92 41.126 257.97 41.494C257.05 41.862 256.022 42.092 254.888 42.184C253.753 42.3067 252.542 42.368 251.254 42.368Z" fill="#F1F1F1"/>
</svg>
