<svg width="1620" height="178" viewBox="0 0 1620 178" fill="none" xmlns="http://www.w3.org/2000/svg">
<path d="M12.956 142V33.296H43.766L70.626 105.028H71.574L98.276 33.296H128.928V142H107.282V66.318H106.492L78.368 142H62.884L34.76 66.318H33.97V142H12.956ZM197.881 143.264C189.033 143.264 181.713 142.737 175.919 141.684C170.231 140.631 165.755 138.893 162.489 136.47C159.224 133.942 156.854 130.571 155.379 126.358C153.905 122.039 152.957 116.72 152.535 110.4C152.114 104.08 151.903 96.496 151.903 87.648C151.903 78.8 152.114 71.216 152.535 64.896C152.957 58.576 153.905 53.3093 155.379 49.096C156.854 44.7773 159.224 41.4067 162.489 38.984C165.755 36.456 170.231 34.6653 175.919 33.612C181.713 32.5587 189.033 32.032 197.881 32.032C206.729 32.032 213.997 32.5587 219.685 33.612C225.479 34.6653 230.008 36.456 233.273 38.984C236.539 41.4067 238.909 44.7773 240.383 49.096C241.963 53.3093 242.964 58.576 243.385 64.896C243.807 71.216 244.017 78.8 244.017 87.648C244.017 96.496 243.807 104.08 243.385 110.4C242.964 116.72 241.963 122.039 240.383 126.358C238.909 130.571 236.539 133.942 233.273 136.47C230.008 138.893 225.479 140.631 219.685 141.684C213.997 142.737 206.729 143.264 197.881 143.264ZM197.881 124.936C202.516 124.936 206.255 124.778 209.099 124.462C212.049 124.146 214.366 123.409 216.051 122.25C217.737 121.091 218.948 119.195 219.685 116.562C220.528 113.929 221.055 110.295 221.265 105.66C221.476 101.025 221.581 95.0213 221.581 87.648C221.581 80.2747 221.476 74.2707 221.265 69.636C221.055 65.0013 220.528 61.3673 219.685 58.734C218.948 56.1007 217.737 54.2047 216.051 53.046C214.366 51.8873 212.049 51.15 209.099 50.834C206.255 50.518 202.516 50.36 197.881 50.36C193.352 50.36 189.613 50.518 186.663 50.834C183.819 51.15 181.555 51.8873 179.869 53.046C178.184 54.2047 176.92 56.1007 176.077 58.734C175.34 61.3673 174.866 65.0013 174.655 69.636C174.445 74.2707 174.339 80.2747 174.339 87.648C174.339 95.0213 174.445 101.025 174.655 105.66C174.866 110.295 175.34 113.929 176.077 116.562C176.92 119.195 178.184 121.091 179.869 122.25C181.555 123.409 183.819 124.146 186.663 124.462C189.613 124.778 193.352 124.936 197.881 124.936ZM266.774 142V33.296H303.746C313.121 33.296 320.758 33.77 326.656 34.718C332.66 35.666 337.348 37.3513 340.718 39.774C344.194 42.0913 346.67 45.3567 348.144 49.57C349.724 53.678 350.725 58.8393 351.146 65.054C351.568 71.2687 351.778 78.8 351.778 87.648C351.778 96.496 351.568 104.027 351.146 110.242C350.725 116.457 349.724 121.671 348.144 125.884C346.67 129.992 344.194 133.257 340.718 135.68C337.348 137.997 332.66 139.63 326.656 140.578C320.758 141.526 313.121 142 303.746 142H266.774ZM289.21 123.672H302.482C307.644 123.672 311.857 123.567 315.122 123.356C318.493 123.04 321.126 122.355 323.022 121.302C325.024 120.249 326.446 118.458 327.288 115.93C328.131 113.297 328.658 109.715 328.868 105.186C329.184 100.657 329.342 94.8107 329.342 87.648C329.342 80.5907 329.184 74.7973 328.868 70.268C328.658 65.6333 328.078 62.052 327.13 59.524C326.288 56.996 324.866 55.2053 322.864 54.152C320.968 52.9933 318.388 52.3087 315.122 52.098C311.857 51.782 307.644 51.624 302.482 51.624H289.21V123.672ZM438.155 142L403.395 33.296H426.463L453.007 118.142H453.797L480.025 33.296H502.619L467.859 142H438.155ZM518.433 142V33.296H540.869V142H518.433ZM604.963 143.264C600.961 143.264 596.537 143.159 591.691 142.948C586.951 142.737 582.317 142.421 577.787 142C573.258 141.684 569.097 141.315 565.305 140.894V123.04C569.203 123.356 573.153 123.672 577.155 123.988C581.263 124.304 585.161 124.567 588.847 124.778C592.534 124.883 595.694 124.936 598.327 124.936C603.699 124.936 607.86 124.725 610.809 124.304C613.759 123.777 615.971 123.04 617.445 122.092C618.604 121.249 619.394 120.354 619.815 119.406C620.237 118.353 620.5 117.141 620.605 115.772C620.711 114.297 620.763 112.665 620.763 110.874C620.763 108.451 620.605 106.45 620.289 104.87C620.079 103.29 619.657 102.079 619.025 101.236C618.393 100.288 617.34 99.6033 615.865 99.182C614.496 98.7607 612.705 98.4447 610.493 98.234L586.161 95.232C581.316 94.6 577.313 93.494 574.153 91.914C571.099 90.334 568.676 88.2273 566.885 85.594C565.095 82.9607 563.831 79.8533 563.093 76.272C562.461 72.6907 562.145 68.6353 562.145 64.106C562.145 56.9433 563.146 51.2553 565.147 47.042C567.149 42.8287 569.94 39.616 573.521 37.404C577.208 35.192 581.527 33.77 586.477 33.138C591.428 32.4007 596.8 32.032 602.593 32.032C606.807 32.032 611.125 32.19 615.549 32.506C619.973 32.7167 624.134 33.0327 628.031 33.454C631.929 33.8753 635.194 34.402 637.827 35.034V52.414C635.194 51.9927 632.139 51.624 628.663 51.308C625.187 50.992 621.553 50.7813 617.761 50.676C613.969 50.4653 610.388 50.36 607.017 50.36C602.067 50.36 598.117 50.5707 595.167 50.992C592.323 51.308 590.111 51.8873 588.531 52.73C586.741 53.7833 585.635 55.1527 585.213 56.838C584.897 58.5233 584.739 60.63 584.739 63.158C584.739 66.318 584.95 68.7407 585.371 70.426C585.793 72.006 586.793 73.112 588.373 73.744C589.953 74.376 592.429 74.9027 595.799 75.324L620.131 78.168C623.081 78.484 625.819 79.0107 628.347 79.748C630.875 80.4853 633.14 81.644 635.141 83.224C637.143 84.804 638.775 87.016 640.039 89.86C640.777 91.3347 641.356 93.0727 641.777 95.074C642.199 96.97 642.515 99.1293 642.725 101.552C643.041 103.975 643.199 106.661 643.199 109.61C643.199 115.719 642.567 120.828 641.303 124.936C640.145 129.044 638.459 132.309 636.247 134.732C634.035 137.155 631.297 138.998 628.031 140.262C624.871 141.526 621.343 142.316 617.445 142.632C613.548 143.053 609.387 143.264 604.963 143.264Z" fill="#F1F1F1"/>
</svg>
