<svg width="632" height="112" viewBox="0 0 632 112" fill="none" xmlns="http://www.w3.org/2000/svg">
<path d="M0.956 110V1.296H31.766L58.626 73.028H59.574L86.276 1.296H116.928V110H95.282V34.318H94.492L66.368 110H50.884L22.76 34.318H21.97V110H0.956ZM185.881 111.264C177.033 111.264 169.713 110.737 163.919 109.684C158.231 108.631 153.755 106.893 150.489 104.47C147.224 101.942 144.854 98.5713 143.379 94.358C141.905 90.0393 140.957 84.72 140.535 78.4C140.114 72.08 139.903 64.496 139.903 55.648C139.903 46.8 140.114 39.216 140.535 32.896C140.957 26.576 141.905 21.3093 143.379 17.096C144.854 12.7773 147.224 9.40667 150.489 6.984C153.755 4.45599 158.231 2.66532 163.919 1.61199C169.713 0.55866 177.033 0.0319937 185.881 0.0319937C194.729 0.0319937 201.997 0.55866 207.685 1.61199C213.479 2.66532 218.008 4.45599 221.273 6.984C224.539 9.40667 226.909 12.7773 228.383 17.096C229.963 21.3093 230.964 26.576 231.385 32.896C231.807 39.216 232.017 46.8 232.017 55.648C232.017 64.496 231.807 72.08 231.385 78.4C230.964 84.72 229.963 90.0393 228.383 94.358C226.909 98.5713 224.539 101.942 221.273 104.47C218.008 106.893 213.479 108.631 207.685 109.684C201.997 110.737 194.729 111.264 185.881 111.264ZM185.881 92.936C190.516 92.936 194.255 92.778 197.099 92.462C200.049 92.146 202.366 91.4087 204.051 90.25C205.737 89.0913 206.948 87.1953 207.685 84.562C208.528 81.9287 209.055 78.2947 209.265 73.66C209.476 69.0253 209.581 63.0213 209.581 55.648C209.581 48.2747 209.476 42.2707 209.265 37.636C209.055 33.0013 208.528 29.3673 207.685 26.734C206.948 24.1007 205.737 22.2047 204.051 21.046C202.366 19.8873 200.049 19.15 197.099 18.834C194.255 18.518 190.516 18.36 185.881 18.36C181.352 18.36 177.613 18.518 174.663 18.834C171.819 19.15 169.555 19.8873 167.869 21.046C166.184 22.2047 164.92 24.1007 164.077 26.734C163.34 29.3673 162.866 33.0013 162.655 37.636C162.445 42.2707 162.339 48.2747 162.339 55.648C162.339 63.0213 162.445 69.0253 162.655 73.66C162.866 78.2947 163.34 81.9287 164.077 84.562C164.92 87.1953 166.184 89.0913 167.869 90.25C169.555 91.4087 171.819 92.146 174.663 92.462C177.613 92.778 181.352 92.936 185.881 92.936ZM254.774 110V1.296H291.746C301.121 1.296 308.758 1.77 314.656 2.718C320.66 3.666 325.348 5.35133 328.718 7.774C332.194 10.0913 334.67 13.3567 336.144 17.57C337.724 21.678 338.725 26.8393 339.146 33.054C339.568 39.2687 339.778 46.8 339.778 55.648C339.778 64.496 339.568 72.0273 339.146 78.242C338.725 84.4567 337.724 89.6707 336.144 93.884C334.67 97.992 332.194 101.257 328.718 103.68C325.348 105.997 320.66 107.63 314.656 108.578C308.758 109.526 301.121 110 291.746 110H254.774ZM277.21 91.672H290.482C295.644 91.672 299.857 91.5667 303.122 91.356C306.493 91.04 309.126 90.3553 311.022 89.302C313.024 88.2487 314.446 86.458 315.288 83.93C316.131 81.2967 316.658 77.7153 316.868 73.186C317.184 68.6567 317.342 62.8107 317.342 55.648C317.342 48.5907 317.184 42.7973 316.868 38.268C316.658 33.6333 316.078 30.052 315.13 27.524C314.288 24.996 312.866 23.2053 310.864 22.152C308.968 20.9933 306.388 20.3087 303.122 20.098C299.857 19.782 295.644 19.624 290.482 19.624H277.21V91.672ZM426.155 110L391.395 1.296H414.463L441.007 86.142H441.797L468.025 1.296H490.619L455.859 110H426.155ZM506.433 110V1.296H528.869V110H506.433ZM592.963 111.264C588.961 111.264 584.537 111.159 579.691 110.948C574.951 110.737 570.317 110.421 565.787 110C561.258 109.684 557.097 109.315 553.305 108.894V91.04C557.203 91.356 561.153 91.672 565.155 91.988C569.263 92.304 573.161 92.5673 576.847 92.778C580.534 92.8833 583.694 92.936 586.327 92.936C591.699 92.936 595.86 92.7253 598.809 92.304C601.759 91.7773 603.971 91.04 605.445 90.092C606.604 89.2493 607.394 88.354 607.815 87.406C608.237 86.3527 608.5 85.1413 608.605 83.772C608.711 82.2973 608.763 80.6647 608.763 78.874C608.763 76.4513 608.605 74.45 608.289 72.87C608.079 71.29 607.657 70.0787 607.025 69.236C606.393 68.288 605.34 67.6033 603.865 67.182C602.496 66.7607 600.705 66.4447 598.493 66.234L574.161 63.232C569.316 62.6 565.313 61.494 562.153 59.914C559.099 58.334 556.676 56.2273 554.885 53.594C553.095 50.9607 551.831 47.8533 551.093 44.272C550.461 40.6907 550.145 36.6353 550.145 32.106C550.145 24.9433 551.146 19.2553 553.147 15.042C555.149 10.8287 557.94 7.61599 561.521 5.40399C565.208 3.19199 569.527 1.77 574.477 1.138C579.428 0.400662 584.8 0.0319937 590.593 0.0319937C594.807 0.0319937 599.125 0.189995 603.549 0.505997C607.973 0.716661 612.134 1.03266 616.031 1.45399C619.929 1.87533 623.194 2.40199 625.827 3.03399V20.414C623.194 19.9927 620.139 19.624 616.663 19.308C613.187 18.992 609.553 18.7813 605.761 18.676C601.969 18.4653 598.388 18.36 595.017 18.36C590.067 18.36 586.117 18.5707 583.167 18.992C580.323 19.308 578.111 19.8873 576.531 20.73C574.741 21.7833 573.635 23.1527 573.213 24.838C572.897 26.5233 572.739 28.63 572.739 31.158C572.739 34.318 572.95 36.7407 573.371 38.426C573.793 40.006 574.793 41.112 576.373 41.744C577.953 42.376 580.429 42.9027 583.799 43.324L608.131 46.168C611.081 46.484 613.819 47.0107 616.347 47.748C618.875 48.4853 621.14 49.644 623.141 51.224C625.143 52.804 626.775 55.016 628.039 57.86C628.777 59.3347 629.356 61.0727 629.777 63.074C630.199 64.97 630.515 67.1293 630.725 69.552C631.041 71.9747 631.199 74.6607 631.199 77.61C631.199 83.7193 630.567 88.828 629.303 92.936C628.145 97.044 626.459 100.309 624.247 102.732C622.035 105.155 619.297 106.998 616.031 108.262C612.871 109.526 609.343 110.316 605.445 110.632C601.548 111.053 597.387 111.264 592.963 111.264Z" fill="#F1F1F1"/>
</svg>
