<svg width="129" height="129" viewBox="0 0 129 129" fill="none" xmlns="http://www.w3.org/2000/svg">
<path d="M108.785 65.1426L121.069 66.7131L120.341 72.4087C120.243 73.1705 120.069 73.7773 119.818 74.2291C119.565 74.6928 119.243 75.0327 118.852 75.2489C118.474 75.4667 118.028 75.5912 117.516 75.6225C117.003 75.6657 116.43 75.647 115.8 75.5663C115.216 75.4918 114.681 75.3749 114.193 75.2158C113.716 75.0701 113.309 74.8427 112.974 74.5336C112.638 74.2246 112.401 73.8072 112.263 73.2814C112.123 72.7675 112.105 72.1058 112.208 71.2964L112.603 68.2076L108.461 67.678L108.785 65.1426ZM114.674 68.4723L114.407 70.5613C114.342 71.0732 114.314 71.4809 114.323 71.7846C114.345 72.0898 114.418 72.3229 114.542 72.484C114.667 72.6451 114.858 72.7603 115.115 72.8295C115.371 72.9105 115.707 72.9777 116.124 73.031C116.54 73.0842 116.883 73.1038 117.151 73.0897C117.417 73.0874 117.631 73.024 117.792 72.8995C117.963 72.7883 118.091 72.593 118.175 72.3134C118.271 72.0353 118.351 71.6463 118.415 71.1464L118.691 68.986L114.674 68.4723Z" fill="white"/>
<path d="M107.133 76.5212L118.592 81.2173L116.347 86.697C116.042 87.4409 115.715 88.0008 115.367 88.3767C115.013 88.7637 114.628 89.0078 114.21 89.1091C113.804 89.2148 113.357 89.2133 112.87 89.1044C112.39 89.0113 111.872 88.8509 111.317 88.6234C110.928 88.4641 110.525 88.2602 110.108 88.0115C109.691 87.7629 109.342 87.4446 109.06 87.0567C108.774 86.6799 108.642 86.2109 108.664 85.6495L103.4 85.6319L104.423 83.1335L109.73 83.2852L109.175 83.7385C109.173 83.6471 109.19 83.5436 109.224 83.428C109.254 83.3235 109.296 83.2047 109.351 83.0714L110.361 80.6064L106.164 78.8863L107.133 76.5212ZM112.277 81.3913L111.389 83.5566C111.198 84.0229 111.076 84.4007 111.022 84.69C110.968 84.9792 110.975 85.2155 111.043 85.3988C111.121 85.5866 111.259 85.7404 111.457 85.8602C111.665 85.9845 111.942 86.1172 112.286 86.2583C112.63 86.3993 112.92 86.4987 113.156 86.5564C113.391 86.6141 113.595 86.6069 113.768 86.5348C113.94 86.4628 114.11 86.2993 114.28 86.0444C114.444 85.8007 114.622 85.4457 114.814 84.9793L115.708 82.7974L112.277 81.3913Z" fill="white"/>
<path d="M99.5751 90.8187C100.192 90.0212 100.749 89.3981 101.248 88.9493C101.739 88.5101 102.208 88.2277 102.653 88.1021C103.109 87.984 103.578 88.0052 104.06 88.1659C104.552 88.3339 105.098 88.6191 105.697 89.0214C106.296 89.4238 106.994 89.9332 107.791 90.5497C108.589 91.1662 109.258 91.7136 109.798 92.192C110.338 92.6703 110.747 93.1227 111.024 93.5492C111.311 93.983 111.449 94.4315 111.44 94.8946C111.44 95.3651 111.29 95.8933 110.989 96.4794C110.68 97.075 110.217 97.7715 109.601 98.569C108.984 99.3665 108.43 99.9849 107.939 100.424C107.44 100.873 106.964 101.156 106.508 101.275C106.062 101.4 105.593 101.379 105.101 101.211C104.611 101.06 104.067 100.783 103.468 100.381C102.869 99.9782 102.171 99.4687 101.373 98.8522C100.576 98.2357 99.9069 97.6883 99.3667 97.21C98.8264 96.7317 98.4167 96.2708 98.1375 95.8275C97.8605 95.401 97.7218 94.9526 97.7215 94.4821C97.7306 94.019 97.8896 93.4896 98.1983 92.8941C98.4997 92.308 98.9586 91.6162 99.5751 90.8187ZM101.227 92.0958C100.904 92.5135 100.658 92.8616 100.488 93.1399C100.311 93.4278 100.216 93.688 100.203 93.9206C100.19 94.1533 100.277 94.3946 100.463 94.6445C100.641 94.9039 100.932 95.2046 101.335 95.5465C101.738 95.8884 102.272 96.3163 102.937 96.83C103.601 97.3438 104.15 97.7526 104.582 98.0565C105.014 98.3605 105.379 98.5662 105.675 98.6737C105.964 98.7908 106.219 98.8137 106.441 98.7425C106.663 98.6713 106.89 98.5138 107.124 98.27C107.351 98.0357 107.626 97.7097 107.949 97.292C108.264 96.8837 108.511 96.5357 108.688 96.2478C108.857 95.9695 108.949 95.714 108.962 95.4813C108.975 95.2487 108.892 95.0027 108.713 94.7432C108.527 94.4933 108.233 94.1974 107.83 93.8554C107.427 93.5135 106.893 93.0857 106.228 92.572C105.564 92.0582 105.015 91.6494 104.583 91.3454C104.15 91.0415 103.79 90.831 103.501 90.714C103.205 90.6065 102.946 90.5883 102.724 90.6595C102.502 90.7306 102.278 90.8834 102.051 91.1177C101.817 91.3615 101.543 91.6875 101.227 92.0958Z" fill="white"/>
<path d="M95.256 96.1256L96.5117 97.6332C96.0307 98.0494 95.6719 98.3874 95.4352 98.647C95.2062 98.9158 95.0902 99.1608 95.0871 99.3821C95.0747 99.611 95.1699 99.8753 95.3727 100.175C95.5831 100.484 95.888 100.878 96.2873 101.357L101.218 107.277L99.2541 108.913L94.7612 103.519C94.1007 102.726 93.5738 102.056 93.1806 101.509C92.7951 100.971 92.544 100.501 92.4273 100.098C92.3106 99.6956 92.3376 99.3062 92.5082 98.9298C92.6773 98.5703 92.9909 98.1686 93.4488 97.7246C93.8976 97.2884 94.5 96.7554 95.256 96.1256Z" fill="white"/>
<path d="M89.2341 101.147L95.0953 112.056L87.6427 116.06L86.6545 114.22L91.8554 111.426L90.4327 108.778L85.9771 111.172L84.9889 109.333L89.4445 106.939L87.9707 104.196L82.7698 106.99L81.7816 105.15L89.2341 101.147Z" fill="white"/>
<path d="M75.0714 107.057C75.9525 106.822 76.7042 106.683 77.3265 106.642C77.9487 106.6 78.4825 106.668 78.9278 106.848C79.3731 107.027 79.7561 107.322 80.077 107.733C80.3863 108.147 80.6686 108.693 80.9238 109.37C81.1791 110.047 81.4367 110.873 81.6967 111.847C81.9566 112.82 82.1447 113.665 82.2608 114.379C82.3769 115.093 82.4041 115.707 82.3424 116.22C82.2691 116.736 82.0841 117.183 81.7873 117.56C81.4906 117.938 81.062 118.263 80.5017 118.537C79.9413 118.811 79.2206 119.065 78.3394 119.301C78.0032 119.39 77.6523 119.472 77.2867 119.544C76.9095 119.62 76.5466 119.68 76.198 119.723C75.8494 119.766 75.5514 119.79 75.304 119.794L74.798 117.898C75.1204 117.85 75.4296 117.798 75.7256 117.744C76.0247 117.701 76.3034 117.652 76.5615 117.595C76.8081 117.542 77.0184 117.492 77.1923 117.446C77.7836 117.288 78.2643 117.135 78.6346 116.986C79.0048 116.838 79.2857 116.657 79.4774 116.444C79.6605 116.247 79.764 115.983 79.7879 115.654C79.8149 115.336 79.7792 114.923 79.6809 114.415C79.5827 113.907 79.4314 113.271 79.2271 112.506C79.026 111.752 78.8399 111.125 78.669 110.624C78.5011 110.135 78.3248 109.753 78.14 109.48C77.9582 109.218 77.7371 109.041 77.4766 108.949C77.2076 108.872 76.8756 108.861 76.4806 108.917C76.0856 108.972 75.5925 109.079 75.0012 109.237C74.6186 109.339 74.2058 109.468 73.7629 109.623C73.3201 109.779 72.9425 109.923 72.6302 110.056L72.115 108.126C72.3577 108.011 72.6483 107.89 72.9868 107.763C73.3222 107.623 73.6724 107.493 74.0372 107.37C74.3904 107.251 74.7352 107.147 75.0714 107.057Z" fill="white"/>
<path d="M67.8393 108.372L68.2732 118.587L71.852 118.435L71.9437 120.593L62.2324 121.005L62.1408 118.847L65.7195 118.695L65.2856 108.48L67.8393 108.372Z" fill="white"/>
<path d="M56.2368 107.552C56.6848 107.637 57.1776 107.743 57.7153 107.87C58.2413 107.995 58.7532 108.129 59.251 108.273C59.7512 108.405 60.2089 108.535 60.6243 108.663L60.2432 110.661C59.8138 110.543 59.3785 110.423 58.9373 110.302C58.4843 110.179 58.0538 110.067 57.6458 109.964C57.2354 109.874 56.8829 109.801 56.5883 109.744C55.9871 109.63 55.517 109.564 55.1779 109.549C54.8367 109.545 54.5734 109.58 54.3881 109.655C54.2405 109.724 54.133 109.807 54.0656 109.905C53.9959 110.013 53.9406 110.143 53.8996 110.294C53.8563 110.457 53.8156 110.639 53.7774 110.839C53.7257 111.11 53.7006 111.338 53.7023 111.521C53.6921 111.702 53.7134 111.847 53.7661 111.955C53.8166 112.074 53.9199 112.173 54.0759 112.252C54.2202 112.328 54.4138 112.402 54.6568 112.473L57.3157 113.328C57.8444 113.502 58.2687 113.711 58.5886 113.956C58.8968 114.198 59.1229 114.485 59.2671 114.818C59.4113 115.151 59.4864 115.526 59.4925 115.942C59.4867 116.356 59.4355 116.817 59.3389 117.324C59.186 118.125 58.9526 118.741 58.6387 119.169C58.3248 119.598 57.9439 119.898 57.4959 120.069C57.0361 120.238 56.5224 120.305 55.9549 120.27C55.3852 120.247 54.7762 120.174 54.1278 120.05C53.6563 119.96 53.1764 119.85 52.6881 119.72C52.1975 119.602 51.7387 119.478 51.3115 119.348C50.8844 119.217 50.5302 119.089 50.249 118.962L50.62 117.017C50.9057 117.12 51.2396 117.227 51.6219 117.336C52.0041 117.446 52.4063 117.547 52.8284 117.64C53.2483 117.744 53.6468 117.832 54.024 117.904C54.578 118.01 55.0245 118.071 55.3636 118.087C55.6886 118.112 55.9485 118.094 56.1433 118.034C56.3661 117.954 56.5191 117.824 56.6023 117.645C56.6736 117.463 56.7362 117.231 56.7902 116.948C56.8577 116.594 56.8858 116.319 56.8746 116.121C56.8612 115.935 56.7728 115.79 56.6095 115.686C56.4462 115.581 56.1804 115.469 55.8122 115.35L53.15 114.513C52.8267 114.414 52.5315 114.297 52.2643 114.16C51.9971 114.024 51.7684 113.846 51.5782 113.626C51.388 113.407 51.2525 113.124 51.1717 112.779C51.1207 112.598 51.0929 112.392 51.0885 112.159C51.0818 111.938 51.0926 111.689 51.1207 111.414C51.137 111.136 51.1767 110.832 51.2396 110.502C51.37 109.818 51.5498 109.26 51.779 108.827C51.9963 108.392 52.2546 108.063 52.5538 107.839C52.8531 107.615 53.1989 107.467 53.5913 107.395C53.9719 107.321 54.3837 107.308 54.8265 107.356C55.2717 107.392 55.7418 107.457 56.2368 107.552Z" fill="white"/>
<path d="M50.1897 106.129L49.3366 108.327L46.9034 107.383L47.7566 105.184L50.1897 106.129Z" fill="white"/>
<path d="M41.4026 102.253L33.7928 112.023L29.2628 108.495C28.6569 108.023 28.2236 107.564 27.9628 107.117C27.6927 106.664 27.5641 106.214 27.577 105.767C27.5826 105.331 27.7023 104.884 27.9363 104.427C28.1608 103.963 28.4684 103.48 28.8592 102.979C29.2206 102.515 29.5939 102.113 29.9794 101.775C30.348 101.438 30.7507 101.204 31.1876 101.073C31.6244 100.942 32.1043 100.951 32.6273 101.099C33.1408 101.241 33.7195 101.562 34.3632 102.064L36.82 103.977L39.386 100.683L41.4026 102.253ZM35.5369 105.624L33.8754 104.33C33.4683 104.013 33.1317 103.781 32.8655 103.635C32.592 103.498 32.3542 103.442 32.1521 103.467C31.95 103.492 31.7536 103.598 31.563 103.784C31.3629 103.963 31.1338 104.218 30.8757 104.549C30.6177 104.881 30.4264 105.165 30.3021 105.403C30.1683 105.633 30.1139 105.85 30.139 106.052C30.1473 106.256 30.2503 106.465 30.448 106.68C30.6384 106.905 30.9324 107.172 31.33 107.481L33.0483 108.82L35.5369 105.624Z" fill="white"/>
<path d="M32.4808 95.0485L22.628 102.551L19.0404 97.8393C18.5533 97.1997 18.236 96.6344 18.0884 96.1434C17.9335 95.6429 17.9182 95.187 18.0424 94.7757C18.1571 94.3717 18.3847 93.9872 18.7252 93.6223C19.049 93.2551 19.4495 92.8898 19.9269 92.5263C20.261 92.2719 20.6409 92.0279 21.0664 91.7944C21.4919 91.5609 21.9433 91.4208 22.4205 91.3741C22.8905 91.3179 23.3619 91.4417 23.8345 91.7454L26.5159 87.2149L28.1516 89.3631L25.3332 93.8621L25.2236 93.1537C25.3031 93.1987 25.384 93.2654 25.4662 93.3536C25.5412 93.4322 25.6223 93.5288 25.7096 93.6434L27.3235 95.7629L30.9323 93.0149L32.4808 95.0485ZM25.6766 97.0169L24.259 95.1552C23.9536 94.7542 23.6898 94.4573 23.4676 94.2646C23.2454 94.0718 23.0382 93.9581 22.8459 93.9235C22.6441 93.8962 22.4416 93.9372 22.2384 94.0467C22.0257 94.1635 21.7713 94.3345 21.4753 94.5599C21.1794 94.7853 20.9468 94.985 20.7777 95.159C20.6086 95.333 20.5115 95.5125 20.4864 95.6975C20.4614 95.8825 20.5158 96.1125 20.6498 96.3876C20.7766 96.653 20.9926 96.9863 21.2979 97.3873L22.7265 99.2633L25.6766 97.0169Z" fill="white"/>
<path d="M24.0007 81.3354C24.3759 82.271 24.6307 83.0673 24.765 83.7246C24.8949 84.3707 24.901 84.9177 24.7833 85.3657C24.6545 85.8182 24.3986 86.2118 24.0156 86.5464C23.6215 86.8855 23.0993 87.2113 22.4489 87.5239C21.7985 87.8365 21.0056 88.1804 20.07 88.5556C19.1345 88.9309 18.3236 89.2302 17.6375 89.4537C16.9514 89.6772 16.3543 89.8003 15.8463 89.8231C15.3271 89.8503 14.8702 89.7427 14.4755 89.5002C14.0698 89.2621 13.6906 88.8647 13.338 88.308C12.9809 87.7401 12.6147 86.9883 12.2395 86.0528C11.8642 85.1172 11.6117 84.3264 11.4818 83.6803C11.3475 83.0231 11.3447 82.4682 11.4736 82.0158C11.5912 81.5677 11.8471 81.1742 12.2412 80.8351C12.6197 80.4894 13.1342 80.1602 13.7845 79.8476C14.4349 79.535 15.2279 79.1911 16.1634 78.8159C17.099 78.4406 17.9098 78.1413 18.5959 77.9178C19.2821 77.6943 19.8869 77.5745 20.4106 77.5584C20.9186 77.5356 21.3755 77.6433 21.7813 77.8813C22.176 78.1239 22.5518 78.5291 22.9089 79.0969C23.2615 79.6537 23.6254 80.3999 24.0007 81.3354ZM22.0628 82.1127C21.8662 81.6226 21.6909 81.234 21.5369 80.9467C21.3784 80.6482 21.2021 80.4345 21.0081 80.3054C20.8142 80.1763 20.5623 80.1287 20.2526 80.1624C19.9384 80.185 19.5318 80.2834 19.0329 80.4577C18.5339 80.632 17.8946 80.8755 17.115 81.1882C16.3353 81.5009 15.705 81.7666 15.2238 81.9855C14.7427 82.2043 14.3808 82.4141 14.1381 82.6149C13.8909 82.8045 13.7418 83.013 13.6908 83.2404C13.6398 83.4677 13.6601 83.744 13.7518 84.0692C13.839 84.3834 13.9808 84.7854 14.1774 85.2755C14.3695 85.7544 14.5448 86.1431 14.7033 86.4415C14.8573 86.7288 15.0313 86.937 15.2253 87.0661C15.4193 87.1952 15.6734 87.2484 15.9875 87.2258C16.2973 87.1921 16.7016 87.0881 17.2006 86.9138C17.6996 86.7395 18.3389 86.496 19.1185 86.1833C19.8981 85.8706 20.5285 85.6049 21.0096 85.386C21.4907 85.1672 21.8549 84.9629 22.102 84.7733C22.3447 84.5725 22.4916 84.3585 22.5426 84.1311C22.5937 83.9038 22.5756 83.6331 22.4884 83.3189C22.3967 82.9937 22.2548 82.5916 22.0628 82.1127Z" fill="white"/>
<path d="M21.6046 74.9142L19.667 75.2226C19.5552 74.5964 19.4482 74.1152 19.3461 73.7791C19.2322 73.4448 19.0809 73.2198 18.8924 73.104C18.7019 72.9764 18.4261 72.9231 18.0649 72.9441C17.6919 72.967 17.1973 73.0275 16.581 73.1256L8.9728 74.3367L8.571 71.8125L15.5037 70.7089C16.5229 70.5467 17.3681 70.4365 18.0393 70.3782C18.6986 70.3219 19.2311 70.3465 19.6367 70.452C20.0424 70.5576 20.3633 70.7799 20.5995 71.119C20.822 71.4481 21.007 71.9229 21.1544 72.5435C21.2999 73.1522 21.4499 73.9424 21.6046 74.9142Z" fill="white"/>
<path d="M20.3532 67.0948L7.98037 66.5692L8.3394 58.1169L10.4255 58.2055L10.175 64.1042L13.1783 64.2317L13.3929 59.1783L15.479 59.2669L15.2644 64.3203L18.3756 64.4525L18.6261 58.5538L20.7122 58.6424L20.3532 67.0948Z" fill="white"/>
<path d="M22.4585 51.9382C22.2132 52.8166 21.9506 53.5345 21.6704 54.0917C21.3903 54.6489 21.0599 55.0737 20.6793 55.3661C20.2986 55.6585 19.8497 55.8384 19.3326 55.9059C18.8186 55.9617 18.2052 55.9276 17.4924 55.8033C16.7795 55.6791 15.9377 55.4815 14.9668 55.2104C13.9959 54.9394 13.1734 54.6724 12.4993 54.4095C11.8251 54.1466 11.2827 53.8581 10.872 53.5441C10.4646 53.2186 10.1737 52.8321 9.99959 52.3848C9.82544 51.9375 9.76285 51.403 9.81182 50.7813C9.86079 50.1596 10.0079 49.4095 10.2531 48.5311C10.3467 48.1959 10.455 47.8524 10.5781 47.5005C10.7045 47.1371 10.8376 46.7943 10.9774 46.472C11.1172 46.1497 11.2482 45.8811 11.3706 45.666L13.2603 46.1936C13.1385 46.496 13.0257 46.7884 12.922 47.0709C12.8066 47.3502 12.7077 47.6153 12.6252 47.8664C12.5458 48.1059 12.482 48.3123 12.4336 48.4857C12.269 49.0752 12.1566 49.5671 12.0964 49.9614C12.0362 50.3557 12.0489 50.6894 12.1346 50.9625C12.212 51.2208 12.3865 51.444 12.6579 51.6319C12.9178 51.8166 13.2915 51.9956 13.7788 52.169C14.2661 52.3424 14.8912 52.5356 15.654 52.7486C16.4053 52.9583 17.0401 53.1168 17.5583 53.2241C18.065 53.3281 18.4831 53.3701 18.8126 53.35C19.1306 53.3266 19.3954 53.2261 19.607 53.0484C19.8102 52.856 19.9881 52.5755 20.1409 52.207C20.2936 51.8385 20.4522 51.3595 20.6167 50.77C20.7232 50.3886 20.822 49.9677 20.9132 49.5072C21.0043 49.0468 21.072 48.6483 21.1161 48.3118L23.0405 48.849C23.0158 49.1162 22.9723 49.428 22.9102 49.7844C22.8596 50.144 22.7943 50.512 22.7142 50.8883C22.6373 51.2531 22.552 51.603 22.4585 51.9382Z" fill="white"/>
<path d="M24.9475 45.1147L15.9411 40.2759L14.2458 43.4313L12.343 42.409L16.9433 33.8465L18.8461 34.8688L17.1508 38.0243L26.1572 42.8631L24.9475 45.1147Z" fill="white"/>
<path d="M31.4596 35.6379C31.1576 35.9796 30.8149 36.3494 30.4315 36.7472C30.056 37.1359 29.6794 37.5078 29.3018 37.8627C28.9332 38.2256 28.5879 38.553 28.2659 38.845L26.7415 37.4983C27.0625 37.1894 27.3874 36.8759 27.7163 36.5581C28.0532 36.2312 28.3696 35.9183 28.6657 35.6194C28.9527 35.3126 29.1956 35.0468 29.3942 34.822C29.7994 34.3633 30.0953 33.9922 30.2818 33.7086C30.4593 33.4171 30.5632 33.1726 30.5935 32.9752C30.6089 32.8127 30.5921 32.6778 30.5429 32.5703C30.4848 32.4548 30.4012 32.341 30.2922 32.2287C30.1743 32.1085 30.0389 31.9808 29.886 31.8458C29.6792 31.663 29.4964 31.5256 29.3376 31.4334C29.1869 31.3322 29.0517 31.2768 28.932 31.2672C28.8034 31.2496 28.6655 31.2879 28.5183 31.382C28.3791 31.4672 28.217 31.5962 28.0322 31.7692L25.9405 33.6201C25.5211 33.9861 25.1248 34.2444 24.7515 34.395C24.3862 34.5367 24.0236 34.5846 23.6637 34.5388C23.3038 34.4931 22.9432 34.3666 22.5818 34.1594C22.2284 33.9433 21.8583 33.6644 21.4716 33.3227C20.8601 32.7824 20.4499 32.268 20.2412 31.7793C20.0324 31.2906 19.9687 30.81 20.05 30.3374C20.1392 29.8558 20.3435 29.3798 20.663 28.9094C20.9735 28.4312 21.3472 27.9447 21.7842 27.4501C22.102 27.0904 22.4412 26.7336 22.8019 26.3797C23.1536 26.0179 23.4944 25.6865 23.8244 25.3855C24.1543 25.0846 24.4456 24.8455 24.6982 24.6684L26.182 25.9793C25.9474 26.1724 25.6855 26.4054 25.3963 26.6783C25.1072 26.9512 24.8151 27.2456 24.5201 27.5614C24.216 27.8693 23.9369 28.1671 23.6827 28.4548C23.3092 28.8775 23.0293 29.2306 22.8428 29.5142C22.6552 29.7809 22.5379 30.0134 22.4906 30.2119C22.4455 30.4442 22.479 30.6419 22.5911 30.805C22.7111 30.9591 22.8791 31.1315 23.0949 31.3222C23.3647 31.5606 23.5874 31.7253 23.7631 31.8165C23.9298 31.8997 24.0997 31.8977 24.2728 31.8104C24.4459 31.7232 24.6776 31.5516 24.9678 31.2956L27.046 29.4328C27.2954 29.2048 27.547 29.0107 27.8006 28.8505C28.0542 28.6903 28.324 28.5843 28.6098 28.5326C28.8957 28.4809 29.2077 28.5084 29.5459 28.615C29.7274 28.6633 29.9195 28.7449 30.1221 28.8599C30.3158 28.9669 30.524 29.1028 30.7467 29.2676C30.9774 29.4233 31.2186 29.6125 31.4704 29.8349C31.992 30.2957 32.3805 30.735 32.6359 31.1528C32.8992 31.5616 33.0509 31.9518 33.0908 32.3234C33.1308 32.695 33.0816 33.0678 32.9433 33.442C32.8128 33.8071 32.6141 34.168 32.3471 34.5245C32.0891 34.8891 31.7933 35.2602 31.4596 35.6379Z" fill="white"/>
<path d="M35.6889 31.1623L34.2264 29.3126L36.2738 27.6939L37.7362 29.5436L35.6889 31.1623Z" fill="white"/>
<path d="M43.5173 25.4492L38.9502 13.9381L44.2875 11.8205C45.0013 11.5373 45.6168 11.3964 46.1337 11.3979C46.6619 11.3949 47.115 11.512 47.4932 11.7493C47.8669 11.9754 48.1913 12.305 48.4664 12.7381C48.7527 13.1667 49.0131 13.6766 49.2476 14.2678C49.4645 14.8143 49.6212 15.3396 49.7179 15.8434C49.8212 16.3317 49.8188 16.7974 49.7106 17.2406C49.6024 17.6837 49.3517 18.093 48.9584 18.4685C48.5764 18.8396 48.0061 19.1756 47.2476 19.4765L44.3531 20.625L45.8932 24.5066L43.5173 25.4492ZM43.583 18.6841L45.5406 17.9075C46.0202 17.7172 46.3906 17.5444 46.6518 17.3891C46.9085 17.2227 47.0772 17.046 47.158 16.8591C47.2387 16.6721 47.2471 16.4493 47.1832 16.1906C47.1305 15.9276 47.0267 15.6008 46.8718 15.2104C46.7169 14.82 46.5685 14.511 46.4265 14.2833C46.2957 14.0512 46.1368 13.8947 45.9498 13.814C45.7696 13.7177 45.5368 13.7003 45.2514 13.7619C44.9615 13.8123 44.5824 13.9305 44.1139 14.1164L42.0894 14.9196L43.583 18.6841Z" fill="white"/>
<path d="M54.2912 21.3588L52.8624 9.05745L58.7449 8.37421C59.5435 8.28145 60.1916 8.29678 60.6891 8.4202C61.1986 8.54223 61.5986 8.76155 61.8891 9.07816C62.1782 9.38284 62.3928 9.77469 62.533 10.2537C62.6837 10.7194 62.7937 11.2503 62.8629 11.8463C62.9114 12.2635 62.9276 12.7146 62.9114 13.1997C62.8953 13.6848 62.7856 14.1446 62.5823 14.5789C62.391 15.0119 62.0442 15.3542 61.5419 15.6058L64.0714 20.2228L61.3895 20.5343L58.9568 15.8155L59.622 16.0825C59.5428 16.1279 59.4442 16.1635 59.3264 16.1893C59.2205 16.2137 59.096 16.2342 58.953 16.2508L56.3068 16.5581L56.8301 21.0639L54.2912 21.3588ZM56.068 14.502L58.3923 14.232C58.893 14.1739 59.2829 14.0984 59.562 14.0055C59.8412 13.9127 60.0447 13.7924 60.1725 13.6447C60.2989 13.485 60.3668 13.2899 60.3763 13.0593C60.3843 12.8167 60.3669 12.5107 60.324 12.1412C60.2811 11.7717 60.2279 11.4698 60.1645 11.2355C60.101 11.0013 59.9961 10.8262 59.8498 10.7103C59.7034 10.5944 59.4778 10.524 59.1729 10.499C58.8799 10.4726 58.483 10.4885 57.9824 10.5467L55.6402 10.8187L56.068 14.502Z" fill="white"/>
<path d="M70.4853 21.0126C69.4893 20.858 68.6743 20.6708 68.0406 20.4509C67.4186 20.233 66.9451 19.9591 66.6198 19.6293C66.2964 19.2876 66.0885 18.8667 65.9961 18.3666C65.9056 17.8547 65.8918 17.2393 65.9549 16.5204C66.0179 15.8016 66.1267 14.9441 66.2814 13.9481C66.436 12.952 66.5923 12.1019 66.7501 11.3978C66.908 10.6937 67.1068 10.1174 67.3464 9.66882C67.5879 9.20842 67.9137 8.87038 68.3236 8.65472C68.7354 8.4272 69.2706 8.30385 69.9294 8.28468C70.6 8.26736 71.4333 8.33601 72.4294 8.49065C73.4254 8.64529 74.2344 8.83161 74.8563 9.0496C75.4901 9.26943 75.9687 9.55017 76.2921 9.89184C76.6174 10.2216 76.8253 10.6425 76.9158 11.1545C77.02 11.6564 77.0406 12.2668 76.9776 12.9856C76.9146 13.7045 76.8058 14.5619 76.6511 15.558C76.4965 16.5541 76.3402 17.4041 76.1823 18.1083C76.0244 18.8124 75.8188 19.3937 75.5655 19.8523C75.3258 20.3008 75.0001 20.6388 74.5883 20.8664C74.1784 21.082 73.6381 21.1985 72.9675 21.2159C72.3088 21.235 71.4814 21.1673 70.4853 21.0126ZM70.8057 18.9494C71.3274 19.0304 71.7511 19.0779 72.0768 19.0921C72.4144 19.108 72.6881 19.0655 72.8981 18.9645C73.1081 18.8636 73.2776 18.6713 73.4066 18.3877C73.5475 18.106 73.6703 17.7061 73.775 17.188C73.8797 16.67 73.9965 15.9959 74.1254 15.1659C74.2542 14.3358 74.3473 13.6581 74.4046 13.1326C74.4619 12.6072 74.4661 12.1889 74.4173 11.8777C74.3803 11.5684 74.2771 11.3338 74.1076 11.1739C73.9381 11.014 73.6901 10.8905 73.3636 10.8034C73.049 10.7181 72.6308 10.6349 72.109 10.5539C71.5991 10.4748 71.1754 10.4272 70.8379 10.4112C70.5122 10.3971 70.2444 10.4405 70.0344 10.5415C69.8244 10.6425 69.649 10.8338 69.5081 11.1156C69.3791 11.3991 69.2622 11.7999 69.1575 12.318C69.0528 12.8361 68.936 13.5101 68.8071 14.3402C68.6782 15.1703 68.5852 15.848 68.5279 16.3734C68.4706 16.8989 68.4604 17.3162 68.4974 17.6256C68.5462 17.9368 68.6554 18.1723 68.8249 18.3322C68.9944 18.4921 69.2364 18.6147 69.5511 18.6999C69.8776 18.7871 70.2958 18.8702 70.8057 18.9494Z" fill="white"/>
<path d="M77.4021 22.2385L78.1256 20.4148C78.7212 20.6382 79.1896 20.7917 79.5308 20.8754C79.8764 20.948 80.1471 20.9328 80.3429 20.8297C80.5499 20.7311 80.7365 20.5211 80.9027 20.1998C81.0733 19.8673 81.2737 19.411 81.5039 18.831L84.345 11.67L86.7209 12.6127L84.1319 19.1378C83.7514 20.0971 83.4148 20.8802 83.1224 21.4871C82.8344 22.0829 82.5415 22.5283 82.2437 22.8232C81.9459 23.1182 81.591 23.2808 81.1788 23.3109C80.7822 23.3343 80.2795 23.251 79.6706 23.0611C79.0729 22.8756 78.3167 22.6014 77.4021 22.2385Z" fill="white"/>
<path d="M84.6393 25.0671L91.4019 14.6926L98.4891 19.3123L97.3489 21.0615L92.4029 17.8375L90.7614 20.3558L94.9987 23.1178L93.8585 24.867L89.6213 22.105L87.9208 24.7137L92.8668 27.9377L91.7266 29.6869L84.6393 25.0671Z" fill="white"/>
<path d="M96.6993 34.682C96.0687 34.0232 95.5851 33.4313 95.2485 32.9062C94.912 32.3812 94.715 31.8804 94.6575 31.4038C94.6 30.9273 94.674 30.4494 94.8797 29.9701C95.0937 29.4995 95.4358 28.9892 95.9061 28.4393C96.3764 27.8894 96.9756 27.2659 97.7037 26.5688C98.4319 25.8718 99.0809 25.3003 99.6508 24.8544C100.221 24.4085 100.745 24.089 101.225 23.8957C101.713 23.7111 102.193 23.658 102.667 23.7362C103.141 23.8144 103.632 24.0331 104.142 24.3922C104.652 24.7513 105.222 25.2602 105.853 25.919C106.094 26.1704 106.334 26.4387 106.574 26.724C106.822 27.018 107.049 27.3073 107.255 27.5919C107.461 27.8764 107.625 28.1262 107.748 28.341L106.331 29.6978C106.133 29.4388 105.939 29.1927 105.749 28.9594C105.567 28.7178 105.389 28.4975 105.215 28.2985C105.05 28.1082 104.905 27.948 104.78 27.818C104.357 27.3759 103.991 27.0284 103.683 26.7756C103.374 26.5227 103.081 26.3636 102.802 26.2981C102.54 26.2329 102.259 26.2693 101.959 26.407C101.668 26.5364 101.324 26.7666 100.926 27.0974C100.528 27.4282 100.043 27.8675 99.4713 28.4152C98.9079 28.9546 98.4479 29.4198 98.0914 29.8109C97.7435 30.1938 97.4943 30.5321 97.3436 30.8258C97.2016 31.1113 97.153 31.3903 97.198 31.6629C97.26 31.9359 97.4105 32.232 97.6497 32.5512C97.8889 32.8704 98.2201 33.2511 98.6433 33.6932C98.9171 33.9792 99.2289 34.2788 99.5785 34.592C99.9281 34.9052 100.236 35.1665 100.503 35.376L99.0602 36.7577C98.843 36.6002 98.5969 36.4039 98.3219 36.1687C98.0383 35.9419 97.7551 35.698 97.4722 35.4373C97.1976 35.1851 96.94 34.9334 96.6993 34.682Z" fill="white"/>
<path d="M101.353 40.3625L110.098 35.0655L108.242 32.0017L110.09 30.8826L115.126 39.1964L113.278 40.3155L111.422 37.2517L102.678 42.5487L101.353 40.3625Z" fill="white"/>
<path d="M106.169 50.7347C106.029 50.301 105.884 49.8179 105.737 49.2854C105.593 48.7644 105.464 48.2511 105.351 47.7454C105.226 47.2435 105.119 46.7797 105.032 46.354L106.966 45.7261C107.069 46.1595 107.174 46.5987 107.28 47.0435C107.39 47.4998 107.499 47.9314 107.606 48.3382C107.724 48.7414 107.829 49.0857 107.922 49.3711C108.111 49.9532 108.28 50.3966 108.429 50.7014C108.59 51.0025 108.748 51.2162 108.903 51.3427C109.035 51.4386 109.159 51.4927 109.277 51.505C109.406 51.5136 109.546 51.4996 109.698 51.4628C109.862 51.4224 110.041 51.3707 110.235 51.3077C110.497 51.2225 110.709 51.135 110.869 51.0452C111.033 50.9668 111.149 50.8786 111.218 50.7804C111.299 50.6786 111.336 50.5404 111.329 50.3658C111.327 50.2026 111.298 49.9974 111.243 49.7503L110.713 47.0081C110.611 46.4609 110.59 45.9882 110.65 45.5903C110.714 45.2037 110.857 44.8671 111.079 44.5804C111.302 44.2938 111.594 44.0476 111.956 43.8417C112.322 43.6473 112.75 43.4704 113.241 43.3111C114.017 43.0592 114.669 42.9676 115.196 43.0363C115.723 43.105 116.169 43.2945 116.535 43.6048C116.904 43.9265 117.21 44.3445 117.453 44.8587C117.707 45.3692 117.935 45.9384 118.139 46.5661C118.287 47.0227 118.422 47.4962 118.543 47.9867C118.676 48.4735 118.788 48.9355 118.88 49.3726C118.971 49.8098 119.029 50.1821 119.053 50.4897L117.17 51.1009C117.123 50.8007 117.055 50.4568 116.967 50.069C116.879 49.6812 116.774 49.28 116.652 48.8654C116.542 48.4471 116.427 48.0553 116.309 47.6901C116.135 47.1536 115.973 46.733 115.823 46.4282C115.689 46.1312 115.549 45.9118 115.402 45.7703C115.225 45.6133 115.037 45.5416 114.84 45.5552C114.646 45.5802 114.412 45.6372 114.138 45.7261C113.796 45.8372 113.541 45.9452 113.373 46.0502C113.217 46.1514 113.132 46.2987 113.119 46.4922C113.106 46.6856 113.136 46.9723 113.209 47.3524L113.757 50.089C113.826 50.4197 113.865 50.735 113.874 51.0349C113.883 51.3348 113.837 51.6209 113.737 51.8933C113.636 52.1658 113.453 52.4205 113.19 52.6575C113.056 52.7892 112.888 52.9131 112.686 53.0291C112.495 53.1415 112.272 53.2517 112.017 53.3597C111.766 53.4791 111.48 53.5907 111.161 53.6944C110.499 53.9093 109.923 54.0205 109.433 54.028C108.947 54.0469 108.534 53.9791 108.194 53.8246C107.854 53.6701 107.558 53.4381 107.306 53.1288C107.058 52.8308 106.848 52.4762 106.677 52.065C106.494 51.6575 106.325 51.2141 106.169 50.7347Z" fill="white"/>
<path d="M107.884 56.8301L110.222 56.522L110.563 59.1097L108.225 59.4177L107.884 56.8301Z" fill="white"/>
</svg>
