<svg width="1432" height="112" viewBox="0 0 1432 112" fill="none" xmlns="http://www.w3.org/2000/svg">
<path d="M46.8111 111.264C37.9631 111.264 30.6424 110.737 24.8491 109.684C19.1611 108.631 14.6844 106.893 11.4191 104.47C8.15378 101.942 5.78378 98.5713 4.30911 94.358C2.83444 90.0393 1.88644 84.72 1.46511 78.4C1.04378 72.08 0.83311 64.496 0.83311 55.648C0.83311 46.8 1.04378 39.216 1.46511 32.896C1.88644 26.576 2.83444 21.3093 4.30911 17.096C5.78378 12.7773 8.15378 9.40667 11.4191 6.984C14.6844 4.45599 19.1611 2.66532 24.8491 1.61199C30.6424 0.55866 37.9631 0.0319937 46.8111 0.0319937C55.6591 0.0319937 62.9271 0.55866 68.6151 1.61199C74.4084 2.66532 78.9378 4.45599 82.2031 6.984C85.4684 9.40667 87.8384 12.7773 89.3131 17.096C90.8931 21.3093 91.8938 26.576 92.3151 32.896C92.7364 39.216 92.9471 46.8 92.9471 55.648C92.9471 64.496 92.7364 72.08 92.3151 78.4C91.8938 84.72 90.8931 90.0393 89.3131 94.358C87.8384 98.5713 85.4684 101.942 82.2031 104.47C78.9378 106.893 74.4084 108.631 68.6151 109.684C62.9271 110.737 55.6591 111.264 46.8111 111.264ZM46.8111 92.936C51.4458 92.936 55.1851 92.778 58.0291 92.462C60.9784 92.146 63.2958 91.4087 64.9811 90.25C66.6664 89.0913 67.8778 87.1953 68.6151 84.562C69.4578 81.9287 69.9844 78.2947 70.1951 73.66C70.4058 69.0253 70.5111 63.0213 70.5111 55.648C70.5111 48.2747 70.4058 42.2707 70.1951 37.636C69.9844 33.0013 69.4578 29.3673 68.6151 26.734C67.8778 24.1007 66.6664 22.2047 64.9811 21.046C63.2958 19.8873 60.9784 19.15 58.0291 18.834C55.1851 18.518 51.4458 18.36 46.8111 18.36C42.2818 18.36 38.5424 18.518 35.5931 18.834C32.7491 19.15 30.4844 19.8873 28.7991 21.046C27.1138 22.2047 25.8498 24.1007 25.0071 26.734C24.2698 29.3673 23.7958 33.0013 23.5851 37.636C23.3744 42.2707 23.2691 48.2747 23.2691 55.648C23.2691 63.0213 23.3744 69.0253 23.5851 73.66C23.7958 78.2947 24.2698 81.9287 25.0071 84.562C25.8498 87.1953 27.1138 89.0913 28.7991 90.25C30.4844 91.4087 32.7491 92.146 35.5931 92.462C38.5424 92.778 42.2818 92.936 46.8111 92.936ZM115.704 110V1.296H138.93L181.748 68.288H182.538V1.296H204.026V110H182.696L137.982 39.374H137.192V110H115.704ZM229.884 110V1.296H252.32V91.04H297.824V110H229.884ZM314.901 110V1.296H337.337V110H314.901ZM363.196 110V1.296H386.422L429.24 68.288H430.03V1.296H451.518V110H430.188L385.474 39.374H384.684V110H363.196ZM477.376 110V1.296H551.636V19.624H499.812V46.01H544.21V64.338H499.812V91.672H551.636V110H477.376ZM612.386 110V1.296H662.788C669.529 1.296 675.006 2.13866 679.22 3.82399C683.538 5.50933 686.856 7.932 689.174 11.092C691.491 14.1467 693.071 17.886 693.914 22.31C694.862 26.734 695.336 31.7373 695.336 37.32C695.336 42.4813 694.914 47.274 694.072 51.698C693.334 56.0167 691.807 59.8087 689.49 63.074C687.172 66.3393 683.802 68.8673 679.378 70.658C675.059 72.4487 669.318 73.344 662.156 73.344H634.822V110H612.386ZM634.822 55.016H653.308C657.837 55.016 661.418 54.8053 664.052 54.384C666.685 53.8573 668.634 52.962 669.898 51.698C671.162 50.434 671.952 48.6433 672.268 46.326C672.689 44.0087 672.9 41.0067 672.9 37.32C672.9 33.6333 672.689 30.6313 672.268 28.314C671.952 25.9967 671.162 24.206 669.898 22.942C668.739 21.5727 666.896 20.6773 664.368 20.256C661.84 19.7293 658.364 19.466 653.94 19.466H634.822V55.016ZM714.685 110V1.296H766.667C773.724 1.296 779.359 2.086 783.573 3.66599C787.891 5.24599 791.157 7.56333 793.369 10.618C795.581 13.5673 797.055 17.2013 797.793 21.52C798.635 25.7333 799.057 30.4733 799.057 35.74C799.057 39.4267 798.741 43.3767 798.109 47.59C797.477 51.8033 796.055 55.7007 793.843 59.282C791.736 62.8633 788.365 65.4967 783.731 67.182L801.111 110H777.411L760.979 66.392L766.509 69.394C765.771 69.71 764.876 69.9207 763.823 70.026C762.875 70.1313 761.769 70.184 760.505 70.184H737.121V110H714.685ZM737.121 52.014H757.661C762.085 52.014 765.561 51.7507 768.089 51.224C770.617 50.6973 772.513 49.8547 773.777 48.696C775.041 47.432 775.831 45.7993 776.147 43.798C776.463 41.6913 776.621 39.0053 776.621 35.74C776.621 32.4747 776.463 29.7887 776.147 27.682C775.831 25.5753 775.093 23.9427 773.935 22.784C772.776 21.6253 770.88 20.7827 768.247 20.256C765.719 19.7293 762.243 19.466 757.819 19.466H737.121V52.014ZM821.458 110V1.296H895.718V19.624H843.894V46.01H888.292V64.338H843.894V91.672H895.718V110H821.458ZM955.667 111.264C951.664 111.264 947.24 111.159 942.395 110.948C937.655 110.737 933.02 110.421 928.491 110C923.961 109.684 919.801 109.315 916.009 108.894V91.04C919.906 91.356 923.856 91.672 927.859 91.988C931.967 92.304 935.864 92.5673 939.551 92.778C943.237 92.8833 946.397 92.936 949.031 92.936C954.403 92.936 958.563 92.7253 961.513 92.304C964.462 91.7773 966.674 91.04 968.149 90.092C969.307 89.2493 970.097 88.354 970.519 87.406C970.94 86.3527 971.203 85.1413 971.309 83.772C971.414 82.2973 971.467 80.6647 971.467 78.874C971.467 76.4513 971.309 74.45 970.993 72.87C970.782 71.29 970.361 70.0787 969.729 69.236C969.097 68.288 968.043 67.6033 966.569 67.182C965.199 66.7607 963.409 66.4447 961.197 66.234L936.865 63.232C932.019 62.6 928.017 61.494 924.857 59.914C921.802 58.334 919.379 56.2273 917.589 53.594C915.798 50.9607 914.534 47.8533 913.797 44.272C913.165 40.6907 912.849 36.6353 912.849 32.106C912.849 24.9433 913.849 19.2553 915.851 15.042C917.852 10.8287 920.643 7.61599 924.225 5.40399C927.911 3.19199 932.23 1.77 937.181 1.138C942.131 0.400662 947.503 0.0319937 953.297 0.0319937C957.51 0.0319937 961.829 0.189995 966.253 0.505997C970.677 0.716661 974.837 1.03266 978.735 1.45399C982.632 1.87533 985.897 2.40199 988.531 3.03399V20.414C985.897 19.9927 982.843 19.624 979.367 19.308C975.891 18.992 972.257 18.7813 968.465 18.676C964.673 18.4653 961.091 18.36 957.721 18.36C952.77 18.36 948.82 18.5707 945.871 18.992C943.027 19.308 940.815 19.8873 939.235 20.73C937.444 21.7833 936.338 23.1527 935.917 24.838C935.601 26.5233 935.443 28.63 935.443 31.158C935.443 34.318 935.653 36.7407 936.075 38.426C936.496 40.006 937.497 41.112 939.077 41.744C940.657 42.376 943.132 42.9027 946.503 43.324L970.835 46.168C973.784 46.484 976.523 47.0107 979.051 47.748C981.579 48.4853 983.843 49.644 985.845 51.224C987.846 52.804 989.479 55.016 990.743 57.86C991.48 59.3347 992.059 61.0727 992.481 63.074C992.902 64.97 993.218 67.1293 993.429 69.552C993.745 71.9747 993.903 74.6607 993.903 77.61C993.903 83.7193 993.271 88.828 992.007 92.936C990.848 97.044 989.163 100.309 986.951 102.732C984.739 105.155 982 106.998 978.735 108.262C975.575 109.526 972.046 110.316 968.149 110.632C964.251 111.053 960.091 111.264 955.667 111.264ZM1015.41 110V1.296H1089.67V19.624H1037.85V46.01H1082.24V64.338H1037.85V91.672H1089.67V110H1015.41ZM1111.38 110V1.296H1134.61L1177.43 68.288H1178.22V1.296H1199.7V110H1178.37L1133.66 39.374H1132.87V110H1111.38ZM1267.75 111.264C1259.74 111.264 1253.05 110.737 1247.68 109.684C1242.31 108.631 1237.94 106.84 1234.57 104.312C1231.2 101.784 1228.62 98.4133 1226.83 94.2C1225.14 89.9867 1223.98 84.72 1223.35 78.4C1222.72 72.08 1222.4 64.496 1222.4 55.648C1222.4 46.8 1222.72 39.216 1223.35 32.896C1223.98 26.576 1225.14 21.3093 1226.83 17.096C1228.62 12.8827 1231.2 9.512 1234.57 6.984C1237.94 4.45599 1242.31 2.66532 1247.68 1.61199C1253.05 0.55866 1259.74 0.0319937 1267.75 0.0319937C1270.8 0.0319937 1273.96 0.137329 1277.23 0.347999C1280.6 0.558663 1283.81 0.874662 1286.87 1.296C1289.92 1.71733 1292.5 2.19133 1294.61 2.718V19.94C1291.76 19.624 1289.02 19.3607 1286.39 19.15C1283.76 18.834 1281.28 18.6233 1278.97 18.518C1276.75 18.4127 1274.86 18.36 1273.28 18.36C1267.91 18.36 1263.48 18.5707 1260.01 18.992C1256.53 19.4133 1253.74 20.3087 1251.63 21.678C1249.63 22.942 1248.16 24.9433 1247.21 27.682C1246.26 30.3153 1245.63 33.8967 1245.31 38.426C1245 42.9553 1244.84 48.696 1244.84 55.648C1244.84 62.4947 1245 68.2353 1245.31 72.87C1245.63 77.3993 1246.26 81.0333 1247.21 83.772C1248.16 86.4053 1249.63 88.4067 1251.63 89.776C1253.74 91.04 1256.53 91.8827 1260.01 92.304C1263.48 92.7253 1267.91 92.936 1273.28 92.936C1276.75 92.936 1280.55 92.778 1284.65 92.462C1288.76 92.146 1292.29 91.7773 1295.24 91.356V108.894C1292.92 109.315 1290.18 109.684 1287.02 110C1283.86 110.421 1280.6 110.737 1277.23 110.948C1273.96 111.159 1270.8 111.264 1267.75 111.264ZM1315.83 110V1.296H1390.09V19.624H1338.26V46.01H1382.66V64.338H1338.26V91.672H1390.09V110H1315.83ZM1408.95 110V89.302H1431.86V110H1408.95Z" fill="#F1F1F1"/>
</svg>
