<svg width="1601" height="112" viewBox="0 0 1601 112" fill="none" xmlns="http://www.w3.org/2000/svg">
<path d="M26.862 110L0.634 1.296H23.07L42.188 83.93H42.978L63.992 1.296H87.376L108.706 83.93H109.496L127.35 1.296H149.786L123.4 110H95.434L75.526 34.002H74.736L54.828 110H26.862ZM166.259 110V1.296H188.695V110H166.259ZM214.554 110V1.296H236.99V91.04H282.494V110H214.554ZM299.571 110V1.296H322.007V91.04H367.511V110H299.571ZM423.626 110V1.296H497.886V19.624H446.062V46.01H490.46V64.338H446.062V91.672H497.886V110H423.626ZM519.599 110V1.296H542.825L585.643 68.288H586.433V1.296H607.921V110H586.591L541.877 39.374H541.087V110H519.599ZM633.778 110V1.296H656.214V45.694H699.506V1.296H721.942V110H699.506V64.97H656.214V110H633.778ZM737.218 110L774.032 1.296H804.052L840.866 110H817.956L809.898 85.984H767.396L759.654 110H737.218ZM773.084 67.814H804.052L789.042 21.678H788.094L773.084 67.814ZM856.12 110V1.296H879.346L922.164 68.288H922.954V1.296H944.442V110H923.112L878.398 39.374H877.608V110H856.12ZM1012.49 111.264C1004.48 111.264 997.792 110.737 992.42 109.684C987.048 108.631 982.676 106.84 979.306 104.312C975.935 101.784 973.354 98.4133 971.564 94.2C969.878 89.9867 968.72 84.72 968.088 78.4C967.456 72.08 967.14 64.496 967.14 55.648C967.14 46.8 967.456 39.216 968.088 32.896C968.72 26.576 969.878 21.3093 971.564 17.096C973.354 12.8827 975.935 9.512 979.306 6.984C982.676 4.45599 987.048 2.66532 992.42 1.61199C997.792 0.55866 1004.48 0.0319937 1012.49 0.0319937C1015.54 0.0319937 1018.7 0.137329 1021.97 0.347999C1025.34 0.558663 1028.55 0.874662 1031.6 1.296C1034.66 1.71733 1037.24 2.19133 1039.35 2.718V19.94C1036.5 19.624 1033.76 19.3607 1031.13 19.15C1028.5 18.834 1026.02 18.6233 1023.7 18.518C1021.49 18.4127 1019.6 18.36 1018.02 18.36C1012.64 18.36 1008.22 18.5707 1004.74 18.992C1001.27 19.4133 998.476 20.3087 996.37 21.678C994.368 22.942 992.894 24.9433 991.946 27.682C990.998 30.3153 990.366 33.8967 990.05 38.426C989.734 42.9553 989.576 48.696 989.576 55.648C989.576 62.4947 989.734 68.2353 990.05 72.87C990.366 77.3993 990.998 81.0333 991.946 83.772C992.894 86.4053 994.368 88.4067 996.37 89.776C998.476 91.04 1001.27 91.8827 1004.74 92.304C1008.22 92.7253 1012.64 92.936 1018.02 92.936C1021.49 92.936 1025.28 92.778 1029.39 92.462C1033.5 92.146 1037.03 91.7773 1039.98 91.356V108.894C1037.66 109.315 1034.92 109.684 1031.76 110C1028.6 110.421 1025.34 110.737 1021.97 110.948C1018.7 111.159 1015.54 111.264 1012.49 111.264ZM1060.56 110V1.296H1134.82V19.624H1083V46.01H1127.4V64.338H1083V91.672H1134.82V110H1060.56ZM1220.54 110V71.448L1183.25 1.296H1206.79L1231.76 49.644H1232.86L1257.67 1.296H1280.42L1242.97 71.448V110H1220.54ZM1334.67 111.264C1325.82 111.264 1318.5 110.737 1312.71 109.684C1307.02 108.631 1302.55 106.893 1299.28 104.47C1296.02 101.942 1293.65 98.5713 1292.17 94.358C1290.7 90.0393 1289.75 84.72 1289.33 78.4C1288.91 72.08 1288.69 64.496 1288.69 55.648C1288.69 46.8 1288.91 39.216 1289.33 32.896C1289.75 26.576 1290.7 21.3093 1292.17 17.096C1293.65 12.7773 1296.02 9.40667 1299.28 6.984C1302.55 4.45599 1307.02 2.66532 1312.71 1.61199C1318.5 0.55866 1325.82 0.0319937 1334.67 0.0319937C1343.52 0.0319937 1350.79 0.55866 1356.48 1.61199C1362.27 2.66532 1366.8 4.45599 1370.06 6.984C1373.33 9.40667 1375.7 12.7773 1377.17 17.096C1378.75 21.3093 1379.76 26.576 1380.18 32.896C1380.6 39.216 1380.81 46.8 1380.81 55.648C1380.81 64.496 1380.6 72.08 1380.18 78.4C1379.76 84.72 1378.75 90.0393 1377.17 94.358C1375.7 98.5713 1373.33 101.942 1370.06 104.47C1366.8 106.893 1362.27 108.631 1356.48 109.684C1350.79 110.737 1343.52 111.264 1334.67 111.264ZM1334.67 92.936C1339.31 92.936 1343.05 92.778 1345.89 92.462C1348.84 92.146 1351.16 91.4087 1352.84 90.25C1354.53 89.0913 1355.74 87.1953 1356.48 84.562C1357.32 81.9287 1357.85 78.2947 1358.06 73.66C1358.27 69.0253 1358.37 63.0213 1358.37 55.648C1358.37 48.2747 1358.27 42.2707 1358.06 37.636C1357.85 33.0013 1357.32 29.3673 1356.48 26.734C1355.74 24.1007 1354.53 22.2047 1352.84 21.046C1351.16 19.8873 1348.84 19.15 1345.89 18.834C1343.05 18.518 1339.31 18.36 1334.67 18.36C1330.14 18.36 1326.4 18.518 1323.45 18.834C1320.61 19.15 1318.35 19.8873 1316.66 21.046C1314.98 22.2047 1313.71 24.1007 1312.87 26.734C1312.13 29.3673 1311.66 33.0013 1311.45 37.636C1311.24 42.2707 1311.13 48.2747 1311.13 55.648C1311.13 63.0213 1311.24 69.0253 1311.45 73.66C1311.66 78.2947 1312.13 81.9287 1312.87 84.562C1313.71 87.1953 1314.98 89.0913 1316.66 90.25C1318.35 91.4087 1320.61 92.146 1323.45 92.462C1326.4 92.778 1330.14 92.936 1334.67 92.936ZM1445.75 111.264C1438.06 111.264 1431.64 110.79 1426.48 109.842C1421.31 108.894 1417.15 107.367 1413.99 105.26C1410.83 103.153 1408.41 100.204 1406.73 96.412C1405.15 92.62 1404.04 87.88 1403.41 82.192C1402.88 76.3987 1402.62 69.4993 1402.62 61.494V1.296H1425.05V67.182C1425.05 72.7647 1425.21 77.294 1425.53 80.77C1425.95 84.1407 1426.74 86.7213 1427.9 88.512C1429.16 90.3027 1431.22 91.514 1434.06 92.146C1436.9 92.6727 1440.8 92.936 1445.75 92.936C1450.7 92.936 1454.55 92.6727 1457.29 92.146C1460.13 91.514 1462.18 90.3027 1463.45 88.512C1464.71 86.7213 1465.5 84.1407 1465.82 80.77C1466.13 77.294 1466.29 72.7647 1466.29 67.182V1.296H1488.73V61.494C1488.73 69.4993 1488.41 76.3987 1487.78 82.192C1487.25 87.88 1486.2 92.62 1484.62 96.412C1483.04 100.204 1480.67 103.153 1477.51 105.26C1474.35 107.367 1470.19 108.894 1465.03 109.842C1459.87 110.79 1453.44 111.264 1445.75 111.264ZM1513.89 110V1.296H1565.87C1572.93 1.296 1578.56 2.086 1582.78 3.66599C1587.09 5.24599 1590.36 7.56333 1592.57 10.618C1594.78 13.5673 1596.26 17.2013 1597 21.52C1597.84 25.7333 1598.26 30.4733 1598.26 35.74C1598.26 39.4267 1597.94 43.3767 1597.31 47.59C1596.68 51.8033 1595.26 55.7007 1593.05 59.282C1590.94 62.8633 1587.57 65.4967 1582.93 67.182L1600.31 110H1576.61L1560.18 66.392L1565.71 69.394C1564.97 69.71 1564.08 69.9207 1563.03 70.026C1562.08 70.1313 1560.97 70.184 1559.71 70.184H1536.32V110H1513.89ZM1536.32 52.014H1556.86C1561.29 52.014 1564.76 51.7507 1567.29 51.224C1569.82 50.6973 1571.72 49.8547 1572.98 48.696C1574.24 47.432 1575.03 45.7993 1575.35 43.798C1575.67 41.6913 1575.82 39.0053 1575.82 35.74C1575.82 32.4747 1575.67 29.7887 1575.35 27.682C1575.03 25.5753 1574.3 23.9427 1573.14 22.784C1571.98 21.6253 1570.08 20.7827 1567.45 20.256C1564.92 19.7293 1561.45 19.466 1557.02 19.466H1536.32V52.014Z" fill="#F1F1F1"/>
</svg>
