<svg width="1620" height="318" viewBox="0 0 1620 318" fill="none" xmlns="http://www.w3.org/2000/svg">
<rect x="415" y="111.8" width="732" height="39" fill="#F74264"/>
<path d="M29.862 142L3.634 33.296H26.07L45.188 115.93H45.978L66.992 33.296H90.376L111.706 115.93H112.496L130.35 33.296H152.786L126.4 142H98.434L78.526 66.002H77.736L57.828 142H29.862ZM169.259 142V33.296H191.695V142H169.259ZM217.554 142V33.296H239.99V123.04H285.494V142H217.554ZM302.571 142V33.296H325.007V123.04H370.511V142H302.571ZM426.626 142V33.296H500.886V51.624H449.062V78.01H493.46V96.338H449.062V123.672H500.886V142H426.626ZM522.599 142V33.296H545.825L588.643 100.288H589.433V33.296H610.921V142H589.591L544.877 71.374H544.087V142H522.599ZM636.778 142V33.296H659.214V77.694H702.506V33.296H724.942V142H702.506V96.97H659.214V142H636.778ZM740.218 142L777.032 33.296H807.052L843.866 142H820.956L812.898 117.984H770.396L762.654 142H740.218ZM776.084 99.814H807.052L792.042 53.678H791.094L776.084 99.814ZM859.12 142V33.296H882.346L925.164 100.288H925.954V33.296H947.442V142H926.112L881.398 71.374H880.608V142H859.12ZM1015.49 143.264C1007.48 143.264 1000.79 142.737 995.42 141.684C990.048 140.631 985.676 138.84 982.306 136.312C978.935 133.784 976.354 130.413 974.564 126.2C972.878 121.987 971.72 116.72 971.088 110.4C970.456 104.08 970.14 96.496 970.14 87.648C970.14 78.8 970.456 71.216 971.088 64.896C971.72 58.576 972.878 53.3093 974.564 49.096C976.354 44.8827 978.935 41.512 982.306 38.984C985.676 36.456 990.048 34.6653 995.42 33.612C1000.79 32.5587 1007.48 32.032 1015.49 32.032C1018.54 32.032 1021.7 32.1373 1024.97 32.348C1028.34 32.5587 1031.55 32.8747 1034.6 33.296C1037.66 33.7173 1040.24 34.1913 1042.35 34.718V51.94C1039.5 51.624 1036.76 51.3607 1034.13 51.15C1031.5 50.834 1029.02 50.6233 1026.7 50.518C1024.49 50.4127 1022.6 50.36 1021.02 50.36C1015.64 50.36 1011.22 50.5707 1007.74 50.992C1004.27 51.4133 1001.48 52.3087 999.37 53.678C997.368 54.942 995.894 56.9433 994.946 59.682C993.998 62.3153 993.366 65.8967 993.05 70.426C992.734 74.9553 992.576 80.696 992.576 87.648C992.576 94.4947 992.734 100.235 993.05 104.87C993.366 109.399 993.998 113.033 994.946 115.772C995.894 118.405 997.368 120.407 999.37 121.776C1001.48 123.04 1004.27 123.883 1007.74 124.304C1011.22 124.725 1015.64 124.936 1021.02 124.936C1024.49 124.936 1028.28 124.778 1032.39 124.462C1036.5 124.146 1040.03 123.777 1042.98 123.356V140.894C1040.66 141.315 1037.92 141.684 1034.76 142C1031.6 142.421 1028.34 142.737 1024.97 142.948C1021.7 143.159 1018.54 143.264 1015.49 143.264ZM1063.56 142V33.296H1137.82V51.624H1086V78.01H1130.4V96.338H1086V123.672H1137.82V142H1063.56ZM1223.54 142V103.448L1186.25 33.296H1209.79L1234.76 81.644H1235.86L1260.67 33.296H1283.42L1245.97 103.448V142H1223.54ZM1337.67 143.264C1328.82 143.264 1321.5 142.737 1315.71 141.684C1310.02 140.631 1305.55 138.893 1302.28 136.47C1299.02 133.942 1296.65 130.571 1295.17 126.358C1293.7 122.039 1292.75 116.72 1292.33 110.4C1291.91 104.08 1291.69 96.496 1291.69 87.648C1291.69 78.8 1291.91 71.216 1292.33 64.896C1292.75 58.576 1293.7 53.3093 1295.17 49.096C1296.65 44.7773 1299.02 41.4067 1302.28 38.984C1305.55 36.456 1310.02 34.6653 1315.71 33.612C1321.5 32.5587 1328.82 32.032 1337.67 32.032C1346.52 32.032 1353.79 32.5587 1359.48 33.612C1365.27 34.6653 1369.8 36.456 1373.06 38.984C1376.33 41.4067 1378.7 44.7773 1380.17 49.096C1381.75 53.3093 1382.76 58.576 1383.18 64.896C1383.6 71.216 1383.81 78.8 1383.81 87.648C1383.81 96.496 1383.6 104.08 1383.18 110.4C1382.76 116.72 1381.75 122.039 1380.17 126.358C1378.7 130.571 1376.33 133.942 1373.06 136.47C1369.8 138.893 1365.27 140.631 1359.48 141.684C1353.79 142.737 1346.52 143.264 1337.67 143.264ZM1337.67 124.936C1342.31 124.936 1346.05 124.778 1348.89 124.462C1351.84 124.146 1354.16 123.409 1355.84 122.25C1357.53 121.091 1358.74 119.195 1359.48 116.562C1360.32 113.929 1360.85 110.295 1361.06 105.66C1361.27 101.025 1361.37 95.0213 1361.37 87.648C1361.37 80.2747 1361.27 74.2707 1361.06 69.636C1360.85 65.0013 1360.32 61.3673 1359.48 58.734C1358.74 56.1007 1357.53 54.2047 1355.84 53.046C1354.16 51.8873 1351.84 51.15 1348.89 50.834C1346.05 50.518 1342.31 50.36 1337.67 50.36C1333.14 50.36 1329.4 50.518 1326.45 50.834C1323.61 51.15 1321.35 51.8873 1319.66 53.046C1317.98 54.2047 1316.71 56.1007 1315.87 58.734C1315.13 61.3673 1314.66 65.0013 1314.45 69.636C1314.24 74.2707 1314.13 80.2747 1314.13 87.648C1314.13 95.0213 1314.24 101.025 1314.45 105.66C1314.66 110.295 1315.13 113.929 1315.87 116.562C1316.71 119.195 1317.98 121.091 1319.66 122.25C1321.35 123.409 1323.61 124.146 1326.45 124.462C1329.4 124.778 1333.14 124.936 1337.67 124.936ZM1448.75 143.264C1441.06 143.264 1434.64 142.79 1429.48 141.842C1424.31 140.894 1420.15 139.367 1416.99 137.26C1413.83 135.153 1411.41 132.204 1409.73 128.412C1408.15 124.62 1407.04 119.88 1406.41 114.192C1405.88 108.399 1405.62 101.499 1405.62 93.494V33.296H1428.05V99.182C1428.05 104.765 1428.21 109.294 1428.53 112.77C1428.95 116.141 1429.74 118.721 1430.9 120.512C1432.16 122.303 1434.22 123.514 1437.06 124.146C1439.9 124.673 1443.8 124.936 1448.75 124.936C1453.7 124.936 1457.55 124.673 1460.29 124.146C1463.13 123.514 1465.18 122.303 1466.45 120.512C1467.71 118.721 1468.5 116.141 1468.82 112.77C1469.13 109.294 1469.29 104.765 1469.29 99.182V33.296H1491.73V93.494C1491.73 101.499 1491.41 108.399 1490.78 114.192C1490.25 119.88 1489.2 124.62 1487.62 128.412C1486.04 132.204 1483.67 135.153 1480.51 137.26C1477.35 139.367 1473.19 140.894 1468.03 141.842C1462.87 142.79 1456.44 143.264 1448.75 143.264ZM1516.89 142V33.296H1568.87C1575.93 33.296 1581.56 34.086 1585.78 35.666C1590.09 37.246 1593.36 39.5633 1595.57 42.618C1597.78 45.5673 1599.26 49.2013 1600 53.52C1600.84 57.7333 1601.26 62.4733 1601.26 67.74C1601.26 71.4267 1600.94 75.3767 1600.31 79.59C1599.68 83.8033 1598.26 87.7007 1596.05 91.282C1593.94 94.8633 1590.57 97.4967 1585.93 99.182L1603.31 142H1579.61L1563.18 98.392L1568.71 101.394C1567.97 101.71 1567.08 101.921 1566.03 102.026C1565.08 102.131 1563.97 102.184 1562.71 102.184H1539.32V142H1516.89ZM1539.32 84.014H1559.86C1564.29 84.014 1567.76 83.7507 1570.29 83.224C1572.82 82.6973 1574.72 81.8547 1575.98 80.696C1577.24 79.432 1578.03 77.7993 1578.35 75.798C1578.67 73.6913 1578.82 71.0053 1578.82 67.74C1578.82 64.4747 1578.67 61.7887 1578.35 59.682C1578.03 57.5753 1577.3 55.9427 1576.14 54.784C1574.98 53.6253 1573.08 52.7827 1570.45 52.256C1567.92 51.7293 1564.45 51.466 1560.02 51.466H1539.32V84.014ZM55.774 317.264C46.926 317.264 39.6053 316.737 33.812 315.684C28.124 314.631 23.6473 312.893 20.382 310.47C17.1167 307.942 14.7467 304.571 13.272 300.358C11.7973 296.039 10.8493 290.72 10.428 284.4C10.0067 278.08 9.796 270.496 9.796 261.648C9.796 252.8 10.0067 245.216 10.428 238.896C10.8493 232.576 11.7973 227.309 13.272 223.096C14.7467 218.777 17.1167 215.407 20.382 212.984C23.6473 210.456 28.124 208.665 33.812 207.612C39.6053 206.559 46.926 206.032 55.774 206.032C64.622 206.032 71.89 206.559 77.578 207.612C83.3713 208.665 87.9007 210.456 91.166 212.984C94.4313 215.407 96.8013 218.777 98.276 223.096C99.856 227.309 100.857 232.576 101.278 238.896C101.699 245.216 101.91 252.8 101.91 261.648C101.91 270.496 101.699 278.08 101.278 284.4C100.857 290.72 99.856 296.039 98.276 300.358C96.8013 304.571 94.4313 307.942 91.166 310.47C87.9007 312.893 83.3713 314.631 77.578 315.684C71.89 316.737 64.622 317.264 55.774 317.264ZM55.774 298.936C60.4087 298.936 64.148 298.778 66.992 298.462C69.9413 298.146 72.2587 297.409 73.944 296.25C75.6293 295.091 76.8407 293.195 77.578 290.562C78.4207 287.929 78.9473 284.295 79.158 279.66C79.3687 275.025 79.474 269.021 79.474 261.648C79.474 254.275 79.3687 248.271 79.158 243.636C78.9473 239.001 78.4207 235.367 77.578 232.734C76.8407 230.101 75.6293 228.205 73.944 227.046C72.2587 225.887 69.9413 225.15 66.992 224.834C64.148 224.518 60.4087 224.36 55.774 224.36C51.2447 224.36 47.5053 224.518 44.556 224.834C41.712 225.15 39.4473 225.887 37.762 227.046C36.0767 228.205 34.8127 230.101 33.97 232.734C33.2327 235.367 32.7587 239.001 32.548 243.636C32.3373 248.271 32.232 254.275 32.232 261.648C32.232 269.021 32.3373 275.025 32.548 279.66C32.7587 284.295 33.2327 287.929 33.97 290.562C34.8127 293.195 36.0767 295.091 37.762 296.25C39.4473 297.409 41.712 298.146 44.556 298.462C47.5053 298.778 51.2447 298.936 55.774 298.936ZM124.667 316V207.296H147.893L190.711 274.288H191.501V207.296H212.989V316H191.659L146.945 245.374H146.155V316H124.667ZM238.847 316V207.296H261.283V297.04H306.787V316H238.847ZM323.864 316V207.296H346.3V316H323.864ZM372.159 316V207.296H395.385L438.203 274.288H438.993V207.296H460.481V316H439.151L394.437 245.374H393.647V316H372.159ZM486.339 316V207.296H560.599V225.624H508.775V252.01H553.173V270.338H508.775V297.672H560.599V316H486.339ZM621.349 316V207.296H671.751C678.492 207.296 683.969 208.139 688.183 209.824C692.501 211.509 695.819 213.932 698.137 217.092C700.454 220.147 702.034 223.886 702.877 228.31C703.825 232.734 704.299 237.737 704.299 243.32C704.299 248.481 703.877 253.274 703.035 257.698C702.297 262.017 700.77 265.809 698.453 269.074C696.135 272.339 692.765 274.867 688.341 276.658C684.022 278.449 678.281 279.344 671.119 279.344H643.785V316H621.349ZM643.785 261.016H662.271C666.8 261.016 670.381 260.805 673.015 260.384C675.648 259.857 677.597 258.962 678.861 257.698C680.125 256.434 680.915 254.643 681.231 252.326C681.652 250.009 681.863 247.007 681.863 243.32C681.863 239.633 681.652 236.631 681.231 234.314C680.915 231.997 680.125 230.206 678.861 228.942C677.702 227.573 675.859 226.677 673.331 226.256C670.803 225.729 667.327 225.466 662.903 225.466H643.785V261.016ZM723.647 316V207.296H775.629C782.687 207.296 788.322 208.086 792.535 209.666C796.854 211.246 800.119 213.563 802.331 216.618C804.543 219.567 806.018 223.201 806.755 227.52C807.598 231.733 808.019 236.473 808.019 241.74C808.019 245.427 807.703 249.377 807.071 253.59C806.439 257.803 805.017 261.701 802.805 265.282C800.699 268.863 797.328 271.497 792.693 273.182L810.073 316H786.373L769.941 272.392L775.471 275.394C774.734 275.71 773.839 275.921 772.785 276.026C771.837 276.131 770.731 276.184 769.467 276.184H746.083V316H723.647ZM746.083 258.014H766.623C771.047 258.014 774.523 257.751 777.051 257.224C779.579 256.697 781.475 255.855 782.739 254.696C784.003 253.432 784.793 251.799 785.109 249.798C785.425 247.691 785.583 245.005 785.583 241.74C785.583 238.475 785.425 235.789 785.109 233.682C784.793 231.575 784.056 229.943 782.897 228.784C781.739 227.625 779.843 226.783 777.209 226.256C774.681 225.729 771.205 225.466 766.781 225.466H746.083V258.014ZM830.421 316V207.296H904.681V225.624H852.857V252.01H897.255V270.338H852.857V297.672H904.681V316H830.421ZM964.63 317.264C960.627 317.264 956.203 317.159 951.358 316.948C946.618 316.737 941.983 316.421 937.454 316C932.924 315.684 928.764 315.315 924.972 314.894V297.04C928.869 297.356 932.819 297.672 936.822 297.988C940.93 298.304 944.827 298.567 948.514 298.778C952.2 298.883 955.36 298.936 957.994 298.936C963.366 298.936 967.526 298.725 970.476 298.304C973.425 297.777 975.637 297.04 977.112 296.092C978.27 295.249 979.06 294.354 979.482 293.406C979.903 292.353 980.166 291.141 980.272 289.772C980.377 288.297 980.43 286.665 980.43 284.874C980.43 282.451 980.272 280.45 979.956 278.87C979.745 277.29 979.324 276.079 978.692 275.236C978.06 274.288 977.006 273.603 975.532 273.182C974.162 272.761 972.372 272.445 970.16 272.234L945.828 269.232C940.982 268.6 936.98 267.494 933.82 265.914C930.765 264.334 928.342 262.227 926.552 259.594C924.761 256.961 923.497 253.853 922.76 250.272C922.128 246.691 921.812 242.635 921.812 238.106C921.812 230.943 922.812 225.255 924.814 221.042C926.815 216.829 929.606 213.616 933.188 211.404C936.874 209.192 941.193 207.77 946.144 207.138C951.094 206.401 956.466 206.032 962.26 206.032C966.473 206.032 970.792 206.19 975.216 206.506C979.64 206.717 983.8 207.033 987.698 207.454C991.595 207.875 994.86 208.402 997.494 209.034V226.414C994.86 225.993 991.806 225.624 988.33 225.308C984.854 224.992 981.22 224.781 977.428 224.676C973.636 224.465 970.054 224.36 966.684 224.36C961.733 224.36 957.783 224.571 954.834 224.992C951.99 225.308 949.778 225.887 948.198 226.73C946.407 227.783 945.301 229.153 944.88 230.838C944.564 232.523 944.406 234.63 944.406 237.158C944.406 240.318 944.616 242.741 945.038 244.426C945.459 246.006 946.46 247.112 948.04 247.744C949.62 248.376 952.095 248.903 955.466 249.324L979.798 252.168C982.747 252.484 985.486 253.011 988.014 253.748C990.542 254.485 992.806 255.644 994.808 257.224C996.809 258.804 998.442 261.016 999.706 263.86C1000.44 265.335 1001.02 267.073 1001.44 269.074C1001.86 270.97 1002.18 273.129 1002.39 275.552C1002.71 277.975 1002.87 280.661 1002.87 283.61C1002.87 289.719 1002.23 294.828 1000.97 298.936C999.811 303.044 998.126 306.309 995.914 308.732C993.702 311.155 990.963 312.998 987.698 314.262C984.538 315.526 981.009 316.316 977.112 316.632C973.214 317.053 969.054 317.264 964.63 317.264ZM1024.37 316V207.296H1098.63V225.624H1046.81V252.01H1091.21V270.338H1046.81V297.672H1098.63V316H1024.37ZM1120.34 316V207.296H1143.57L1186.39 274.288H1187.18V207.296H1208.67V316H1187.34L1142.62 245.374H1141.83V316H1120.34ZM1276.71 317.264C1268.71 317.264 1262.02 316.737 1256.64 315.684C1251.27 314.631 1246.9 312.84 1243.53 310.312C1240.16 307.784 1237.58 304.413 1235.79 300.2C1234.1 295.987 1232.94 290.72 1232.31 284.4C1231.68 278.08 1231.36 270.496 1231.36 261.648C1231.36 252.8 1231.68 245.216 1232.31 238.896C1232.94 232.576 1234.1 227.309 1235.79 223.096C1237.58 218.883 1240.16 215.512 1243.53 212.984C1246.9 210.456 1251.27 208.665 1256.64 207.612C1262.02 206.559 1268.71 206.032 1276.71 206.032C1279.77 206.032 1282.93 206.137 1286.19 206.348C1289.56 206.559 1292.77 206.875 1295.83 207.296C1298.88 207.717 1301.46 208.191 1303.57 208.718V225.94C1300.73 225.624 1297.99 225.361 1295.35 225.15C1292.72 224.834 1290.25 224.623 1287.93 224.518C1285.72 224.413 1283.82 224.36 1282.24 224.36C1276.87 224.36 1272.44 224.571 1268.97 224.992C1265.49 225.413 1262.7 226.309 1260.59 227.678C1258.59 228.942 1257.12 230.943 1256.17 233.682C1255.22 236.315 1254.59 239.897 1254.27 244.426C1253.96 248.955 1253.8 254.696 1253.8 261.648C1253.8 268.495 1253.96 274.235 1254.27 278.87C1254.59 283.399 1255.22 287.033 1256.17 289.772C1257.12 292.405 1258.59 294.407 1260.59 295.776C1262.7 297.04 1265.49 297.883 1268.97 298.304C1272.44 298.725 1276.87 298.936 1282.24 298.936C1285.72 298.936 1289.51 298.778 1293.62 298.462C1297.72 298.146 1301.25 297.777 1304.2 297.356V314.894C1301.89 315.315 1299.15 315.684 1295.99 316C1292.83 316.421 1289.56 316.737 1286.19 316.948C1282.93 317.159 1279.77 317.264 1276.71 317.264ZM1324.79 316V207.296H1399.05V225.624H1347.22V252.01H1391.62V270.338H1347.22V297.672H1399.05V316H1324.79ZM1417.92 316V295.302H1440.83V316H1417.92Z" fill="#F1F1F1"/>
</svg>
