<svg width="129" height="129" viewBox="0 0 129 129" fill="none" xmlns="http://www.w3.org/2000/svg">
<path d="M108.433 65.0191L120.717 66.5896L119.989 72.2852C119.892 73.047 119.717 73.6538 119.466 74.1056C119.213 74.5692 118.891 74.9092 118.501 75.1254C118.122 75.3431 117.677 75.4677 117.165 75.499C116.651 75.5422 116.079 75.5235 115.448 75.4428C114.865 75.3682 114.329 75.2514 113.842 75.0923C113.364 74.9465 112.958 74.7192 112.622 74.4101C112.287 74.1011 112.05 73.6836 111.911 73.1578C111.771 72.6439 111.753 71.9823 111.857 71.1729L112.251 68.084L108.109 67.5544L108.433 65.0191ZM114.323 68.3488L114.055 70.4378C113.99 70.9496 113.962 71.3574 113.972 71.6611C113.993 71.9662 114.066 72.1994 114.191 72.3605C114.315 72.5216 114.506 72.6367 114.764 72.7059C115.019 72.787 115.356 72.8542 115.772 72.9075C116.189 72.9607 116.531 72.9803 116.799 72.9661C117.065 72.9639 117.279 72.9005 117.44 72.7759C117.612 72.6648 117.74 72.4694 117.824 72.1898C117.92 71.9118 118 71.5228 118.064 71.0228L118.34 68.8624L114.323 68.3488Z" fill="white"/>
<path d="M106.782 76.3977L118.241 81.0937L115.995 86.5734C115.69 87.3174 115.364 87.8773 115.015 88.2532C114.662 88.6402 114.276 88.8843 113.859 88.9855C113.452 89.0913 113.006 89.0898 112.519 88.9809C112.038 88.8877 111.52 88.7274 110.965 88.4998C110.576 88.3406 110.174 88.1366 109.757 87.888C109.34 87.6394 108.99 87.3211 108.708 86.9332C108.422 86.5564 108.29 86.0873 108.313 85.5259L103.048 85.5083L104.072 83.01L109.379 83.1617L108.823 83.6149C108.822 83.5235 108.838 83.4201 108.873 83.3045C108.903 83.2 108.945 83.0811 108.999 82.9479L110.01 80.4828L105.812 78.7628L106.782 76.3977ZM111.925 81.2678L111.038 83.433C110.847 83.8994 110.724 84.2772 110.671 84.5664C110.617 84.8557 110.624 85.0919 110.691 85.2752C110.77 85.4631 110.908 85.6169 111.105 85.7367C111.314 85.861 111.59 85.9937 111.934 86.1347C112.278 86.2758 112.568 86.3752 112.804 86.4329C113.04 86.4906 113.244 86.4834 113.416 86.4113C113.588 86.3392 113.759 86.1758 113.928 85.9209C114.093 85.6772 114.271 85.3221 114.462 84.8558L115.356 82.6739L111.925 81.2678Z" fill="white"/>
<path d="M99.2235 90.6952C99.84 89.8977 100.398 89.2746 100.896 88.8258C101.387 88.3865 101.856 88.1041 102.302 87.9786C102.757 87.8604 103.226 87.8817 103.709 88.0423C104.201 88.2103 104.746 88.4955 105.345 88.8979C105.944 89.3003 106.642 89.8097 107.44 90.4262C108.237 91.0427 108.906 91.5901 109.447 92.0684C109.987 92.5468 110.396 92.9992 110.673 93.4257C110.959 93.8595 111.098 94.308 111.089 94.7711C111.089 95.2415 110.938 95.7698 110.637 96.3559C110.328 96.9514 109.866 97.6479 109.249 98.4454C108.633 99.2429 108.079 99.8613 107.588 100.301C107.089 100.749 106.612 101.033 106.157 101.151C105.711 101.277 105.242 101.255 104.75 101.087C104.26 100.936 103.715 100.659 103.116 100.257C102.517 99.8546 101.819 99.3452 101.022 98.7287C100.224 98.1122 99.5554 97.5648 99.0151 97.0864C98.4748 96.6081 98.0651 96.1473 97.7859 95.704C97.5089 95.2775 97.3702 94.829 97.3699 94.3586C97.3791 93.8954 97.538 93.3661 97.8467 92.7706C98.1481 92.1845 98.607 91.4927 99.2235 90.6952ZM100.875 91.9722C100.553 92.39 100.306 92.738 100.137 93.0164C99.9596 93.3042 99.8646 93.5645 99.8516 93.7971C99.8386 94.0297 99.9251 94.271 100.111 94.521C100.29 94.7804 100.581 95.0811 100.984 95.423C101.387 95.7649 101.92 96.1927 102.585 96.7065C103.25 97.2202 103.798 97.6291 104.231 97.933C104.663 98.2369 105.027 98.4427 105.323 98.5502C105.612 98.6672 105.867 98.6901 106.089 98.619C106.311 98.5478 106.539 98.3903 106.773 98.1465C107 97.9122 107.274 97.5862 107.597 97.1684C107.913 96.7602 108.159 96.4121 108.336 96.1243C108.506 95.8459 108.597 95.5904 108.61 95.3578C108.623 95.1252 108.54 94.8791 108.362 94.6197C108.176 94.3698 107.881 94.0738 107.478 93.7319C107.075 93.39 106.541 92.9622 105.877 92.4484C105.212 91.9347 104.664 91.5258 104.231 91.2219C103.799 90.918 103.438 90.7075 103.149 90.5905C102.853 90.4829 102.594 90.4647 102.373 90.5359C102.151 90.6071 101.926 90.7598 101.7 90.9942C101.466 91.238 101.191 91.564 100.875 91.9722Z" fill="white"/>
<path d="M94.0763 96.6716L102.071 106.129L100.119 107.779L92.1243 98.3217L94.0763 96.6716Z" fill="white"/>
<path d="M89.6081 100.511L95.7094 111.288L88.3474 115.456L87.3187 113.639L92.4565 110.73L90.9755 108.114L86.5739 110.606L85.5452 108.789L89.9468 106.297L88.4126 103.587L83.2748 106.496L82.2461 104.679L89.6081 100.511Z" fill="white"/>
<path d="M75.5592 106.72C76.4348 106.465 77.1831 106.309 77.8043 106.253C78.4254 106.197 78.9606 106.253 79.4098 106.423C79.8591 106.592 80.2488 106.878 80.5789 107.282C80.8976 107.689 81.1922 108.228 81.4627 108.899C81.7333 109.57 82.0096 110.39 82.2917 111.357C82.5737 112.325 82.7809 113.165 82.9132 113.876C83.0456 114.587 83.0867 115.2 83.0367 115.715C82.9751 116.233 82.8003 116.684 82.5122 117.068C82.2242 117.452 81.8031 117.787 81.2491 118.073C80.6952 118.36 79.9804 118.63 79.1048 118.886C78.7707 118.983 78.4217 119.072 78.0579 119.153C77.6825 119.238 77.321 119.306 76.9735 119.357C76.626 119.408 76.3286 119.439 76.0814 119.448L75.5325 117.564C75.8536 117.508 76.1615 117.45 76.4562 117.389C76.7543 117.34 77.0318 117.284 77.2886 117.221C77.5339 117.162 77.7429 117.108 77.9158 117.057C78.5033 116.886 78.9805 116.722 79.3472 116.565C79.714 116.408 79.9907 116.221 80.1775 116.004C80.3561 115.802 80.4536 115.536 80.47 115.207C80.4897 114.889 80.4447 114.477 80.3349 113.971C80.2251 113.466 80.0594 112.833 79.8378 112.072C79.6195 111.324 79.4192 110.701 79.237 110.204C79.058 109.719 78.8731 109.341 78.6821 109.072C78.4944 108.814 78.2694 108.642 78.0068 108.556C77.7361 108.485 77.404 108.482 77.0103 108.547C76.6167 108.611 76.1261 108.729 75.5386 108.901C75.1584 109.011 74.7487 109.15 74.3095 109.315C73.8702 109.481 73.496 109.633 73.1869 109.774L72.6278 107.855C72.8679 107.735 73.1557 107.608 73.4912 107.472C73.8234 107.326 74.1705 107.187 74.5324 107.057C74.8828 106.929 75.2251 106.817 75.5592 106.72Z" fill="white"/>
<path d="M68.3703 108.174L69.0011 118.379L72.5763 118.158L72.7095 120.314L63.008 120.914L62.8748 118.758L66.4499 118.537L65.8192 108.332L68.3703 108.174Z" fill="white"/>
<path d="M61.0233 108.461L58.9361 120.668L50.5971 119.242L50.949 117.184L56.7686 118.179L57.2752 115.216L52.2896 114.363L52.6415 112.305L57.6271 113.157L58.1519 110.088L52.3324 109.093L52.6843 107.035L61.0233 108.461Z" fill="white"/>
<path d="M50.6749 106.286L49.8631 108.5L47.4126 107.601L48.2244 105.387L50.6749 106.286Z" fill="white"/>
<path d="M41.051 102.13L33.4412 111.9L28.9112 108.371C28.3053 107.899 27.872 107.44 27.6113 106.994C27.3411 106.54 27.2125 106.09 27.2254 105.644C27.231 105.207 27.3508 104.76 27.5847 104.304C27.8092 103.84 28.1169 103.357 28.5077 102.855C28.869 102.391 29.2424 101.99 29.6278 101.651C29.9964 101.315 30.3991 101.081 30.836 100.95C31.2729 100.818 31.7528 100.827 32.2758 100.976C32.7893 101.117 33.3679 101.439 34.0117 101.94L36.4684 103.854L39.0345 100.559L41.051 102.13ZM35.1854 105.501L33.5239 104.207C33.1168 103.89 32.7802 103.658 32.514 103.511C32.2404 103.374 32.0026 103.318 31.8005 103.344C31.5984 103.369 31.4021 103.474 31.2114 103.661C31.0114 103.839 30.7823 104.094 30.5242 104.426C30.2661 104.757 30.0749 105.042 29.9505 105.279C29.8167 105.51 29.7624 105.726 29.7875 105.928C29.7958 106.132 29.8988 106.342 30.0965 106.557C30.2868 106.781 30.5808 107.048 30.9784 107.358L32.6967 108.696L35.1854 105.501Z" fill="white"/>
<path d="M32.1292 94.9249L22.2765 102.427L18.6888 97.7158C18.2017 97.0761 17.8844 96.5108 17.7368 96.0199C17.582 95.5194 17.5667 95.0635 17.6909 94.6522C17.8055 94.2481 18.0331 93.8637 18.3737 93.4988C18.6974 93.1316 19.0979 92.7663 19.5753 92.4028C19.9095 92.1483 20.2893 91.9044 20.7148 91.6709C21.1403 91.4374 21.5917 91.2973 22.069 91.2506C22.539 91.1944 23.0103 91.3181 23.4829 91.6219L26.1644 87.0914L27.8001 89.2395L24.9816 93.7386L24.872 93.0302C24.9516 93.0752 25.0324 93.1418 25.1147 93.23C25.1897 93.3087 25.2708 93.4053 25.358 93.5199L26.9719 95.6394L30.5808 92.8914L32.1292 94.9249ZM25.325 96.8934L23.9074 95.0317C23.6021 94.6307 23.3383 94.3338 23.1161 94.141C22.8939 93.9482 22.6866 93.8345 22.4944 93.7999C22.2926 93.7726 22.0901 93.8137 21.8869 93.9232C21.6741 94.0399 21.4197 94.211 21.1238 94.4364C20.8278 94.6617 20.5953 94.8614 20.4261 95.0355C20.257 95.2095 20.1599 95.389 20.1348 95.574C20.1098 95.759 20.1643 95.989 20.2983 96.264C20.425 96.5295 20.6411 96.8627 20.9464 97.2637L22.3749 99.1398L25.325 96.8934Z" fill="white"/>
<path d="M23.6511 81.2119C24.0263 82.1474 24.2811 82.9438 24.4154 83.601C24.5453 84.2471 24.5514 84.7942 24.4337 85.2422C24.3049 85.6947 24.049 86.0882 23.666 86.4228C23.2719 86.7619 22.7497 87.0877 22.0993 87.4003C21.4489 87.7129 20.656 88.0568 19.7204 88.4321C18.7849 88.8073 17.974 89.1067 17.2879 89.3302C16.6018 89.5537 16.0047 89.6768 15.4967 89.6995C14.9775 89.7268 14.5206 89.6191 14.1259 89.3766C13.7201 89.1386 13.3409 88.7412 12.9883 88.1844C12.6313 87.6165 12.2651 86.8648 11.8899 85.9293C11.5146 84.9937 11.2621 84.2029 11.1322 83.5568C10.9979 82.8995 10.9951 82.3447 11.124 81.8922C11.2416 81.4442 11.4975 81.0507 11.8916 80.7116C12.2701 80.3658 12.7845 80.0367 13.4349 79.7241C14.0853 79.4115 14.8783 79.0676 15.8138 78.6923C16.7494 78.3171 17.5602 78.0177 18.2463 77.7942C18.9324 77.5708 19.5373 77.451 20.061 77.4349C20.569 77.4121 21.0259 77.5198 21.4317 77.7578C21.8264 78.0003 22.2022 78.4055 22.5593 78.9734C22.9119 79.5302 23.2758 80.2763 23.6511 81.2119ZM21.7131 81.9892C21.5166 81.4991 21.3413 81.1104 21.1873 80.8231C21.0288 80.5247 20.8525 80.3109 20.6585 80.1819C20.4646 80.0528 20.2127 80.0051 19.903 80.0388C19.5888 80.0614 19.1822 80.1599 18.6833 80.3341C18.1843 80.5084 17.545 80.7519 16.7653 81.0646C15.9857 81.3773 15.3553 81.6431 14.8742 81.8619C14.3931 82.0808 14.0312 82.2906 13.7885 82.4914C13.5413 82.681 13.3922 82.8895 13.3412 83.1168C13.2902 83.3442 13.3105 83.6205 13.4022 83.9457C13.4894 84.2598 13.6312 84.6619 13.8278 85.152C14.0199 85.6309 14.1952 86.0196 14.3537 86.318C14.5077 86.6053 14.6817 86.8135 14.8757 86.9426C15.0697 87.0716 15.3238 87.1249 15.6379 87.1023C15.9476 87.0686 16.352 86.9646 16.851 86.7903C17.35 86.616 17.9893 86.3725 18.7689 86.0598C19.5485 85.7471 20.1789 85.4813 20.66 85.2625C21.1411 85.0437 21.5053 84.8394 21.7524 84.6498C21.9951 84.449 22.142 84.2349 22.193 84.0076C22.2441 83.7802 22.226 83.5095 22.1388 83.1954C22.0471 82.8702 21.9052 82.4681 21.7131 81.9892Z" fill="white"/>
<path d="M21.1234 73.7999L8.9165 75.887L8.48572 73.3676L20.6926 71.2804L21.1234 73.7999Z" fill="white"/>
<path d="M20.062 67.8337L7.68134 67.547L7.87725 59.0892L9.96469 59.1376L9.82797 65.04L12.8332 65.1096L12.9503 60.053L15.0377 60.1013L14.9206 65.1579L18.0338 65.2301L18.1705 59.3276L20.2579 59.376L20.062 67.8337Z" fill="white"/>
<path d="M21.884 52.5905C21.6555 53.4734 21.4065 54.1961 21.137 54.7585C20.8675 55.3209 20.5452 55.7519 20.1702 56.0515C19.7952 56.3511 19.3498 56.5395 18.834 56.6167C18.3212 56.6823 17.7072 56.6598 16.9922 56.5491C16.2771 56.4384 15.4316 56.2568 14.4558 56.0042C13.4799 55.7517 12.6525 55.5003 11.9735 55.2502C11.2945 55.0001 10.7467 54.722 10.3301 54.4159C9.91657 54.0981 9.61848 53.7173 9.43588 53.2734C9.25328 52.8295 9.18056 52.2962 9.21773 51.6737C9.25489 51.0511 9.38773 50.2984 9.61623 49.4155C9.70342 49.0786 9.80524 48.7331 9.92168 48.379C10.0411 48.0132 10.1677 47.6679 10.3013 47.3431C10.435 47.0182 10.5609 46.7471 10.6792 46.5298L12.5786 47.0214C12.4625 47.326 12.3553 47.6205 12.2569 47.905C12.1469 48.1864 12.053 48.4534 11.9753 48.7059C11.9005 48.9469 11.8406 49.1545 11.7955 49.3288C11.6421 49.9212 11.5391 50.4152 11.4863 50.8106C11.4336 51.206 11.4527 51.5394 11.5436 51.8108C11.6258 52.0676 11.8045 52.2874 12.0795 52.4701C12.3428 52.6498 12.7198 52.8218 13.2103 52.9859C13.7008 53.15 14.3295 53.3313 15.0962 53.5298C15.8513 53.7252 16.489 53.8716 17.0091 53.9691C17.5177 54.0635 17.9365 54.0975 18.2656 54.0711C18.5831 54.0417 18.846 53.9362 19.0541 53.7546C19.2536 53.5583 19.4263 53.2745 19.5719 52.9032C19.7176 52.5318 19.8671 52.0499 20.0205 51.4574C20.1197 51.0741 20.2105 50.6513 20.2929 50.1893C20.3753 49.7272 20.4354 49.3275 20.4731 48.9902L22.4074 49.4908C22.3877 49.7584 22.3502 50.0709 22.2948 50.4285C22.2511 50.789 22.1928 51.1582 22.1198 51.5359C22.0498 51.9021 21.9712 52.2536 21.884 52.5905Z" fill="white"/>
<path d="M24.2617 45.6889L15.1674 41.0175L13.5307 44.2037L11.6094 43.2168L16.0505 34.5707L17.9719 35.5577L16.3352 38.7439L25.4296 43.4153L24.2617 45.6889Z" fill="white"/>
<path d="M27.6895 39.3032L18.2612 31.2739L23.7463 24.833L25.336 26.1868L21.508 30.6817L23.7966 32.6307L27.076 28.7799L28.6657 30.1337L25.3863 33.9845L27.757 36.0035L31.585 31.5086L33.1746 32.8623L27.6895 39.3032Z" fill="white"/>
<path d="M34.7855 31.5296L33.2896 29.7068L35.3072 28.051L36.8031 29.8738L34.7855 31.5296Z" fill="white"/>
<path d="M43.1658 25.3257L38.5986 13.8146L43.9359 11.697C44.6498 11.4138 45.2652 11.2729 45.7822 11.2743C46.3103 11.2714 46.7634 11.3885 47.1416 11.6258C47.5153 11.8519 47.8397 12.1815 48.1148 12.6145C48.4011 13.0432 48.6615 13.5531 48.8961 14.1442C49.1129 14.6908 49.2697 15.216 49.3663 15.7199C49.4697 16.2082 49.4672 16.6739 49.359 17.1171C49.2508 17.5602 49.0001 17.9695 48.6069 18.345C48.2248 18.7161 47.6545 19.0521 46.896 19.353L44.0015 20.5014L45.5416 24.3831L43.1658 25.3257ZM43.2315 18.5606L45.189 17.7839C45.6687 17.5936 46.0391 17.4208 46.3002 17.2656C46.5569 17.0992 46.7257 16.9225 46.8064 16.7355C46.8872 16.5486 46.8956 16.3258 46.8317 16.0671C46.7789 15.804 46.6751 15.4773 46.5202 15.0869C46.3653 14.6965 46.2169 14.3874 46.0749 14.1598C45.9441 13.9276 45.7852 13.7712 45.5982 13.6905C45.418 13.5941 45.1852 13.5768 44.8998 13.6384C44.61 13.6888 44.2308 13.807 43.7624 13.9928L41.7379 14.7961L43.2315 18.5606Z" fill="white"/>
<path d="M53.9396 21.235L52.5108 8.93367L58.3933 8.25043C59.1919 8.15767 59.84 8.173 60.3376 8.29642C60.8471 8.41846 61.247 8.63777 61.5375 8.95438C61.8266 9.25906 62.0412 9.65091 62.1814 10.1299C62.3322 10.5957 62.4422 11.1265 62.5114 11.7225C62.5598 12.1397 62.576 12.5908 62.5598 13.0759C62.5437 13.561 62.434 14.0208 62.2308 14.4551C62.0394 14.8881 61.6926 15.2304 61.1903 15.482L63.7199 20.099L61.0379 20.4105L58.6052 15.6917L59.2705 15.9587C59.1912 16.0042 59.0926 16.0398 58.9748 16.0655C58.8689 16.0899 58.7445 16.1104 58.6014 16.127L55.9552 16.4344L56.4785 20.9401L53.9396 21.235ZM55.7164 14.3782L58.0408 14.1082C58.5414 14.0501 58.9313 13.9746 59.2105 13.8818C59.4896 13.7889 59.6931 13.6687 59.8209 13.5209C59.9473 13.3613 60.0153 13.1661 60.0247 12.9355C60.0328 12.6929 60.0154 12.3869 59.9724 12.0174C59.9295 11.6479 59.8763 11.346 59.8129 11.1118C59.7494 10.8775 59.6445 10.7024 59.4982 10.5866C59.3518 10.4707 59.1262 10.4002 58.8213 10.3752C58.5283 10.3489 58.1315 10.3648 57.6308 10.4229L55.2886 10.695L55.7164 14.3782Z" fill="white"/>
<path d="M70.1338 20.8891C69.1377 20.7345 68.3228 20.5472 67.689 20.3274C67.0671 20.1094 66.5935 19.8355 66.2682 19.5057C65.9448 19.1641 65.7369 18.7432 65.6446 18.2431C65.554 17.7311 65.5403 17.1157 65.6033 16.3969C65.6663 15.6781 65.7751 14.8206 65.9298 13.8245C66.0844 12.8285 66.2407 11.9784 66.3986 11.2743C66.5565 10.5702 66.7552 9.99383 66.9949 9.54528C67.2364 9.08488 67.5621 8.74685 67.972 8.53119C68.3838 8.30366 68.9191 8.18032 69.5778 8.16115C70.2484 8.14382 71.0817 8.21248 72.0778 8.36712C73.0739 8.52176 73.8829 8.70807 74.5048 8.92606C75.1386 9.14589 75.6172 9.42664 75.9406 9.7683C76.2658 10.0981 76.4737 10.519 76.5643 11.0309C76.6685 11.5329 76.6891 12.1432 76.6261 12.8621C76.563 13.5809 76.4542 14.4384 76.2996 15.4344C76.1449 16.4305 75.9887 17.2806 75.8308 17.9847C75.6729 18.6888 75.4673 19.2702 75.2139 19.7287C74.9743 20.1773 74.6486 20.5153 74.2368 20.7428C73.8268 20.9585 73.2866 21.075 72.616 21.0923C71.9572 21.1115 71.1298 21.0438 70.1338 20.8891ZM70.4541 18.8258C70.9758 18.9068 71.3996 18.9544 71.7252 18.9685C72.0628 18.9845 72.3366 18.942 72.5465 18.841C72.7565 18.74 72.926 18.5478 73.055 18.2642C73.1959 17.9825 73.3187 17.5826 73.4234 17.0645C73.5282 16.5464 73.645 15.8724 73.7738 15.0423C73.9027 14.2123 73.9958 13.5345 74.053 13.0091C74.1103 12.4837 74.1146 12.0654 74.0657 11.7542C74.0287 11.4448 73.9255 11.2102 73.756 11.0503C73.5866 10.8904 73.3386 10.7669 73.0121 10.6798C72.6974 10.5945 72.2792 10.5114 71.7575 10.4304C71.2476 10.3512 70.8239 10.3037 70.4863 10.2877C70.1606 10.2736 69.8928 10.317 69.6828 10.418C69.4728 10.519 69.2974 10.7103 69.1565 10.992C69.0275 11.2756 68.9106 11.6764 68.8059 12.1945C68.7012 12.7125 68.5844 13.3866 68.4555 14.2167C68.3267 15.0467 68.2336 15.7245 68.1763 16.2499C68.119 16.7753 68.1089 17.1927 68.1458 17.502C68.1947 17.8132 68.3038 18.0488 68.4733 18.2086C68.6428 18.3685 68.8849 18.4911 69.1995 18.5764C69.526 18.6635 69.9442 18.7467 70.4541 18.8258Z" fill="white"/>
<path d="M77.9186 22.4882L82.3561 10.9265L84.7423 11.8424L80.3049 23.4041L77.9186 22.4882Z" fill="white"/>
<path d="M83.6194 24.6161L90.1904 14.1192L97.3613 18.6082L96.2534 20.378L91.249 17.2453L89.654 19.7932L93.9413 22.4771L92.8333 24.2469L88.5461 21.5631L86.8938 24.2025L91.8981 27.3353L90.7902 29.1051L83.6194 24.6161Z" fill="white"/>
<path d="M95.6356 33.8098C94.9907 33.1649 94.4943 32.5837 94.1464 32.0661C93.7985 31.5485 93.5906 31.0521 93.5228 30.5769C93.4549 30.1017 93.5185 29.6223 93.7137 29.1386C93.9173 28.6635 94.2482 28.1459 94.7064 27.5858C95.1647 27.0258 95.7501 26.3894 96.4629 25.6766C97.1757 24.9639 97.8121 24.3784 98.3721 23.9202C98.9321 23.462 99.4497 23.1311 99.9249 22.9274C100.409 22.7322 100.888 22.6686 101.363 22.7365C101.838 22.8044 102.335 23.0123 102.852 23.3602C103.37 23.7081 103.951 24.2044 104.596 24.8493C104.842 25.0954 105.088 25.3584 105.334 25.6385C105.589 25.927 105.822 26.2112 106.034 26.4912C106.246 26.7712 106.416 27.0173 106.543 27.2294L105.156 28.6168C104.952 28.3622 104.753 28.1204 104.558 27.8913C104.371 27.6537 104.189 27.4373 104.011 27.2422C103.841 27.0555 103.692 26.8985 103.565 26.7712C103.132 26.3385 102.759 25.9991 102.445 25.753C102.131 25.5069 101.834 25.3542 101.554 25.2948C101.291 25.2354 101.011 25.2778 100.714 25.4221C100.426 25.5578 100.086 25.7954 99.6958 26.1348C99.3055 26.4743 98.8303 26.924 98.2703 27.484C97.7187 28.0355 97.269 28.5107 96.9211 28.9095C96.5817 29.2999 96.3399 29.6435 96.1956 29.9405C96.0598 30.229 96.0174 30.509 96.0683 30.7805C96.1362 31.0521 96.2932 31.3448 96.5393 31.6588C96.7853 31.9727 97.1248 32.3461 97.5575 32.7788C97.8375 33.0588 98.1557 33.3516 98.5121 33.657C98.8685 33.9625 99.1824 34.2171 99.454 34.4207L98.0412 35.8335C97.8205 35.6808 97.5702 35.4899 97.2902 35.2608C97.0017 35.0402 96.7132 34.8026 96.4247 34.548C96.1447 34.3019 95.8817 34.0559 95.6356 33.8098Z" fill="white"/>
<path d="M100.43 39.3855L109.056 33.8971L107.133 30.875L108.955 29.7154L114.173 37.9162L112.351 39.0757L110.428 36.0536L101.802 41.542L100.43 39.3855Z" fill="white"/>
<path d="M104.274 45.6901L115.979 41.6461L118.742 49.6423L116.768 50.3241L114.84 44.7438L111.999 45.7254L113.65 50.5061L111.677 51.188L110.025 46.4073L107.082 47.4241L109.01 53.0045L107.036 53.6863L104.274 45.6901Z" fill="white"/>
<path d="M107.343 55.6883L109.673 55.3265L110.074 57.9057L107.744 58.2674L107.343 55.6883Z" fill="white"/>
</svg>
