<svg width="1601" height="286" viewBox="0 0 1601 286" fill="none" xmlns="http://www.w3.org/2000/svg">
<path d="M26.862 110L0.634 1.296H23.07L42.188 83.93H42.978L63.992 1.296H87.376L108.706 83.93H109.496L127.35 1.296H149.786L123.4 110H95.434L75.526 34.002H74.736L54.828 110H26.862ZM166.259 110V1.296H188.695V110H166.259ZM214.554 110V1.296H236.99V91.04H282.494V110H214.554ZM299.571 110V1.296H322.007V91.04H367.511V110H299.571ZM423.626 110V1.296H497.886V19.624H446.062V46.01H490.46V64.338H446.062V91.672H497.886V110H423.626ZM519.599 110V1.296H542.825L585.643 68.288H586.433V1.296H607.921V110H586.591L541.877 39.374H541.087V110H519.599ZM633.778 110V1.296H656.214V45.694H699.506V1.296H721.942V110H699.506V64.97H656.214V110H633.778ZM737.218 110L774.032 1.296H804.052L840.866 110H817.956L809.898 85.984H767.396L759.654 110H737.218ZM773.084 67.814H804.052L789.042 21.678H788.094L773.084 67.814ZM856.12 110V1.296H879.346L922.164 68.288H922.954V1.296H944.442V110H923.112L878.398 39.374H877.608V110H856.12ZM1012.49 111.264C1004.48 111.264 997.792 110.737 992.42 109.684C987.048 108.631 982.676 106.84 979.306 104.312C975.935 101.784 973.354 98.4133 971.564 94.2C969.878 89.9867 968.72 84.72 968.088 78.4C967.456 72.08 967.14 64.496 967.14 55.648C967.14 46.8 967.456 39.216 968.088 32.896C968.72 26.576 969.878 21.3093 971.564 17.096C973.354 12.8827 975.935 9.512 979.306 6.984C982.676 4.45599 987.048 2.66532 992.42 1.61199C997.792 0.55866 1004.48 0.0319937 1012.49 0.0319937C1015.54 0.0319937 1018.7 0.137329 1021.97 0.347999C1025.34 0.558663 1028.55 0.874662 1031.6 1.296C1034.66 1.71733 1037.24 2.19133 1039.35 2.718V19.94C1036.5 19.624 1033.76 19.3607 1031.13 19.15C1028.5 18.834 1026.02 18.6233 1023.7 18.518C1021.49 18.4127 1019.6 18.36 1018.02 18.36C1012.64 18.36 1008.22 18.5707 1004.74 18.992C1001.27 19.4133 998.476 20.3087 996.37 21.678C994.368 22.942 992.894 24.9433 991.946 27.682C990.998 30.3153 990.366 33.8967 990.05 38.426C989.734 42.9553 989.576 48.696 989.576 55.648C989.576 62.4947 989.734 68.2353 990.05 72.87C990.366 77.3993 990.998 81.0333 991.946 83.772C992.894 86.4053 994.368 88.4067 996.37 89.776C998.476 91.04 1001.27 91.8827 1004.74 92.304C1008.22 92.7253 1012.64 92.936 1018.02 92.936C1021.49 92.936 1025.28 92.778 1029.39 92.462C1033.5 92.146 1037.03 91.7773 1039.98 91.356V108.894C1037.66 109.315 1034.92 109.684 1031.76 110C1028.6 110.421 1025.34 110.737 1021.97 110.948C1018.7 111.159 1015.54 111.264 1012.49 111.264ZM1060.56 110V1.296H1134.82V19.624H1083V46.01H1127.4V64.338H1083V91.672H1134.82V110H1060.56ZM1220.54 110V71.448L1183.25 1.296H1206.79L1231.76 49.644H1232.86L1257.67 1.296H1280.42L1242.97 71.448V110H1220.54ZM1334.67 111.264C1325.82 111.264 1318.5 110.737 1312.71 109.684C1307.02 108.631 1302.55 106.893 1299.28 104.47C1296.02 101.942 1293.65 98.5713 1292.17 94.358C1290.7 90.0393 1289.75 84.72 1289.33 78.4C1288.91 72.08 1288.69 64.496 1288.69 55.648C1288.69 46.8 1288.91 39.216 1289.33 32.896C1289.75 26.576 1290.7 21.3093 1292.17 17.096C1293.65 12.7773 1296.02 9.40667 1299.28 6.984C1302.55 4.45599 1307.02 2.66532 1312.71 1.61199C1318.5 0.55866 1325.82 0.0319937 1334.67 0.0319937C1343.52 0.0319937 1350.79 0.55866 1356.48 1.61199C1362.27 2.66532 1366.8 4.45599 1370.06 6.984C1373.33 9.40667 1375.7 12.7773 1377.17 17.096C1378.75 21.3093 1379.76 26.576 1380.18 32.896C1380.6 39.216 1380.81 46.8 1380.81 55.648C1380.81 64.496 1380.6 72.08 1380.18 78.4C1379.76 84.72 1378.75 90.0393 1377.17 94.358C1375.7 98.5713 1373.33 101.942 1370.06 104.47C1366.8 106.893 1362.27 108.631 1356.48 109.684C1350.79 110.737 1343.52 111.264 1334.67 111.264ZM1334.67 92.936C1339.31 92.936 1343.05 92.778 1345.89 92.462C1348.84 92.146 1351.16 91.4087 1352.84 90.25C1354.53 89.0913 1355.74 87.1953 1356.48 84.562C1357.32 81.9287 1357.85 78.2947 1358.06 73.66C1358.27 69.0253 1358.37 63.0213 1358.37 55.648C1358.37 48.2747 1358.27 42.2707 1358.06 37.636C1357.85 33.0013 1357.32 29.3673 1356.48 26.734C1355.74 24.1007 1354.53 22.2047 1352.84 21.046C1351.16 19.8873 1348.84 19.15 1345.89 18.834C1343.05 18.518 1339.31 18.36 1334.67 18.36C1330.14 18.36 1326.4 18.518 1323.45 18.834C1320.61 19.15 1318.35 19.8873 1316.66 21.046C1314.98 22.2047 1313.71 24.1007 1312.87 26.734C1312.13 29.3673 1311.66 33.0013 1311.45 37.636C1311.24 42.2707 1311.13 48.2747 1311.13 55.648C1311.13 63.0213 1311.24 69.0253 1311.45 73.66C1311.66 78.2947 1312.13 81.9287 1312.87 84.562C1313.71 87.1953 1314.98 89.0913 1316.66 90.25C1318.35 91.4087 1320.61 92.146 1323.45 92.462C1326.4 92.778 1330.14 92.936 1334.67 92.936ZM1445.75 111.264C1438.06 111.264 1431.64 110.79 1426.48 109.842C1421.31 108.894 1417.15 107.367 1413.99 105.26C1410.83 103.153 1408.41 100.204 1406.73 96.412C1405.15 92.62 1404.04 87.88 1403.41 82.192C1402.88 76.3987 1402.62 69.4993 1402.62 61.494V1.296H1425.05V67.182C1425.05 72.7647 1425.21 77.294 1425.53 80.77C1425.95 84.1407 1426.74 86.7213 1427.9 88.512C1429.16 90.3027 1431.22 91.514 1434.06 92.146C1436.9 92.6727 1440.8 92.936 1445.75 92.936C1450.7 92.936 1454.55 92.6727 1457.29 92.146C1460.13 91.514 1462.18 90.3027 1463.45 88.512C1464.71 86.7213 1465.5 84.1407 1465.82 80.77C1466.13 77.294 1466.29 72.7647 1466.29 67.182V1.296H1488.73V61.494C1488.73 69.4993 1488.41 76.3987 1487.78 82.192C1487.25 87.88 1486.2 92.62 1484.62 96.412C1483.04 100.204 1480.67 103.153 1477.51 105.26C1474.35 107.367 1470.19 108.894 1465.03 109.842C1459.87 110.79 1453.44 111.264 1445.75 111.264ZM1513.89 110V1.296H1565.87C1572.93 1.296 1578.56 2.086 1582.78 3.66599C1587.09 5.24599 1590.36 7.56333 1592.57 10.618C1594.78 13.5673 1596.26 17.2013 1597 21.52C1597.84 25.7333 1598.26 30.4733 1598.26 35.74C1598.26 39.4267 1597.94 43.3767 1597.31 47.59C1596.68 51.8033 1595.26 55.7007 1593.05 59.282C1590.94 62.8633 1587.57 65.4967 1582.93 67.182L1600.31 110H1576.61L1560.18 66.392L1565.71 69.394C1564.97 69.71 1564.08 69.9207 1563.03 70.026C1562.08 70.1313 1560.97 70.184 1559.71 70.184H1536.32V110H1513.89ZM1536.32 52.014H1556.86C1561.29 52.014 1564.76 51.7507 1567.29 51.224C1569.82 50.6973 1571.72 49.8547 1572.98 48.696C1574.24 47.432 1575.03 45.7993 1575.35 43.798C1575.67 41.6913 1575.82 39.0053 1575.82 35.74C1575.82 32.4747 1575.67 29.7887 1575.35 27.682C1575.03 25.5753 1574.3 23.9427 1573.14 22.784C1571.98 21.6253 1570.08 20.7827 1567.45 20.256C1564.92 19.7293 1561.45 19.466 1557.02 19.466H1536.32V52.014ZM52.774 285.264C43.926 285.264 36.6053 284.737 30.812 283.684C25.124 282.631 20.6473 280.893 17.382 278.47C14.1167 275.942 11.7467 272.571 10.272 268.358C8.79733 264.039 7.84933 258.72 7.428 252.4C7.00667 246.08 6.796 238.496 6.796 229.648C6.796 220.8 7.00667 213.216 7.428 206.896C7.84933 200.576 8.79733 195.309 10.272 191.096C11.7467 186.777 14.1167 183.407 17.382 180.984C20.6473 178.456 25.124 176.665 30.812 175.612C36.6053 174.559 43.926 174.032 52.774 174.032C61.622 174.032 68.89 174.559 74.578 175.612C80.3713 176.665 84.9007 178.456 88.166 180.984C91.4313 183.407 93.8013 186.777 95.276 191.096C96.856 195.309 97.8567 200.576 98.278 206.896C98.6993 213.216 98.91 220.8 98.91 229.648C98.91 238.496 98.6993 246.08 98.278 252.4C97.8567 258.72 96.856 264.039 95.276 268.358C93.8013 272.571 91.4313 275.942 88.166 278.47C84.9007 280.893 80.3713 282.631 74.578 283.684C68.89 284.737 61.622 285.264 52.774 285.264ZM52.774 266.936C57.4087 266.936 61.148 266.778 63.992 266.462C66.9413 266.146 69.2587 265.409 70.944 264.25C72.6293 263.091 73.8407 261.195 74.578 258.562C75.4207 255.929 75.9473 252.295 76.158 247.66C76.3687 243.025 76.474 237.021 76.474 229.648C76.474 222.275 76.3687 216.271 76.158 211.636C75.9473 207.001 75.4207 203.367 74.578 200.734C73.8407 198.101 72.6293 196.205 70.944 195.046C69.2587 193.887 66.9413 193.15 63.992 192.834C61.148 192.518 57.4087 192.36 52.774 192.36C48.2447 192.36 44.5053 192.518 41.556 192.834C38.712 193.15 36.4473 193.887 34.762 195.046C33.0767 196.205 31.8127 198.101 30.97 200.734C30.2327 203.367 29.7587 207.001 29.548 211.636C29.3373 216.271 29.232 222.275 29.232 229.648C29.232 237.021 29.3373 243.025 29.548 247.66C29.7587 252.295 30.2327 255.929 30.97 258.562C31.8127 261.195 33.0767 263.091 34.762 264.25C36.4473 265.409 38.712 266.146 41.556 266.462C44.5053 266.778 48.2447 266.936 52.774 266.936ZM121.667 284V175.296H144.893L187.711 242.288H188.501V175.296H209.989V284H188.659L143.945 213.374H143.155V284H121.667ZM235.847 284V175.296H258.283V265.04H303.787V284H235.847ZM320.864 284V175.296H343.3V284H320.864ZM369.159 284V175.296H392.385L435.203 242.288H435.993V175.296H457.481V284H436.151L391.437 213.374H390.647V284H369.159ZM483.339 284V175.296H557.599V193.624H505.775V220.01H550.173V238.338H505.775V265.672H557.599V284H483.339ZM618.349 284V175.296H668.751C675.492 175.296 680.969 176.139 685.183 177.824C689.501 179.509 692.819 181.932 695.137 185.092C697.454 188.147 699.034 191.886 699.877 196.31C700.825 200.734 701.299 205.737 701.299 211.32C701.299 216.481 700.877 221.274 700.035 225.698C699.297 230.017 697.77 233.809 695.453 237.074C693.135 240.339 689.765 242.867 685.341 244.658C681.022 246.449 675.281 247.344 668.119 247.344H640.785V284H618.349ZM640.785 229.016H659.271C663.8 229.016 667.381 228.805 670.015 228.384C672.648 227.857 674.597 226.962 675.861 225.698C677.125 224.434 677.915 222.643 678.231 220.326C678.652 218.009 678.863 215.007 678.863 211.32C678.863 207.633 678.652 204.631 678.231 202.314C677.915 199.997 677.125 198.206 675.861 196.942C674.702 195.573 672.859 194.677 670.331 194.256C667.803 193.729 664.327 193.466 659.903 193.466H640.785V229.016ZM720.647 284V175.296H772.629C779.687 175.296 785.322 176.086 789.535 177.666C793.854 179.246 797.119 181.563 799.331 184.618C801.543 187.567 803.018 191.201 803.755 195.52C804.598 199.733 805.019 204.473 805.019 209.74C805.019 213.427 804.703 217.377 804.071 221.59C803.439 225.803 802.017 229.701 799.805 233.282C797.699 236.863 794.328 239.497 789.693 241.182L807.073 284H783.373L766.941 240.392L772.471 243.394C771.734 243.71 770.839 243.921 769.785 244.026C768.837 244.131 767.731 244.184 766.467 244.184H743.083V284H720.647ZM743.083 226.014H763.623C768.047 226.014 771.523 225.751 774.051 225.224C776.579 224.697 778.475 223.855 779.739 222.696C781.003 221.432 781.793 219.799 782.109 217.798C782.425 215.691 782.583 213.005 782.583 209.74C782.583 206.475 782.425 203.789 782.109 201.682C781.793 199.575 781.056 197.943 779.897 196.784C778.739 195.625 776.843 194.783 774.209 194.256C771.681 193.729 768.205 193.466 763.781 193.466H743.083V226.014ZM827.421 284V175.296H901.681V193.624H849.857V220.01H894.255V238.338H849.857V265.672H901.681V284H827.421ZM961.63 285.264C957.627 285.264 953.203 285.159 948.358 284.948C943.618 284.737 938.983 284.421 934.454 284C929.924 283.684 925.764 283.315 921.972 282.894V265.04C925.869 265.356 929.819 265.672 933.822 265.988C937.93 266.304 941.827 266.567 945.514 266.778C949.2 266.883 952.36 266.936 954.994 266.936C960.366 266.936 964.526 266.725 967.476 266.304C970.425 265.777 972.637 265.04 974.112 264.092C975.27 263.249 976.06 262.354 976.482 261.406C976.903 260.353 977.166 259.141 977.272 257.772C977.377 256.297 977.43 254.665 977.43 252.874C977.43 250.451 977.272 248.45 976.956 246.87C976.745 245.29 976.324 244.079 975.692 243.236C975.06 242.288 974.006 241.603 972.532 241.182C971.162 240.761 969.372 240.445 967.16 240.234L942.828 237.232C937.982 236.6 933.98 235.494 930.82 233.914C927.765 232.334 925.342 230.227 923.552 227.594C921.761 224.961 920.497 221.853 919.76 218.272C919.128 214.691 918.812 210.635 918.812 206.106C918.812 198.943 919.812 193.255 921.814 189.042C923.815 184.829 926.606 181.616 930.188 179.404C933.874 177.192 938.193 175.77 943.144 175.138C948.094 174.401 953.466 174.032 959.26 174.032C963.473 174.032 967.792 174.19 972.216 174.506C976.64 174.717 980.8 175.033 984.698 175.454C988.595 175.875 991.86 176.402 994.494 177.034V194.414C991.86 193.993 988.806 193.624 985.33 193.308C981.854 192.992 978.22 192.781 974.428 192.676C970.636 192.465 967.054 192.36 963.684 192.36C958.733 192.36 954.783 192.571 951.834 192.992C948.99 193.308 946.778 193.887 945.198 194.73C943.407 195.783 942.301 197.153 941.88 198.838C941.564 200.523 941.406 202.63 941.406 205.158C941.406 208.318 941.616 210.741 942.038 212.426C942.459 214.006 943.46 215.112 945.04 215.744C946.62 216.376 949.095 216.903 952.466 217.324L976.798 220.168C979.747 220.484 982.486 221.011 985.014 221.748C987.542 222.485 989.806 223.644 991.808 225.224C993.809 226.804 995.442 229.016 996.706 231.86C997.443 233.335 998.022 235.073 998.444 237.074C998.865 238.97 999.181 241.129 999.392 243.552C999.708 245.975 999.866 248.661 999.866 251.61C999.866 257.719 999.234 262.828 997.97 266.936C996.811 271.044 995.126 274.309 992.914 276.732C990.702 279.155 987.963 280.998 984.698 282.262C981.538 283.526 978.009 284.316 974.112 284.632C970.214 285.053 966.054 285.264 961.63 285.264ZM1021.37 284V175.296H1095.63V193.624H1043.81V220.01H1088.21V238.338H1043.81V265.672H1095.63V284H1021.37ZM1117.34 284V175.296H1140.57L1183.39 242.288H1184.18V175.296H1205.67V284H1184.34L1139.62 213.374H1138.83V284H1117.34ZM1273.71 285.264C1265.71 285.264 1259.02 284.737 1253.64 283.684C1248.27 282.631 1243.9 280.84 1240.53 278.312C1237.16 275.784 1234.58 272.413 1232.79 268.2C1231.1 263.987 1229.94 258.72 1229.31 252.4C1228.68 246.08 1228.36 238.496 1228.36 229.648C1228.36 220.8 1228.68 213.216 1229.31 206.896C1229.94 200.576 1231.1 195.309 1232.79 191.096C1234.58 186.883 1237.16 183.512 1240.53 180.984C1243.9 178.456 1248.27 176.665 1253.64 175.612C1259.02 174.559 1265.71 174.032 1273.71 174.032C1276.77 174.032 1279.93 174.137 1283.19 174.348C1286.56 174.559 1289.77 174.875 1292.83 175.296C1295.88 175.717 1298.46 176.191 1300.57 176.718V193.94C1297.73 193.624 1294.99 193.361 1292.35 193.15C1289.72 192.834 1287.25 192.623 1284.93 192.518C1282.72 192.413 1280.82 192.36 1279.24 192.36C1273.87 192.36 1269.44 192.571 1265.97 192.992C1262.49 193.413 1259.7 194.309 1257.59 195.678C1255.59 196.942 1254.12 198.943 1253.17 201.682C1252.22 204.315 1251.59 207.897 1251.27 212.426C1250.96 216.955 1250.8 222.696 1250.8 229.648C1250.8 236.495 1250.96 242.235 1251.27 246.87C1251.59 251.399 1252.22 255.033 1253.17 257.772C1254.12 260.405 1255.59 262.407 1257.59 263.776C1259.7 265.04 1262.49 265.883 1265.97 266.304C1269.44 266.725 1273.87 266.936 1279.24 266.936C1282.72 266.936 1286.51 266.778 1290.62 266.462C1294.72 266.146 1298.25 265.777 1301.2 265.356V282.894C1298.89 283.315 1296.15 283.684 1292.99 284C1289.83 284.421 1286.56 284.737 1283.19 284.948C1279.93 285.159 1276.77 285.264 1273.71 285.264ZM1321.79 284V175.296H1396.05V193.624H1344.22V220.01H1388.62V238.338H1344.22V265.672H1396.05V284H1321.79ZM1414.92 284V263.302H1437.83V284H1414.92Z" fill="#F1F1F1"/>
</svg>
