<svg width="807" height="807" viewBox="0 0 807 807" fill="none" xmlns="http://www.w3.org/2000/svg">
<path d="M788.296 440.23L764.058 430.483L764.425 426.829L785.103 423.048L765.614 415.009L765.942 411.388L791.646 406.918L791.297 410.392L769.58 413.707L790.144 421.854L789.777 425.508L768.103 429.117L788.649 436.719L788.296 440.23Z" fill="#F1F1F1"/>
<path d="M784.823 449.456L776.535 448.17L775.132 457.205L772.464 456.791L773.867 447.755L765.329 446.43L763.76 456.533L761.092 456.119L763.163 442.779L787.994 446.633L785.923 459.974L783.255 459.559L784.823 449.456Z" fill="#F1F1F1"/>
<path d="M770.343 478.448C770.001 479.306 769.455 480.031 768.706 480.624C767.951 481.241 767.093 481.661 766.131 481.886C765.164 482.135 764.189 482.148 763.206 481.925C761.966 481.644 760.914 481.073 760.051 480.213C759.211 479.359 758.636 478.256 758.327 476.907C758.035 475.586 758.075 474.106 758.447 472.467L760.515 463.339L784.987 468.884L782.998 477.661C782.621 479.323 782.02 480.676 781.193 481.719C780.389 482.767 779.453 483.478 778.384 483.851C777.315 484.224 776.196 484.278 775.025 484.012C773.574 483.684 772.459 483.013 771.679 481.999C770.918 481.015 770.473 479.831 770.343 478.448ZM773.695 469.684L772.477 475.056C772.138 476.554 772.227 477.792 772.743 478.771C773.26 479.749 774.138 480.379 775.379 480.66C776.619 480.941 777.684 480.751 778.571 480.091C779.459 479.431 780.078 478.329 780.428 476.784L781.629 471.482L773.695 469.684ZM761.144 472.783C760.783 474.375 760.876 475.7 761.424 476.759C761.971 477.819 762.912 478.499 764.246 478.802C765.604 479.109 766.775 478.882 767.759 478.121C768.767 477.365 769.449 476.203 769.804 474.635L771.061 469.088L762.424 467.131L761.144 472.783Z" fill="#F1F1F1"/>
<path d="M775.104 510.78C774.24 513.376 773.004 515.456 771.395 517.02C769.802 518.615 767.939 519.613 765.807 520.016C763.667 520.442 761.378 520.25 758.942 519.438C756.505 518.627 754.558 517.41 753.1 515.786C751.658 514.193 750.777 512.281 750.457 510.05C750.152 507.849 750.432 505.451 751.296 502.855L753.764 495.443L777.571 503.368L775.104 510.78ZM753.858 503.707C752.835 506.782 752.862 509.396 753.941 511.551C755.042 513.714 757.062 515.284 759.999 516.262C762.96 517.247 765.544 517.197 767.752 516.111C769.952 515.047 771.561 512.99 772.576 509.939L774.009 505.635L755.291 499.404L753.858 503.707Z" fill="#F1F1F1"/>
<path d="M748.654 542.162C748.077 541.925 747.48 541.642 746.863 541.311L752.842 526.721C750.998 526.095 749.338 526.127 747.861 526.819C746.398 527.542 745.338 528.703 744.683 530.302C744.146 531.612 744 532.823 744.244 533.935C744.502 535.078 745.069 536.037 745.945 536.811L744.607 540.075C743.053 538.868 742.021 537.304 741.511 535.383C741.024 533.471 741.226 531.427 742.118 529.251C742.828 527.519 743.853 526.124 745.195 525.065C746.527 524.029 748.064 523.414 749.803 523.219C751.565 523.033 753.39 523.327 755.278 524.101C757.165 524.874 758.665 525.93 759.777 527.267C760.889 528.605 761.545 530.106 761.745 531.77C761.958 533.465 761.7 535.201 760.972 536.978C760.262 538.71 759.257 540.087 757.956 541.11C756.655 542.133 755.192 542.727 753.568 542.892C751.958 543.088 750.32 542.844 748.654 542.162ZM750.57 539.29C751.725 539.763 752.818 539.913 753.849 539.739C754.902 539.574 755.822 539.134 756.608 538.418C757.407 537.734 758.025 536.859 758.462 535.793C759.09 534.261 759.138 532.75 758.607 531.262C758.067 529.795 756.962 528.63 755.294 527.764L750.57 539.29Z" fill="#F1F1F1"/>
<path d="M733.553 550.016C734.203 548.651 735.014 547.535 735.986 546.669C736.979 545.813 738.036 545.267 739.159 545.031C740.304 544.806 741.433 544.919 742.547 545.37L741.091 548.425C740.161 548.088 739.239 548.153 738.325 548.621C737.4 549.111 736.649 549.963 736.07 551.176C735.533 552.302 735.359 553.309 735.547 554.197C735.736 555.084 736.209 555.709 736.968 556.07C737.747 556.442 738.487 556.369 739.186 555.851C739.906 555.344 740.796 554.452 741.857 553.177C742.833 552.02 743.696 551.102 744.446 550.423C745.206 549.775 746.078 549.313 747.06 549.037C748.054 548.793 749.125 548.944 750.273 549.492C751.183 549.926 751.888 550.594 752.388 551.497C752.888 552.4 753.117 553.453 753.076 554.656C753.056 555.87 752.741 557.116 752.131 558.394C751.192 560.365 749.934 561.72 748.359 562.458C746.785 563.196 745.11 563.196 743.335 562.456L744.745 559.499C745.708 559.878 746.636 559.855 747.53 559.43C748.413 559.027 749.128 558.252 749.676 557.103C750.182 556.042 750.357 555.088 750.202 554.243C750.046 553.398 749.6 552.8 748.864 552.449C748.279 552.17 747.703 552.122 747.138 552.304C746.584 552.519 746.053 552.851 745.546 553.3C745.051 553.782 744.42 554.465 743.653 555.349C742.697 556.462 741.854 557.336 741.126 557.973C740.418 558.619 739.595 559.064 738.655 559.307C737.704 559.572 736.682 559.457 735.589 558.962C734.614 558.498 733.866 557.809 733.344 556.895C732.822 555.982 732.571 554.918 732.591 553.705C732.623 552.524 732.943 551.294 733.553 550.016Z" fill="#F1F1F1"/>
<path d="M748.215 573.267C748.498 572.711 748.93 572.339 749.511 572.15C750.092 571.961 750.661 572.008 751.217 572.291C751.773 572.574 752.146 573.006 752.335 573.587C752.524 574.168 752.477 574.736 752.194 575.292C751.921 575.827 751.5 576.178 750.93 576.346C750.349 576.535 749.781 576.488 749.225 576.205C748.669 575.922 748.296 575.49 748.107 574.909C747.907 574.349 747.943 573.802 748.215 573.267ZM744.641 573.226L727.06 564.277L728.546 561.357L746.127 570.306L744.641 573.226Z" fill="#F1F1F1"/>
<path d="M737.699 587.619C736.822 589.079 735.737 590.163 734.444 590.87C733.139 591.598 731.842 591.939 730.554 591.893L733.64 593.747L731.934 596.586L714.652 586.205C713.109 585.278 711.939 584.127 711.141 582.752C710.323 581.364 709.945 579.849 710.008 578.207C710.058 576.586 710.571 574.962 711.548 573.337C712.882 571.115 714.519 569.578 716.458 568.727C718.397 567.876 720.352 567.861 722.324 568.681L720.655 571.459C719.441 571.149 718.235 571.293 717.037 571.889C715.818 572.473 714.801 573.443 713.986 574.801C713.059 576.344 712.788 577.89 713.174 579.438C713.548 581.006 714.609 582.315 716.358 583.366L719.907 585.498C719.253 584.349 718.924 583.032 718.921 581.546C718.918 580.06 719.355 578.587 720.232 577.126C721.135 575.624 722.327 574.478 723.809 573.689C725.279 572.92 726.892 572.588 728.65 572.691C730.407 572.795 732.14 573.36 733.847 574.386C735.575 575.424 736.878 576.682 737.753 578.16C738.65 579.65 739.094 581.219 739.085 582.865C739.063 584.532 738.601 586.117 737.699 587.619ZM725.215 588.686C726.49 589.452 727.756 589.863 729.011 589.917C730.266 589.971 731.407 589.704 732.432 589.116C733.465 588.561 734.297 587.759 734.927 586.709C735.558 585.66 735.886 584.555 735.911 583.395C735.936 582.234 735.63 581.112 734.993 580.029C734.355 578.946 733.399 578.022 732.123 577.256C730.827 576.477 729.541 576.055 728.265 575.988C727.01 575.934 725.866 576.184 724.832 576.739C723.819 577.307 722.998 578.115 722.367 579.165C721.737 580.214 721.409 581.319 721.384 582.479C721.367 583.673 721.677 584.811 722.315 585.894C722.973 586.989 723.939 587.92 725.215 588.686Z" fill="#F1F1F1"/>
<path d="M722.658 612.454C721.282 614.42 719.567 615.593 717.515 615.973C715.482 616.366 713.344 615.779 711.103 614.21L701.576 607.543L703.434 604.888L712.577 611.287C714.19 612.415 715.701 612.872 717.11 612.658C718.54 612.457 719.743 611.659 720.72 610.263C721.711 608.847 722.06 607.407 721.766 605.942C721.46 604.497 720.461 603.183 718.77 601.999L709.833 595.745L711.711 593.061L727.874 604.372L725.996 607.056L723.695 605.446C724.15 606.555 724.286 607.72 724.106 608.941C723.911 610.182 723.428 611.353 722.658 612.454Z" fill="#F1F1F1"/>
<path d="M681.448 653.971C680.72 654.538 679.882 654.888 678.936 655.021C677.973 655.172 677.019 655.101 676.076 654.809C675.116 654.535 674.268 654.053 673.533 653.364C672.604 652.495 671.985 651.471 671.675 650.292C671.382 649.13 671.443 647.889 671.859 646.568C672.275 645.281 673.057 644.024 674.206 642.798L680.604 635.966L698.918 653.12L692.765 659.688C691.6 660.932 690.398 661.795 689.157 662.277C687.934 662.775 686.767 662.915 685.656 662.697C684.545 662.479 683.552 661.959 682.676 661.139C681.59 660.122 680.967 658.979 680.806 657.711C680.647 656.476 680.861 655.23 681.448 653.971ZM688.77 648.103L685.004 652.123C683.954 653.244 683.405 654.357 683.356 655.462C683.307 656.568 683.747 657.555 684.676 658.425C685.604 659.294 686.618 659.669 687.718 659.548C688.818 659.427 689.909 658.788 690.992 657.632L694.708 653.665L688.77 648.103ZM676.373 644.433C675.258 645.624 674.668 646.815 674.605 648.006C674.543 649.197 675.01 650.26 676.009 651.195C677.025 652.146 678.15 652.542 679.384 652.383C680.636 652.24 681.811 651.582 682.911 650.409L686.799 646.257L680.336 640.203L676.373 644.433Z" fill="#F1F1F1"/>
<path d="M673.842 667.344C674.224 668.552 674.258 669.749 673.944 670.935C673.612 672.137 672.9 673.277 671.806 674.356L669.43 671.945L670.046 671.339C672.661 668.761 672.57 666.054 669.774 663.216L662.243 655.576L664.577 653.276L678.425 667.327L676.091 669.626L673.842 667.344Z" fill="#F1F1F1"/>
<path d="M661.565 671.173C662.873 672.708 663.706 674.316 664.065 675.996C664.439 677.694 664.36 679.322 663.827 680.88C663.275 682.453 662.332 683.808 660.998 684.944C659.683 686.064 658.299 686.753 656.849 687.012C655.398 687.27 654.069 687.172 652.863 686.718L655.197 689.459L652.675 691.606L639.884 676.586L642.406 674.439L644.787 677.235C644.533 675.937 644.651 674.576 645.14 673.151C645.626 671.76 646.517 670.512 647.815 669.407C649.148 668.271 650.634 667.573 652.273 667.313C653.911 667.053 655.546 667.252 657.179 667.911C658.812 668.569 660.274 669.657 661.565 671.173ZM648.825 681.976C649.79 683.109 650.858 683.901 652.031 684.353C653.203 684.804 654.369 684.915 655.528 684.684C656.685 684.487 657.729 683.992 658.661 683.199C659.593 682.405 660.256 681.462 660.65 680.37C661.044 679.278 661.111 678.117 660.852 676.888C660.593 675.658 659.981 674.477 659.017 673.344C658.036 672.193 656.952 671.382 655.764 670.913C654.591 670.461 653.427 670.334 652.27 670.531C651.129 670.746 650.093 671.25 649.161 672.044C648.229 672.837 647.566 673.78 647.172 674.872C646.776 675.998 646.707 677.176 646.966 678.405C647.24 679.653 647.86 680.843 648.825 681.976Z" fill="#F1F1F1"/>
<path d="M638.941 703.618C637.01 705.044 635.012 705.61 632.945 705.316C630.892 705.042 629.053 703.805 627.428 701.604L620.519 692.251L623.125 690.326L629.756 699.303C630.925 700.886 632.212 701.8 633.617 702.045C635.036 702.31 636.431 701.936 637.801 700.924C639.191 699.897 639.98 698.643 640.169 697.161C640.338 695.693 639.809 694.129 638.583 692.469L632.102 683.695L634.737 681.749L646.458 697.617L643.823 699.564L642.155 697.305C642.233 698.501 641.991 699.649 641.431 700.749C640.852 701.863 640.022 702.819 638.941 703.618Z" fill="#F1F1F1"/>
<path d="M621.446 704.764C622.528 706.465 623.131 708.172 623.254 709.886C623.39 711.62 623.086 713.221 622.342 714.69C621.578 716.172 620.447 717.39 618.949 718.343C617.653 719.168 616.255 719.63 614.755 719.732C613.267 719.853 611.921 719.614 610.715 719.016L616.32 727.824L613.525 729.602L599.224 707.126L602.019 705.348L604.009 708.477C603.925 707.137 604.213 705.801 604.874 704.47C605.548 703.16 606.603 702.047 608.041 701.132C609.519 700.192 611.098 699.7 612.776 699.656C614.435 699.624 616.027 700.048 617.553 700.926C619.079 701.804 620.376 703.084 621.446 704.764ZM607.333 713.701C608.132 714.956 609.081 715.889 610.18 716.498C611.279 717.107 612.418 717.378 613.598 717.31C614.77 717.275 615.873 716.929 616.906 716.272C617.938 715.615 618.725 714.773 619.267 713.746C619.808 712.719 620.035 711.578 619.949 710.325C619.862 709.071 619.42 707.817 618.621 706.561C617.809 705.286 616.848 704.333 615.736 703.704C614.637 703.094 613.501 702.807 612.329 702.842C611.169 702.897 610.073 703.253 609.04 703.91C608.008 704.567 607.221 705.409 606.679 706.436C606.131 707.497 605.9 708.654 605.986 709.907C606.085 711.181 606.534 712.445 607.333 713.701Z" fill="#F1F1F1"/>
<path d="M604.048 731.203C604.583 730.882 605.147 730.795 605.74 730.943C606.333 731.091 606.79 731.432 607.111 731.967C607.432 732.502 607.519 733.066 607.371 733.658C607.223 734.251 606.882 734.708 606.347 735.029C605.833 735.338 605.289 735.413 604.717 735.253C604.124 735.105 603.667 734.763 603.346 734.228C603.025 733.694 602.938 733.13 603.086 732.537C603.213 731.957 603.534 731.512 604.048 731.203ZM601.041 729.272L590.882 712.361L593.69 710.674L603.849 727.585L601.041 729.272Z" fill="#F1F1F1"/>
<path d="M585.886 738.618C583.747 739.707 581.683 739.936 579.693 739.306C577.713 738.698 576.103 737.175 574.862 734.736L569.587 724.373L572.475 722.904L577.537 732.849C578.43 734.603 579.549 735.717 580.894 736.19C582.25 736.685 583.687 736.546 585.206 735.773C586.746 734.989 587.731 733.882 588.16 732.451C588.569 731.032 588.305 729.402 587.369 727.563L582.421 717.841L585.34 716.355L594.289 733.937L591.37 735.423L590.096 732.92C589.976 734.113 589.549 735.205 588.815 736.198C588.06 737.202 587.084 738.008 585.886 738.618Z" fill="#F1F1F1"/>
<path d="M563.658 749.872C562.088 750.535 560.573 750.772 559.111 750.583C557.628 750.402 556.379 749.914 555.365 749.118L556.767 752.434L553.717 753.724L545.864 735.157C545.163 733.499 544.894 731.879 545.06 730.298C545.215 728.695 545.802 727.248 546.82 725.958C547.815 724.677 549.186 723.667 550.932 722.928C553.32 721.919 555.547 721.641 557.616 722.095C559.684 722.549 561.273 723.688 562.383 725.512L559.399 726.774C558.6 725.809 557.541 725.214 556.222 724.991C554.893 724.745 553.499 724.931 552.04 725.548C550.383 726.249 549.254 727.339 548.654 728.817C548.033 730.305 548.119 731.988 548.914 733.867L550.527 737.68C550.675 736.366 551.185 735.108 552.057 733.905C552.93 732.702 554.151 731.769 555.72 731.105C557.334 730.423 558.972 730.199 560.635 730.434C562.275 730.678 563.775 731.359 565.135 732.478C566.494 733.597 567.561 735.074 568.337 736.909C569.123 738.765 569.434 740.549 569.272 742.259C569.118 743.992 568.553 745.521 567.576 746.846C566.577 748.181 565.271 749.189 563.658 749.872ZM552.939 743.382C553.519 744.753 554.3 745.83 555.282 746.613C556.265 747.396 557.344 747.852 558.519 747.98C559.681 748.14 560.826 747.982 561.953 747.505C563.08 747.028 563.996 746.328 564.7 745.405C565.404 744.482 565.817 743.395 565.94 742.144C566.062 740.894 565.834 739.583 565.254 738.213C564.665 736.82 563.874 735.721 562.882 734.916C561.9 734.133 560.827 733.662 559.665 733.502C558.512 733.364 557.372 733.533 556.245 734.01C555.118 734.487 554.202 735.187 553.498 736.11C552.781 737.065 552.362 738.167 552.239 739.418C552.126 740.69 552.359 742.012 552.939 743.382Z" fill="#F1F1F1"/>
<path d="M505.385 750.16C506.987 749.739 508.499 749.639 509.922 749.861C511.328 750.112 512.522 750.641 513.504 751.45C514.492 752.283 515.172 753.357 515.543 754.674L512.166 755.562C511.75 754.455 511.033 753.614 510.013 753.038C508.976 752.492 507.669 752.426 506.09 752.841C504.581 753.238 503.495 753.92 502.832 754.889C502.151 755.886 501.966 756.977 502.277 758.161C502.521 759.09 502.975 759.777 503.638 760.223C504.301 760.669 505.056 760.942 505.901 761.043C506.746 761.143 507.865 761.196 509.256 761.203C510.967 761.2 512.366 761.279 513.45 761.44C514.512 761.608 515.507 762.041 516.435 762.74C517.346 763.469 518 764.587 518.396 766.096C518.744 767.419 518.716 768.68 518.311 769.878C517.906 771.076 517.174 772.112 516.113 772.987C515.029 773.867 513.698 774.515 512.12 774.93C509.845 775.528 507.839 775.447 506.101 774.688C504.339 773.935 503.119 772.643 502.439 770.812L505.921 769.896C506.281 770.794 506.982 771.479 508.024 771.949C509.072 772.443 510.303 772.504 511.719 772.132C513.042 771.784 514.03 771.152 514.683 770.236C515.341 769.343 515.509 768.282 515.186 767.052C514.954 766.169 514.521 765.514 513.887 765.085C513.23 764.662 512.502 764.394 511.703 764.282C510.887 764.199 509.769 764.145 508.348 764.122C506.631 764.102 505.227 763.999 504.136 763.814C503.051 763.653 502.042 763.211 501.107 762.489C500.179 761.79 499.514 760.674 499.111 759.142C498.8 757.959 498.82 756.762 499.172 755.553C499.524 754.344 500.23 753.252 501.29 752.279C502.349 751.306 503.714 750.599 505.385 750.16Z" fill="#F1F1F1"/>
<path d="M492.545 777.081L490.848 768.867L481.893 770.717L481.346 768.073L490.301 766.222L488.553 757.761L478.541 759.83L477.994 757.186L491.215 754.454L496.3 779.062L483.079 781.794L482.532 779.15L492.545 777.081Z" fill="#F1F1F1"/>
<path d="M460.233 760.501C462.545 760.224 464.718 760.507 466.753 761.35C468.791 762.218 470.486 763.549 471.837 765.345C473.168 767.167 473.979 769.294 474.271 771.724C474.563 774.155 474.277 776.401 473.412 778.463C472.527 780.551 471.195 782.246 469.418 783.547C467.643 784.872 465.6 785.673 463.288 785.951C460.953 786.231 458.767 785.938 456.729 785.07C454.694 784.227 453.012 782.906 451.684 781.107C450.357 779.309 449.545 777.182 449.251 774.728C448.956 772.274 449.241 770.015 450.105 767.954C450.97 765.892 452.289 764.199 454.064 762.874C455.842 761.573 457.898 760.782 460.233 760.501ZM460.572 763.325C458.833 763.534 457.321 764.126 456.036 765.103C454.727 766.082 453.77 767.369 453.164 768.964C452.534 770.563 452.337 772.351 452.575 774.329C452.815 776.33 453.429 778.021 454.417 779.401C455.383 780.808 456.606 781.834 458.085 782.478C459.565 783.122 461.186 783.339 462.949 783.127C464.713 782.915 466.237 782.321 467.522 781.345C468.807 780.369 469.764 779.082 470.394 777.483C471.003 775.912 471.187 774.125 470.947 772.123C470.71 770.146 470.108 768.453 469.141 767.046C468.151 765.642 466.916 764.618 465.436 763.974C463.933 763.333 462.312 763.116 460.572 763.325Z" fill="#F1F1F1"/>
<path d="M385.394 789.577L386.643 764.697L389.915 764.861L388.984 783.414L398.185 765.276L400.486 765.392L407.858 784.397L408.792 765.809L412.063 765.973L410.814 790.854L407.291 790.677L399.119 769.649L388.882 789.753L385.394 789.577Z" fill="#F1F1F1"/>
<path d="M379.013 774.932C378.765 776.932 378.143 778.633 377.148 780.033C376.149 781.457 374.895 782.498 373.387 783.158C371.854 783.814 370.219 784.035 368.48 783.819C366.765 783.607 365.322 783.053 364.152 782.158C362.981 781.264 362.155 780.218 361.675 779.022L361.232 782.595L357.945 782.187L360.371 762.609L363.658 763.016L363.207 766.66C363.991 765.597 365.074 764.764 366.455 764.161C367.809 763.579 369.331 763.393 371.022 763.603C372.761 763.818 374.28 764.442 375.579 765.473C376.878 766.505 377.836 767.845 378.454 769.493C379.072 771.142 379.258 772.955 379.013 774.932ZM362.441 772.841C362.258 774.318 362.396 775.641 362.856 776.81C363.315 777.98 364.022 778.914 364.975 779.612C365.902 780.332 366.972 780.767 368.187 780.917C369.402 781.068 370.544 780.919 371.616 780.472C372.687 780.024 373.588 779.289 374.319 778.267C375.051 777.246 375.508 775.996 375.691 774.52C375.877 773.019 375.741 771.672 375.285 770.479C374.825 769.31 374.132 768.365 373.205 767.646C372.276 766.95 371.204 766.527 369.989 766.377C368.774 766.226 367.631 766.375 366.56 766.822C365.462 767.291 364.548 768.036 363.816 769.058C363.082 770.103 362.624 771.364 362.441 772.841Z" fill="#F1F1F1"/>
<path d="M347.777 777.675C347.027 778.695 346.08 779.428 344.938 779.874C343.771 780.316 342.43 780.414 340.914 780.166L341.459 776.826L342.312 776.966C345.936 777.557 348.069 775.886 348.71 771.954L350.437 761.366L353.67 761.893L350.494 781.364L347.261 780.837L347.777 777.675Z" fill="#F1F1F1"/>
<path d="M328.236 757.425L333.898 767.611L335.791 759.107L338.989 759.819L333.201 785.822L330.003 785.111L333.405 769.825L324.09 776.713L319.627 775.72L330.829 768.145L323.878 756.455L328.236 757.425Z" fill="#F1F1F1"/>
<path d="M299.212 761.131C299.386 760.532 299.606 759.909 299.869 759.261L315.008 763.672C315.436 761.773 315.229 760.125 314.386 758.729C313.513 757.35 312.247 756.418 310.588 755.935C309.229 755.539 308.009 755.521 306.929 755.881C305.819 756.257 304.926 756.922 304.248 757.874L300.861 756.887C301.899 755.215 303.345 754.024 305.202 753.315C307.052 752.629 309.106 752.615 311.364 753.274C313.161 753.797 314.656 754.671 315.85 755.893C317.02 757.109 317.794 758.572 318.171 760.282C318.541 762.015 318.44 763.86 317.869 765.819C317.299 767.777 316.407 769.38 315.193 770.626C313.98 771.873 312.557 772.683 310.923 773.056C309.259 773.446 307.506 773.373 305.663 772.836C303.865 772.312 302.39 771.457 301.235 770.271C300.081 769.084 299.337 767.692 299.003 766.095C298.638 764.514 298.708 762.859 299.212 761.131ZM302.269 762.735C301.92 763.933 301.886 765.036 302.168 766.042C302.442 767.073 302.977 767.941 303.771 768.647C304.535 769.37 305.47 769.892 306.576 770.215C308.166 770.678 309.673 770.567 311.098 769.883C312.499 769.191 313.543 767.97 314.228 766.22L302.269 762.735Z" fill="#F1F1F1"/>
<path d="M287.553 764.353L291.268 753.335C291.574 752.425 291.6 751.712 291.343 751.195C291.079 750.7 290.47 750.292 289.514 749.97L287.229 749.2L288.114 746.573L290.912 747.516C292.64 748.099 293.802 748.934 294.398 750.021C294.994 751.108 294.985 752.562 294.372 754.381L290.658 765.4L293.08 766.216L292.217 768.775L289.795 767.958L288.208 772.666L285.104 771.62L286.691 766.912L281.813 765.268L282.675 762.709L287.553 764.353Z" fill="#F1F1F1"/>
<path d="M273.671 765.874C274.257 766.089 274.678 766.474 274.935 767.028C275.192 767.582 275.213 768.152 274.998 768.738C274.783 769.324 274.399 769.746 273.845 770.002C273.29 770.259 272.72 770.28 272.134 770.066C271.571 769.859 271.172 769.483 270.938 768.937C270.681 768.382 270.66 767.812 270.875 767.226C271.09 766.64 271.474 766.219 272.028 765.962C272.56 765.697 273.108 765.668 273.671 765.874ZM273.287 762.321L280.079 743.799L283.154 744.927L276.363 763.449L273.287 762.321Z" fill="#F1F1F1"/>
<path d="M256.497 756.403C254.308 755.419 252.835 753.954 252.079 752.009C251.312 750.085 251.49 747.876 252.612 745.38L257.38 734.775L260.335 736.104L255.758 746.282C254.951 748.077 254.785 749.647 255.259 750.992C255.724 752.358 256.733 753.391 258.287 754.09C259.863 754.798 261.343 754.872 262.727 754.31C264.09 753.738 265.194 752.511 266.04 750.629L270.513 740.68L273.501 742.023L265.412 760.016L262.424 758.673L263.575 756.112C262.571 756.766 261.452 757.118 260.219 757.169C258.963 757.209 257.723 756.954 256.497 756.403Z" fill="#F1F1F1"/>
<path d="M233.824 746.181C232.323 745.374 231.188 744.342 230.42 743.085C229.631 741.816 229.228 740.537 229.212 739.248L227.508 742.42L224.591 740.852L234.132 723.093C234.984 721.507 236.078 720.283 237.413 719.42C238.76 718.536 240.255 718.086 241.898 718.07C243.52 718.043 245.166 718.478 246.837 719.375C249.12 720.602 250.733 722.163 251.676 724.059C252.619 725.955 252.728 727.907 252.003 729.916L249.149 728.382C249.4 727.155 249.199 725.957 248.546 724.789C247.904 723.599 246.886 722.63 245.491 721.88C243.905 721.028 242.348 720.832 240.821 721.292C239.272 721.741 238.015 722.863 237.05 724.66L235.09 728.307C236.206 727.599 237.506 727.208 238.99 727.133C240.474 727.059 241.967 727.425 243.468 728.231C245.011 729.06 246.213 730.196 247.072 731.639C247.911 733.07 248.32 734.666 248.301 736.427C248.281 738.187 247.8 739.945 246.857 741.699C245.903 743.475 244.709 744.836 243.274 745.782C241.829 746.749 240.283 747.267 238.638 747.337C236.972 747.395 235.368 747.01 233.824 746.181ZM232.16 733.762C231.455 735.073 231.106 736.356 231.112 737.613C231.118 738.869 231.44 739.996 232.076 740.991C232.68 741.997 233.521 742.789 234.599 743.369C235.678 743.948 236.797 744.223 237.958 744.192C239.118 744.162 240.224 743.802 241.275 743.114C242.326 742.425 243.204 741.426 243.908 740.115C244.624 738.783 244.984 737.478 244.989 736.2C244.983 734.944 244.678 733.813 244.074 732.807C243.459 731.823 242.612 731.041 241.534 730.462C240.456 729.882 239.336 729.608 238.176 729.638C236.983 729.678 235.861 730.043 234.81 730.731C233.747 731.441 232.864 732.451 232.16 733.762Z" fill="#F1F1F1"/>
<path d="M162.134 706.491L183.456 691.396L186.328 693.684L178.306 713.114L195.62 701.086L198.487 703.323L188.321 727.352L185.589 725.176L194.566 705.125L176.579 717.998L173.707 715.71L182.413 695.536L164.893 708.689L162.134 706.491Z" fill="#F1F1F1"/>
<path d="M156.117 698.419L161.694 692.154L154.863 686.074L156.658 684.058L163.489 690.137L169.233 683.683L161.596 676.885L163.391 674.869L173.475 683.844L156.77 702.614L146.685 693.639L148.48 691.622L156.117 698.419Z" fill="#F1F1F1"/>
<path d="M140.263 671.124C139.726 670.373 139.409 669.522 139.314 668.571C139.203 667.603 139.311 666.654 139.641 665.723C139.953 664.774 140.468 663.947 141.186 663.239C142.092 662.346 143.14 661.768 144.33 661.505C145.503 661.259 146.741 661.37 148.044 661.838C149.314 662.305 150.538 663.137 151.717 664.334L158.287 671L140.416 688.614L134.099 682.204C132.903 680.99 132.088 679.754 131.656 678.495C131.207 677.252 131.114 676.081 131.376 674.98C131.639 673.878 132.198 672.907 133.052 672.064C134.112 671.02 135.279 670.443 136.552 670.333C137.792 670.223 139.029 670.487 140.263 671.124ZM145.834 678.674L141.968 674.751C140.89 673.657 139.799 673.064 138.697 672.971C137.595 672.878 136.59 673.278 135.684 674.171C134.778 675.064 134.364 676.062 134.441 677.166C134.518 678.269 135.112 679.385 136.224 680.513L140.04 684.385L145.834 678.674ZM149.996 666.434C148.851 665.272 147.684 664.635 146.497 664.525C145.31 664.415 144.229 664.839 143.255 665.8C142.263 666.777 141.823 667.885 141.932 669.125C142.025 670.381 142.636 671.582 143.765 672.728L147.757 676.779L154.065 670.562L149.996 666.434Z" fill="#F1F1F1"/>
<path d="M109.861 656.958C108.149 654.824 107.072 652.658 106.63 650.458C106.154 648.255 106.325 646.148 107.143 644.138C107.945 642.109 109.348 640.291 111.351 638.683C113.353 637.076 115.432 636.1 117.587 635.756C119.708 635.408 121.792 635.704 123.84 636.645C125.854 637.583 127.718 639.119 129.43 641.253L134.32 647.345L114.751 663.051L109.861 656.958ZM127.325 642.943C125.297 640.416 123.085 639.021 120.689 638.759C118.275 638.511 115.861 639.357 113.446 641.295C111.013 643.247 109.654 645.446 109.369 647.89C109.069 650.316 109.926 652.783 111.939 655.291L114.778 658.828L130.164 646.48L127.325 642.943Z" fill="#F1F1F1"/>
<path d="M98.0279 618.024C98.5391 617.667 99.1005 617.318 99.712 616.978L108.753 629.896C110.277 628.683 111.147 627.269 111.364 625.653C111.547 624.03 111.143 622.512 110.152 621.096C109.34 619.936 108.4 619.158 107.333 618.763C106.232 618.361 105.119 618.32 103.994 618.638L101.971 615.748C103.827 615.093 105.701 615.071 107.592 615.681C109.464 616.304 111.074 617.579 112.423 619.506C113.496 621.04 114.115 622.657 114.28 624.358C114.432 626.039 114.119 627.664 113.342 629.233C112.546 630.816 111.312 632.192 109.64 633.362C107.969 634.531 106.27 635.222 104.544 635.434C102.818 635.647 101.2 635.387 99.6924 634.655C98.151 633.918 96.8299 632.763 95.729 631.19C94.6557 629.656 94.0404 628.065 93.8833 626.417C93.7262 624.77 94.0173 623.219 94.7568 621.764C95.4628 620.303 96.5532 619.056 98.0279 618.024ZM99.4078 621.189C98.3853 621.905 97.6686 622.743 97.2575 623.705C96.8268 624.68 96.6999 625.691 96.8767 626.739C97.0202 627.781 97.4221 628.774 98.0827 629.718C99.0322 631.075 100.277 631.932 101.816 632.29C103.342 632.629 104.92 632.33 106.55 631.394L99.4078 621.189Z" fill="#F1F1F1"/>
<path d="M96.7623 602.943L79.3298 606.491L77.4987 603.517L98.3556 599.763L100.357 603.012L87.6169 619.948L85.767 616.944L96.7623 602.943Z" fill="#F1F1F1"/>
<path d="M73.4323 578.226C73.9842 577.935 74.5847 577.659 75.2338 577.397L82.5936 591.342C84.2569 590.329 85.2966 589.034 85.7129 587.457C86.0967 585.871 85.8853 584.313 85.0788 582.785C84.4179 581.533 83.5824 580.644 82.5724 580.119C81.53 579.583 80.4311 579.403 79.2755 579.579L77.6287 576.459C79.552 576.041 81.4139 576.252 83.2145 577.093C84.9939 577.945 86.4325 579.411 87.5303 581.491C88.4041 583.147 88.8168 584.829 88.7684 586.537C88.7089 588.223 88.1959 589.797 87.2296 591.257C86.242 592.728 84.8462 593.939 83.042 594.891C81.2379 595.844 79.4661 596.317 77.7269 596.313C75.9876 596.308 74.4154 595.849 73.0104 594.935C71.573 594.011 70.4062 592.7 69.51 591.002C68.6363 589.346 68.2242 587.691 68.2737 586.037C68.3232 584.382 68.8055 582.88 69.7206 581.528C70.6032 580.167 71.8404 579.066 73.4323 578.226ZM74.4069 581.538C73.3032 582.121 72.4875 582.863 71.9598 583.766C71.4109 584.68 71.1589 585.667 71.2037 586.729C71.216 587.781 71.4911 588.816 72.0288 589.835C72.8017 591.3 73.9296 592.306 75.4124 592.853C76.884 593.379 78.4868 593.279 80.2208 592.554L74.4069 581.538Z" fill="#F1F1F1"/>
<path d="M54.9714 577.436L78.8459 565.617L80.2993 568.553L56.4249 580.372L54.9714 577.436Z" fill="#F1F1F1"/>
<path d="M72.229 551.498C72.9298 553.208 73.1782 554.922 72.9743 556.64C72.7613 558.335 72.108 559.874 71.0143 561.256C69.8893 562.625 68.383 563.696 66.4954 564.469C64.63 565.234 62.8228 565.508 61.0739 565.291C59.2937 565.06 57.7393 564.401 56.4109 563.311C55.0603 562.23 54.0301 560.824 53.3202 559.092C52.6103 557.36 52.3574 555.635 52.5613 553.917C52.743 552.209 53.3807 550.663 54.4743 549.282C55.5589 547.877 57.0449 546.789 58.9326 546.015C60.8202 545.241 62.6587 544.981 64.448 545.233C66.206 545.472 67.7649 546.143 69.1246 547.246C70.4843 548.349 71.5191 549.766 72.229 551.498ZM69.5641 552.591C69.1182 551.502 68.4441 550.586 67.542 549.84C66.6399 549.094 65.5598 548.642 64.3016 548.483C63.0343 548.302 61.6679 548.512 60.2022 549.113C58.7365 549.714 57.6112 550.512 56.8262 551.508C56.0413 552.504 55.5957 553.568 55.4893 554.701C55.3608 555.843 55.5195 556.959 55.9655 558.047C56.4205 559.157 57.0945 560.074 57.9875 560.797C58.8492 561.508 59.9046 561.931 61.1537 562.068C62.4028 562.204 63.7601 561.972 65.2258 561.371C66.7137 560.762 67.8593 559.981 68.6624 559.029C69.4564 558.056 69.9222 557.009 70.0599 555.889C70.1753 554.778 70.01 553.679 69.5641 552.591Z" fill="#F1F1F1"/>
<path d="M48.8706 538.797C47.5967 538.534 46.4077 537.914 45.3037 536.938C44.1694 535.947 43.3362 534.642 42.8041 533.023C42.257 531.359 42.1613 529.723 42.5171 528.115C42.8654 526.485 43.6418 525.042 44.8461 523.787C46.0277 522.54 47.5761 521.602 49.4913 520.972C51.3837 520.35 53.1983 520.183 54.9351 520.471C56.6719 520.759 58.1755 521.452 59.446 522.55C60.7089 523.626 61.614 524.996 62.1611 526.66C62.6857 528.256 62.797 529.786 62.4949 531.249C62.1625 532.698 61.5655 533.917 60.7037 534.908L73.0498 530.849L74.0728 533.961L46.4395 543.045L45.4165 539.933L48.8706 538.797ZM50.5368 524.153C49.1232 524.617 47.9857 525.307 47.1243 526.222C46.2628 527.137 45.7197 528.174 45.4947 529.334C45.2623 530.472 45.3372 531.622 45.7194 532.785C46.0942 533.925 46.7277 534.891 47.6199 535.684C48.4819 536.462 49.5461 536.971 50.8126 537.212C52.0487 537.437 53.3622 537.321 54.753 536.864C56.1666 536.399 57.3155 535.706 58.1997 534.783C59.0536 533.846 59.6082 532.805 59.8634 531.66C60.0883 530.499 60.0134 529.349 59.6387 528.209C59.2565 527.046 58.6344 526.076 57.7724 525.298C56.8802 524.505 55.8159 523.996 54.5798 523.771C53.3208 523.553 51.9732 523.681 50.5368 524.153Z" fill="#F1F1F1"/>
<path d="M30.7079 493.005C30.3913 491.502 30.4265 490.096 30.8132 488.788C31.1766 487.486 31.9088 486.363 33.0101 485.419C34.1114 484.476 35.5544 483.817 37.3393 483.441L48.7177 481.044L49.3854 484.215L38.4649 486.515C36.5392 486.92 35.1728 487.711 34.3657 488.886C33.5302 490.043 33.2831 491.432 33.6244 493.053C33.9755 494.72 34.7951 495.933 36.0831 496.692C37.3477 497.456 38.9898 497.625 41.0095 497.2L51.6481 494.959L52.3158 498.13L41.3954 500.43C39.4696 500.835 38.1032 501.626 37.2962 502.801C36.4607 503.958 36.2136 505.347 36.5548 506.967C36.906 508.635 37.7256 509.848 39.0136 510.607C40.2782 511.371 41.9203 511.54 43.94 511.114L54.5786 508.874L55.2537 512.08L35.9492 516.145L35.2741 512.94L38.057 512.353C36.9136 511.932 35.9606 511.25 35.1979 510.307C34.4302 509.34 33.9104 508.211 33.6383 506.919C33.2971 505.299 33.3594 503.79 33.8253 502.392C34.2912 500.994 35.1644 499.841 36.4449 498.934C34.969 498.68 33.7242 498.01 32.7106 496.924C31.6969 495.838 31.0294 494.531 30.7079 493.005Z" fill="#F1F1F1"/>
<path d="M33.708 458.158C34.3257 458.069 34.9841 458.011 35.6833 457.983L37.9229 473.591C39.8301 473.197 41.2449 472.327 42.1673 470.982C43.0625 469.617 43.3874 468.079 43.1419 466.369C42.9408 464.967 42.4531 463.849 41.6787 463.015C40.8772 462.16 39.9027 461.621 38.7554 461.398L38.2543 457.905C40.206 458.159 41.8883 458.984 43.3012 460.382C44.6902 461.783 45.5518 463.647 45.8858 465.975C46.1517 467.828 45.9746 469.551 45.3544 471.143C44.7309 472.712 43.7186 474.021 42.3174 475.07C40.8926 476.123 39.1705 476.795 37.1512 477.084C35.1318 477.374 33.304 477.224 31.6677 476.635C30.0314 476.045 28.7054 475.084 27.6897 473.751C26.6469 472.397 25.9891 470.77 25.7164 468.869C25.4505 467.016 25.6192 465.319 26.2224 463.778C26.8256 462.237 27.7853 460.983 29.1017 460.019C30.3908 459.034 31.9263 458.413 33.708 458.158ZM33.5116 461.604C32.2762 461.782 31.2583 462.207 30.4577 462.879C29.6333 463.555 29.0636 464.401 28.7486 465.416C28.4064 466.41 28.3171 467.478 28.4808 468.618C28.716 470.257 29.4397 471.584 30.652 472.598C31.861 473.588 33.4039 474.034 35.2807 473.934L33.5116 461.604Z" fill="#F1F1F1"/>
<path d="M22.0259 442.562C21.8502 440.169 22.4378 438.177 23.7889 436.585C25.1161 434.996 27.144 434.101 29.8727 433.901L41.4695 433.049L41.7067 436.28L30.5767 437.098C28.614 437.242 27.154 437.842 26.1968 438.899C25.2157 439.958 24.7876 441.337 24.9124 443.036C25.0389 444.76 25.6785 446.096 26.8312 447.047C27.9821 447.973 29.5868 448.36 31.6452 448.209L42.5239 447.41L42.7638 450.678L23.0888 452.122L22.8489 448.855L25.6494 448.649C24.5966 448.077 23.7546 447.26 23.1232 446.2C22.4901 445.115 22.1243 443.903 22.0259 442.562Z" fill="#F1F1F1"/>
<path d="M23.684 423.236L35.305 422.832C36.2644 422.799 36.9409 422.571 37.3345 422.149C37.7041 421.728 37.8714 421.014 37.8364 420.007L37.7527 417.596L40.523 417.5L40.6255 420.45C40.6889 422.273 40.3166 423.655 39.5088 424.595C38.701 425.536 37.3376 426.04 35.4188 426.106L23.7978 426.51L23.8866 429.065L21.1882 429.158L21.0994 426.604L16.1344 426.776L16.0207 423.502L20.9857 423.33L20.8069 418.185L23.5053 418.091L23.684 423.236Z" fill="#F1F1F1"/>
<path d="M16.0632 371.459C16.3893 368.742 17.1834 366.456 18.4455 364.602C19.6866 362.72 21.3113 361.368 23.3197 360.546C25.3309 359.699 27.6113 359.429 30.161 359.735C32.7107 360.041 34.8624 360.844 36.6162 362.142C38.349 363.413 39.5957 365.11 40.3562 367.232C41.0957 369.327 41.3025 371.733 40.9764 374.449L40.0453 382.206L15.1321 379.215L16.0632 371.459ZM38.2956 374.127C38.6818 370.911 38.1305 368.355 36.6417 366.46C35.1292 364.562 32.8359 363.428 29.762 363.059C26.6642 362.688 24.1426 363.255 22.1971 364.762C20.2545 366.245 19.0916 368.583 18.7082 371.776L18.1676 376.28L37.755 378.631L38.2956 374.127Z" fill="#F1F1F1"/>
<path d="M35.8043 334.569C36.4172 334.686 37.0588 334.845 37.729 335.046L34.7747 350.535C36.7068 350.781 38.3274 350.418 39.6367 349.447C40.9269 348.447 41.7339 347.098 42.0577 345.401C42.323 344.01 42.225 342.794 41.7639 341.753C41.2836 340.684 40.5373 339.857 39.5248 339.273L40.1858 335.808C41.9493 336.682 43.272 338.009 44.154 339.79C45.0124 341.566 45.2212 343.61 44.7806 345.92C44.4298 347.759 43.7025 349.33 42.5986 350.635C41.4992 351.915 40.1164 352.824 38.4502 353.362C36.7604 353.894 34.9136 353.97 32.9097 353.588C30.9059 353.205 29.226 352.47 27.8701 351.38C26.5141 350.291 25.5726 348.951 25.0453 347.36C24.499 345.741 24.4057 343.988 24.7654 342.102C25.1161 340.263 25.8272 338.713 26.8985 337.452C27.9699 336.19 29.2847 335.317 30.8431 334.832C32.3824 334.32 34.0362 334.232 35.8043 334.569ZM34.4984 337.765C33.2725 337.531 32.1717 337.602 31.196 337.978C30.1967 338.349 29.3832 338.964 28.7554 339.821C28.1085 340.651 27.6772 341.631 27.4613 342.763C27.1511 344.39 27.4044 345.88 28.2214 347.233C29.0428 348.562 30.3573 349.485 32.1646 350L34.4984 337.765Z" fill="#F1F1F1"/>
<path d="M48.8288 324.759C48.4667 326.227 47.8972 327.484 47.1205 328.528C46.3205 329.567 45.3944 330.315 44.3422 330.772C43.2668 331.224 42.1379 331.341 40.9556 331.123L41.766 327.838C42.7444 327.98 43.6342 327.73 44.4355 327.087C45.2425 326.421 45.8069 325.435 46.1288 324.131C46.4277 322.919 46.3954 321.897 46.0319 321.066C45.6684 320.235 45.0789 319.719 44.2634 319.518C43.4245 319.311 42.7151 319.531 42.135 320.179C41.5316 320.821 40.8393 321.874 40.0581 323.338C39.3346 324.667 38.6744 325.74 38.0774 326.557C37.4629 327.345 36.7023 327.973 35.7957 328.441C34.8716 328.881 33.792 328.948 32.557 328.643C31.5783 328.402 30.7531 327.889 30.0812 327.106C29.4094 326.322 28.9726 325.337 28.771 324.15C28.5461 322.957 28.6032 321.674 28.9423 320.299C29.4654 318.178 30.4238 316.598 31.8176 315.557C33.2113 314.517 34.8518 314.18 36.7389 314.547L35.9543 317.727C34.9351 317.55 34.0306 317.76 33.2408 318.356C32.4568 318.929 31.9124 319.833 31.6078 321.068C31.3261 322.209 31.3466 323.179 31.6693 323.975C31.9919 324.771 32.5494 325.267 33.3416 325.463C33.9708 325.618 34.5439 325.549 35.061 325.257C35.5606 324.935 36.0133 324.503 36.4191 323.96C36.8073 323.388 37.2879 322.592 37.861 321.572C38.573 320.289 39.2217 319.263 39.8072 318.492C40.3694 317.716 41.0864 317.115 41.9582 316.687C42.8357 316.236 43.8599 316.143 45.0307 316.407C46.0793 316.665 46.9512 317.189 47.6463 317.979C48.3415 318.768 48.8015 319.759 49.0264 320.952C49.2338 322.116 49.1679 323.385 48.8288 324.759Z" fill="#F1F1F1"/>
<path d="M29.8341 304.709C29.6686 305.311 29.3203 305.762 28.7892 306.064C28.2581 306.366 27.6917 306.435 27.09 306.269C26.4884 306.104 26.0366 305.755 25.7346 305.224C25.4327 304.693 25.3644 304.127 25.5299 303.525C25.6891 302.946 26.031 302.518 26.5557 302.239C27.0868 301.937 27.6532 301.869 28.2549 302.034C28.8565 302.2 29.3083 302.548 29.6103 303.079C29.9186 303.587 29.9932 304.13 29.8341 304.709ZM33.3434 304.031L52.3649 309.264L51.4961 312.422L32.4746 307.19L33.3434 304.031Z" fill="#F1F1F1"/>
<path d="M37.2354 288.481C37.804 286.874 38.6511 285.596 39.7769 284.645C40.9107 283.671 42.1134 283.079 43.385 282.867L39.9913 281.666L41.0963 278.543L60.101 285.27C61.7979 285.871 63.1743 286.765 64.2303 287.954C65.3089 289.15 65.9813 290.559 66.2474 292.181C66.5216 293.78 66.3423 295.473 65.7097 297.261C64.8449 299.704 63.5472 301.536 61.8168 302.757C60.0864 303.977 58.1736 304.382 56.0786 303.972L57.1596 300.917C58.411 300.978 59.5642 300.597 60.6193 299.774C61.697 298.959 62.5002 297.805 63.0287 296.312C63.6293 294.615 63.5861 293.047 62.8991 291.607C62.2201 290.144 60.9191 289.073 58.996 288.392L55.0932 287.011C55.963 288.006 56.5477 289.231 56.8472 290.687C57.1468 292.142 57.0123 293.673 56.4438 295.279C55.8592 296.931 54.9194 298.291 53.6245 299.361C52.3375 300.407 50.8226 301.055 49.0797 301.304C47.3369 301.552 45.5265 301.344 43.6487 300.68C41.7482 300.007 40.2214 299.034 39.0683 297.76C37.8926 296.478 37.1451 295.03 36.8257 293.415C36.5143 291.777 36.6509 290.132 37.2354 288.481ZM49.256 284.945C47.8533 284.448 46.5315 284.299 45.2906 284.496C44.0496 284.693 42.9855 285.182 42.0982 285.963C41.1962 286.713 40.5411 287.665 40.1327 288.819C39.7243 289.973 39.6234 291.121 39.8301 292.263C40.0367 293.406 40.5603 294.444 41.4009 295.378C42.2414 296.312 43.363 297.027 44.7658 297.523C46.1911 298.028 47.5356 298.186 48.7991 297.996C50.04 297.799 51.1115 297.325 52.0134 296.575C52.8927 295.817 53.5366 294.861 53.945 293.708C54.3534 292.554 54.4543 291.406 54.2476 290.263C54.0263 289.09 53.4954 288.037 52.6549 287.103C51.7917 286.161 50.6588 285.441 49.256 284.945Z" fill="#F1F1F1"/>
<path d="M46.5258 262.268C47.4772 260.065 48.9199 258.57 50.8538 257.785C52.7657 256.989 54.9775 257.134 57.4894 258.219L68.1647 262.828L66.8803 265.803L56.6346 261.379C54.8279 260.599 53.2557 260.456 51.9182 260.95C50.5587 261.435 49.5411 262.459 48.8656 264.024C48.1806 265.61 48.1293 267.091 48.7117 268.467C49.3037 269.82 50.5471 270.906 52.442 271.724L62.4563 276.048L61.1576 279.056L43.0459 271.235L44.3446 268.228L46.9225 269.341C46.254 268.346 45.8852 267.233 45.816 266.001C45.7564 264.746 45.993 263.502 46.5258 262.268Z" fill="#F1F1F1"/>
<path d="M68.4987 220.905C66.8822 220.784 65.4028 221.1 64.0605 221.853C62.6974 222.595 61.5814 223.726 60.7126 225.248C59.8438 226.769 59.4126 228.347 59.4191 229.981C59.4166 231.583 59.8695 233.113 60.7779 234.571C61.6773 235.997 62.9815 237.198 64.6905 238.173C66.3995 239.149 68.0964 239.662 69.7813 239.712C71.4781 239.742 73.026 239.354 74.4248 238.55C75.8148 237.713 76.9441 236.534 77.8129 235.013C79.0268 232.887 79.3909 230.773 78.905 228.672C78.4192 226.57 77.158 224.786 75.1214 223.319L70.1586 232.01L67.8452 230.689L74.5396 218.966L76.728 220.215C78.4251 221.405 79.7502 222.908 80.7034 224.724C81.6356 226.528 82.0932 228.461 82.0759 230.524C82.0378 232.575 81.4713 234.559 80.3764 236.476C79.222 238.498 77.6998 240.075 75.8099 241.207C73.8991 242.326 71.8199 242.894 69.5724 242.91C67.3368 242.904 65.1561 242.295 63.0303 241.081C60.9044 239.867 59.2712 238.299 58.1305 236.376C56.9809 234.42 56.4132 232.341 56.4274 230.138C56.4208 227.924 56.9947 225.805 58.1491 223.784C59.4701 221.47 61.2096 219.755 63.3675 218.638C65.5372 217.501 67.8963 217.12 70.4445 217.498L68.4987 220.905Z" fill="#F1F1F1"/>
<path d="M76.8578 208.835C76.2073 207.748 75.8978 206.592 75.9292 205.365C75.9733 204.119 76.4029 202.845 77.2179 201.543L80.0862 203.338L79.6278 204.071C77.6794 207.183 78.3937 209.796 81.7706 211.91L90.8638 217.603L89.1255 220.379L72.4037 209.912L74.142 207.135L76.8578 208.835Z" fill="#F1F1F1"/>
<path d="M87.1075 203.409C85.4772 202.223 84.2907 200.855 83.548 199.306C82.7859 197.742 82.4817 196.141 82.6353 194.502C82.8031 192.843 83.4023 191.306 84.4329 189.889C85.4494 188.491 86.6326 187.497 87.9825 186.906C89.3324 186.315 90.647 186.099 91.9263 186.258L89.015 184.14L90.9633 181.462L106.917 193.067L104.969 195.745L101.999 193.585C102.55 194.787 102.754 196.138 102.613 197.638C102.466 199.104 101.892 200.526 100.889 201.904C99.8588 203.321 98.5777 204.348 97.046 204.985C95.5143 205.621 93.8777 205.811 92.1362 205.553C90.3946 205.295 88.7184 204.581 87.1075 203.409ZM96.9627 189.922C95.7594 189.046 94.5349 188.527 93.2892 188.362C92.0434 188.198 90.8841 188.364 89.8113 188.86C88.7331 189.322 87.834 190.048 87.114 191.038C86.394 192.028 85.9704 193.099 85.8432 194.253C85.7161 195.407 85.9224 196.552 86.4623 197.686C87.0021 198.821 87.8737 199.826 89.077 200.701C90.2997 201.591 91.5436 202.125 92.8088 202.303C94.0545 202.467 95.2165 202.318 96.2946 201.856C97.3534 201.38 98.2428 200.647 98.9628 199.657C99.6828 198.667 100.106 197.595 100.234 196.441C100.355 195.254 100.146 194.092 99.6066 192.958C99.0473 191.809 98.1661 190.797 96.9627 189.922Z" fill="#F1F1F1"/>
<path d="M100.911 173.277C100.468 172.054 100.373 170.716 100.626 169.265C100.876 167.779 101.551 166.386 102.651 165.084C103.782 163.746 105.125 162.808 106.681 162.269C108.252 161.711 109.888 161.617 111.588 161.985C113.269 162.338 114.88 163.165 116.419 164.467C117.94 165.753 119.033 167.211 119.698 168.841C120.362 170.472 120.56 172.116 120.29 173.773C120.036 175.412 119.343 176.901 118.212 178.239C117.127 179.522 115.883 180.418 114.478 180.927C113.07 181.403 111.719 181.533 110.423 181.318L120.348 189.708L118.233 192.21L96.0191 173.431L98.134 170.929L100.911 173.277ZM114.258 167.024C113.121 166.063 111.938 165.456 110.707 165.201C109.477 164.947 108.309 165.027 107.203 165.444C106.112 165.842 105.172 166.508 104.381 167.443C103.607 168.359 103.115 169.405 102.907 170.581C102.696 171.722 102.82 172.895 103.279 174.1C103.735 175.271 104.521 176.329 105.64 177.274C106.776 178.235 107.968 178.85 109.217 179.12C110.463 179.356 111.641 179.283 112.75 178.901C113.856 178.485 114.796 177.818 115.571 176.902C116.361 175.967 116.862 174.929 117.072 173.787C117.281 172.612 117.157 171.439 116.701 170.268C116.227 169.081 115.412 168 114.258 167.024Z" fill="#F1F1F1"/>
<path d="M120.012 144.652C121.048 143.585 122.217 142.847 123.518 142.437C124.802 142.011 126.134 142 127.515 142.405C128.912 142.792 130.265 143.621 131.573 144.891L139.914 152.993L137.657 155.317L129.652 147.542C128.24 146.17 126.821 145.478 125.395 145.465C123.952 145.435 122.637 146.031 121.45 147.254C120.246 148.493 119.672 149.859 119.727 151.352C119.8 152.827 120.576 154.284 122.057 155.722L129.881 163.323L127.598 165.673L108.489 147.111L110.772 144.761L117.744 151.533C117.473 150.366 117.532 149.186 117.922 147.992C118.328 146.781 119.025 145.668 120.012 144.652Z" fill="#F1F1F1"/>
<path d="M129.596 130.7C129.15 131.137 128.622 131.352 128.011 131.345C127.4 131.338 126.876 131.112 126.44 130.666C126.003 130.22 125.789 129.692 125.795 129.081C125.802 128.47 126.028 127.946 126.474 127.51C126.903 127.09 127.414 126.892 128.008 126.915C128.619 126.922 129.143 127.148 129.579 127.594C130.015 128.04 130.23 128.569 130.224 129.18C130.234 129.774 130.025 130.281 129.596 130.7ZM132.969 131.883L146.766 145.984L144.424 148.275L130.627 134.174L132.969 131.883Z" fill="#F1F1F1"/>
<path d="M143.269 134.724C141.935 133.181 141.083 131.57 140.711 129.893C140.324 128.197 140.401 126.56 140.941 124.983C141.5 123.391 142.487 121.982 143.903 120.758C145.737 119.173 147.629 118.315 149.578 118.185C151.546 118.039 153.403 118.591 155.149 119.841L152.48 122.148C151.441 121.46 150.322 121.174 149.122 121.291C147.941 121.392 146.805 121.914 145.716 122.855C144.3 124.079 143.579 125.558 143.555 127.292C143.515 129.008 144.264 130.755 145.802 132.535C147.356 134.333 148.992 135.345 150.711 135.572C152.43 135.8 153.998 135.301 155.414 134.077C156.504 133.136 157.192 132.097 157.479 130.96C157.766 129.824 157.637 128.666 157.094 127.487L159.763 125.18C160.682 127.05 160.942 128.967 160.544 130.928C160.13 132.872 159.024 134.621 157.227 136.174C155.81 137.398 154.274 138.171 152.617 138.493C150.978 138.799 149.348 138.638 147.726 138.009C146.104 137.381 144.619 136.286 143.269 134.724Z" fill="#F1F1F1"/>
<path d="M181.846 98.3208C180.555 96.241 179.865 94.0842 179.778 91.8503C179.678 89.596 180.142 87.4999 181.17 85.5618C182.219 83.6111 183.732 82.0218 185.71 80.7938C188.034 79.3506 190.411 78.6516 192.841 78.697C195.27 78.7423 197.522 79.5478 199.595 81.1134L196.262 83.1832C194.873 82.2658 193.403 81.8087 191.851 81.8117C190.319 81.8021 188.779 82.2784 187.229 83.2405C185.741 84.1647 184.62 85.3405 183.868 86.768C183.116 88.1955 182.802 89.7605 182.927 91.4628C183.039 93.1447 183.627 94.842 184.69 96.5547C185.741 98.247 187.002 99.5266 188.472 100.393C189.93 101.24 191.465 101.642 193.078 101.601C194.691 101.56 196.242 101.078 197.73 100.154C199.28 99.1914 200.396 98.0321 201.08 96.6756C201.771 95.2861 202.013 93.7655 201.807 92.1138L205.14 90.0439C205.611 92.5766 205.328 94.9417 204.291 97.1392C203.242 99.3163 201.555 101.126 199.231 102.57C197.253 103.798 195.164 104.459 192.963 104.555C190.77 104.617 188.691 104.113 186.728 103.044C184.765 101.975 183.137 100.4 181.846 98.3208Z" fill="#F1F1F1"/>
<path d="M222.138 88.4254C220.504 89.288 218.822 89.7007 217.093 89.6635C215.385 89.6152 213.79 89.1134 212.309 88.1583C210.838 87.1707 209.626 85.7749 208.674 83.9707C207.733 82.1878 207.286 80.4155 207.334 78.6538C207.391 76.8597 207.897 75.2489 208.854 73.8215C209.799 72.3729 211.099 71.2117 212.755 70.3379C214.41 69.4642 216.103 69.0459 217.832 69.083C219.55 69.0989 221.15 69.5845 222.631 70.5396C224.133 71.4835 225.36 72.8576 226.312 74.6617C227.265 76.4659 227.702 78.2706 227.623 80.0759C227.555 81.8488 227.037 83.4652 226.071 84.925C225.105 86.3848 223.794 87.5516 222.138 88.4254ZM220.794 85.8784C221.834 85.3295 222.681 84.5701 223.336 83.6002C223.992 82.6303 224.337 81.5116 224.374 80.244C224.432 78.9651 224.091 77.6253 223.352 76.2244C222.612 74.8236 221.709 73.7806 220.642 73.0955C219.575 72.4104 218.472 72.0696 217.334 72.0731C216.185 72.0554 215.09 72.321 214.05 72.8699C212.989 73.43 212.142 74.1894 211.508 75.1481C210.884 76.0744 210.564 77.1657 210.549 78.4221C210.534 79.6785 210.896 81.0072 211.635 82.408C212.386 83.8301 213.273 84.8949 214.298 85.6024C215.344 86.2987 216.431 86.6613 217.559 86.6902C218.675 86.6979 219.754 86.4273 220.794 85.8784Z" fill="#F1F1F1"/>
<path d="M231.757 64.2457C231.896 62.9522 232.397 61.7085 233.261 60.5147C234.137 59.2893 235.355 58.3331 236.914 57.6459C238.517 56.9394 240.136 56.685 241.771 56.8827C243.427 57.0707 244.938 57.7029 246.304 58.7794C247.661 59.834 248.746 61.2837 249.558 63.1285C250.362 64.9513 250.705 66.7411 250.587 68.4977C250.469 70.2543 249.926 71.8182 248.957 73.1895C248.009 74.5512 246.734 75.5853 245.131 76.2918C243.593 76.9692 242.082 77.2289 240.596 77.0706C239.122 76.8808 237.85 76.4053 236.78 75.644L242.021 87.5365L239.023 88.8576L227.293 62.2395L230.291 60.9184L231.757 64.2457ZM246.495 64.4786C245.895 63.1169 245.098 62.052 244.103 61.2837C243.109 60.5153 242.024 60.0757 240.847 59.9648C239.692 59.8442 238.555 60.0307 237.435 60.5243C236.337 61.0082 235.437 61.7327 234.734 62.6979C234.044 63.6315 233.641 64.7402 233.525 66.0241C233.421 67.2763 233.664 68.5722 234.254 69.9119C234.854 71.2736 235.656 72.3495 236.66 73.1398C237.677 73.8984 238.767 74.349 239.931 74.4916C241.108 74.6025 242.245 74.416 243.343 73.9321C244.463 73.4385 245.369 72.725 246.059 71.7914C246.761 70.8262 247.164 69.7175 247.268 68.4653C247.362 67.1911 247.104 65.8622 246.495 64.4786Z" fill="#F1F1F1"/>
<path d="M269.718 44.2858L268.554 75.618L265.377 76.783L265.755 66.5214L251.568 50.9412L254.982 49.6894L266.298 62.5646L266.541 45.4508L269.718 44.2858Z" fill="#F1F1F1"/>
<path d="M301.341 34.1064L300.559 54.7577L297.293 55.6429L288.611 41.771L288.12 58.1287L284.854 59.0138L273.717 41.5922L276.949 40.7165L285.658 55.5136L286.052 38.2495L289.284 37.3738L298.246 52.1397L298.214 34.9538L301.341 34.1064Z" fill="#F1F1F1"/>
<path d="M308.408 35.4372C308.716 34.2087 309.315 33.1717 310.203 32.3264C311.116 31.4757 312.32 30.8777 313.817 30.5326L314.577 33.8301L313.735 34.0242C310.157 34.8493 308.816 37.2029 309.711 41.085L312.121 51.5387L308.929 52.2748L304.496 33.0513L307.689 32.3152L308.408 35.4372Z" fill="#F1F1F1"/>
<path d="M320.493 26.0691C319.882 26.1931 319.321 26.0862 318.812 25.7486C318.303 25.411 317.986 24.9365 317.863 24.3249C317.739 23.7133 317.845 23.1529 318.183 22.6438C318.521 22.1346 318.995 21.818 319.607 21.6941C320.195 21.5749 320.732 21.6865 321.217 22.0289C321.727 22.3665 322.043 22.8411 322.167 23.4526C322.291 24.0642 322.184 24.6246 321.847 25.1338C321.532 25.6382 321.081 25.95 320.493 26.0691ZM322.682 28.8947L326.6 48.2297L323.389 48.8804L319.471 29.5454L322.682 28.8947Z" fill="#F1F1F1"/>
<path d="M335.199 29.1368L337.027 40.6202C337.178 41.5683 337.487 42.2117 337.954 42.5505C338.417 42.8656 339.147 42.9439 340.142 42.7855L342.524 42.4063L342.96 45.1438L340.045 45.6079C338.243 45.8946 336.826 45.6949 335.794 45.0087C334.761 44.3225 334.094 43.0314 333.792 41.1352L331.964 29.6518L329.44 30.0536L329.015 27.3872L331.54 26.9854L330.759 22.0791L333.994 21.5641L334.775 26.4704L339.859 25.6611L340.283 28.3276L335.199 29.1368Z" fill="#F1F1F1"/>
<path d="M344.704 21.6135C344.086 21.6973 343.534 21.5543 343.048 21.1843C342.561 20.8143 342.276 20.3201 342.192 19.7018C342.109 19.0834 342.252 18.5312 342.622 18.045C342.992 17.5589 343.486 17.2739 344.104 17.19C344.699 17.1093 345.227 17.2556 345.69 17.6288C346.176 17.9988 346.461 18.493 346.545 19.1113C346.628 19.7297 346.485 20.2819 346.115 20.7681C345.769 21.251 345.299 21.5328 344.704 21.6135ZM346.705 24.5754L349.357 44.1244L346.11 44.5648L343.458 25.0158L346.705 24.5754Z" fill="#F1F1F1"/>
<path d="M364.641 21.8298C367.036 21.6725 369.024 22.2756 370.604 23.6389C372.183 24.9783 373.063 27.013 373.242 29.7431L374.004 41.3461L370.771 41.5585L370.04 30.4225C369.911 28.4587 369.321 26.9942 368.272 26.0289C367.221 25.0396 365.845 24.6009 364.145 24.7125C362.42 24.8258 361.079 25.4551 360.12 26.6004C359.185 27.7441 358.785 29.3458 358.92 31.4053L359.635 42.2899L356.366 42.5046L355.073 22.819L358.342 22.6043L358.526 25.4063C359.107 24.358 359.93 23.5222 360.995 22.8991C362.085 22.2743 363.3 21.9179 364.641 21.8298Z" fill="#F1F1F1"/>
<path d="M392.997 20.073C394.7 20.0927 396.184 20.4819 397.447 21.2406C398.735 21.9996 399.684 22.9466 400.295 24.0818L400.336 20.482L403.648 20.5204L403.415 40.679C403.394 42.4789 402.991 44.0703 402.207 45.4533C401.423 46.8604 400.306 47.9515 398.857 48.7268C397.432 49.5023 395.772 49.8791 393.876 49.8572C391.284 49.8271 389.131 49.1902 387.417 47.9462C385.704 46.7023 384.703 45.0226 384.416 42.9071L387.655 42.9447C388.001 44.1487 388.734 45.1173 389.854 45.8503C390.973 46.6073 392.325 46.995 393.909 47.0133C395.709 47.0342 397.179 46.4872 398.32 45.3723C399.485 44.2577 400.079 42.6805 400.103 40.6406L400.151 36.5009C399.49 37.6453 398.518 38.5942 397.238 39.3474C395.957 40.1006 394.465 40.4673 392.761 40.4476C391.009 40.4273 389.418 39.9769 387.988 39.0963C386.582 38.2159 385.48 36.9911 384.682 35.4217C383.884 33.8524 383.497 32.0718 383.52 30.0799C383.543 28.064 383.972 26.3049 384.805 24.8024C385.639 23.276 386.769 22.101 388.194 21.2774C389.644 20.4542 391.245 20.0527 392.997 20.073ZM400.223 30.3093C400.24 28.8214 399.955 27.5221 399.368 26.4112C398.78 25.3003 397.974 24.4509 396.949 23.863C395.948 23.2514 394.836 22.9385 393.612 22.9243C392.388 22.9101 391.268 23.1852 390.254 23.7495C389.239 24.3138 388.426 25.1444 387.813 26.2414C387.2 27.3383 386.885 28.6308 386.868 30.1187C386.85 31.6306 387.135 32.954 387.722 34.0888C388.309 35.1997 389.103 36.061 390.104 36.6726C391.105 37.2602 392.218 37.5611 393.442 37.5753C394.666 37.5895 395.785 37.3144 396.8 36.7501C397.839 36.1621 398.664 35.3196 399.277 34.2227C399.89 33.1017 400.205 31.7972 400.223 30.3093Z" fill="#F1F1F1"/>
<path d="M466.453 20.56L462.066 45.0828L458.841 44.506L462.112 26.2202L450.691 43.0481L448.423 42.6424L443.514 22.8569L440.237 41.1781L437.012 40.6013L441.398 16.0785L444.871 16.6997L450.317 38.5927L463.015 19.9452L466.453 20.56Z" fill="#F1F1F1"/>
<path d="M471.143 35.8038C471.64 33.8502 472.471 32.2415 473.635 30.9778C474.805 29.6908 476.18 28.8151 477.759 28.3506C479.362 27.8921 481.012 27.8791 482.71 28.3117C484.385 28.7383 485.746 29.4691 486.795 30.5041C487.844 31.539 488.532 32.6801 488.858 33.9272L489.747 30.4387L492.956 31.2563L488.086 50.3737L484.877 49.556L485.783 45.9977C484.871 46.9541 483.692 47.6444 482.246 48.0687C480.83 48.4756 479.296 48.4688 477.645 48.0481C475.947 47.6156 474.519 46.8059 473.36 45.6191C472.201 44.4322 471.419 42.9822 471.013 41.2691C470.608 39.5559 470.651 37.7342 471.143 35.8038ZM487.321 39.9625C487.688 38.5205 487.717 37.1906 487.408 35.9726C487.099 34.7547 486.516 33.7392 485.658 32.9263C484.83 32.096 483.822 31.5298 482.636 31.2276C481.45 30.9254 480.297 30.929 479.178 31.2383C478.059 31.5477 477.073 32.1632 476.219 33.0849C475.365 34.0066 474.754 35.1884 474.387 36.6304C474.014 38.0956 473.978 39.4488 474.281 40.69C474.59 41.9079 475.159 42.932 475.988 43.7623C476.822 44.5693 477.833 45.1239 479.019 45.4261C480.205 45.7283 481.358 45.7247 482.477 45.4154C483.625 45.0887 484.626 44.4645 485.48 43.5428C486.34 42.5979 486.953 41.4044 487.321 39.9625Z" fill="#F1F1F1"/>
<path d="M503.398 37.1955C504.274 36.2804 505.307 35.6755 506.498 35.3809C507.711 35.0931 509.054 35.1697 510.525 35.6107L509.554 38.8522L508.726 38.6042C505.209 37.5501 502.878 38.9313 501.735 42.7476L498.655 53.0241L495.517 52.0837L501.18 33.186L504.318 34.1264L503.398 37.1955Z" fill="#F1F1F1"/>
<path d="M521.181 60.0669L516.873 49.2389L513.904 57.4296L510.824 56.3133L519.902 31.2675L522.981 32.3837L517.646 47.1066L527.768 41.4704L532.066 43.0282L519.985 49.1033L525.378 61.5879L521.181 60.0669Z" fill="#F1F1F1"/>
<path d="M548.745 59.344C548.496 59.9159 548.199 60.5065 547.854 61.1156L533.402 54.811C532.734 56.6408 532.73 58.3016 533.389 59.7933C534.079 61.2726 535.216 62.3577 536.799 63.0486C538.097 63.6148 539.305 63.7881 540.422 63.5684C541.57 63.3363 542.541 62.791 543.335 61.9326L546.569 63.3433C545.326 64.87 543.74 65.8667 541.808 66.3332C539.886 66.7778 537.847 66.5298 535.691 65.5894C533.975 64.8409 532.603 63.7842 531.575 62.4193C530.569 61.064 529.988 59.5145 529.833 57.7708C529.686 56.005 530.021 54.1873 530.837 52.3174C531.653 50.4476 532.741 48.9719 534.103 47.8903C535.466 46.8087 536.981 46.1866 538.649 46.024C540.349 45.849 542.078 46.1454 543.838 46.9131C545.554 47.6616 546.909 48.6977 547.902 50.0214C548.896 51.3451 549.457 52.8204 549.585 54.4474C549.745 56.0619 549.465 57.6941 548.745 59.344ZM545.917 57.364C546.416 56.2201 546.59 55.1308 546.439 54.0962C546.298 53.0395 545.878 52.1103 545.181 51.3085C544.515 50.4943 543.654 49.8569 542.598 49.3963C541.08 48.7341 539.571 48.6519 538.071 49.1496C536.593 49.6569 535.402 50.7349 534.5 52.3836L545.917 57.364Z" fill="#F1F1F1"/>
<path d="M561.064 57.7169L555.983 68.1758C555.563 69.0393 555.448 69.7437 555.636 70.289C555.836 70.8126 556.388 71.2947 557.295 71.7352L559.465 72.7893L558.253 75.2826L555.598 73.9926C553.957 73.1955 552.91 72.2199 552.457 71.0658C552.004 69.9117 552.197 68.4711 553.036 66.7442L558.118 56.2853L555.819 55.1683L556.998 52.7398L559.297 53.8568L561.469 49.3882L564.415 50.8199L562.244 55.2884L566.875 57.5381L565.695 59.9667L561.064 57.7169Z" fill="#F1F1F1"/>
<path d="M583.081 88.2491L583.241 76.3767L579.847 74.3375L574.563 83.1326L571.755 81.4457L584.676 59.9362L591.619 64.1073C593.245 65.0836 594.446 66.1832 595.223 67.4061C596.021 68.6413 596.414 69.8989 596.401 71.179C596.388 72.459 596.016 73.706 595.287 74.9198C594.398 76.4011 593.181 77.4479 591.637 78.0604C590.114 78.6852 588.387 78.6699 586.457 78.0145L586.444 90.2698L583.081 88.2491ZM581.2 72.0847L585.335 74.5688C586.858 75.4834 588.222 75.799 589.428 75.5156C590.646 75.2116 591.633 74.4322 592.386 73.1772C593.153 71.9017 593.365 70.6855 593.024 69.5287C592.704 68.3843 591.772 67.3487 590.229 66.4218L586.094 63.9377L581.2 72.0847Z" fill="#F1F1F1"/>
<path d="M612.652 94.3402C612.296 94.8528 611.89 95.3743 611.434 95.905L598.482 86.9113C597.472 88.5765 597.145 90.2047 597.501 91.796C597.89 93.3812 598.795 94.6667 600.214 95.6523C601.377 96.4599 602.528 96.8645 603.666 96.8662C604.838 96.8617 605.896 96.5156 606.842 95.8279L609.739 97.8401C608.224 99.0963 606.474 99.7655 604.488 99.8477C602.517 99.9102 600.565 99.2707 598.633 97.9291C597.095 96.8614 595.955 95.5582 595.212 94.0195C594.488 92.4945 594.22 90.8616 594.406 89.1209C594.606 87.3604 595.287 85.6424 596.451 83.9667C597.614 82.2911 598.969 81.0552 600.516 80.259C602.062 79.4627 603.669 79.147 605.337 79.3118C607.039 79.4705 608.678 80.0975 610.255 81.1926C611.792 82.2603 612.92 83.54 613.637 85.0316C614.355 86.5232 614.618 88.0794 614.428 89.7002C614.27 91.3151 613.679 92.8617 612.652 94.3402ZM610.262 91.8482C610.974 90.8231 611.357 89.7885 611.41 88.7442C611.477 87.6803 611.246 86.6873 610.717 85.7652C610.222 84.837 609.502 84.0444 608.555 83.3873C607.195 82.4428 605.731 82.0689 604.163 82.2655C602.614 82.4758 601.237 83.3018 600.031 84.7437L610.262 91.8482Z" fill="#F1F1F1"/>
<path d="M617.112 110.766C615.919 109.837 615.004 108.805 614.367 107.67C613.745 106.516 613.439 105.365 613.45 104.218C613.477 103.052 613.83 101.974 614.51 100.983L617.18 103.062C616.651 103.897 616.517 104.812 616.777 105.806C617.057 106.814 617.726 107.731 618.787 108.557C619.771 109.324 620.717 109.711 621.624 109.718C622.532 109.725 623.243 109.397 623.759 108.734C624.29 108.052 624.378 107.315 624.023 106.521C623.683 105.708 623.003 104.647 621.986 103.337C621.067 102.134 620.356 101.094 619.853 100.216C619.385 99.3336 619.121 98.383 619.063 97.3642C619.038 96.3412 619.417 95.3279 620.198 94.3244C620.818 93.5292 621.622 92.9845 622.612 92.6905C623.601 92.3965 624.679 92.3994 625.845 92.6991C627.026 92.9798 628.175 93.5553 629.292 94.4254C631.015 95.7674 632.067 97.2869 632.449 98.9837C632.831 100.681 632.47 102.316 631.366 103.89L628.781 101.877C629.359 101.018 629.536 100.107 629.314 99.1426C629.11 98.1931 628.507 97.3276 627.503 96.5459C626.575 95.8233 625.682 95.447 624.823 95.4169C623.964 95.3868 623.284 95.6937 622.783 96.3375C622.385 96.8487 622.214 97.4001 622.27 97.9916C622.36 98.5789 622.57 99.1685 622.901 99.7602C623.264 100.348 623.795 101.111 624.493 102.05C625.375 103.223 626.047 104.234 626.512 105.083C626.991 105.913 627.249 106.813 627.284 107.783C627.338 108.768 627.006 109.741 626.287 110.703C625.624 111.555 624.79 112.137 623.785 112.45C622.781 112.763 621.689 112.779 620.508 112.499C619.361 112.214 618.229 111.636 617.112 110.766Z" fill="#F1F1F1"/>
<path d="M648.355 122.009C647.941 122.475 647.475 122.944 646.958 123.416L635.18 112.933C633.977 114.465 633.457 116.042 633.619 117.665C633.816 119.285 634.559 120.67 635.85 121.819C636.908 122.76 638.002 123.3 639.132 123.438C640.295 123.575 641.388 123.358 642.409 122.789L645.044 125.134C643.389 126.199 641.571 126.654 639.59 126.497C637.625 126.322 635.764 125.453 634.007 123.89C632.609 122.645 631.633 121.214 631.08 119.598C630.545 117.997 630.474 116.344 630.868 114.638C631.277 112.914 632.16 111.29 633.516 109.766C634.873 108.242 636.366 107.178 637.997 106.573C639.628 105.968 641.261 105.848 642.897 106.211C644.567 106.573 646.119 107.392 647.553 108.669C648.952 109.913 649.918 111.319 650.451 112.886C650.984 114.453 651.059 116.029 650.675 117.616C650.325 119.2 649.552 120.664 648.355 122.009ZM646.282 119.248C647.112 118.316 647.616 117.335 647.794 116.304C647.988 115.256 647.878 114.242 647.464 113.264C647.084 112.283 646.464 111.409 645.603 110.644C644.366 109.543 642.957 108.996 641.377 109.003C639.814 109.026 638.348 109.68 636.978 110.967L646.282 119.248Z" fill="#F1F1F1"/>
<path d="M653.174 126.231C654.62 124.826 656.169 123.89 657.822 123.422C659.493 122.937 661.122 122.91 662.712 123.34C664.318 123.788 665.731 124.64 666.952 125.897C668.156 127.136 668.934 128.471 669.286 129.902C669.639 131.333 669.628 132.665 669.254 133.899L671.836 131.39L674.144 133.766L659.993 147.512L657.685 145.136L660.319 142.577C659.041 142.915 657.675 142.887 656.221 142.492C654.801 142.098 653.498 141.29 652.311 140.068C651.09 138.811 650.296 137.374 649.929 135.756C649.562 134.139 649.654 132.494 650.205 130.821C650.755 129.149 651.745 127.619 653.174 126.231ZM664.786 138.238C665.854 137.201 666.574 136.083 666.948 134.883C667.322 133.684 667.356 132.513 667.05 131.372C666.778 130.231 666.216 129.221 665.363 128.343C664.51 127.465 663.526 126.865 662.41 126.543C661.295 126.222 660.132 126.23 658.922 126.569C657.712 126.908 656.574 127.596 655.506 128.633C654.422 129.686 653.684 130.821 653.293 132.037C652.919 133.237 652.868 134.407 653.14 135.548C653.429 136.673 654 137.674 654.853 138.552C655.706 139.43 656.69 140.03 657.805 140.351C658.955 140.674 660.135 140.665 661.345 140.326C662.572 139.971 663.719 139.275 664.786 138.238Z" fill="#F1F1F1"/>
<path d="M679.345 143.685C680.569 143.361 681.766 143.384 682.935 143.754C684.121 144.141 685.226 144.907 686.252 146.051L683.732 148.31L683.155 147.666C680.704 144.932 677.995 144.895 675.029 147.554L667.041 154.716L664.854 152.276L679.543 139.107L681.73 141.547L679.345 143.685Z" fill="#F1F1F1"/>
<path d="M681.843 155.529C683.443 154.264 685.089 153.483 686.781 153.185C688.492 152.872 690.124 153.02 691.676 153.629C693.243 154.256 694.607 155.304 695.768 156.773C697.271 158.674 698.046 160.601 698.091 162.555C698.151 164.526 697.518 166.358 696.193 168.048L694.004 165.281C694.737 164.273 695.072 163.167 695.007 161.963C694.958 160.779 694.487 159.622 693.594 158.492C692.432 157.024 690.986 156.239 689.255 156.14C687.543 156.025 685.764 156.697 683.919 158.156C682.056 159.629 680.973 161.22 680.67 162.927C680.368 164.635 680.798 166.223 681.959 167.691C682.852 168.821 683.86 169.554 684.982 169.89C686.105 170.226 687.267 170.148 688.47 169.657L690.658 172.424C688.749 173.26 686.823 173.437 684.88 172.953C682.957 172.455 681.258 171.274 679.784 169.41C678.623 167.942 677.918 166.373 677.669 164.704C677.435 163.053 677.667 161.431 678.366 159.839C679.065 158.246 680.224 156.809 681.843 155.529Z" fill="#F1F1F1"/>
<path d="M711.965 177.382C712.805 178.61 713.296 179.903 713.438 181.259C713.6 182.602 713.346 183.909 712.675 185.182C712.017 186.475 710.936 187.635 709.43 188.665L699.831 195.227L698.002 192.552L707.215 186.254C708.84 185.144 709.801 183.891 710.097 182.496C710.414 181.088 710.091 179.68 709.129 178.274C708.154 176.847 706.93 176.013 705.456 175.77C703.995 175.547 702.413 176.019 700.709 177.183L691.704 183.339L689.855 180.635L711.848 165.601L713.697 168.305L705.672 173.791C706.87 173.757 708.015 174.049 709.107 174.669C710.213 175.309 711.166 176.213 711.965 177.382Z" fill="#F1F1F1"/>
<path d="M730.314 234.924L725.531 225.08L719.631 225.706L718.121 222.597L744.525 219.855L746.177 223.254L727.686 242.284L726.176 239.176L730.314 234.924ZM732.301 232.918L741.717 223.3L728.336 224.758L732.301 232.918Z" fill="#F1F1F1"/>
<path d="M740.122 243.483C741.996 242.739 743.786 242.468 745.493 242.669C747.221 242.861 748.737 243.46 750.04 244.467C751.352 245.495 752.335 246.835 752.99 248.486C753.557 249.914 753.749 251.374 753.566 252.866C753.406 254.35 752.919 255.628 752.105 256.699L761.809 252.849L763.03 255.928L738.268 265.752L737.047 262.674L740.493 261.306C739.161 261.138 737.904 260.604 736.721 259.705C735.56 258.797 734.666 257.551 734.037 255.967C733.391 254.338 733.204 252.696 733.476 251.038C733.757 249.404 734.472 247.919 735.621 246.586C736.77 245.252 738.271 244.218 740.122 243.483ZM746.249 259.023C747.632 258.474 748.726 257.717 749.531 256.752C750.336 255.787 750.816 254.719 750.971 253.548C751.157 252.389 751.024 251.241 750.572 250.104C750.121 248.966 749.442 248.035 748.535 247.31C747.627 246.586 746.55 246.148 745.303 245.998C744.055 245.847 742.74 246.046 741.357 246.595C739.951 247.153 738.835 247.918 738.008 248.892C737.203 249.857 736.708 250.918 736.522 252.077C736.358 253.226 736.502 254.369 736.953 255.507C737.405 256.645 738.084 257.576 738.991 258.301C739.929 259.038 741.022 259.483 742.27 259.633C743.539 259.775 744.866 259.572 746.249 259.023Z" fill="#F1F1F1"/>
<path d="M746.372 277.949L764.152 278.547L765.242 281.864L744.084 280.672L742.892 277.046L759.217 263.533L760.318 266.885L746.372 277.949Z" fill="#F1F1F1"/>
<path d="M763.546 308.14C762.941 308.294 762.293 308.422 761.601 308.524L757.708 293.245C755.854 293.841 754.54 294.857 753.766 296.292C753.022 297.745 752.863 299.308 753.29 300.983C753.639 302.355 754.244 303.415 755.103 304.162C755.991 304.926 757.017 305.358 758.182 305.458L759.053 308.876C757.085 308.833 755.324 308.192 753.77 306.953C752.24 305.708 751.184 303.946 750.603 301.667C750.141 299.853 750.134 298.121 750.58 296.472C751.033 294.846 751.9 293.436 753.181 292.243C754.485 291.044 756.126 290.193 758.102 289.689C760.079 289.185 761.913 289.139 763.603 289.551C765.293 289.963 766.714 290.777 767.866 291.994C769.047 293.229 769.875 294.776 770.349 296.637C770.811 298.451 770.824 300.156 770.389 301.753C769.954 303.35 769.133 304.698 767.928 305.798C766.751 306.915 765.29 307.696 763.546 308.14ZM763.374 304.692C764.583 304.384 765.55 303.853 766.274 303.099C767.021 302.339 767.498 301.437 767.703 300.394C767.937 299.369 767.911 298.298 767.627 297.182C767.218 295.577 766.357 294.335 765.043 293.456C763.736 292.601 762.154 292.322 760.298 292.622L763.374 304.692Z" fill="#F1F1F1"/>
<path d="M771.388 314.854C772.611 315.18 773.639 315.795 774.471 316.696C775.308 317.621 775.887 318.835 776.209 320.336L772.901 321.046L772.719 320.202C771.949 316.611 769.616 315.234 765.721 316.07L755.232 318.321L754.544 315.118L773.833 310.979L774.52 314.182L771.388 314.854Z" fill="#F1F1F1"/>
<path d="M775.362 331.116L763.901 333.075C762.955 333.237 762.315 333.553 761.981 334.024C761.672 334.491 761.602 335.222 761.772 336.215L762.178 338.593L759.446 339.06L758.948 336.15C758.641 334.352 758.824 332.933 759.498 331.892C760.173 330.852 761.456 330.17 763.349 329.846L774.81 327.886L774.38 325.367L777.041 324.912L777.472 327.431L782.369 326.594L782.921 329.823L778.024 330.661L778.892 335.735L776.23 336.19L775.362 331.116Z" fill="#F1F1F1"/>
<path d="M783.109 341.353C783.018 340.735 783.155 340.181 783.519 339.691C783.884 339.201 784.375 338.91 784.992 338.819C785.609 338.728 786.163 338.865 786.653 339.229C787.144 339.593 787.434 340.084 787.525 340.702C787.613 341.295 787.473 341.825 787.105 342.292C786.741 342.782 786.25 343.073 785.632 343.164C785.015 343.255 784.461 343.118 783.971 342.754C783.484 342.413 783.197 341.946 783.109 341.353ZM780.17 343.387L760.653 346.264L760.176 343.023L779.693 340.146L780.17 343.387Z" fill="#F1F1F1"/>
<path d="M762.421 360.956C762.287 359.45 762.418 358.077 762.814 356.837C763.234 355.595 763.867 354.587 764.714 353.813C765.584 353.036 766.614 352.559 767.803 352.381L768.103 355.752C767.131 355.935 766.371 356.46 765.821 357.328C765.274 358.22 765.06 359.336 765.179 360.674C765.29 361.917 765.652 362.873 766.266 363.541C766.879 364.21 767.604 364.507 768.441 364.432C769.302 364.356 769.901 363.917 770.239 363.116C770.602 362.312 770.915 361.092 771.179 359.454C771.432 357.962 771.708 356.732 772.007 355.766C772.333 354.822 772.849 353.981 773.554 353.243C774.285 352.528 775.285 352.113 776.552 352.001C777.556 351.912 778.503 352.128 779.393 352.652C780.282 353.175 781.015 353.965 781.591 355.022C782.191 356.077 782.554 357.31 782.679 358.72C782.872 360.896 782.479 362.702 781.498 364.138C780.518 365.575 779.075 366.426 777.171 366.692L776.881 363.429C777.903 363.265 778.69 362.774 779.244 361.953C779.8 361.157 780.021 360.125 779.908 358.858C779.804 357.687 779.47 356.777 778.907 356.128C778.343 355.48 777.655 355.192 776.842 355.264C776.196 355.321 775.677 355.572 775.282 356.017C774.914 356.483 774.626 357.039 774.419 357.684C774.237 358.351 774.041 359.26 773.83 360.411C773.573 361.855 773.292 363.037 772.989 363.955C772.709 364.872 772.226 365.674 771.54 366.361C770.856 367.073 769.918 367.493 768.725 367.624C767.649 367.719 766.654 367.506 765.741 366.985C764.827 366.464 764.07 365.676 763.47 364.621C762.896 363.588 762.547 362.366 762.421 360.956Z" fill="#F1F1F1"/>
<path d="M775.47 391.627C774.846 391.642 774.186 391.621 773.488 391.565L773.123 375.801C771.182 375.966 769.674 376.662 768.598 377.887C767.547 379.135 767.041 380.624 767.081 382.351C767.114 383.767 767.465 384.935 768.135 385.856C768.829 386.8 769.732 387.451 770.845 387.809L770.926 391.336C769.019 390.853 767.447 389.833 766.21 388.277C764.998 386.721 764.364 384.767 764.31 382.415C764.267 380.544 764.648 378.855 765.453 377.347C766.259 375.864 767.42 374.685 768.936 373.81C770.476 372.934 772.266 372.472 774.305 372.425C776.345 372.378 778.142 372.744 779.696 373.525C781.251 374.305 782.453 375.417 783.302 376.862C784.177 378.33 784.636 380.024 784.68 381.943C784.724 383.815 784.354 385.48 783.572 386.938C782.789 388.397 781.687 389.527 780.265 390.328C778.868 391.153 777.27 391.586 775.47 391.627ZM776.076 388.228C777.323 388.199 778.385 387.899 779.26 387.326C780.159 386.753 780.825 385.982 781.259 385.012C781.717 384.065 781.933 383.015 781.906 381.864C781.868 380.208 781.307 378.805 780.224 377.653C779.142 376.526 777.663 375.9 775.787 375.776L776.076 388.228Z" fill="#F1F1F1"/>
</svg>
