<svg width="1605" height="174" viewBox="0 0 1605 174" fill="none" xmlns="http://www.w3.org/2000/svg">
<path d="M2.37 142L39.184 33.296H69.204L106.018 142H83.108L75.05 117.984H32.548L24.806 142H2.37ZM38.236 99.814H69.204L54.194 53.678H53.246L38.236 99.814ZM177.216 142L150.988 33.296H173.424L192.542 115.93H193.332L214.346 33.296H237.73L259.06 115.93H259.85L277.704 33.296H300.14L273.754 142H245.788L225.88 66.002H225.09L205.182 142H177.216ZM316.612 142V33.296H390.872V51.624H339.048V78.01H383.446V96.338H339.048V123.672H390.872V142H316.612ZM412.585 142V33.296H465.673C472.73 33.296 478.471 34.3493 482.895 36.456C487.424 38.4573 490.742 41.512 492.849 45.62C495.061 49.6227 496.167 54.626 496.167 60.63C496.167 65.5807 495.482 69.794 494.113 73.27C492.744 76.746 490.69 79.5373 487.951 81.644C485.212 83.7507 481.684 85.278 477.365 86.226V86.858C482.21 87.806 486.055 89.386 488.899 91.598C491.848 93.7047 493.955 96.5487 495.219 100.13C496.483 103.606 497.115 107.977 497.115 113.244C497.115 117.563 496.588 121.513 495.535 125.094C494.482 128.57 492.744 131.572 490.321 134.1C488.004 136.628 484.844 138.577 480.841 139.946C476.838 141.315 471.835 142 465.831 142H412.585ZM435.021 123.988H458.405C462.618 123.988 465.936 123.619 468.359 122.882C470.782 122.039 472.414 120.617 473.257 118.616C474.205 116.509 474.679 113.613 474.679 109.926C474.679 106.345 474.205 103.553 473.257 101.552C472.309 99.4453 470.624 97.9707 468.201 97.128C465.884 96.2853 462.618 95.864 458.405 95.864H435.021V123.988ZM435.021 78.168H457.615C461.618 78.168 464.778 77.7467 467.095 76.904C469.518 76.0613 471.203 74.692 472.151 72.796C473.204 70.7947 473.731 68.214 473.731 65.054C473.731 61.3673 473.257 58.576 472.309 56.68C471.466 54.6787 469.886 53.3093 467.569 52.572C465.357 51.8347 462.039 51.466 457.615 51.466H435.021V78.168ZM557.44 143.264C553.437 143.264 549.013 143.159 544.168 142.948C539.428 142.737 534.793 142.421 530.264 142C525.735 141.684 521.574 141.315 517.782 140.894V123.04C521.679 123.356 525.629 123.672 529.632 123.988C533.74 124.304 537.637 124.567 541.324 124.778C545.011 124.883 548.171 124.936 550.804 124.936C556.176 124.936 560.337 124.725 563.286 124.304C566.235 123.777 568.447 123.04 569.922 122.092C571.081 121.249 571.871 120.354 572.292 119.406C572.713 118.353 572.977 117.141 573.082 115.772C573.187 114.297 573.24 112.665 573.24 110.874C573.24 108.451 573.082 106.45 572.766 104.87C572.555 103.29 572.134 102.079 571.502 101.236C570.87 100.288 569.817 99.6033 568.342 99.182C566.973 98.7607 565.182 98.4447 562.97 98.234L538.638 95.232C533.793 94.6 529.79 93.494 526.63 91.914C523.575 90.334 521.153 88.2273 519.362 85.594C517.571 82.9607 516.307 79.8533 515.57 76.272C514.938 72.6907 514.622 68.6353 514.622 64.106C514.622 56.9433 515.623 51.2553 517.624 47.042C519.625 42.8287 522.417 39.616 525.998 37.404C529.685 35.192 534.003 33.77 538.954 33.138C543.905 32.4007 549.277 32.032 555.07 32.032C559.283 32.032 563.602 32.19 568.026 32.506C572.45 32.7167 576.611 33.0327 580.508 33.454C584.405 33.8753 587.671 34.402 590.304 35.034V52.414C587.671 51.9927 584.616 51.624 581.14 51.308C577.664 50.992 574.03 50.7813 570.238 50.676C566.446 50.4653 562.865 50.36 559.494 50.36C554.543 50.36 550.593 50.5707 547.644 50.992C544.8 51.308 542.588 51.8873 541.008 52.73C539.217 53.7833 538.111 55.1527 537.69 56.838C537.374 58.5233 537.216 60.63 537.216 63.158C537.216 66.318 537.427 68.7407 537.848 70.426C538.269 72.006 539.27 73.112 540.85 73.744C542.43 74.376 544.905 74.9027 548.276 75.324L572.608 78.168C575.557 78.484 578.296 79.0107 580.824 79.748C583.352 80.4853 585.617 81.644 587.618 83.224C589.619 84.804 591.252 87.016 592.516 89.86C593.253 91.3347 593.833 93.0727 594.254 95.074C594.675 96.97 594.991 99.1293 595.202 101.552C595.518 103.975 595.676 106.661 595.676 109.61C595.676 115.719 595.044 120.828 593.78 124.936C592.621 129.044 590.936 132.309 588.724 134.732C586.512 137.155 583.773 138.998 580.508 140.262C577.348 141.526 573.819 142.316 569.922 142.632C566.025 143.053 561.864 143.264 557.44 143.264ZM617.183 142V33.296H639.619V142H617.183ZM687.281 142V52.256H655.839V33.296H741.159V52.256H709.717V142H687.281ZM757.438 142V33.296H831.698V51.624H779.874V78.01H824.272V96.338H779.874V123.672H831.698V142H757.438Z" fill="#F1F1F1"/>
</svg>
