<svg width="340" height="51" viewBox="0 0 340 51" fill="none" xmlns="http://www.w3.org/2000/svg">
<path d="M48.3453 42L59.0633 10.352H67.8033L78.5213 42H71.8513L69.5053 35.008H57.1313L54.8773 42H48.3453ZM58.7873 29.718H67.8033L63.4333 16.286H63.1573L58.7873 29.718ZM99.2497 42L91.6137 10.352H98.1457L103.712 34.41H103.942L110.06 10.352H116.868L123.078 34.41H123.308L128.506 10.352H135.038L127.356 42H119.214L113.418 19.874H113.188L107.392 42H99.2497ZM139.834 42V10.352H161.454V15.688H146.366V23.37H159.292V28.706H146.366V36.664H161.454V42H139.834ZM167.775 42V10.352H183.231C185.286 10.352 186.957 10.6587 188.245 11.272C189.564 11.8547 190.53 12.744 191.143 13.94C191.787 15.1053 192.109 16.562 192.109 18.31C192.109 19.7513 191.91 20.978 191.511 21.99C191.112 23.002 190.514 23.8147 189.717 24.428C188.92 25.0413 187.892 25.486 186.635 25.762V25.946C188.046 26.222 189.165 26.682 189.993 27.326C190.852 27.9393 191.465 28.7673 191.833 29.81C192.201 30.822 192.385 32.0947 192.385 33.628C192.385 34.8853 192.232 36.0353 191.925 37.078C191.618 38.09 191.112 38.964 190.407 39.7C189.732 40.436 188.812 41.0033 187.647 41.402C186.482 41.8007 185.025 42 183.277 42H167.775ZM174.307 36.756H181.115C182.342 36.756 183.308 36.6487 184.013 36.434C184.718 36.1887 185.194 35.7747 185.439 35.192C185.715 34.5787 185.853 33.7353 185.853 32.662C185.853 31.6193 185.715 30.8067 185.439 30.224C185.163 29.6107 184.672 29.1813 183.967 28.936C183.292 28.6907 182.342 28.568 181.115 28.568H174.307V36.756ZM174.307 23.416H180.885C182.05 23.416 182.97 23.2933 183.645 23.048C184.35 22.8027 184.841 22.404 185.117 21.852C185.424 21.2693 185.577 20.518 185.577 19.598C185.577 18.5247 185.439 17.712 185.163 17.16C184.918 16.5773 184.458 16.1787 183.783 15.964C183.139 15.7493 182.173 15.642 180.885 15.642H174.307V23.416ZM209.948 42.368C208.783 42.368 207.495 42.3373 206.084 42.276C204.704 42.2147 203.355 42.1227 202.036 42C200.717 41.908 199.506 41.8007 198.402 41.678V36.48C199.537 36.572 200.687 36.664 201.852 36.756C203.048 36.848 204.183 36.9247 205.256 36.986C206.329 37.0167 207.249 37.032 208.016 37.032C209.58 37.032 210.791 36.9707 211.65 36.848C212.509 36.6947 213.153 36.48 213.582 36.204C213.919 35.9587 214.149 35.698 214.272 35.422C214.395 35.1153 214.471 34.7627 214.502 34.364C214.533 33.9347 214.548 33.4593 214.548 32.938C214.548 32.2327 214.502 31.65 214.41 31.19C214.349 30.73 214.226 30.3773 214.042 30.132C213.858 29.856 213.551 29.6567 213.122 29.534C212.723 29.4113 212.202 29.3193 211.558 29.258L204.474 28.384C203.063 28.2 201.898 27.878 200.978 27.418C200.089 26.958 199.383 26.3447 198.862 25.578C198.341 24.8113 197.973 23.9067 197.758 22.864C197.574 21.8213 197.482 20.6407 197.482 19.322C197.482 17.2367 197.773 15.5807 198.356 14.354C198.939 13.1273 199.751 12.192 200.794 11.548C201.867 10.904 203.125 10.49 204.566 10.306C206.007 10.0913 207.571 9.984 209.258 9.984C210.485 9.984 211.742 10.03 213.03 10.122C214.318 10.1833 215.529 10.2753 216.664 10.398C217.799 10.5207 218.749 10.674 219.516 10.858V15.918C218.749 15.7953 217.86 15.688 216.848 15.596C215.836 15.504 214.778 15.4427 213.674 15.412C212.57 15.3507 211.527 15.32 210.546 15.32C209.105 15.32 207.955 15.3813 207.096 15.504C206.268 15.596 205.624 15.7647 205.164 16.01C204.643 16.3167 204.321 16.7153 204.198 17.206C204.106 17.6967 204.06 18.31 204.06 19.046C204.06 19.966 204.121 20.6713 204.244 21.162C204.367 21.622 204.658 21.944 205.118 22.128C205.578 22.312 206.299 22.4653 207.28 22.588L214.364 23.416C215.223 23.508 216.02 23.6613 216.756 23.876C217.492 24.0907 218.151 24.428 218.734 24.888C219.317 25.348 219.792 25.992 220.16 26.82C220.375 27.2493 220.543 27.7553 220.666 28.338C220.789 28.89 220.881 29.5187 220.942 30.224C221.034 30.9293 221.08 31.7113 221.08 32.57C221.08 34.3487 220.896 35.836 220.528 37.032C220.191 38.228 219.7 39.1787 219.056 39.884C218.412 40.5893 217.615 41.126 216.664 41.494C215.744 41.862 214.717 42.092 213.582 42.184C212.447 42.3067 211.236 42.368 209.948 42.368ZM227.341 42V10.352H233.873V42H227.341ZM247.75 42V15.872H238.596V10.352H263.436V15.872H254.282V42H247.75ZM268.175 42V10.352H289.795V15.688H274.707V23.37H287.633V28.706H274.707V36.664H289.795V42H268.175Z" fill="#F1F1F1"/>
</svg>
