<svg width="830" height="112" viewBox="0 0 830 112" fill="none" xmlns="http://www.w3.org/2000/svg">
<path d="M0.37 110L37.184 1.296H67.204L104.018 110H81.108L73.05 85.984H30.548L22.806 110H0.37ZM36.236 67.814H67.204L52.194 21.678H51.246L36.236 67.814ZM175.216 110L148.988 1.296H171.424L190.542 83.93H191.332L212.346 1.296H235.73L257.06 83.93H257.85L275.704 1.296H298.14L271.754 110H243.788L223.88 34.002H223.09L203.182 110H175.216ZM314.612 110V1.296H388.872V19.624H337.048V46.01H381.446V64.338H337.048V91.672H388.872V110H314.612ZM410.585 110V1.296H463.673C470.73 1.296 476.471 2.34933 480.895 4.45599C485.424 6.45733 488.742 9.51199 490.849 13.62C493.061 17.6227 494.167 22.626 494.167 28.63C494.167 33.5807 493.482 37.794 492.113 41.27C490.744 44.746 488.69 47.5373 485.951 49.644C483.212 51.7507 479.684 53.278 475.365 54.226V54.858C480.21 55.806 484.055 57.386 486.899 59.598C489.848 61.7047 491.955 64.5487 493.219 68.13C494.483 71.606 495.115 75.9773 495.115 81.244C495.115 85.5627 494.588 89.5127 493.535 93.094C492.482 96.57 490.744 99.572 488.321 102.1C486.004 104.628 482.844 106.577 478.841 107.946C474.838 109.315 469.835 110 463.831 110H410.585ZM433.021 91.988H456.405C460.618 91.988 463.936 91.6193 466.359 90.882C468.782 90.0393 470.414 88.6173 471.257 86.616C472.205 84.5093 472.679 81.6127 472.679 77.926C472.679 74.3447 472.205 71.5533 471.257 69.552C470.309 67.4453 468.624 65.9707 466.201 65.128C463.884 64.2853 460.618 63.864 456.405 63.864H433.021V91.988ZM433.021 46.168H455.615C459.618 46.168 462.778 45.7467 465.095 44.904C467.518 44.0613 469.203 42.692 470.151 40.796C471.204 38.7947 471.731 36.214 471.731 33.054C471.731 29.3673 471.257 26.576 470.309 24.68C469.466 22.6787 467.886 21.3093 465.569 20.572C463.357 19.8347 460.039 19.466 455.615 19.466H433.021V46.168ZM555.44 111.264C551.437 111.264 547.013 111.159 542.168 110.948C537.428 110.737 532.793 110.421 528.264 110C523.735 109.684 519.574 109.315 515.782 108.894V91.04C519.679 91.356 523.629 91.672 527.632 91.988C531.74 92.304 535.637 92.5673 539.324 92.778C543.011 92.8833 546.171 92.936 548.804 92.936C554.176 92.936 558.337 92.7253 561.286 92.304C564.235 91.7773 566.447 91.04 567.922 90.092C569.081 89.2493 569.871 88.354 570.292 87.406C570.713 86.3527 570.977 85.1413 571.082 83.772C571.187 82.2973 571.24 80.6647 571.24 78.874C571.24 76.4513 571.082 74.45 570.766 72.87C570.555 71.29 570.134 70.0787 569.502 69.236C568.87 68.288 567.817 67.6033 566.342 67.182C564.973 66.7607 563.182 66.4447 560.97 66.234L536.638 63.232C531.793 62.6 527.79 61.494 524.63 59.914C521.575 58.334 519.153 56.2273 517.362 53.594C515.571 50.9607 514.307 47.8533 513.57 44.272C512.938 40.6907 512.622 36.6353 512.622 32.106C512.622 24.9433 513.623 19.2553 515.624 15.042C517.625 10.8287 520.417 7.61599 523.998 5.40399C527.685 3.19199 532.003 1.77 536.954 1.138C541.905 0.400662 547.277 0.0319937 553.07 0.0319937C557.283 0.0319937 561.602 0.189995 566.026 0.505997C570.45 0.716661 574.611 1.03266 578.508 1.45399C582.405 1.87533 585.671 2.40199 588.304 3.03399V20.414C585.671 19.9927 582.616 19.624 579.14 19.308C575.664 18.992 572.03 18.7813 568.238 18.676C564.446 18.4653 560.865 18.36 557.494 18.36C552.543 18.36 548.593 18.5707 545.644 18.992C542.8 19.308 540.588 19.8873 539.008 20.73C537.217 21.7833 536.111 23.1527 535.69 24.838C535.374 26.5233 535.216 28.63 535.216 31.158C535.216 34.318 535.427 36.7407 535.848 38.426C536.269 40.006 537.27 41.112 538.85 41.744C540.43 42.376 542.905 42.9027 546.276 43.324L570.608 46.168C573.557 46.484 576.296 47.0107 578.824 47.748C581.352 48.4853 583.617 49.644 585.618 51.224C587.619 52.804 589.252 55.016 590.516 57.86C591.253 59.3347 591.833 61.0727 592.254 63.074C592.675 64.97 592.991 67.1293 593.202 69.552C593.518 71.9747 593.676 74.6607 593.676 77.61C593.676 83.7193 593.044 88.828 591.78 92.936C590.621 97.044 588.936 100.309 586.724 102.732C584.512 105.155 581.773 106.998 578.508 108.262C575.348 109.526 571.819 110.316 567.922 110.632C564.025 111.053 559.864 111.264 555.44 111.264ZM615.183 110V1.296H637.619V110H615.183ZM685.281 110V20.256H653.839V1.296H739.159V20.256H707.717V110H685.281ZM755.438 110V1.296H829.698V19.624H777.874V46.01H822.272V64.338H777.874V91.672H829.698V110H755.438Z" fill="#F1F1F1"/>
</svg>
