<svg width="1620" height="178" viewBox="0 0 1620 178" fill="none" xmlns="http://www.w3.org/2000/svg">
<path d="M2.37 142L39.184 33.296H69.204L106.018 142H83.108L75.05 117.984H32.548L24.806 142H2.37ZM38.236 99.814H69.204L54.194 53.678H53.246L38.236 99.814ZM177.216 142L150.988 33.296H173.424L192.542 115.93H193.332L214.346 33.296H237.73L259.06 115.93H259.85L277.704 33.296H300.14L273.754 142H245.788L225.88 66.002H225.09L205.182 142H177.216ZM316.612 142V33.296H390.872V51.624H339.048V78.01H383.446V96.338H339.048V123.672H390.872V142H316.612ZM412.585 142V33.296H465.673C472.73 33.296 478.471 34.3493 482.895 36.456C487.424 38.4573 490.742 41.512 492.849 45.62C495.061 49.6227 496.167 54.626 496.167 60.63C496.167 65.5807 495.482 69.794 494.113 73.27C492.744 76.746 490.69 79.5373 487.951 81.644C485.212 83.7507 481.684 85.278 477.365 86.226V86.858C482.21 87.806 486.055 89.386 488.899 91.598C491.848 93.7047 493.955 96.5487 495.219 100.13C496.483 103.606 497.115 107.977 497.115 113.244C497.115 117.563 496.588 121.513 495.535 125.094C494.482 128.57 492.744 131.572 490.321 134.1C488.004 136.628 484.844 138.577 480.841 139.946C476.838 141.315 471.835 142 465.831 142H412.585ZM435.021 123.988H458.405C462.618 123.988 465.936 123.619 468.359 122.882C470.782 122.039 472.414 120.617 473.257 118.616C474.205 116.509 474.679 113.613 474.679 109.926C474.679 106.345 474.205 103.553 473.257 101.552C472.309 99.4453 470.624 97.9707 468.201 97.128C465.884 96.2853 462.618 95.864 458.405 95.864H435.021V123.988ZM435.021 78.168H457.615C461.618 78.168 464.778 77.7467 467.095 76.904C469.518 76.0613 471.203 74.692 472.151 72.796C473.204 70.7947 473.731 68.214 473.731 65.054C473.731 61.3673 473.257 58.576 472.309 56.68C471.466 54.6787 469.886 53.3093 467.569 52.572C465.357 51.8347 462.039 51.466 457.615 51.466H435.021V78.168ZM519.204 142V33.296H541.64V142H519.204ZM605.735 143.264C601.732 143.264 597.308 143.159 592.463 142.948C587.723 142.737 583.088 142.421 578.559 142C574.03 141.684 569.869 141.315 566.077 140.894V123.04C569.974 123.356 573.924 123.672 577.927 123.988C582.035 124.304 585.932 124.567 589.619 124.778C593.306 124.883 596.466 124.936 599.099 124.936C604.471 124.936 608.632 124.725 611.581 124.304C614.53 123.777 616.742 123.04 618.217 122.092C619.376 121.249 620.166 120.354 620.587 119.406C621.008 118.353 621.272 117.141 621.377 115.772C621.482 114.297 621.535 112.665 621.535 110.874C621.535 108.451 621.377 106.45 621.061 104.87C620.85 103.29 620.429 102.079 619.797 101.236C619.165 100.288 618.112 99.6033 616.637 99.182C615.268 98.7607 613.477 98.4447 611.265 98.234L586.933 95.232C582.088 94.6 578.085 93.494 574.925 91.914C571.87 90.334 569.448 88.2273 567.657 85.594C565.866 82.9607 564.602 79.8533 563.865 76.272C563.233 72.6907 562.917 68.6353 562.917 64.106C562.917 56.9433 563.918 51.2553 565.919 47.042C567.92 42.8287 570.712 39.616 574.293 37.404C577.98 35.192 582.298 33.77 587.249 33.138C592.2 32.4007 597.572 32.032 603.365 32.032C607.578 32.032 611.897 32.19 616.321 32.506C620.745 32.7167 624.906 33.0327 628.803 33.454C632.7 33.8753 635.966 34.402 638.599 35.034V52.414C635.966 51.9927 632.911 51.624 629.435 51.308C625.959 50.992 622.325 50.7813 618.533 50.676C614.741 50.4653 611.16 50.36 607.789 50.36C602.838 50.36 598.888 50.5707 595.939 50.992C593.095 51.308 590.883 51.8873 589.303 52.73C587.512 53.7833 586.406 55.1527 585.985 56.838C585.669 58.5233 585.511 60.63 585.511 63.158C585.511 66.318 585.722 68.7407 586.143 70.426C586.564 72.006 587.565 73.112 589.145 73.744C590.725 74.376 593.2 74.9027 596.571 75.324L620.903 78.168C623.852 78.484 626.591 79.0107 629.119 79.748C631.647 80.4853 633.912 81.644 635.913 83.224C637.914 84.804 639.547 87.016 640.811 89.86C641.548 91.3347 642.128 93.0727 642.549 95.074C642.97 96.97 643.286 99.1293 643.497 101.552C643.813 103.975 643.971 106.661 643.971 109.61C643.971 115.719 643.339 120.828 642.075 124.936C640.916 129.044 639.231 132.309 637.019 134.732C634.807 137.155 632.068 138.998 628.803 140.262C625.643 141.526 622.114 142.316 618.217 142.632C614.32 143.053 610.159 143.264 605.735 143.264ZM687.281 142V52.256H655.839V33.296H741.159V52.256H709.717V142H687.281ZM757.438 142V33.296H831.698V51.624H779.874V78.01H824.272V96.338H779.874V123.672H831.698V142H757.438Z" fill="#F1F1F1"/>
</svg>
