<svg width="25" height="25" viewBox="0 0 25 25" fill="none" xmlns="http://www.w3.org/2000/svg">
<path d="M12.4997 22.9166C18.2288 22.9166 22.9163 18.2291 22.9163 12.5C22.9163 6.77081 18.2288 2.08331 12.4997 2.08331C6.77051 2.08331 2.08301 6.77081 2.08301 12.5C2.08301 18.2291 6.77051 22.9166 12.4997 22.9166ZM12.8122 7.59373C13.0205 7.40623 13.2705 7.29165 13.5413 7.29165C13.8226 7.29165 14.0622 7.40623 14.2809 7.59373C14.4788 7.81248 14.583 8.06248 14.583 8.33331C14.583 8.61456 14.4788 8.85415 14.2809 9.0729C14.0622 9.27081 13.8226 9.37498 13.5413 9.37498C13.2705 9.37498 13.0205 9.27081 12.8122 9.0729C12.6143 8.85415 12.4997 8.61456 12.4997 8.33331C12.4997 8.06248 12.6143 7.81248 12.8122 7.59373ZM10.208 12.4687C10.208 12.4687 12.4684 10.6771 13.2913 10.6041C14.0622 10.5416 13.9059 11.4271 13.833 11.8854L13.8226 11.9479C13.6768 12.5 13.4997 13.1666 13.3226 13.8021C12.9268 15.25 12.5413 16.6666 12.6351 16.9271C12.7393 17.2812 13.3851 16.8333 13.8538 16.5208C13.9163 16.4791 13.9684 16.4375 14.0205 16.4062C14.0205 16.4062 14.1038 16.3229 14.1872 16.4375C14.208 16.4687 14.2288 16.5 14.2497 16.5208C14.3434 16.6666 14.3955 16.7187 14.2705 16.8021L14.2288 16.8229C13.9997 16.9791 13.0205 17.6666 12.6247 17.9166C12.1976 18.1979 10.5622 19.1354 10.8122 17.3125C11.0309 16.0312 11.3226 14.9271 11.5518 14.0625C11.9788 12.5 12.1663 11.7916 11.208 12.4062C10.8226 12.6354 10.5934 12.7812 10.458 12.875C10.3434 12.9583 10.333 12.9583 10.2601 12.8229L10.2288 12.7604L10.1768 12.6771C10.1038 12.5729 10.1038 12.5625 10.208 12.4687Z" fill="#F1F1F1"/>
</svg>
